<?xml version="1.0" encoding="UTF-8"?>
<!DOCTYPE svg PUBLIC "-//W3C//DTD SVG 1.1//EN" "http://www.w3.org/Graphics/SVG/1.1/DTD/svg11.dtd">
<!-- Creator: CorelDRAW 2018 (64-Bit) -->
<svg xmlns="http://www.w3.org/2000/svg" xml:space="preserve" width="4.46333in" height="4.31203in" version="1.1" style="shape-rendering:geometricPrecision; text-rendering:geometricPrecision; image-rendering:optimizeQuality; fill-rule:evenodd; clip-rule:evenodd"
viewBox="0 0 525.69 507.87"
 xmlns:xlink="http://www.w3.org/1999/xlink">
 <defs>
  <style type="text/css">
   <![CDATA[
    .fil0 {fill:none}
    .fil36 {fill:#18191A}
    .fil38 {fill:#D2D3D5;fill-rule:nonzero}
    .fil37 {fill:#727376;fill-rule:nonzero}
    .fil12 {fill:black;fill-rule:nonzero}
    .fil30 {fill:#1F2426;fill-rule:nonzero}
    .fil35 {fill:#212526;fill-rule:nonzero}
    .fil18 {fill:#212628;fill-rule:nonzero}
    .fil20 {fill:#282E30;fill-rule:nonzero}
    .fil6 {fill:#3A4245;fill-rule:nonzero}
    .fil19 {fill:#44494C;fill-rule:nonzero}
    .fil1 {fill:#4C5155;fill-rule:nonzero}
    .fil13 {fill:#4D5256;fill-rule:nonzero}
    .fil8 {fill:#589EB7;fill-rule:nonzero}
    .fil15 {fill:#61686A;fill-rule:nonzero}
    .fil29 {fill:#66A3B9;fill-rule:nonzero}
    .fil14 {fill:#6A6F73;fill-rule:nonzero}
    .fil25 {fill:#6B6B6B;fill-rule:nonzero}
    .fil16 {fill:#717578;fill-rule:nonzero}
    .fil28 {fill:#75A9BC;fill-rule:nonzero}
    .fil7 {fill:#767A7D;fill-rule:nonzero}
    .fil24 {fill:#7A7A7A;fill-rule:nonzero}
    .fil17 {fill:#888C8F;fill-rule:nonzero}
    .fil23 {fill:#898989;fill-rule:nonzero}
    .fil27 {fill:#92B4C2;fill-rule:nonzero}
    .fil31 {fill:#9E1300;fill-rule:nonzero}
    .fil21 {fill:#A2A8AA;fill-rule:nonzero}
    .fil4 {fill:#A7A5A8;fill-rule:nonzero}
    .fil34 {fill:#AD5A00;fill-rule:nonzero}
    .fil10 {fill:#B3B0B5;fill-rule:nonzero}
    .fil32 {fill:#B5B5B5;fill-rule:nonzero}
    .fil3 {fill:#B9B9BA;fill-rule:nonzero}
    .fil2 {fill:#CCCACD;fill-rule:nonzero}
    .fil26 {fill:#E0E0E2;fill-rule:nonzero}
    .fil22 {fill:#E2E2E2;fill-rule:nonzero}
    .fil5 {fill:#EBECF0;fill-rule:nonzero}
    .fil11 {fill:#FF3912;fill-rule:nonzero}
    .fil33 {fill:#FFCE88;fill-rule:nonzero}
    .fil9 {fill:white;fill-rule:nonzero}
   ]]>
  </style>
 </defs>
 <g id="Layer_x0020_1">
  <metadata id="CorelCorpID_0Corel-Layer"/>
  <rect class="fil0" x="-0" width="525.7" height="507.87"/>
  <g id="_2327747739568">
   <g>
    <path class="fil1" d="M22.08 406.37l-6.57 0c-1.71,0 -3.1,1.39 -3.1,3.1l0 7.2c0,1.71 1.39,3.1 3.1,3.1l6.57 0c1.71,0 3.1,-1.39 3.1,-3.1l0 -7.2c0,-1.71 -1.39,-3.1 -3.1,-3.1z"/>
    <path class="fil1" d="M133.64 406.37l-6.57 0c-1.71,0 -3.1,1.39 -3.1,3.1l0 7.2c0,1.71 1.39,3.1 3.1,3.1l6.57 0c1.71,0 3.1,-1.39 3.1,-3.1l0 -7.2c0,-1.71 -1.39,-3.1 -3.1,-3.1z"/>
    <path class="fil2" d="M145.6 406.87c0,3.42 -2.77,6.2 -6.2,6.2l-129.66 0c-3.42,0 -6.2,-2.78 -6.2,-6.2l0 -164.77c0,-3.42 2.78,-6.2 6.2,-6.2l129.66 0c3.42,0 6.2,2.78 6.2,6.2l0 164.77z"/>
    <path class="fil3" d="M3.55 406.87c0,3.42 2.78,6.2 6.2,6.2l129.66 0c3.42,0 6.2,-2.78 6.2,-6.2l0 -164.77 -142.05 164.77z"/>
    <path class="fil4" d="M139.4 238.39l-129.66 0c-3.42,0 -6.2,2.78 -6.2,6.2l0 14.41c0,3.42 2.78,6.2 6.2,6.2l129.66 0c3.42,0 6.2,-2.78 6.2,-6.2l0 -14.41c0,-3.42 -2.77,-6.2 -6.2,-6.2z"/>
    <path class="fil4" d="M117.46 327.67c0,23.69 -19.2,42.88 -42.88,42.88 -23.69,0 -42.88,-19.2 -42.88,-42.88 0,-23.68 19.2,-42.88 42.88,-42.88 23.68,0 42.88,19.2 42.88,42.88z"/>
    <path class="fil5" d="M117.46 323.95c0,23.69 -19.2,42.88 -42.88,42.88 -23.69,0 -42.88,-19.2 -42.88,-42.88 0,-23.69 19.2,-42.88 42.88,-42.88 23.68,0 42.88,19.2 42.88,42.88z"/>
    <path class="fil6" d="M99.37 323.95c0,13.69 -11.1,24.79 -24.79,24.79 -13.69,0 -24.79,-11.1 -24.79,-24.79 0,-13.69 11.1,-24.79 24.79,-24.79 13.69,0 24.79,11.1 24.79,24.79z"/>
    <path class="fil7" d="M88.36 310.17c-7.19,-7.18 -18.83,-7.18 -26.01,0l26.01 26.01c7.18,-7.18 7.18,-18.83 0,-26.01z"/>
    <path class="fil1" d="M139.4 235.91l-129.66 0c-3.42,0 -6.2,2.78 -6.2,6.2l0 14.41c0,3.42 2.78,6.2 6.2,6.2l129.66 0c3.42,0 6.2,-2.77 6.2,-6.2l0 -14.41c0,-3.42 -2.77,-6.2 -6.2,-6.2z"/>
    <path class="fil8" d="M96.02 251.15c0,3.42 -2.78,6.2 -6.2,6.2l-30.49 0c-3.42,0 -6.2,-2.77 -6.2,-6.2l0 -2.85c0,-3.42 2.78,-6.2 6.2,-6.2l30.49 0c3.42,0 6.2,2.77 6.2,6.2l0 2.85z"/>
    <path class="fil8" d="M132.54 250.44c0,1.71 -1.39,3.1 -3.1,3.1l-15.24 0c-1.72,0 -3.1,-1.39 -3.1,-3.1l0 -1.42c0,-1.71 1.39,-3.1 3.1,-3.1l15.24 0c1.71,0 3.1,1.39 3.1,3.1l0 1.42z"/>
    <path class="fil8" d="M38.06 250.44c0,1.71 -1.39,3.1 -3.1,3.1l-15.25 0c-1.71,0 -3.1,-1.39 -3.1,-3.1l0 -1.42c0,-1.71 1.39,-3.1 3.1,-3.1l15.25 0c1.71,0 3.1,1.39 3.1,3.1l0 1.42z"/>
    <path class="fil9" d="M67.28 249.36l2.09 0 0.65 -3.66 -2.09 0 -0.65 3.66zm2.71 0.74l-3.58 0 0.91 -5.14 3.57 0 -0.9 5.14z"/>
    <path class="fil9" d="M66.51 253.75l2.09 0 0.65 -3.66 -2.1 0 -0.64 3.66zm2.7 0.74l-3.57 0 0.9 -5.14 3.57 0 -0.9 5.14z"/>
    <path class="fil9" d="M74.71 249.36l2.09 0 0.64 -3.66 -2.09 0 -0.65 3.66zm2.7 0.74l-3.57 0 0.9 -5.14 3.57 0 -0.9 5.14z"/>
    <path class="fil9" d="M73.94 253.75l2.1 0 0.64 -3.66 -2.09 0 -0.65 3.66zm2.71 0.74l-3.57 0 0.9 -5.14 3.57 0 -0.9 5.14z"/>
    <path class="fil9" d="M82.14 249.36l2.1 0 0.64 -3.66 -2.09 0 -0.65 3.66zm2.71 0.74l-3.57 0 0.9 -5.14 3.57 0 -0.9 5.14z"/>
    <path class="fil9" d="M81.36 253.75l2.09 0 0.65 -3.66 -2.09 0 -0.65 3.66zm2.7 0.74l-3.57 0 0.9 -5.14 3.58 0 -0.91 5.14z"/>
   </g>
   <g>
    <path class="fil1" d="M115.92 403.64l-6.27 0c-1.64,0 -2.96,1.67 -2.96,3.73l0 8.67c0,2.06 1.32,3.73 2.96,3.73l6.27 0c1.64,0 2.96,-1.67 2.96,-3.73l0 -8.67c0,-2.06 -1.33,-3.73 -2.96,-3.73z"/>
    <path class="fil1" d="M222.51 403.64l-6.27 0c-1.64,0 -2.96,1.67 -2.96,3.73l0 8.67c0,2.06 1.32,3.73 2.96,3.73l6.27 0c1.64,0 2.96,-1.67 2.96,-3.73l0 -8.67c0,-2.06 -1.32,-3.73 -2.96,-3.73z"/>
    <path class="fil1" d="M115.92 403.64l-6.27 0c-1.64,0 -2.96,1.67 -2.96,3.73l0 8.67c0,2.06 1.32,3.73 2.96,3.73l6.27 0c1.64,0 2.96,-1.67 2.96,-3.73l0 -8.67c0,-2.06 -1.33,-3.73 -2.96,-3.73z"/>
    <path class="fil1" d="M222.51 403.64l-6.27 0c-1.64,0 -2.96,1.67 -2.96,3.73l0 8.67c0,2.06 1.32,3.73 2.96,3.73l6.27 0c1.64,0 2.96,-1.67 2.96,-3.73l0 -8.67c0,-2.06 -1.32,-3.73 -2.96,-3.73z"/>
    <path class="fil2" d="M233.94 404.25c0,4.12 -2.65,7.46 -5.92,7.46l-123.88 0c-3.27,0 -5.92,-3.34 -5.92,-7.46l0 -293.74c0,-4.12 2.65,-7.46 5.92,-7.46l123.88 0c3.27,0 5.92,3.34 5.92,7.46l0 293.74z"/>
    <path class="fil10" d="M98.22 404.25c0,4.12 2.65,7.46 5.92,7.46l123.88 0c3.27,0 5.92,-3.34 5.92,-7.46l0 -293.74 -135.72 293.74z"/>
    <polygon class="fil1" points="98.22,118.47 233.94,118.47 233.94,117.47 98.22,117.47 "/>
    <polygon class="fil1" points="98.22,395.92 233.94,395.92 233.94,394.93 98.22,394.93 "/>
    <path class="fil8" d="M168.8 110.32c0,1.89 -1.22,3.42 -2.72,3.42 -1.5,0 -2.72,-1.53 -2.72,-3.42 0,-1.89 1.22,-3.42 2.72,-3.42 1.5,0 2.72,1.53 2.72,3.42z"/>
    <path class="fil1" d="M185.44 110.32c0,0.95 -0.61,1.71 -1.36,1.71 -0.75,0 -1.36,-0.76 -1.36,-1.71 0,-0.94 0.61,-1.71 1.36,-1.71 0.75,0 1.36,0.77 1.36,1.71z"/>
    <path class="fil1" d="M149.43 110.32c0,0.95 -0.61,1.71 -1.36,1.71 -0.75,0 -1.36,-0.76 -1.36,-1.71 0,-0.94 0.61,-1.71 1.36,-1.71 0.75,0 1.36,0.77 1.36,1.71z"/>
    <polygon class="fil1" points="98.22,257.2 233.94,257.2 233.94,256.2 98.22,256.2 "/>
    <path class="fil1" d="M130.26 256.2c0,3.31 -2.13,5.99 -4.75,5.99l-14.07 0c-2.62,0 -4.75,-2.68 -4.75,-5.99 0,-3.31 2.13,-5.99 4.75,-5.99l14.07 0c2.63,0 4.75,2.68 4.75,5.99z"/>
    <polygon class="fil10" points="148.08,178.48 127.92,190.41 121.38,172.86 141.53,160.94 "/>
    <polygon class="fil11" points="148.08,175.51 127.92,187.43 121.38,169.89 141.53,157.97 "/>
    <path class="fil9" d="M142.6 162.59c0,4.29 -2.76,7.77 -6.17,7.77 -3.41,0 -6.17,-3.48 -6.17,-7.77 0,-4.3 2.77,-7.78 6.17,-7.78 3.41,0 6.17,3.48 6.17,7.78z"/>
    <path class="fil12" d="M133.53 161.46c0,0.62 -0.28,1.13 -0.64,1.13 -0.35,0 -0.63,-0.51 -0.63,-1.13 0,-0.62 0.29,-1.13 0.63,-1.13 0.35,0 0.64,0.51 0.64,1.13z"/>
    <path class="fil12" d="M138.47 161.46c0,0.62 -0.28,1.13 -0.63,1.13 -0.35,0 -0.63,-0.51 -0.63,-1.13 0,-0.62 0.28,-1.13 0.63,-1.13 0.35,0 0.63,0.51 0.63,1.13z"/>
    <polygon class="fil11" points="125.27,164.48 135.23,165.56 135.23,163.41 "/>
   </g>
   <g>
    <path class="fil13" d="M322.58 291.2c0,1.11 -0.9,2.01 -2.01,2.01l-41.99 0c-1.11,0 -2.01,-0.9 -2.01,-2.01l0 -53.37c0,-1.11 0.9,-2.01 2.01,-2.01l41.99 0c1.11,0 2.01,0.9 2.01,2.01l0 53.37z"/>
    <path class="fil13" d="M383.58 291.2c0,1.11 -0.9,2.01 -2.01,2.01l-42 0c-1.11,0 -2.01,-0.9 -2.01,-2.01l0 -53.37c0,-1.11 0.9,-2.01 2.01,-2.01l42 0c1.11,0 2.01,0.9 2.01,2.01l0 53.37z"/>
    <path class="fil1" d="M279.84 406.66l-6.42 0c-1.67,0 -3.03,1.36 -3.03,3.03l0 7.04c0,1.67 1.36,3.03 3.03,3.03l6.42 0c1.67,0 3.03,-1.36 3.03,-3.03l0 -7.04c0,-1.67 -1.36,-3.03 -3.03,-3.03z"/>
    <path class="fil1" d="M388.95 406.66l-6.42 0c-1.68,0 -3.03,1.36 -3.03,3.03l0 7.04c0,1.67 1.36,3.03 3.03,3.03l6.42 0c1.67,0 3.03,-1.36 3.03,-3.03l0 -7.04c0,-1.67 -1.36,-3.03 -3.03,-3.03z"/>
    <path class="fil2" d="M400.65 407.16c0,3.35 -2.71,6.06 -6.06,6.06l-126.8 0c-3.35,0 -6.06,-2.71 -6.06,-6.06l0 -161.14c0,-3.35 2.71,-6.06 6.06,-6.06l126.8 0c3.34,0 6.06,2.71 6.06,6.06l0 161.14z"/>
    <path class="fil3" d="M261.73 407.16c0,3.35 2.71,6.06 6.06,6.06l126.8 0c3.34,0 6.06,-2.71 6.06,-6.06l0 -161.14 -138.92 161.14z"/>
    <path class="fil6" d="M396.06 370.79c0,3.35 -2.71,6.06 -6.06,6.06l-117.63 0c-3.35,0 -6.06,-2.71 -6.06,-6.06l0 -88.14c0,-3.35 2.71,-6.06 6.06,-6.06l117.63 0c3.35,0 6.06,2.71 6.06,6.06l0 88.14z"/>
    <polygon class="fil13" points="281.23,355.22 381.15,355.22 381.15,296.9 281.23,296.9 "/>
    <polygon class="fil14" points="281.23,337.53 381.15,337.53 381.15,334.91 281.23,334.91 "/>
    <polygon class="fil15" points="391.77,372 270.85,372 293.09,355.22 381.15,355.22 381.15,296.9 370.39,296.9 371.56,296.02 391.77,296.02 "/>
    <path class="fil16" d="M381.15 355.22l-88.06 0 23.45 -17.69 64.61 0 0 17.69zm0 -20.31l-61.14 0 50.38 -38.01 10.76 0 0 38.01z"/>
    <polygon class="fil17" points="381.15,337.53 316.54,337.53 320.01,334.91 381.15,334.91 "/>
    <path class="fil18" d="M382.31 287.16l0 0.03c0,2.23 -2.28,4.03 -5.1,4.03l-92.05 0c-2.82,0 -5.1,-1.8 -5.1,-4.03l0 -0.03 -9.67 0 0 3.15c0,2.65 2.71,4.79 6.06,4.79l109.47 0c3.35,0 6.06,-2.15 6.06,-4.79l0 -3.15 -9.67 0z"/>
    <path class="fil2" d="M391.98 287.07c0,1.45 -1.17,2.62 -2.62,2.62l-116.35 0c-1.45,0 -2.62,-1.17 -2.62,-2.62 0,-1.45 1.17,-2.62 2.62,-2.62l116.35 0c1.45,0 2.62,1.17 2.62,2.62z"/>
    <path class="fil9" d="M364.57 287.07c0,0.79 -0.64,1.44 -1.44,1.44l-63.89 0c-0.79,0 -1.44,-0.64 -1.44,-1.44 0,-0.8 0.65,-1.44 1.44,-1.44l63.89 0c0.8,0 1.44,0.64 1.44,1.44z"/>
    <path class="fil6" d="M291.88 258.24c0,3.44 -2.79,6.22 -6.23,6.22 -3.43,0 -6.22,-2.79 -6.22,-6.22 0,-3.44 2.79,-6.23 6.22,-6.23 3.44,0 6.23,2.79 6.23,6.23z"/>
    <path class="fil6" d="M314.65 258.24c0,3.44 -2.79,6.22 -6.23,6.22 -3.44,0 -6.23,-2.79 -6.23,-6.22 0,-3.44 2.79,-6.23 6.23,-6.23 3.44,0 6.23,2.79 6.23,6.23z"/>
    <path class="fil6" d="M337.41 258.24c0,3.44 -2.79,6.22 -6.22,6.22 -3.44,0 -6.23,-2.79 -6.23,-6.22 0,-3.44 2.79,-6.23 6.23,-6.23 3.44,0 6.22,2.79 6.22,6.23z"/>
    <path class="fil6" d="M360.18 258.24c0,3.44 -2.79,6.22 -6.23,6.22 -3.44,0 -6.22,-2.79 -6.22,-6.22 0,-3.44 2.79,-6.23 6.22,-6.23 3.44,0 6.23,2.79 6.23,6.23z"/>
    <path class="fil6" d="M382.94 258.24c0,3.44 -2.79,6.22 -6.22,6.22 -3.44,0 -6.23,-2.79 -6.23,-6.22 0,-3.44 2.79,-6.23 6.23,-6.23 3.44,0 6.22,2.79 6.22,6.23z"/>
    <path class="fil13" d="M287.33 262.54c0,0.93 -0.75,1.67 -1.68,1.67 -0.92,0 -1.68,-0.75 -1.68,-1.67l0 -8.6c0,-0.93 0.75,-1.68 1.68,-1.68 0.93,0 1.68,0.75 1.68,1.68l0 8.6z"/>
    <path class="fil13" d="M310.1 262.54c0,0.93 -0.75,1.67 -1.68,1.67 -0.93,0 -1.68,-0.75 -1.68,-1.67l0 -8.6c0,-0.93 0.75,-1.68 1.68,-1.68 0.92,0 1.68,0.75 1.68,1.68l0 8.6z"/>
    <path class="fil13" d="M332.86 262.54c0,0.93 -0.75,1.67 -1.67,1.67 -0.93,0 -1.68,-0.75 -1.68,-1.67l0 -8.6c0,-0.93 0.75,-1.68 1.68,-1.68 0.92,0 1.67,0.75 1.67,1.68l0 8.6z"/>
    <path class="fil13" d="M355.63 262.54c0,0.93 -0.75,1.67 -1.68,1.67 -0.92,0 -1.68,-0.75 -1.68,-1.67l0 -8.6c0,-0.93 0.75,-1.68 1.68,-1.68 0.93,0 1.68,0.75 1.68,1.68l0 8.6z"/>
    <path class="fil13" d="M378.4 262.54c0,0.93 -0.75,1.67 -1.68,1.67 -0.93,0 -1.68,-0.75 -1.68,-1.67l0 -8.6c0,-0.93 0.75,-1.68 1.68,-1.68 0.93,0 1.68,0.75 1.68,1.68l0 8.6z"/>
   </g>
   <g>
    <path class="fil6" d="M391.27 419.77l-4.88 0 0 -274.14c0,-6.91 2.18,-12.51 4.88,-12.51l12.59 0c2.69,0 4.87,5.6 4.87,12.51l0 274.14 -17.47 0z"/>
    <polygon class="fil13" points="388.59,405.25 406.54,405.25 406.54,146.76 388.59,146.76 "/>
    <polygon class="fil19" points="388.59,405.25 406.54,405.25 406.54,146.76 "/>
   </g>
   <g>
    <path class="fil6" d="M421.47 419.77l-4.87 0 0 -274.14c0,-6.91 2.18,-12.51 4.87,-12.51l12.59 0c2.69,0 4.87,5.6 4.87,12.51l0 274.14 -17.47 0z"/>
    <polygon class="fil13" points="418.79,405.25 436.75,405.25 436.75,146.76 418.79,146.76 "/>
    <polygon class="fil19" points="418.79,405.25 436.75,405.25 436.75,146.76 "/>
   </g>
   <g>
    <path class="fil1" d="M455.38 410.48l-4.55 0c-1.19,0 -2.15,0.96 -2.15,2.15l0 5c0,1.18 0.96,2.15 2.15,2.15l4.55 0c1.19,0 2.15,-0.96 2.15,-2.15l0 -5c0,-1.19 -0.96,-2.15 -2.15,-2.15z"/>
    <path class="fil1" d="M515.57 410.48l-4.55 0c-1.19,0 -2.15,0.96 -2.15,2.15l0 5c0,1.18 0.96,2.15 2.15,2.15l4.55 0c1.19,0 2.15,-0.96 2.15,-2.15l0 -5c0,-1.19 -0.96,-2.15 -2.15,-2.15z"/>
    <path class="fil6" d="M444.25 283.64c0,-2.37 1.93,-4.3 4.3,-4.3l69.3 0c2.37,0 4.3,1.93 4.3,4.3l0 127.18c0,2.37 -1.93,4.3 -4.3,4.3l-69.3 0c-2.37,0 -4.3,-1.92 -4.3,-4.3l0 -127.18z"/>
    <path class="fil20" d="M444.25 410.82c0,2.37 1.93,4.3 4.3,4.3l69.3 0c2.37,0 4.3,-1.92 4.3,-4.3l0 -127.18 -77.9 127.18z"/>
    <path class="fil21" d="M448.85 411.58l68.7 0 0 -127.71 -68.7 0 0 127.71zm69.92 1.23l-71.15 0 0 -130.17 71.15 0 0 130.17z"/>
    <path class="fil5" d="M512.94 316.06c0,16.43 -13.32,29.74 -29.74,29.74 -16.43,0 -29.74,-13.32 -29.74,-29.74 0,-16.43 13.32,-29.75 29.74,-29.75 16.43,0 29.74,13.32 29.74,29.75z"/>
    <path class="fil2" d="M502.54 316.06c0,10.68 -8.66,19.34 -19.35,19.34 -10.68,0 -19.35,-8.66 -19.35,-19.34 0,-10.68 8.66,-19.35 19.35,-19.35 10.68,0 19.35,8.66 19.35,19.35z"/>
    <path class="fil6" d="M491.8 316.05c0,4.75 -3.85,8.6 -8.6,8.6 -4.75,0 -8.6,-3.85 -8.6,-8.6 0,-4.75 3.85,-8.6 8.6,-8.6 4.75,0 8.6,3.85 8.6,8.6z"/>
    <polygon class="fil6" points="453.45,316.86 512.94,316.86 512.94,315.25 453.45,315.25 "/>
    <path class="fil5" d="M512.94 379.68c0,16.43 -13.32,29.74 -29.74,29.74 -16.43,0 -29.74,-13.32 -29.74,-29.74 0,-16.43 13.32,-29.75 29.74,-29.75 16.43,0 29.74,13.32 29.74,29.75z"/>
    <path class="fil2" d="M502.54 379.68c0,10.69 -8.66,19.34 -19.35,19.34 -10.68,0 -19.35,-8.66 -19.35,-19.34 0,-10.68 8.66,-19.35 19.35,-19.35 10.68,0 19.35,8.66 19.35,19.35z"/>
    <path class="fil6" d="M491.8 379.68c0,4.75 -3.85,8.6 -8.6,8.6 -4.75,0 -8.6,-3.85 -8.6,-8.6 0,-4.75 3.85,-8.6 8.6,-8.6 4.75,0 8.6,3.85 8.6,8.6z"/>
    <polygon class="fil6" points="453.45,380.49 512.94,380.49 512.94,378.88 453.45,378.88 "/>
    <path class="fil5" d="M452.86 286.31c0,1.04 -0.84,1.87 -1.87,1.87 -1.03,0 -1.87,-0.84 -1.87,-1.87 0,-1.03 0.84,-1.87 1.87,-1.87 1.04,0 1.87,0.84 1.87,1.87z"/>
    <path class="fil5" d="M517.28 286.31c0,1.04 -0.84,1.87 -1.87,1.87 -1.03,0 -1.88,-0.84 -1.88,-1.87 0,-1.03 0.84,-1.87 1.88,-1.87 1.03,0 1.87,0.84 1.87,1.87z"/>
    <path class="fil5" d="M452.86 409.43c0,1.04 -0.84,1.88 -1.87,1.88 -1.03,0 -1.87,-0.84 -1.87,-1.88 0,-1.04 0.84,-1.87 1.87,-1.87 1.04,0 1.87,0.84 1.87,1.87z"/>
    <path class="fil5" d="M517.28 409.43c0,1.04 -0.84,1.88 -1.87,1.88 -1.03,0 -1.88,-0.84 -1.88,-1.88 0,-1.04 0.84,-1.87 1.88,-1.87 1.03,0 1.87,0.84 1.87,1.87z"/>
   </g>
   <g>
    <path class="fil1" d="M281.57 231.2l-2.82 0c-0.73,0 -1.33,0.59 -1.33,1.33l0 3.09c0,0.73 0.6,1.33 1.33,1.33l2.82 0c0.74,0 1.33,-0.6 1.33,-1.33l0 -3.09c0,-0.73 -0.6,-1.33 -1.33,-1.33z"/>
    <path class="fil1" d="M356.34 231.27l-2.82 0c-0.73,0 -1.33,0.59 -1.33,1.33l0 3.09c0,0.73 0.6,1.33 1.33,1.33l2.82 0c0.73,0 1.33,-0.6 1.33,-1.33l0 -3.09c0,-0.73 -0.6,-1.33 -1.33,-1.33z"/>
    <polygon class="fil6" points="285.15,179.69 291.39,179.69 291.39,172.73 285.15,172.73 "/>
    <polygon class="fil1" points="282.03,174.47 294.51,174.47 294.51,167.51 282.03,167.51 "/>
    <path class="fil5" d="M272.59 193.2l0 21c0,3.62 2.94,6.56 6.56,6.56l19.45 0c3.62,0 6.56,-2.94 6.56,-6.56l0 -21 -32.57 0z"/>
    <path class="fil5" d="M272.59 193.2l0 21c0,3.62 2.94,6.56 6.56,6.56l19.45 0c3.62,0 6.56,-2.94 6.56,-6.56l0 -21 -32.57 0z"/>
    <path class="fil22" d="M298.72 217.26l-19.45 0c-3.62,0 -6.56,-2.94 -6.56,-6.56l-0.11 3.49c0,3.62 2.94,6.56 6.56,6.56l19.45 0c3.62,0 6.56,-2.94 6.56,-6.56l0 -2.3c-0.56,3.05 -3.23,5.36 -6.45,5.36z"/>
    <path class="fil5" d="M305.28 197.38c-4.36,0 -7.91,3.55 -7.91,7.91 0,4.36 3.55,7.91 7.91,7.91 4.36,0 7.91,-3.55 7.91,-7.91 0,-4.36 -3.55,-7.91 -7.91,-7.91zm0 17.46c-5.27,0 -9.55,-4.28 -9.55,-9.55 0,-5.27 4.29,-9.55 9.55,-9.55 5.27,0 9.55,4.28 9.55,9.55 0,5.27 -4.29,9.55 -9.55,9.55z"/>
    <polygon class="fil23" points="324.52,223.46 362.45,223.46 362.45,159.51 324.52,159.51 "/>
    <polygon class="fil24" points="324.52,223.46 362.45,223.46 362.45,159.51 "/>
    <path class="fil2" d="M359.37 141.42l-82.13 0c-3.62,0 -6.56,2.94 -6.56,6.56l0 23.01 53.85 0 0 6.61 34.84 0c3.62,0 6.56,-2.94 6.56,-6.56l0 -23.06c0,-3.62 -2.94,-6.56 -6.56,-6.56z"/>
    <path class="fil9" d="M356.17 143.32l-75.73 0c-3.34,0 -6.05,1.45 -6.05,3.23l0 1.48c0,-1.78 2.71,-3.23 6.05,-3.23l75.73 0c3.34,0 6.05,1.45 6.05,3.23l0 -1.48c0,-1.78 -2.71,-3.23 -6.05,-3.23z"/>
    <path class="fil25" d="M350.74 192.82c0,3.81 -3.09,6.89 -6.89,6.89 -3.81,0 -6.89,-3.09 -6.89,-6.89 0,-3.81 3.09,-6.89 6.89,-6.89 3.81,0 6.89,3.09 6.89,6.89z"/>
    <path class="fil9" d="M350.74 191.51c0,3.81 -3.09,6.89 -6.89,6.89 -3.81,0 -6.89,-3.09 -6.89,-6.89 0,-3.81 3.09,-6.9 6.89,-6.9 3.81,0 6.89,3.09 6.89,6.9z"/>
    <path class="fil6" d="M347.78 191.51c0,2.17 -1.76,3.94 -3.94,3.94 -2.17,0 -3.94,-1.77 -3.94,-3.94 0,-2.18 1.76,-3.94 3.94,-3.94 2.17,0 3.94,1.76 3.94,3.94z"/>
    <path class="fil23" d="M329.96 161.95l27.88 0 0 -10.83 -27.88 0 0 10.83zm29.2 1.31l-30.51 0 0 -13.45 30.51 0 0 13.45z"/>
    <polygon class="fil8" points="329.31,161.87 358.51,161.87 358.51,149.74 329.31,149.74 "/>
    <path class="fil5" d="M329.96 161.22l27.88 0 0 -10.83 -27.88 0 0 10.83zm29.2 1.31l-30.51 0 0 -13.45 30.51 0 0 13.45z"/>
    <path class="fil2" d="M276.5 234.14l82.86 0c3.62,0 6.56,-2.94 6.56,-6.56l0 -6 -95.99 0 0 6c0,3.62 2.94,6.56 6.56,6.56z"/>
    <polygon class="fil26" points="278.27,221.58 299.01,221.58 299.01,220.76 278.27,220.76 "/>
    <path class="fil23" d="M337.69 173.13c0,1.81 -1.47,3.28 -3.28,3.28l-1.82 0c-1.81,0 -3.28,-1.47 -3.28,-3.28l0 -1.64c0,-1.81 1.47,-3.28 3.28,-3.28l1.82 0c1.81,0 3.28,1.47 3.28,3.28l0 1.64z"/>
    <path class="fil23" d="M348.4 173.13c0,1.81 -1.47,3.28 -3.28,3.28l-1.82 0c-1.81,0 -3.28,-1.47 -3.28,-3.28l0 -1.64c0,-1.81 1.47,-3.28 3.28,-3.28l1.82 0c1.81,0 3.28,1.47 3.28,3.28l0 1.64z"/>
    <path class="fil23" d="M359.12 173.13c0,1.81 -1.47,3.28 -3.28,3.28l-1.82 0c-1.81,0 -3.28,-1.47 -3.28,-3.28l0 -1.64c0,-1.81 1.47,-3.28 3.28,-3.28l1.82 0c1.81,0 3.28,1.47 3.28,3.28l0 1.64z"/>
    <path class="fil5" d="M337.69 171.81c0,1.81 -1.47,3.28 -3.28,3.28l-1.82 0c-1.81,0 -3.28,-1.47 -3.28,-3.28l0 -1.64c0,-1.81 1.47,-3.28 3.28,-3.28l1.82 0c1.81,0 3.28,1.47 3.28,3.28l0 1.64z"/>
    <path class="fil5" d="M348.4 171.81c0,1.81 -1.47,3.28 -3.28,3.28l-1.82 0c-1.81,0 -3.28,-1.47 -3.28,-3.28l0 -1.64c0,-1.81 1.47,-3.28 3.28,-3.28l1.82 0c1.81,0 3.28,1.47 3.28,3.28l0 1.64z"/>
    <path class="fil5" d="M359.12 171.81c0,1.81 -1.47,3.28 -3.28,3.28l-1.82 0c-1.81,0 -3.28,-1.47 -3.28,-3.28l0 -1.64c0,-1.81 1.47,-3.28 3.28,-3.28l1.82 0c1.81,0 3.28,1.47 3.28,3.28l0 1.64z"/>
    <path class="fil6" d="M353.21 191.76c-0.15,0 -0.28,-0.12 -0.28,-0.27 0,-0.15 0.12,-0.28 0.28,-0.28l2.07 0c0.15,0 0.28,0.13 0.28,0.28 0,0.15 -0.12,0.27 -0.28,0.27l-2.07 0z"/>
    <path class="fil6" d="M332.41 191.76c-0.15,0 -0.28,-0.12 -0.28,-0.27 0,-0.15 0.12,-0.28 0.28,-0.28l2.07 0c0.15,0 0.27,0.13 0.27,0.28 0,0.15 -0.12,0.27 -0.27,0.27l-2.07 0z"/>
    <path class="fil6" d="M343.57 180.05c0,-0.15 0.12,-0.28 0.27,-0.28 0.15,0 0.28,0.12 0.28,0.28l0 2.07c0,0.15 -0.13,0.28 -0.28,0.28 -0.15,0 -0.27,-0.12 -0.27,-0.28l0 -2.07z"/>
    <path class="fil6" d="M335.56 183.59c-0.11,-0.11 -0.11,-0.28 -0,-0.39 0.11,-0.11 0.28,-0.11 0.39,0l1.46 1.46c0.11,0.11 0.1,0.28 -0,0.39 -0.11,0.11 -0.28,0.11 -0.39,0l-1.46 -1.47z"/>
    <path class="fil6" d="M351.74 183.2c0.11,-0.11 0.28,-0.11 0.39,0 0.11,0.11 0.11,0.28 0,0.39l-1.46 1.47c-0.11,0.11 -0.28,0.11 -0.39,-0 -0.11,-0.11 -0.11,-0.28 0,-0.39l1.46 -1.46z"/>
   </g>
   <g>
    <path class="fil1" d="M19.45 229.68l-3.21 0c-0.84,0 -1.52,0.68 -1.52,1.52l0 3.52c0,0.84 0.68,1.51 1.52,1.51l3.21 0c0.84,0 1.51,-0.68 1.51,-1.51l0 -3.52c0,-0.84 -0.68,-1.52 -1.51,-1.52z"/>
    <path class="fil1" d="M85.54 229.68l-3.21 0c-0.84,0 -1.52,0.68 -1.52,1.52l0 3.52c0,0.84 0.68,1.51 1.52,1.51l3.21 0c0.84,0 1.52,-0.68 1.52,-1.51l0 -3.52c0,-0.84 -0.68,-1.52 -1.52,-1.52z"/>
    <path class="fil2" d="M10.6 232.86c-1.68,0 -3.03,-1.36 -3.03,-3.03l0 -54.32c0,-1.67 1.36,-3.03 3.03,-3.03l80.59 0c1.67,0 3.03,1.36 3.03,3.03l0 54.32c0,1.67 -1.36,3.03 -3.03,3.03l-80.59 0z"/>
    <path class="fil9" d="M75.15 227.43c-0.29,0 -0.53,-0.24 -0.53,-0.53l0 -9.49c0,-0.29 0.24,-0.53 0.53,-0.53l14.08 0c0.29,0 0.53,0.24 0.53,0.53l0 9.49c0,0.29 -0.24,0.53 -0.53,0.53l-14.08 0z"/>
    <path class="fil6" d="M70.02 224.05c0,1.97 -1.6,3.57 -3.57,3.57l-51.63 0c-1.97,0 -3.57,-1.6 -3.57,-3.57l0 -42.76c0,-1.97 1.6,-3.57 3.57,-3.57l51.63 0c1.97,0 3.57,1.6 3.57,3.57l0 42.76z"/>
    <polygon class="fil13" points="20.03,216.88 61.24,216.88 61.24,187.67 20.03,187.67 "/>
    <polygon class="fil15" points="66.89,225 14.4,225 23.87,216.88 61.24,216.88 61.24,187.67 57.92,187.67 66.89,179.98 "/>
    <polygon class="fil16" points="61.24,216.88 23.87,216.88 57.92,187.67 61.24,187.67 "/>
    <path class="fil13" d="M75.04 212.49l14.59 0 0 -34.49 -14.59 0 0 34.49zm14.89 0.3l-15.2 0 0 -35.1 15.2 0 0 35.1z"/>
    <path class="fil13" d="M75.04 183.28l7.14 0 0 -5.28 -7.14 0 0 5.28zm7.45 0.3l-7.75 0 0 -5.89 7.75 0 0 5.89z"/>
    <path class="fil13" d="M82.49 183.28l7.14 0 0 -5.28 -7.14 0 0 5.28zm7.45 0.3l-7.75 0 0 -5.89 7.75 0 0 5.89z"/>
    <path class="fil13" d="M75.04 188.86l7.14 0 0 -5.28 -7.14 0 0 5.28zm7.45 0.3l-7.75 0 0 -5.89 7.75 0 0 5.89z"/>
    <path class="fil13" d="M82.49 188.86l7.14 0 0 -5.28 -7.14 0 0 5.28zm7.45 0.3l-7.75 0 0 -5.89 7.75 0 0 5.89z"/>
    <path class="fil13" d="M75.04 194.45l7.14 0 0 -5.28 -7.14 0 0 5.28zm7.45 0.3l-7.75 0 0 -5.89 7.75 0 0 5.89z"/>
    <path class="fil13" d="M82.49 194.45l7.14 0 0 -5.28 -7.14 0 0 5.28zm7.45 0.3l-7.75 0 0 -5.89 7.75 0 0 5.89z"/>
    <path class="fil27" d="M82.49 202.87c-0.5,-0.49 -1.19,-0.79 -1.95,-0.79 -0.22,0 -0.44,0.03 -0.64,0.07 -0,-0.02 -0,-0.05 -0,-0.07 0,-1.54 1.25,-2.79 2.79,-2.79 1.54,0 2.79,1.25 2.79,2.79 0,0.07 -0,0.13 -0.01,0.2 -0.32,-0.13 -0.67,-0.2 -1.03,-0.2 -0.76,0 -1.44,0.3 -1.95,0.79z"/>
    <path class="fil27" d="M84.44 207.65c-0.76,0 -1.44,-0.3 -1.95,-0.79 0.52,-0.51 0.84,-1.21 0.84,-1.99 0,-0.02 0,-0.05 0,-0.07 1.17,-0.27 2.05,-1.29 2.14,-2.52 1.03,0.41 1.76,1.41 1.76,2.59 0,1.54 -1.25,2.79 -2.79,2.79z"/>
    <path class="fil28" d="M83.33 204.79c-0.02,-0.75 -0.34,-1.43 -0.84,-1.92 0.5,-0.49 1.19,-0.79 1.95,-0.79 0.36,0 0.71,0.07 1.03,0.2 -0.09,1.23 -0.97,2.24 -2.14,2.52z"/>
    <path class="fil27" d="M80.54 207.65c-1.54,0 -2.79,-1.25 -2.79,-2.79 0,-1.32 0.92,-2.42 2.14,-2.71 0.03,1.14 0.75,2.11 1.76,2.52 -0,0.07 -0.01,0.13 -0.01,0.2 0,0.78 0.32,1.49 0.84,1.99 -0.5,0.49 -1.19,0.79 -1.95,0.79z"/>
    <path class="fil28" d="M81.66 204.67c-1.01,-0.4 -1.72,-1.37 -1.76,-2.52 0.21,-0.05 0.42,-0.07 0.64,-0.07 0.76,0 1.44,0.3 1.95,0.79 -0.47,0.46 -0.78,1.09 -0.83,1.8z"/>
    <path class="fil28" d="M82.49 206.86c-0.52,-0.51 -0.84,-1.21 -0.84,-1.99 0,-0.07 0,-0.13 0.01,-0.2 0.32,0.13 0.67,0.2 1.03,0.2 0.22,0 0.43,-0.03 0.64,-0.07 0,0.02 0,0.05 0,0.07 0,0.78 -0.32,1.49 -0.84,1.99z"/>
    <path class="fil29" d="M82.69 204.87c-0.36,0 -0.71,-0.07 -1.03,-0.2 0.05,-0.7 0.36,-1.33 0.83,-1.8 0.5,0.49 0.82,1.17 0.84,1.92 -0.21,0.05 -0.42,0.07 -0.64,0.07z"/>
    <path class="fil2" d="M13.94 212.38c0.05,0.12 -0,0.25 -0.12,0.3l-0.44 0.19c-0.12,0.05 -0.25,-0 -0.3,-0.12l-0.75 -1.74c-0.05,-0.11 0.01,-0.25 0.12,-0.3l0.44 -0.19c0.12,-0.05 0.25,0 0.3,0.12l0.75 1.74z"/>
    <path class="fil2" d="M13.94 209.46c0.05,-0.11 -0,-0.25 -0.12,-0.3l-0.44 -0.19c-0.12,-0.05 -0.25,0 -0.3,0.12l-0.75 1.74c-0.05,0.12 0.01,0.25 0.12,0.3l0.44 0.19c0.12,0.05 0.25,-0.01 0.3,-0.12l0.75 -1.74z"/>
   </g>
   <g>
    <path class="fil9" d="M341.65 121.61c0,0.52 -0.43,0.95 -0.95,0.95 -0.52,0 -0.95,-0.42 -0.95,-0.95l0 -4.02c0,-0.52 0.42,-0.95 0.95,-0.95 0.52,0 0.95,0.43 0.95,0.95l0 4.02z"/>
    <path class="fil30" d="M297.17 141.74c0,0.83 -0.67,1.51 -1.5,1.51l-1.74 0c-0.83,0 -1.51,-0.67 -1.51,-1.51 0,-0.83 0.67,-1.51 1.51,-1.51l1.74 0c0.83,0 1.5,0.67 1.5,1.51z"/>
    <path class="fil30" d="M328.33 141.74c0,0.83 -0.67,1.51 -1.51,1.51l-1.74 0c-0.83,0 -1.51,-0.67 -1.51,-1.51 0,-0.83 0.67,-1.51 1.51,-1.51l1.74 0c0.83,0 1.51,0.67 1.51,1.51z"/>
    <path class="fil23" d="M288.47 102.14c0,4.83 3.91,8.74 8.74,8.74 4.83,0 8.74,-3.91 8.74,-8.74l-17.48 0z"/>
    <path class="fil2" d="M291.82 102.14l-1.28 0c0,4.83 2.99,8.74 6.67,8.74 0.22,0 0.43,-0.01 0.64,-0.04 -3.38,-0.42 -6.03,-4.15 -6.03,-8.7z"/>
    <path class="fil31" d="M326.16 95.84c-6.88,1.17 -10.48,11.37 -8.38,23.72 0.23,1.37 1.54,2.29 2.91,2.06 1.37,-0.23 2.29,-1.54 2.06,-2.91 -1.63,-9.55 0.91,-17.33 4.26,-17.9 1.52,-0.26 3.5,1.04 5.28,3.47l4.07 -2.98c-3.02,-4.12 -6.64,-6.06 -10.19,-5.46z"/>
    <path class="fil11" d="M338 128.15c-0.16,0 -0.32,-0.02 -0.48,-0.05 -1.37,-0.27 -2.26,-1.59 -1.99,-2.96 0.64,-3.27 0.62,-7.06 -0.05,-10.97 -0.81,-4.75 -2.46,-9.01 -4.67,-12.02 -1.78,-2.43 -3.75,-3.73 -5.28,-3.47 -3.35,0.57 -5.89,8.35 -4.26,17.9 0.23,1.37 -0.69,2.67 -2.06,2.91 -1.37,0.23 -2.67,-0.69 -2.91,-2.06 -2.11,-12.35 1.5,-22.54 8.38,-23.72 3.55,-0.61 7.17,1.33 10.19,5.46 2.65,3.62 4.63,8.65 5.57,14.15 0.77,4.5 0.78,8.93 0.03,12.79 -0.23,1.2 -1.29,2.04 -2.47,2.04z"/>
    <path class="fil2" d="M310.37 88.46c-11.66,0 -21.11,23.16 -21.11,51.73l42.21 0c0,-28.57 -9.45,-51.73 -21.11,-51.73z"/>
    <path class="fil32" d="M321.17 95.74c-0.59,-0.87 -1.2,-1.66 -1.83,-2.38 -2.74,-2.97 -5.78,-4.63 -8.97,-4.63 -3.19,0 -6.23,1.66 -8.97,4.63 -0.63,0.72 -1.24,1.52 -1.83,2.38l21.6 0z"/>
    <path class="fil9" d="M315.56 95.77c4.04,10.15 6.64,26.13 6.64,44.11l3.12 0c0,-18.73 -2.93,-35.11 -7.32,-44.11l-2.45 0z"/>
    <path class="fil6" d="M289.27 139l0 1.19c0,0.87 0.59,1.57 1.31,1.57l39.59 0c0.72,0 1.31,-0.71 1.31,-1.57l0 -1.19 -42.21 0z"/>
    <path class="fil13" d="M320.72 94.35c-3.09,-3.99 -6.61,-6.25 -10.35,-6.25 -3.74,0 -7.26,2.26 -10.35,6.25 -0.32,0.41 -0.14,0.76 0.38,0.76l19.94 0c0.52,0 0.7,-0.34 0.38,-0.76z"/>
    <path class="fil9" d="M312.12 88.39c1.2,1.66 2.32,3.78 3.36,6.28l2.35 0c-1.72,-3.33 -3.65,-5.52 -5.71,-6.28z"/>
   </g>
   <g>
    <path class="fil33" d="M59.07 125.02c-1.94,-1.33 -6.93,-2.27 -12.79,-2.27 -5.92,0 -10.94,0.97 -12.84,2.31 -1.48,0.22 -2.57,0.98 -2.57,1.88l0 13.56c0,1.08 1.55,1.96 3.47,1.96l24.04 0c1.92,0 3.47,-0.88 3.47,-1.96l0 -13.56c0,-0.95 -1.19,-1.74 -2.78,-1.92z"/>
    <path class="fil34" d="M46.28 123.37c-6.48,0 -10.94,1.1 -12.48,2.19l-0.12 0.09 -0.15 0.02c-1.27,0.19 -2.04,0.79 -2.04,1.26l0 13.56c0,0.63 1.21,1.33 2.84,1.33l24.04 0c1.63,0 2.84,-0.7 2.84,-1.33l0 -13.56c0,-0.5 -0.85,-1.14 -2.22,-1.29l-0.16 -0.02 -0.13 -0.09c-1.89,-1.29 -6.89,-2.16 -12.44,-2.16zm12.1 19.71l-24.04 0c-2.3,0 -4.1,-1.14 -4.1,-2.59l0 -13.56c0,-1.18 1.18,-2.17 2.96,-2.48 2.16,-1.42 7.26,-2.34 13.08,-2.34 5.75,0 10.82,0.9 13.01,2.3 1.88,0.26 3.19,1.29 3.19,2.53l0 13.56c0,1.45 -1.8,2.59 -4.1,2.59z"/>
    <path class="fil6" d="M73.33 162.55l0 2.31c4.12,0 7.46,-1.03 7.46,-2.31l-7.46 0z"/>
    <path class="fil2" d="M75.53 155.08l0 -16.83c0,-4.71 -3.82,-8.52 -8.52,-8.52l-40.18 0c-4.71,0 -8.52,3.82 -8.52,8.52l0 30.04c0,1.66 1.35,3.01 3.01,3.01l51.25 0c1.66,0 3.01,-1.35 3.01,-3.01l-0.05 -13.21z"/>
    <path class="fil3" d="M75.53 155.08l0 -16.83 -57.23 28.43 0 1.61c0,1.66 1.35,3.01 3.01,3.01l51.25 0c1.66,0 3.01,-1.35 3.01,-3.01l-0.05 -13.21z"/>
    <path class="fil9" d="M24.97 136.91l43.93 0c1.65,0 3.17,0.51 4.43,1.38 -0.24,-3.53 -3.18,-6.33 -6.78,-6.33l-39.23 0c-3.59,0 -6.53,2.79 -6.77,6.32 1.26,-0.87 2.78,-1.38 4.42,-1.38z"/>
    <path class="fil6" d="M31.21 171.82c0,0.69 -0.56,1.25 -1.25,1.25l-4.14 0c-0.69,0 -1.25,-0.56 -1.25,-1.25l0 -1.95c0,-0.69 0.56,-1.25 1.25,-1.25l4.14 0c0.69,0 1.25,0.56 1.25,1.25l0 1.95z"/>
    <path class="fil6" d="M69.3 171.68c0,0.69 -0.56,1.25 -1.25,1.25l-4.14 0c-0.69,0 -1.25,-0.56 -1.25,-1.25l0 -1.95c0,-0.69 0.56,-1.25 1.25,-1.25l4.14 0c0.69,0 1.25,0.56 1.25,1.25l0 1.95z"/>
    <polygon class="fil9" points="62.17,164.35 69.79,164.35 69.79,160.68 62.17,160.68 "/>
   </g>
   <g>
    <polygon class="fil35" points="204.46,414.57 230.37,414.57 230.37,398.32 204.46,398.32 "/>
    <polygon class="fil6" points="179.11,419.77 255.73,419.77 255.73,414.25 179.11,414.25 "/>
    <rect class="fil36" x="109.2" y="289.21" width="215.52" height="111.15"/>
    <polygon class="fil37" points="113.95,395.59 320.89,395.59 320.89,293.81 113.95,293.81 "/>
    <polygon class="fil38" points="318.7,394.02 142.01,394.02 318.7,316.02 "/>
    <path class="fil11" d="M318.08 398c0,0.87 -0.71,1.58 -1.58,1.58l-3.02 0c-0.87,0 -1.58,-0.71 -1.58,-1.58 0,-0.87 0.71,-1.58 1.58,-1.58l3.02 0c0.87,0 1.58,0.71 1.58,1.58z"/>
   </g>
  </g>
 </g>
</svg>
