<?xml version="1.0" encoding="UTF-8"?>
<!DOCTYPE svg PUBLIC "-//W3C//DTD SVG 1.1//EN" "http://www.w3.org/Graphics/SVG/1.1/DTD/svg11.dtd">
<!-- Creator: CorelDRAW 2018 (64-Bit) -->
<svg xmlns="http://www.w3.org/2000/svg" xml:space="preserve" width="4.5093in" height="4.31195in" version="1.1" style="shape-rendering:geometricPrecision; text-rendering:geometricPrecision; image-rendering:optimizeQuality; fill-rule:evenodd; clip-rule:evenodd"
viewBox="0 0 125.8 120.3"
 xmlns:xlink="http://www.w3.org/1999/xlink">
 <defs>
  <style type="text/css">
   <![CDATA[
    .fil0 {fill:none}
    .fil11 {fill:#353333}
    .fil2 {fill:#353432}
    .fil6 {fill:#47617B}
    .fil10 {fill:#727376}
    .fil8 {fill:#BA3437}
    .fil1 {fill:#BDBDBE}
    .fil4 {fill:#C63430}
    .fil7 {fill:#DDDCDC}
    .fil3 {fill:#F04C42}
    .fil5 {fill:#F16D62}
    .fil9 {fill:#F7F7F8;fill-rule:nonzero}
   ]]>
  </style>
 </defs>
 <g id="Layer_x0020_1">
  <metadata id="CorelCorpID_0Corel-Layer"/>
  <rect class="fil0" width="124.52" height="120.3"/>
  <path class="fil1" d="M32.49 74.38c-4.01,1.77 -4.98,1.86 -9.32,0.32l-17.54 0.77 0.01 0.23c3.21,2.04 115.32,2.04 118.54,0l-17.09 -1.01c-5.32,1.57 -3.93,1.29 -9.1,-0.07l-0.22 -0.03 -65.26 -0.21 0 0.01z"/>
  <circle class="fil2" cx="102.56" cy="66.26" r="10.41"/>
  <circle class="fil2" cx="27.56" cy="66.25" r="10.41"/>
  <path class="fil3" d="M86.21 48.84c-1.09,-0.45 -19.42,0.08 -22.85,-0.2 -3.08,-0.25 -20.65,-0.7 -21.31,-1.58 -2.13,0 -2.3,-0.44 -1.95,2.1 0.11,0.83 0.56,2.27 0.78,3.1 0.56,2.01 1.28,3.83 2.05,5.51 0.89,1.94 2.2,3.3 1.42,4.84 -0.47,0.94 0.53,4.56 1.26,5.66l39.89 0.05c0.41,-1.4 1.15,-12.39 1.35,-15.32 0.22,-3.03 0.47,-2.12 -0.62,-4.18l-0 0.01z"/>
  <path class="fil3" d="M117.83 67.39c-0.1,-2.22 6.06,-7.46 6.37,-4.59 0.06,0.52 -1.11,3.47 -1.3,3.84 -0.66,1.28 -3.72,1.01 -5.07,0.74l0 0zm-111.3 -18.32l2.85 0.49c0.03,3.12 -2.93,5.04 -3.08,5.35l-0.27 -0.75c-0.02,-0.14 -0.11,-0.13 -0.16,-0.2l-1.55 3.11c1.65,1.32 5.68,1.49 8.82,1.68 5.7,0.33 4.21,0.42 7.93,-2.49 -0.95,-0.23 -0.47,-0.3 -1.17,-1.68 -2.12,-4.15 -9.81,-7.06 -10.47,-7.93 1.82,-0.55 12.64,-0.65 15.32,-0.59 4.46,0.09 11.26,1.33 14.87,1.14l0.11 -0.51c-4.95,-0.86 -8.39,-0.77 -9.62,-5.51 3.6,-4.09 24.46,-5.19 31.01,-4.29 5.11,0.7 9.71,2.44 13.85,4.35 4.65,2.13 7.35,4.66 10.71,7.08l1.11 0.38c0.28,0.09 14.68,0.29 16.88,0.43 4.73,0.29 10.6,2.4 13.55,4.28 2.29,0.59 5.88,2.19 6.05,4.11 -2.13,0.48 -4.06,-1.01 -6.05,-1.36l-6.06 1.93c4.06,3.16 2.68,9.27 3.93,10.76 1.52,1.09 8.46,0.2 10.19,-0.44 -1.21,-1.64 -0.3,-3.34 0.07,-5.7 0.47,-3 1.03,-3.75 -1.01,-5.56 -5.07,-4.5 -13.22,-7.57 -20.14,-8.72 -4.35,-0.73 -9.3,-0.31 -13.77,-0.97 -4.33,-0.13 -6.68,-2.33 -11.16,-4.71 -5.09,-2.71 -6.32,-2.99 -10.69,-5.06l-0.07 -0.29c0,-0.03 0.08,-0.21 0.11,-0.27 -1.94,-1.64 -13.02,-2 -17.48,-2 -11.44,0 -22.2,2.77 -32.09,6.98 -2.45,1.04 -4.25,1.96 -7.17,2.59 -3.2,0.69 -5.35,0.3 -5.35,4.42l-0.01 -0.03z"/>
  <path class="fil4" d="M42.04 47.07c0.66,0.89 18.25,1.33 21.31,1.58 3.43,0.28 21.77,-0.25 22.85,0.2 1.09,2.06 0.83,1.15 0.62,4.18 -0.21,2.93 -0.94,13.91 -1.35,15.32l-39.89 -0.05c-0.73,-1.1 -1.73,-4.72 -1.26,-5.66 0.79,-1.55 -0.52,-2.91 -1.42,-4.84 -0.78,-1.68 -1.5,-3.5 -2.05,-5.51 -0.23,-0.83 -0.67,-2.27 -0.78,-3.1 -0.34,-2.54 -0.17,-2.1 1.95,-2.1l0 -0.01zm-2.32 -0.41l-0.11 0.51 0.28 3.08c0.44,3.08 2.03,6.5 3.21,9.09 0.29,0.62 0.85,1.44 1.08,2.03 0.7,1.77 -0.14,0.9 -0.4,1.99 -0.27,1.13 1.19,3.71 1.11,5.01 -7.75,-0.95 -3.82,0.88 -5.94,-5.77 -1.4,-4.37 -4.16,-5.41 -5.26,-6.69 -4.65,-1.9 -8.02,-2.65 -12.64,0.34 -3.72,2.91 -2.22,2.82 -7.93,2.49 -3.14,-0.18 -7.16,-0.34 -8.82,-1.68 -0.54,0.48 -0.01,3.8 0.1,4.78 0.67,6.24 -0.11,2.09 -0.32,4.54l12.69 2.22c1.01,-4.96 -0.68,-5.12 2.76,-9.41 3.66,-4.56 11.88,-5.2 16.49,0.53 2.86,3.57 1.46,8.3 2.48,9.86 5.6,0.83 20.23,0.01 26.84,0.01l23.53 -0.01c1.5,-0.02 2.82,-0.41 3.01,0.78l0.44 -0.66c-1.93,-0.77 -0.55,-14.04 10.29,-14.11 3.98,-0.02 6.57,1.93 8.42,4.15 2.58,3.09 2.05,6.09 2.25,10.45l-1.34 0.04c2.42,0.92 4.11,1.14 7.27,0.52 1.17,-0.23 5.79,-1.41 6.05,-2.39 -1.73,0.65 -8.67,1.53 -10.19,0.44 -1.26,-1.48 0.12,-7.6 -3.93,-10.76 -3.51,-3.43 -6.8,-4.72 -13.05,-3.01 -2.99,1.79 -4.79,2.58 -6.42,6.13 -2.32,5.07 1.14,7.39 -5.55,7.07l1.25 -18.48 -0.59 -1.1 -1.11 -0.38 -4.34 0.16c-0.05,0.38 1.85,-0.56 -1.64,-2.4 -2.36,-1.24 -2.56,-1.23 -4.74,-0.77 0.16,0.72 0.47,3.15 0.93,3.53l-36.16 -2.14 -0.01 0z"/>
  <path class="fil2" d="M73.79 41.52c-2.94,0.38 -6.31,0.2 -9.46,0.58 -6.04,0.74 -11.99,1.86 -18.07,1.97 -4.75,0.08 -6.62,0.97 -4.42,-3.41 1.77,-3.51 2.45,-2.99 6.68,-3.31 3.09,-0.24 6.53,-0.41 9.6,-0.19 3.57,0.25 13.78,2.63 15.66,4.36zm-42.87 0c1.17,-1.42 9.37,-3.17 12.13,-3.59 -1.43,2.11 -1.94,3.09 -2.78,5.84 -1.73,-0.03 -8.11,-1.38 -9.35,-2.25zm8.79 5.14l36.16 2.14c-0.46,-0.38 -0.78,-2.81 -0.93,-3.53 2.18,-0.46 2.39,-0.47 4.74,0.77 3.48,1.83 1.59,2.78 1.64,2.4l4.34 -0.16c-3.35,-2.42 -6.07,-4.95 -10.71,-7.08 -4.15,-1.91 -8.74,-3.66 -13.85,-4.35 -6.55,-0.89 -27.41,0.2 -31.01,4.29 1.23,4.74 4.67,4.65 9.62,5.51l0.02 0z"/>
  <path class="fil2" d="M34.87 67.27c-1.62,9.99 -16.47,7.19 -14.54,-2.39 1.95,-9.69 15.98,-6.49 14.54,2.39zm-18.09 1.33l1.51 0c1.44,3.01 1.77,4.55 4.88,6.1 4.33,1.54 5.32,1.46 9.32,-0.32l4.27 -4.67 -0.28 -0.23c1.43,0.69 1.74,-0.58 1.77,1.11l53.62 -0.22c-0.19,-1.19 -1.5,-0.8 -3.01,-0.78l-23.53 0.01c-6.61,0 -21.23,0.82 -26.84,-0.01 -1.02,-1.56 0.38,-6.3 -2.48,-9.86 -4.6,-5.73 -12.83,-5.1 -16.49,-0.53 -3.44,4.29 -1.76,4.44 -2.76,9.41l0 -0.01z"/>
  <path class="fil5" d="M21.06 56.24c4.61,-2.99 7.99,-2.22 12.64,-0.34 0.77,-1.07 -0.16,-2.37 1.87,-3.99 0.97,-0.78 2.63,-1.66 4.32,-1.67l-0.28 -3.08c-3.61,0.2 -10.41,-1.05 -14.87,-1.14 -2.67,-0.05 -13.5,0.04 -15.32,0.59 0.66,0.88 8.36,3.8 10.47,7.93 0.7,1.37 0.22,1.45 1.17,1.68l-0 0.01z"/>
  <path class="fil2" d="M109.88 67.27c-1.46,9.88 -16.43,7.34 -14.55,-2.4 1.81,-9.37 15.92,-6.85 14.55,2.4zm-17.54 2.45l1.42 0 -0.31 0.27 4.31 4.61 0.22 0.03c5.17,1.35 3.79,1.64 9.1,0.07l4.88 -4.45 1.34 -0.04c-0.2,-4.36 0.34,-7.36 -2.25,-10.45 -1.86,-2.22 -4.44,-4.18 -8.42,-4.15 -10.84,0.07 -12.22,13.34 -10.29,14.11l-0.01 0.01z"/>
  <path class="fil6" d="M73.79 41.52c-1.89,-1.73 -12.1,-4.1 -15.66,-4.36 -3.08,-0.22 -6.51,-0.05 -9.6,0.19 -4.23,0.32 -4.92,-0.2 -6.68,3.31 -2.2,4.38 -0.34,3.49 4.42,3.41 6.07,-0.11 12.02,-1.23 18.07,-1.97 3.17,-0.39 6.53,-0.2 9.46,-0.58z"/>
  <path class="fil5" d="M87.38 49.78l0.13 1.06c2.11,-0.15 7.65,1.14 9.61,3.31 0.92,1.03 0.03,0.84 0.98,0.9 6.25,-1.72 9.54,-0.43 13.05,3.01l6.06 -1.93c-1.66,-1.42 -5.69,-1.73 -6.67,-3.52 1.51,-1.06 4.94,0.18 6.67,0.78 -2.95,-1.87 -8.83,-3.97 -13.55,-4.28 -2.2,-0.14 -16.6,-0.34 -16.88,-0.43l0.59 1.1 0.01 0.01z"/>
  <path class="fil7" d="M103.09 68.67c0.83,0.16 0.04,-0.43 0.8,0.7 0.58,0.85 0.75,1.59 0.53,2.79 -0.07,0.39 -0.12,0.37 -0.22,0.55 -0.04,-0.04 -0.1,-0.11 -0.13,-0.14l-0.32 -0.42c-0.06,-0.08 -0.19,-0.31 -0.25,-0.41 -0.25,-0.41 -0.3,-0.43 -0.43,-0.88 -0.19,-0.64 -0.23,-1.57 0.02,-2.18l-0.01 -0zm-2.49 4.04c0.09,-1.91 -0.23,-1.91 0.67,-3.49 0.46,-0.81 -0.04,-0.44 0.72,-0.6 0.51,0.96 0.07,2.36 -0.45,3.29 -0.5,0.88 -0.27,0.56 -0.93,0.81l-0.01 -0.01zm3.64 -4.76c1.52,0.02 3.03,1.79 3.03,3.04 -0.58,-0.09 -1.42,-0.58 -1.96,-1.04l-0.73 -0.85c-0.25,-0.43 -0.3,-0.62 -0.34,-1.15zm-6.33 2.94c-0.11,-0.68 -0.09,-0.23 0.33,-0.91 0.46,-0.76 0.75,-1.79 2.69,-2.13 -0.35,2 -2.18,3.14 -3.02,3.03zm10.3 -2.72c-1.03,0.12 -3.29,-0.32 -3.21,-1.45 1.25,-0.27 3.2,0.12 4.01,1.2l-0.8 0.25zm-12.09 -0.25c0.2,-0.28 0.02,-0.3 0.9,-0.74 0.98,-0.48 2.14,-0.86 3.17,-0.37 -0.22,0.82 -0.15,0.44 -0.77,0.79 -0.14,0.07 -0.74,0.41 -0.86,0.45 -0.36,0.11 -0.85,0.12 -1.24,0.12l-1.19 -0.25 -0.01 -0zm8.87 -2.22c0.01,-0.25 -0.43,-0.51 1.32,-1.21 0.69,-0.28 1.82,-0.16 2.67,-0.18 -0.13,0.37 0.28,0.6 -1.74,1.33 -0.65,0.24 -1.61,0.31 -2.26,0.05l0.01 0.01zm-4.83 0c-0.64,0.23 -1.73,0.2 -2.36,-0.02 -0.8,-0.28 -1.38,-0.7 -1.67,-1.32 0.84,-0.02 1.97,-0.13 2.65,0.11 1.91,0.69 1.37,1.11 1.38,1.23l-0 -0zm2.85 -1.94c-0.1,-0.74 -0.13,-1.54 0.14,-2.22l1.06 -1.73c0.3,0.54 0.28,0.72 0.27,1.46 -0.02,1.02 -0.43,2.73 -1.47,2.49l0.01 0zm-0.93 0.07c-1.27,0.01 -1.82,-2.86 -1.2,-4.03 1.15,0.92 1.49,2.65 1.2,4.03zm2.22 0.69c-0.13,-1.66 2.13,-2.94 3,-3.01 -0.1,0.87 0,0.3 -0.45,1.06 -0.42,0.7 -1.02,2.01 -2.56,1.95l0.01 0zm-3.4 0.07c-1.79,-0.24 -2.96,-2 -3.07,-3.01 1.28,-0.15 2.97,1.59 3.07,3.01zm9 2.67c1.37,-9.24 -12.74,-11.77 -14.55,-2.4 -1.88,9.74 13.09,12.28 14.55,2.4z"/>
  <path class="fil7" d="M28.55 71.86c-0.6,-0.94 -0.97,-2.08 -0.5,-3.18 0.83,0.05 0.29,-0.28 0.76,0.5 0.86,1.43 0.56,1.66 0.63,3.5 -0.94,-0.34 -0.11,0.42 -0.9,-0.82l0.01 0zm-2.72 0.83c-0.33,-0.62 -0.38,-1.69 -0.07,-2.6 0.59,-1.71 0.92,-1.41 1.18,-1.46 0.56,1.04 -0.02,2.82 -0.73,3.7 -0.26,0.33 -0.1,0.13 -0.38,0.36l0 0.01zm-2.99 -1.78c-0.09,-0.9 1.09,-2.66 3.08,-3.06 -0.44,1.92 -2.06,3.17 -3.08,3.06zm9.39 0.08c-0.59,-0.07 -1.46,-0.55 -2,-1.02l-0.23 -0.22c-0.01,-0.01 -0.81,-0.82 -0.83,-1.76 1.45,-0.1 3.03,1.76 3.05,3zm-2.28 -4.24c1.31,-0.3 3.2,0.11 4.02,1.19 -0.63,0.31 -1.68,0.41 -2.64,0.05 -1.46,-0.55 -1.4,-0.75 -1.37,-1.23zm-8.88 1.19c0.79,-1.04 2.9,-1.71 4.09,-1.11 -0.41,1.32 -2.99,1.68 -4.09,1.11zm8.8 -2.2c0.29,-1.57 2.9,-1.37 4.1,-1.41 -0.21,0.48 0.14,0.61 -1.77,1.34 -0.65,0.25 -1.75,0.25 -2.32,0.07l0 -0.01zm-4.77 -0.02c-1.15,0.44 -2.38,0.09 -3.35,-0.58 -0.72,-0.5 -0.37,-0.08 -0.69,-0.77 1.73,-0.05 2.33,-0.25 3.47,0.61 0.88,0.66 0.38,-0.06 0.56,0.74l0 0.01zm2.94 -1.89c-0.46,-1.06 -0.1,-2.41 0.54,-3.33 0.62,-0.9 -0.09,-0.35 0.86,-0.67 -0.03,0.84 0.07,1.99 -0.2,2.66 -0.7,1.77 -0.97,1.33 -1.21,1.35l0.01 -0.01zm-2.22 -4.02c0.46,0.33 0.07,-0.07 0.42,0.38 0.01,0.01 0.21,0.41 0.24,0.46 0.56,1.14 0.87,1.36 0.56,3.17 -0.62,0.03 -0.38,0.23 -0.83,-0.49 -0.44,-0.72 -0.64,-1.43 -0.64,-2.27 0,-0.16 0.01,-0.52 0.03,-0.67 0.06,-0.38 0.12,-0.41 0.21,-0.57zm3.44 4.69c-0.11,-1.46 1.82,-2.87 3,-3 -0.07,0.65 -0.56,1.51 -1.03,2.07 -0.42,0.5 -1.23,0.99 -1.97,0.93zm-3.43 0.16c-1.59,-0.17 -2.96,-2.09 -2.99,-3.11 1.24,-0.06 2.98,1.58 2.99,3.11zm9.03 2.6c1.44,-8.87 -12.6,-12.08 -14.54,-2.39 -1.93,9.58 12.92,12.37 14.54,2.39z"/>
  <path class="fil3" d="M98.1 55.05c-0.95,-0.07 -0.06,0.12 -0.98,-0.9 -1.96,-2.18 -7.5,-3.47 -9.61,-3.31l-0.13 -1.06 -1.25 18.48c6.69,0.32 3.23,-2 5.55,-7.07 1.63,-3.56 3.43,-4.34 6.42,-6.13l0 -0.01z"/>
  <path class="fil3" d="M33.7 55.9c1.09,1.28 3.86,2.32 5.26,6.69 2.12,6.64 -1.82,4.82 5.94,5.77 0.07,-1.29 -1.38,-3.88 -1.11,-5.01 0.26,-1.1 1.1,-0.22 0.4,-1.99 -0.23,-0.59 -0.79,-1.4 -1.08,-2.03 -1.19,-2.58 -2.76,-6.02 -3.21,-9.09 -1.69,0.01 -3.35,0.89 -4.32,1.67 -2.03,1.63 -1.1,2.92 -1.87,3.99l0 -0z"/>
  <path class="fil6" d="M30.92 41.52c1.23,0.87 7.62,2.22 9.35,2.25 0.83,-2.75 1.35,-3.73 2.78,-5.84 -2.76,0.43 -10.96,2.17 -12.13,3.59z"/>
  <path class="fil7" d="M117.21 56.13c2,0.35 3.93,1.84 6.05,1.36 -0.17,-1.91 -3.75,-3.51 -6.05,-4.11 -1.73,-0.59 -5.15,-1.84 -6.67,-0.78 0.97,1.78 5.01,2.09 6.67,3.52l0 0.01z"/>
  <path class="fil6" d="M90.43 47.43c-0.6,-0.61 -6.62,-3.66 -7.7,-4.2l-5.28 -2.72c-2.32,-1.04 -6.44,-3.25 -8.84,-3.43 -0.04,0.07 -0.12,0.24 -0.11,0.27l0.07 0.29c4.37,2.09 5.6,2.36 10.69,5.06 4.48,2.38 6.85,4.58 11.16,4.71l0 0.01z"/>
  <path class="fil2" d="M117.83 67.39c1.35,0.28 4.41,0.54 5.07,-0.74 0.2,-0.38 1.36,-3.34 1.3,-3.84 -0.32,-2.87 -6.48,2.37 -6.37,4.59l-0 0z"/>
  <path class="fil4" d="M5.86 53.95c0.05,0.07 0.14,0.06 0.16,0.2l0.27 0.75c0.16,-0.31 3.12,-2.22 3.08,-5.35l-2.85 -0.49c-0.47,0.92 -0.65,1 -0.68,2.21 -0.02,0.88 0.02,1.8 0.02,2.67l0 0.01z"/>
  <path class="fil2" d="M28.05 63.83c0.25,-0.01 0.52,0.43 1.21,-1.35 0.26,-0.67 0.16,-1.82 0.2,-2.66 -0.95,0.33 -0.24,-0.23 -0.86,0.67 -0.64,0.92 -1,2.28 -0.54,3.33l-0.01 0.01z"/>
  <path class="fil2" d="M100.15 65.72c-0.02,-0.11 0.52,-0.54 -1.38,-1.23 -0.68,-0.25 -1.82,-0.14 -2.65,-0.11 0.29,0.62 0.87,1.04 1.67,1.32 0.63,0.22 1.73,0.26 2.36,0.02l0 0z"/>
  <path class="fil2" d="M104.98 65.72c0.65,0.26 1.6,0.19 2.26,-0.05 2.02,-0.74 1.61,-0.97 1.74,-1.33 -0.84,0.02 -1.98,-0.1 -2.67,0.18 -1.75,0.7 -1.32,0.95 -1.32,1.21l-0.01 -0.01z"/>
  <path class="fil2" d="M29.27 64.51c0.74,0.07 1.56,-0.43 1.97,-0.93 0.47,-0.56 0.96,-1.42 1.03,-2.07 -1.18,0.13 -3.11,1.55 -3,3z"/>
  <path class="fil2" d="M32.25 70.99c-0.02,-1.24 -1.6,-3.1 -3.05,-3 0.02,0.93 0.83,1.75 0.83,1.76l0.23 0.22c0.54,0.47 1.41,0.95 2,1.02z"/>
  <path class="fil2" d="M22.85 70.9c1.03,0.11 2.65,-1.14 3.08,-3.06 -2,0.4 -3.18,2.16 -3.08,3.06z"/>
  <path class="fil2" d="M25.84 64.67c-0.02,-1.53 -1.75,-3.17 -2.99,-3.11 0.04,1.01 1.42,2.94 2.99,3.11z"/>
  <path class="fil2" d="M25.84 72.69c0.29,-0.23 0.12,-0.04 0.38,-0.36 0.7,-0.88 1.29,-2.66 0.73,-3.7 -0.26,0.06 -0.59,-0.25 -1.18,1.46 -0.31,0.91 -0.26,1.98 0.07,2.6l0 -0.01z"/>
  <path class="fil2" d="M29.45 72.68c-0.07,-1.84 0.23,-2.08 -0.63,-3.5 -0.47,-0.78 0.07,-0.45 -0.76,-0.5 -0.47,1.1 -0.1,2.24 0.5,3.18 0.79,1.24 -0.04,0.48 0.9,0.82l-0.01 -0z"/>
  <path class="fil2" d="M100.58 72.72c0.67,-0.25 0.44,0.07 0.93,-0.81 0.52,-0.92 0.96,-2.33 0.45,-3.29 -0.76,0.16 -0.26,-0.21 -0.72,0.6 -0.9,1.59 -0.58,1.58 -0.67,3.49l0.01 0.01z"/>
  <path class="fil2" d="M97.81 61.59c0.11,1.01 1.28,2.77 3.07,3.01 -0.1,-1.42 -1.79,-3.16 -3.07,-3.01z"/>
  <path class="fil2" d="M21.08 67.93c1.1,0.58 3.68,0.21 4.09,-1.11 -1.19,-0.6 -3.29,0.07 -4.09,1.11z"/>
  <path class="fil2" d="M29.89 65.73c0.57,0.18 1.68,0.18 2.32,-0.07 1.91,-0.74 1.56,-0.85 1.77,-1.34 -1.21,0.04 -3.82,-0.16 -4.1,1.41l0 0.01z"/>
  <path class="fil2" d="M104.28 64.52c1.54,0.06 2.14,-1.25 2.56,-1.95 0.45,-0.75 0.35,-0.19 0.45,-1.06 -0.88,0.07 -3.13,1.35 -3,3.01l-0.01 0z"/>
  <path class="fil2" d="M107.26 71c0,-1.25 -1.51,-3.02 -3.03,-3.04 0.04,0.52 0.1,0.73 0.34,1.15l0.73 0.85c0.54,0.46 1.38,0.95 1.96,1.04z"/>
  <path class="fil2" d="M97.9 70.9c0.84,0.11 2.67,-1.03 3.02,-3.03 -1.94,0.34 -2.23,1.37 -2.69,2.13 -0.42,0.69 -0.43,0.23 -0.33,0.91z"/>
  <path class="fil2" d="M25.13 65.72c-0.19,-0.79 0.33,-0.08 -0.56,-0.74 -1.15,-0.85 -1.74,-0.65 -3.47,-0.61 0.32,0.69 -0.03,0.27 0.69,0.77 0.97,0.66 2.21,1.02 3.35,0.58l0 -0.01z"/>
  <path class="fil2" d="M27.06 63.82c0.3,-1.82 0,-2.04 -0.56,-3.17 -0.02,-0.05 -0.23,-0.45 -0.24,-0.46 -0.34,-0.44 0.04,-0.04 -0.42,-0.38 -0.08,0.16 -0.16,0.2 -0.21,0.57 -0.02,0.16 -0.03,0.51 -0.03,0.67 0,0.84 0.19,1.55 0.64,2.27 0.44,0.71 0.21,0.52 0.83,0.49z"/>
  <path class="fil2" d="M33.99 67.93c-0.83,-1.07 -2.71,-1.48 -4.02,-1.19 -0.02,0.47 -0.09,0.68 1.37,1.23 0.97,0.36 2.01,0.26 2.64,-0.05z"/>
  <path class="fil2" d="M102.06 63.84c0.29,-1.38 -0.06,-3.12 -1.2,-4.03 -0.62,1.17 -0.07,4.05 1.2,4.03z"/>
  <path class="fil2" d="M104.19 72.69c0.11,-0.18 0.16,-0.16 0.22,-0.55 0.21,-1.19 0.04,-1.93 -0.53,-2.79 -0.76,-1.12 0.02,-0.53 -0.8,-0.7 -0.25,0.61 -0.21,1.55 -0.02,2.18 0.13,0.46 0.2,0.47 0.43,0.88 0.06,0.1 0.2,0.34 0.25,0.41l0.32 0.42c0.02,0.03 0.08,0.09 0.13,0.14l0.01 0z"/>
  <path class="fil2" d="M96.11 67.93l1.19 0.25c0.39,0 0.88,-0.02 1.24,-0.12 0.12,-0.04 0.72,-0.38 0.86,-0.45 0.63,-0.34 0.56,0.04 0.77,-0.79 -1.03,-0.49 -2.19,-0.11 -3.17,0.37 -0.89,0.43 -0.7,0.47 -0.9,0.74l0.01 0z"/>
  <path class="fil2" d="M104.99 66.73c-0.08,1.13 2.18,1.56 3.21,1.45l0.8 -0.25c-0.81,-1.08 -2.76,-1.47 -4.01,-1.2z"/>
  <path class="fil2" d="M103 63.77c1.05,0.24 1.46,-1.47 1.47,-2.49 0.01,-0.74 0.03,-0.92 -0.27,-1.46l-1.06 1.73c-0.27,0.69 -0.24,1.49 -0.14,2.22l-0.01 0z"/>
  <path class="fil2" d="M88.37 51.82l-46.79 0c-0.85,0 -1.55,0.69 -1.55,1.55l0 7.66c0,0.85 0.69,1.55 1.55,1.55l46.79 0c0.85,-0 1.55,-0.69 1.55,-1.55l0 -7.66c-0,-0.85 -0.69,-1.55 -1.55,-1.55z"/>
  <path class="fil8" d="M81.97 54.77c0.02,-0.02 0.02,-0.05 0.04,-0.07 0.14,-0.2 0.34,-0.3 0.58,-0.3l1.26 0c0.31,0 0.57,0.19 0.67,0.48l0.39 1.16 0.38 -1.15c0.1,-0.29 0.36,-0.48 0.67,-0.48l1.23 0c0.24,0 0.44,0.11 0.58,0.3 0.14,0.2 0.16,0.43 0.08,0.65l-1.86 5.08c0,0.01 -0.01,0.02 -0.01,0.02 -0.1,0.25 -0.22,0.51 -0.37,0.73 -0.14,0.2 -0.3,0.38 -0.5,0.52 -0.2,0.15 -0.43,0.24 -0.68,0.3 -0.25,0.07 -0.52,0.1 -0.79,0.1 -0.28,0 -0.55,-0.03 -0.82,-0.09 -0.3,-0.07 -0.52,-0.3 -0.56,-0.61l-0.11 -0.92c-0.01,-0.07 -0.01,-0.12 0,-0.19l-1.1 0c-0.16,0 -0.3,-0.05 -0.43,-0.14 -0.03,0.02 -0.07,0.03 -0.1,0.04 -0.32,0.14 -0.66,0.2 -1.01,0.2 -0.58,0 -1.14,-0.16 -1.57,-0.56 -0.16,-0.15 -0.29,-0.32 -0.38,-0.5 -0.05,0.07 -0.11,0.14 -0.16,0.2 -0.49,0.56 -1.12,0.86 -1.86,0.86 -0.2,0 -0.4,-0.02 -0.6,-0.07l0 0.95c0,0.39 -0.32,0.71 -0.71,0.71l-1.18 0c-0.39,0 -0.71,-0.32 -0.71,-0.71l0 -6.17c0,-0.39 0.32,-0.71 0.71,-0.71l1.1 0c0.15,0 0.28,0.04 0.39,0.12 0.31,-0.15 0.65,-0.21 1,-0.21 0.74,0 1.37,0.3 1.85,0.85 0.11,0.12 0.2,0.26 0.29,0.4 0.16,-0.31 0.38,-0.59 0.68,-0.8 0.49,-0.35 1.13,-0.44 1.73,-0.44 0.48,0 1.05,0.04 1.49,0.25 0.13,0.07 0.25,0.13 0.36,0.21l-0.01 0zm0.74 2.6l-0.01 0.74c0,0.22 0,0.52 0.04,0.73 0.03,0.15 0.09,0.29 0.16,0.43 0.07,0.14 0.09,0.28 0.07,0.42 0.02,0 0.04,0.01 0.07,0.01 0.12,0.02 0.25,0.04 0.37,0.04 0.02,0 0.06,0 0.08,-0.01 0.03,-0.04 0.06,-0.09 0.08,-0.14l-0.84 -2.22 -0.01 0.01zm-26.14 -3l0 -0.97c0,-0.39 0.32,-0.71 0.71,-0.71l1.18 0c0.39,0 0.71,0.32 0.71,0.71l0 1.39 0.14 -0.16c0.14,-0.16 0.32,-0.24 0.53,-0.24l1.46 0c0.29,0 0.53,0.16 0.65,0.43 0.11,0.26 0.07,0.56 -0.13,0.77l-1.17 1.25 1.37 2.38c0.13,0.23 0.13,0.48 0,0.71 -0.13,0.23 -0.35,0.35 -0.61,0.35l-1.28 0c-0.26,0 -0.49,-0.13 -0.62,-0.36l-0.35 -0.62 0 0.28c0,0.39 -0.32,0.71 -0.71,0.71l-1.18 0c-0.39,0 -0.71,-0.32 -0.71,-0.71l0 -2.62c-0.18,0.03 -0.35,0 -0.51,-0.11 -0.03,-0.02 -0.1,-0.06 -0.15,-0.07 -0.02,0.04 -0.02,0.08 -0.03,0.11 -0.08,0.3 -0.07,0.99 -0.07,1.31l0 1.38c0,0.39 -0.32,0.71 -0.71,0.71l-1.18 0c-0.39,0 -0.71,-0.32 -0.71,-0.71l0 -0.44c-0.09,0.13 -0.2,0.26 -0.32,0.38 -0.58,0.6 -1.32,0.88 -2.15,0.88 -0.52,0 -1.02,-0.12 -1.49,-0.35 -0.5,-0.25 -0.89,-0.62 -1.15,-1.11 -0.12,-0.23 -0.21,-0.47 -0.27,-0.72l-0.51 1.58c-0.1,0.29 -0.36,0.49 -0.67,0.49l-1.14 0c-0.33,0 -0.6,-0.21 -0.69,-0.52l-0.08 -0.29 -0.07 0.29c-0.08,0.32 -0.36,0.53 -0.69,0.53l-1.15 0c-0.31,0 -0.58,-0.2 -0.68,-0.5l-1.42 -4.47c-0.07,-0.22 -0.03,-0.44 0.11,-0.63 0.14,-0.19 0.34,-0.29 0.57,-0.29l1.15 0c0.32,0 0.6,0.2 0.68,0.52l0.13 0.45 0.11 -0.43c0.08,-0.32 0.36,-0.53 0.69,-0.53l1.14 0c0.33,0 0.61,0.21 0.69,0.53l0.11 0.41 0.12 -0.43c0.09,-0.31 0.36,-0.51 0.68,-0.51l1.17 0c0.24,0 0.43,0.11 0.57,0.29 0.07,0.09 0.11,0.18 0.12,0.28 0.13,-0.11 0.27,-0.2 0.43,-0.29 0.47,-0.26 0.99,-0.38 1.53,-0.38 0.83,0 1.58,0.27 2.17,0.87 0.11,0.11 0.22,0.25 0.31,0.37l0 -0.44c0,-0.39 0.32,-0.71 0.71,-0.71l1.1 0c0.11,0 0.2,0.02 0.29,0.07 0.23,-0.11 0.47,-0.16 0.73,-0.16 0.19,0 0.36,0.02 0.54,0.07l0.02 -0zm11.65 5.56c-0.16,0.1 -0.34,0.19 -0.52,0.25 -0.4,0.15 -0.83,0.2 -1.25,0.2 -0.85,0 -1.68,-0.24 -2.26,-0.88 -0.41,-0.46 -0.63,-1.01 -0.63,-1.63 0,-0.55 0.16,-1.06 0.5,-1.49 0.17,-0.23 0.38,-0.43 0.61,-0.61 -0.04,-0.07 -0.07,-0.13 -0.11,-0.2 -0.14,-0.29 -0.23,-0.61 -0.23,-0.95 0,-0.59 0.25,-1.1 0.69,-1.48 0.48,-0.43 1.11,-0.56 1.74,-0.56 0.63,0 1.24,0.16 1.73,0.59 0.44,0.4 0.68,0.92 0.68,1.52 0,0.4 -0.12,0.77 -0.34,1.1 -0.03,0.05 -0.07,0.1 -0.11,0.15l0.96 0.21c0.2,0.04 0.35,0.16 0.45,0.33 0.11,0.17 0.13,0.36 0.07,0.56 -0.08,0.29 -0.18,0.62 -0.3,0.9 0,0 0.01,0.01 0.01,0.01 0.11,0.07 0.25,0.18 0.36,0.24 0.2,0.1 0.34,0.26 0.38,0.47 0.05,0.21 0,0.43 -0.13,0.6l-0.72 0.91c-0.2,0.26 -0.56,0.34 -0.87,0.2 -0.25,-0.12 -0.5,-0.27 -0.72,-0.44l-0.01 0.01zm-17.86 -2.58c0,0.16 0.02,0.42 0.13,0.55 0.07,0.08 0.14,0.11 0.25,0.11 0.11,0 0.17,-0.03 0.25,-0.11 0.11,-0.13 0.14,-0.39 0.14,-0.56 0,-0.16 -0.02,-0.41 -0.14,-0.54 -0.07,-0.08 -0.14,-0.11 -0.25,-0.11 -0.11,0 -0.18,0.03 -0.25,0.11 -0.11,0.13 -0.13,0.38 -0.13,0.55l0 0zm15.84 0.43c-0.01,0.02 -0.01,0.05 -0.01,0.07 0,0.05 0,0.09 0.03,0.11 0.03,0.03 0.11,0.04 0.16,0.04l-0.19 -0.23zm8.76 -0.51c0,0.17 0.02,0.52 0.14,0.66 0.05,0.07 0.1,0.11 0.18,0.11 0.07,0 0.1,-0.02 0.14,-0.07 0.1,-0.11 0.11,-0.5 0.11,-0.64 0,-0.16 -0.02,-0.47 -0.12,-0.6 -0.04,-0.06 -0.08,-0.08 -0.15,-0.08 -0.08,0 -0.12,0.02 -0.18,0.09 -0.1,0.12 -0.11,0.39 -0.11,0.54l-0.01 -0.01z"/>
  <path class="fil9" d="M42.82 59.57l-1.42 -4.47 1.15 0 0.83 2.93 0.77 -2.93 1.14 0 0.74 2.93 0.85 -2.93 1.17 0 -1.44 4.47 -1.14 0 -0.77 -2.88 -0.76 2.88 -1.15 0 0.02 0zm5.59 -2.29c0,-0.39 0.1,-0.78 0.29,-1.15 0.2,-0.37 0.47,-0.65 0.83,-0.84 0.35,-0.2 0.75,-0.29 1.19,-0.29 0.68,0 1.23,0.22 1.66,0.66 0.43,0.44 0.65,1 0.65,1.67 0,0.68 -0.22,1.23 -0.65,1.68 -0.43,0.44 -0.98,0.67 -1.64,0.67 -0.41,0 -0.8,-0.09 -1.17,-0.28 -0.37,-0.19 -0.65,-0.46 -0.85,-0.82 -0.2,-0.36 -0.29,-0.79 -0.29,-1.31l0 0zm1.21 0.07c0,0.44 0.11,0.79 0.31,1.02 0.21,0.24 0.47,0.35 0.78,0.35 0.31,0 0.56,-0.11 0.78,-0.35 0.2,-0.24 0.31,-0.58 0.31,-1.03 0,-0.44 -0.11,-0.78 -0.31,-1.01 -0.2,-0.24 -0.47,-0.35 -0.78,-0.35 -0.31,0 -0.56,0.11 -0.78,0.35 -0.21,0.24 -0.31,0.57 -0.31,1.02l0 0zm5.45 2.22l-1.18 0 0 -4.47 1.1 0 0 0.64c0.19,-0.3 0.36,-0.5 0.51,-0.59 0.15,-0.09 0.32,-0.14 0.52,-0.14 0.27,0 0.53,0.07 0.78,0.22l-0.37 1.03c-0.2,-0.13 -0.38,-0.2 -0.56,-0.2 -0.16,0 -0.31,0.05 -0.43,0.14 -0.11,0.09 -0.2,0.25 -0.27,0.49 -0.07,0.24 -0.1,0.74 -0.1,1.5l0 1.38 0 0zm2.18 0l0 -6.17 1.18 0 0 3.27 1.38 -1.58 1.46 0 -1.52 1.64 1.64 2.84 -1.28 0 -1.13 -2.02 -0.55 0.59 0 1.43 -1.18 0 0 0zm12.69 -0.74l-0.72 0.91c-0.35,-0.17 -0.69,-0.41 -1.01,-0.7 -0.25,0.22 -0.52,0.39 -0.79,0.5 -0.28,0.11 -0.61,0.16 -1,0.16 -0.77,0 -1.34,-0.22 -1.73,-0.65 -0.3,-0.34 -0.45,-0.72 -0.45,-1.15 0,-0.39 0.11,-0.75 0.35,-1.07 0.24,-0.32 0.59,-0.59 1.06,-0.83 -0.21,-0.25 -0.37,-0.49 -0.47,-0.71 -0.11,-0.23 -0.16,-0.44 -0.16,-0.65 0,-0.38 0.15,-0.69 0.45,-0.95 0.29,-0.26 0.72,-0.39 1.28,-0.39 0.53,0 0.95,0.14 1.25,0.41 0.3,0.27 0.45,0.61 0.45,1 0,0.25 -0.07,0.49 -0.22,0.71 -0.15,0.22 -0.44,0.47 -0.89,0.76l0.85 1.15c0.1,-0.18 0.19,-0.41 0.26,-0.7l1.07 0.24c-0.11,0.38 -0.2,0.65 -0.28,0.83 -0.07,0.17 -0.16,0.32 -0.25,0.44 0.13,0.12 0.3,0.26 0.52,0.41 0.21,0.15 0.36,0.25 0.46,0.29l0 -0.01zm-3.21 -3.36l0.32 -0.25c0.24,-0.18 0.35,-0.36 0.35,-0.54 0,-0.16 -0.06,-0.28 -0.17,-0.38 -0.11,-0.11 -0.26,-0.16 -0.46,-0.16 -0.19,0 -0.34,0.05 -0.44,0.14 -0.11,0.1 -0.16,0.2 -0.16,0.33 0,0.15 0.09,0.32 0.27,0.53l0.29 0.34 0 0zm-0.47 1.28c-0.27,0.14 -0.47,0.3 -0.61,0.5 -0.13,0.2 -0.2,0.39 -0.2,0.6 0,0.25 0.08,0.47 0.25,0.63 0.16,0.16 0.38,0.25 0.67,0.25 0.18,0 0.36,-0.03 0.53,-0.11 0.17,-0.07 0.36,-0.2 0.56,-0.36l-1.19 -1.49 -0.01 -0.02zm6.8 -1.65l1.1 0 0 0.65c0.15,-0.22 0.34,-0.4 0.58,-0.55 0.25,-0.14 0.52,-0.2 0.81,-0.2 0.52,0 0.96,0.2 1.32,0.61 0.36,0.41 0.54,0.97 0.54,1.7 0,0.74 -0.18,1.32 -0.55,1.74 -0.37,0.42 -0.81,0.62 -1.32,0.62 -0.25,0 -0.47,-0.05 -0.67,-0.15 -0.2,-0.1 -0.41,-0.26 -0.63,-0.51l0 2.23 -1.18 0 0 -6.17 -0 0.01zm1.16 2.17c0,0.51 0.1,0.88 0.3,1.12 0.2,0.24 0.44,0.36 0.73,0.36 0.28,0 0.5,-0.11 0.69,-0.34 0.18,-0.22 0.27,-0.58 0.27,-1.09 0,-0.47 -0.09,-0.82 -0.28,-1.05 -0.19,-0.23 -0.42,-0.34 -0.7,-0.34 -0.29,0 -0.53,0.11 -0.72,0.34 -0.19,0.22 -0.29,0.56 -0.29,1l-0.01 0zm5.01 -0.79l-1.07 -0.19c0.12,-0.43 0.33,-0.76 0.62,-0.97 0.29,-0.21 0.74,-0.31 1.31,-0.31 0.52,0 0.92,0.07 1.18,0.19 0.25,0.12 0.44,0.29 0.55,0.47 0.11,0.2 0.16,0.55 0.16,1.06l-0.02 1.38c0,0.39 0.02,0.68 0.06,0.87 0.04,0.19 0.11,0.38 0.21,0.6l-1.17 0c-0.03,-0.07 -0.07,-0.2 -0.11,-0.34 -0.02,-0.07 -0.03,-0.11 -0.04,-0.14 -0.2,0.2 -0.42,0.34 -0.65,0.44 -0.23,0.1 -0.47,0.15 -0.74,0.15 -0.46,0 -0.82,-0.12 -1.09,-0.38 -0.26,-0.25 -0.39,-0.56 -0.39,-0.95 0,-0.25 0.06,-0.47 0.18,-0.67 0.12,-0.2 0.29,-0.35 0.51,-0.45 0.22,-0.11 0.53,-0.2 0.94,-0.28 0.55,-0.11 0.93,-0.2 1.15,-0.29l0 -0.12c0,-0.23 -0.06,-0.39 -0.17,-0.49 -0.11,-0.1 -0.33,-0.15 -0.64,-0.15 -0.21,0 -0.38,0.04 -0.49,0.12 -0.12,0.08 -0.21,0.23 -0.29,0.44l0.01 0zm1.59 0.96c-0.15,0.05 -0.39,0.11 -0.72,0.18 -0.33,0.07 -0.54,0.14 -0.65,0.2 -0.16,0.11 -0.23,0.25 -0.23,0.42 0,0.16 0.07,0.31 0.19,0.43 0.12,0.12 0.28,0.18 0.47,0.18 0.21,0 0.42,-0.07 0.61,-0.21 0.14,-0.11 0.24,-0.24 0.28,-0.39 0.03,-0.1 0.05,-0.29 0.05,-0.57l0 -0.24 -0.01 0.01zm1.76 -2.33l1.26 0 1.07 3.17 1.05 -3.17 1.23 0 -1.58 4.3 -0.29 0.78c-0.11,0.26 -0.2,0.46 -0.3,0.6 -0.09,0.14 -0.2,0.25 -0.33,0.34 -0.12,0.09 -0.27,0.16 -0.45,0.2 -0.18,0.05 -0.38,0.07 -0.61,0.07 -0.23,0 -0.45,-0.02 -0.67,-0.07l-0.11 -0.92c0.19,0.03 0.35,0.06 0.5,0.06 0.28,0 0.48,-0.08 0.61,-0.25 0.13,-0.16 0.24,-0.37 0.3,-0.62l-1.7 -4.48 0.01 0.01z"/>
  <g id="_2327752226816">
   <circle class="fil10" transform="matrix(-0.954099 1.09869 1.09869 0.954099 88.5765 53.2957)" r="0.56"/>
   <circle class="fil11" transform="matrix(-0.655676 0.75504 0.75504 0.655676 88.5765 53.2957)" r="0.56"/>
   <rect class="fil10" transform="matrix(-0.655676 0.75504 0.75504 0.655676 88.2224 52.7477)" width="0.36" height="1.25"/>
  </g>
  <g id="_2327752226080">
   <circle class="fil10" transform="matrix(0.954099 1.09869 -1.09869 0.954099 42.0057 61.1628)" r="0.56"/>
   <circle class="fil11" transform="matrix(0.655676 0.75504 -0.75504 0.655676 42.0058 61.1628)" r="0.56"/>
   <rect class="fil10" transform="matrix(0.655676 0.75504 -0.75504 0.655676 42.3599 60.6148)" width="0.36" height="1.25"/>
  </g>
  <g id="_2327752227296">
   <circle class="fil10" transform="matrix(0.954099 1.09869 -1.09869 0.954099 42.0057 53.2197)" r="0.56"/>
   <circle class="fil11" transform="matrix(0.655676 0.75504 -0.75504 0.655676 42.0058 53.2197)" r="0.56"/>
   <rect class="fil10" transform="matrix(0.655676 0.75504 -0.75504 0.655676 42.3599 52.6716)" width="0.36" height="1.25"/>
  </g>
  <g id="_2327752231072">
   <circle class="fil10" transform="matrix(0.954099 1.09869 -1.09869 0.954099 88.5765 61.1144)" r="0.56"/>
   <circle class="fil11" transform="matrix(0.655676 0.75504 -0.75504 0.655676 88.5765 61.1144)" r="0.56"/>
   <rect class="fil10" transform="matrix(0.655676 0.75504 -0.75504 0.655676 88.9307 60.5663)" width="0.36" height="1.25"/>
  </g>
 </g>
</svg>
