<?xml version="1.0" encoding="UTF-8"?>
<!DOCTYPE svg PUBLIC "-//W3C//DTD SVG 1.1//EN" "http://www.w3.org/Graphics/SVG/1.1/DTD/svg11.dtd">
<!-- Creator: CorelDRAW 2018 (64-Bit) -->
<svg xmlns="http://www.w3.org/2000/svg" xml:space="preserve" width="4.50955in" height="4.31203in" version="1.1" style="shape-rendering:geometricPrecision; text-rendering:geometricPrecision; image-rendering:optimizeQuality; fill-rule:evenodd; clip-rule:evenodd"
viewBox="0 0 153.82 147.08"
 xmlns:xlink="http://www.w3.org/1999/xlink">
 <defs>
  <style type="text/css">
   <![CDATA[
    .fil0 {fill:none}
    .fil11 {fill:#727376}
    .fil9 {fill:#BA3437}
    .fil12 {fill:#353333}
    .fil5 {fill:#353432}
    .fil2 {fill:#353432}
    .fil7 {fill:#47617B}
    .fil1 {fill:#BDBDBE}
    .fil4 {fill:#C63430}
    .fil8 {fill:#DDDCDC}
    .fil3 {fill:#F04C42}
    .fil6 {fill:#F16D62}
    .fil10 {fill:#F7F7F8;fill-rule:nonzero}
   ]]>
  </style>
 </defs>
 <g id="Layer_x0020_1">
  <metadata id="CorelCorpID_0Corel-Layer"/>
  <rect class="fil0" x="-0" width="152.24" height="147.08"/>
  <path class="fil1" d="M119.06 90.94c4.9,2.17 6.09,2.27 11.4,0.39l21.45 0.94 -0.01 0.28c-3.92,2.49 -141,2.49 -144.93,0l20.9 -1.24c6.5,1.92 4.81,1.58 11.13,-0.08l0.27 -0.04 79.79 -0.26z"/>
  <circle class="fil2" cx="33.39" cy="81.01" r="12.73"/>
  <circle class="fil2" cx="125.09" cy="81" r="12.73"/>
  <path class="fil3" d="M53.38 59.72c1.33,-0.55 23.75,0.1 27.94,-0.24 3.76,-0.3 25.25,-0.85 26.06,-1.93 2.6,0 2.81,-0.54 2.39,2.57 -0.14,1.01 -0.68,2.78 -0.95,3.79 -0.68,2.46 -1.56,4.68 -2.51,6.74 -1.09,2.37 -2.69,4.03 -1.73,5.92 0.58,1.15 -0.65,5.57 -1.54,6.92l-48.77 0.06c-0.5,-1.71 -1.4,-15.15 -1.65,-18.73 -0.27,-3.7 -0.58,-2.59 0.76,-5.11z"/>
  <path class="fil3" d="M14.73 82.39c0.12,-2.71 -7.41,-9.12 -7.79,-5.61 -0.07,0.63 1.36,4.24 1.59,4.7 0.81,1.57 4.55,1.24 6.2,0.91zm136.08 -22.4l-3.48 0.6c-0.04,3.82 3.58,6.16 3.77,6.54l0.33 -0.92c0.03,-0.17 0.13,-0.16 0.19,-0.24l1.9 3.8c-2.02,1.62 -6.94,1.82 -10.78,2.05 -6.97,0.4 -5.15,0.51 -9.7,-3.05 1.16,-0.28 0.57,-0.37 1.43,-2.05 2.59,-5.07 11.99,-8.63 12.8,-9.7 -2.23,-0.67 -15.46,-0.79 -18.73,-0.72 -5.45,0.11 -13.77,1.63 -18.18,1.39l-0.13 -0.62c6.05,-1.05 10.26,-0.94 11.76,-6.74 -4.4,-5 -29.91,-6.34 -37.92,-5.25 -6.25,0.85 -11.87,2.98 -16.94,5.32 -5.68,2.61 -8.99,5.7 -13.1,8.66l-1.36 0.47c-0.34,0.11 -17.95,0.36 -20.64,0.53 -5.78,0.36 -12.96,2.94 -16.57,5.23 -2.8,0.72 -7.19,2.68 -7.4,5.02 2.61,0.59 4.96,-1.24 7.4,-1.66l7.41 2.36c-4.96,3.86 -3.28,11.34 -4.81,13.15 -1.86,1.33 -10.34,0.25 -12.46,-0.54 1.48,-2 0.37,-4.08 -0.08,-6.97 -0.57,-3.67 -1.26,-4.59 1.23,-6.8 6.2,-5.5 16.16,-9.25 24.63,-10.66 5.32,-0.89 11.37,-0.38 16.83,-1.18 5.29,-0.16 8.17,-2.85 13.65,-5.76 6.22,-3.31 7.73,-3.65 13.07,-6.19l0.09 -0.36c0,-0.04 -0.1,-0.26 -0.14,-0.33 2.37,-2.01 15.92,-2.44 21.37,-2.44 13.99,0 27.14,3.39 39.24,8.53 2.99,1.27 5.2,2.4 8.77,3.17 3.91,0.84 6.54,0.37 6.54,5.4z"/>
  <path class="fil4" d="M107.39 57.55c-0.81,1.09 -22.31,1.63 -26.06,1.93 -4.19,0.34 -26.62,-0.31 -27.94,0.24 -1.33,2.52 -1.02,1.41 -0.76,5.11 0.26,3.58 1.15,17.01 1.65,18.73l48.77 -0.06c0.89,-1.35 2.12,-5.77 1.54,-6.92 -0.96,-1.89 0.64,-3.56 1.73,-5.92 0.95,-2.06 1.83,-4.28 2.51,-6.74 0.28,-1.01 0.82,-2.77 0.95,-3.79 0.42,-3.11 0.21,-2.57 -2.39,-2.57zm2.84 -0.5l0.13 0.62 -0.34 3.76c-0.54,3.76 -2.48,7.95 -3.93,11.12 -0.35,0.76 -1.04,1.76 -1.32,2.48 -0.86,2.16 0.17,1.1 0.49,2.43 0.33,1.38 -1.45,4.54 -1.36,6.12 9.48,-1.16 4.67,1.07 7.26,-7.05 1.71,-5.34 5.09,-6.61 6.43,-8.18 5.68,-2.32 9.81,-3.24 15.45,0.41 4.55,3.56 2.72,3.45 9.7,3.05 3.84,-0.22 8.76,-0.42 10.78,-2.05 0.66,0.59 0.01,4.65 -0.12,5.85 -0.82,7.63 0.14,2.55 0.39,5.55l-15.52 2.71c-1.23,-6.07 0.83,-6.26 -3.38,-11.5 -4.48,-5.58 -14.53,-6.36 -20.16,0.65 -3.5,4.36 -1.78,10.15 -3.03,12.06 -6.85,1.01 -24.73,0.01 -32.81,0.01l-28.77 -0.01c-1.84,-0.02 -3.45,-0.5 -3.68,0.95l-0.54 -0.81c2.36,-0.94 0.67,-17.16 -12.58,-17.25 -4.87,-0.03 -8.03,2.36 -10.3,5.08 -3.16,3.78 -2.51,7.45 -2.75,12.78l1.64 0.05c-2.96,1.12 -5.03,1.39 -8.89,0.63 -1.43,-0.28 -7.08,-1.72 -7.4,-2.92 2.12,0.79 10.6,1.87 12.46,0.54 1.54,-1.81 -0.15,-9.29 4.81,-13.15 4.29,-4.19 8.32,-5.77 15.96,-3.68 3.66,2.19 5.86,3.15 7.85,7.5 2.84,6.2 -1.39,9.04 6.79,8.65l-1.53 -22.6 0.72 -1.34 1.36 -0.47 5.31 0.19c0.06,0.46 -2.26,-0.69 2,-2.93 2.89,-1.52 3.13,-1.5 5.8,-0.94 -0.19,0.88 -0.57,3.85 -1.14,4.31l44.21 -2.62z"/>
  <path class="fil5" d="M68.57 50.77c3.59,0.46 7.71,0.24 11.57,0.71 7.39,0.91 14.66,2.28 22.09,2.41 5.81,0.1 8.09,1.18 5.4,-4.17 -2.16,-4.29 -2.99,-3.66 -8.17,-4.05 -3.78,-0.29 -7.98,-0.5 -11.74,-0.23 -4.36,0.31 -16.85,3.22 -19.15,5.33zm52.41 -0c-1.43,-1.74 -11.46,-3.87 -14.83,-4.39 1.75,2.58 2.37,3.78 3.4,7.14 2.11,-0.04 9.92,-1.69 11.43,-2.75zm-10.75 6.29l-44.21 2.62c0.56,-0.47 0.95,-3.44 1.14,-4.31 -2.67,-0.56 -2.92,-0.58 -5.8,0.94 -4.26,2.24 -1.94,3.4 -2,2.93l-5.31 -0.19c4.1,-2.96 7.42,-6.05 13.1,-8.66 5.07,-2.33 10.69,-4.47 16.94,-5.32 8.01,-1.09 33.51,0.25 37.92,5.25 -1.5,5.8 -5.71,5.68 -11.76,6.74z"/>
  <path class="fil5" d="M116.16 82.25c1.98,12.21 20.14,8.79 17.78,-2.92 -2.39,-11.85 -19.54,-7.93 -17.78,2.92zm22.12 1.63l-1.85 0c-1.76,3.68 -2.16,5.56 -5.97,7.46 -5.3,1.88 -6.5,1.78 -11.4,-0.39l-5.22 -5.71 0.34 -0.28c-1.75,0.84 -2.13,-0.71 -2.17,1.36l-65.56 -0.27c0.23,-1.45 1.84,-0.98 3.68,-0.95l28.77 0.01c8.08,0 25.96,1 32.81,-0.01 1.25,-1.91 -0.47,-7.7 3.03,-12.06 5.63,-7.01 15.69,-6.23 20.16,-0.65 4.21,5.24 2.15,5.43 3.38,11.5z"/>
  <path class="fil6" d="M133.04 68.76c-5.64,-3.65 -9.77,-2.72 -15.45,-0.41 -0.94,-1.31 0.19,-2.9 -2.29,-4.88 -1.19,-0.95 -3.21,-2.03 -5.28,-2.04l0.34 -3.76c4.41,0.25 12.73,-1.28 18.18,-1.39 3.27,-0.06 16.5,0.05 18.73,0.72 -0.81,1.08 -10.22,4.64 -12.8,9.7 -0.86,1.68 -0.27,1.77 -1.43,2.05z"/>
  <path class="fil5" d="M24.45 82.25c1.79,12.08 20.09,8.98 17.79,-2.93 -2.21,-11.46 -19.46,-8.37 -17.79,2.93zm21.45 2.99l-1.74 0 0.38 0.33 -5.27 5.64 -0.27 0.04c-6.32,1.65 -4.63,2 -11.13,0.08l-5.97 -5.44 -1.64 -0.05c0.24,-5.33 -0.41,-9 2.75,-12.78 2.27,-2.71 5.43,-5.11 10.3,-5.08 13.25,0.09 14.94,16.31 12.58,17.25z"/>
  <path class="fil7" d="M68.57 50.77c2.31,-2.11 14.8,-5.01 19.15,-5.33 3.76,-0.27 7.96,-0.06 11.74,0.23 5.17,0.39 6.01,-0.25 8.17,4.05 2.69,5.36 0.41,4.27 -5.4,4.17 -7.42,-0.13 -14.7,-1.5 -22.09,-2.41 -3.87,-0.48 -7.99,-0.25 -11.57,-0.71z"/>
  <path class="fil6" d="M51.96 60.86l-0.16 1.29c-2.58,-0.18 -9.35,1.39 -11.75,4.05 -1.13,1.26 -0.04,1.03 -1.2,1.1 -7.64,-2.1 -11.67,-0.52 -15.96,3.68l-7.41 -2.36c2.03,-1.74 6.96,-2.12 8.15,-4.3 -1.85,-1.3 -6.04,0.22 -8.15,0.95 3.61,-2.29 10.79,-4.86 16.57,-5.23 2.69,-0.17 20.3,-0.42 20.64,-0.53l-0.72 1.34z"/>
  <path class="fil8" d="M32.75 83.96c-1.01,0.19 -0.05,-0.52 -0.98,0.85 -0.71,1.04 -0.92,1.94 -0.65,3.41 0.09,0.48 0.15,0.45 0.27,0.67 0.05,-0.05 0.12,-0.13 0.16,-0.17l0.39 -0.51c0.07,-0.1 0.23,-0.38 0.3,-0.5 0.3,-0.5 0.37,-0.52 0.53,-1.08 0.23,-0.78 0.28,-1.92 -0.03,-2.67zm3.05 4.94c-0.11,-2.34 0.28,-2.33 -0.82,-4.27 -0.56,-0.99 0.05,-0.54 -0.88,-0.73 -0.62,1.17 -0.09,2.89 0.55,4.02 0.61,1.07 0.33,0.69 1.14,0.99zm-4.45 -5.82c-1.86,0.03 -3.71,2.19 -3.71,3.72 0.71,-0.11 1.74,-0.71 2.4,-1.27l0.89 -1.04c0.3,-0.52 0.37,-0.76 0.42,-1.41zm7.74 3.6c0.13,-0.83 0.11,-0.28 -0.4,-1.11 -0.56,-0.93 -0.92,-2.19 -3.29,-2.6 0.43,2.45 2.66,3.84 3.69,3.71zm-12.59 -3.33c1.26,0.15 4.02,-0.39 3.92,-1.77 -1.53,-0.33 -3.91,0.15 -4.9,1.47l0.98 0.3zm14.78 -0.3c-0.24,-0.34 -0.02,-0.37 -1.1,-0.91 -1.2,-0.59 -2.62,-1.05 -3.88,-0.45 0.27,1 0.18,0.54 0.94,0.96 0.17,0.09 0.9,0.5 1.05,0.55 0.44,0.13 1.04,0.15 1.52,0.15l1.46 -0.3zm-10.85 -2.71c-0.01,-0.31 0.52,-0.62 -1.62,-1.48 -0.84,-0.34 -2.23,-0.19 -3.26,-0.22 0.16,0.45 -0.34,0.73 2.13,1.63 0.8,0.29 1.97,0.38 2.76,0.06zm5.91 0c0.78,0.28 2.12,0.24 2.89,-0.03 0.98,-0.34 1.69,-0.85 2.04,-1.61 -1.03,-0.03 -2.41,-0.16 -3.24,0.14 -2.33,0.84 -1.67,1.36 -1.69,1.5zm-3.48 -2.37c0.12,-0.91 0.16,-1.88 -0.17,-2.72l-1.29 -2.11c-0.37,0.66 -0.34,0.88 -0.33,1.78 0.02,1.25 0.52,3.34 1.8,3.05zm1.14 0.08c1.55,0.01 2.22,-3.5 1.47,-4.93 -1.4,1.12 -1.82,3.24 -1.47,4.93zm-2.71 0.84c0.16,-2.03 -2.61,-3.59 -3.67,-3.68 0.12,1.06 -0,0.37 0.55,1.29 0.51,0.86 1.25,2.46 3.13,2.39zm4.16 0.09c2.19,-0.29 3.62,-2.44 3.75,-3.68 -1.56,-0.18 -3.63,1.94 -3.75,3.68zm-11 3.27c-1.67,-11.3 15.58,-14.39 17.79,-2.93 2.3,11.91 -16,15.01 -17.79,2.93z"/>
  <path class="fil8" d="M123.88 87.86c0.73,-1.15 1.18,-2.54 0.61,-3.89 -1.02,0.06 -0.36,-0.34 -0.93,0.61 -1.05,1.75 -0.68,2.03 -0.77,4.28 1.15,-0.42 0.14,0.51 1.1,-1zm3.32 1.02c0.4,-0.76 0.46,-2.07 0.08,-3.18 -0.72,-2.09 -1.12,-1.72 -1.44,-1.79 -0.69,1.27 0.03,3.45 0.89,4.52 0.32,0.4 0.12,0.16 0.47,0.44zm3.65 -2.18c0.11,-1.1 -1.33,-3.25 -3.77,-3.74 0.54,2.35 2.52,3.88 3.77,3.74zm-11.48 0.1c0.72,-0.09 1.78,-0.67 2.44,-1.25l0.28 -0.27c0.01,-0.01 0.99,-1 1.01,-2.15 -1.77,-0.12 -3.71,2.15 -3.73,3.67zm2.79 -5.18c-1.6,-0.37 -3.91,0.13 -4.91,1.45 0.77,0.38 2.05,0.5 3.23,0.06 1.79,-0.67 1.71,-0.92 1.68,-1.51zm10.86 1.45c-0.97,-1.27 -3.55,-2.09 -5,-1.36 0.5,1.62 3.66,2.06 5,1.36zm-10.76 -2.69c-0.35,-1.92 -3.54,-1.67 -5.01,-1.72 0.26,0.59 -0.17,0.74 2.17,1.64 0.79,0.3 2.14,0.31 2.84,0.09zm5.83 -0.02c1.4,0.54 2.91,0.11 4.09,-0.71 0.88,-0.61 0.45,-0.1 0.84,-0.94 -2.12,-0.06 -2.85,-0.3 -4.24,0.74 -1.08,0.81 -0.46,-0.07 -0.69,0.9zm-3.59 -2.31c0.56,-1.29 0.12,-2.95 -0.66,-4.07 -0.76,-1.1 0.11,-0.43 -1.05,-0.82 0.04,1.03 -0.08,2.43 0.24,3.25 0.85,2.16 1.18,1.63 1.48,1.65zm2.71 -4.91c-0.56,0.4 -0.09,-0.09 -0.51,0.46 -0.01,0.01 -0.26,0.5 -0.29,0.56 -0.69,1.39 -1.06,1.66 -0.69,3.88 0.76,0.04 0.47,0.28 1.01,-0.6 0.54,-0.88 0.78,-1.75 0.78,-2.78 0,-0.2 -0.01,-0.63 -0.04,-0.82 -0.07,-0.46 -0.15,-0.5 -0.26,-0.7zm-4.2 5.74c0.13,-1.78 -2.23,-3.51 -3.67,-3.67 0.09,0.79 0.69,1.85 1.26,2.53 0.51,0.61 1.5,1.21 2.41,1.14zm4.19 0.2c1.94,-0.21 3.62,-2.56 3.66,-3.8 -1.52,-0.07 -3.64,1.93 -3.66,3.8zm-11.04 3.18c-1.76,-10.84 15.4,-14.77 17.78,-2.92 2.36,11.71 -15.8,15.13 -17.78,2.92z"/>
  <path class="fil3" d="M38.85 67.31c1.16,-0.08 0.07,0.15 1.2,-1.1 2.4,-2.66 9.17,-4.24 11.75,-4.05l0.16 -1.29 1.53 22.6c-8.18,0.39 -3.95,-2.44 -6.79,-8.65 -1.99,-4.35 -4.19,-5.31 -7.85,-7.5z"/>
  <path class="fil3" d="M117.59 68.35c-1.33,1.56 -4.72,2.84 -6.43,8.18 -2.59,8.12 2.22,5.89 -7.26,7.05 -0.08,-1.58 1.69,-4.74 1.36,-6.12 -0.32,-1.34 -1.35,-0.27 -0.49,-2.43 0.28,-0.72 0.97,-1.71 1.32,-2.48 1.45,-3.16 3.38,-7.36 3.93,-11.12 2.07,0.01 4.09,1.09 5.28,2.04 2.48,1.99 1.35,3.57 2.29,4.88z"/>
  <path class="fil7" d="M120.98 50.76c-1.51,1.06 -9.32,2.71 -11.43,2.75 -1.02,-3.36 -1.65,-4.56 -3.4,-7.14 3.37,0.53 13.4,2.65 14.83,4.39z"/>
  <path class="fil8" d="M15.48 68.63c-2.44,0.43 -4.8,2.25 -7.4,1.66 0.21,-2.34 4.59,-4.29 7.4,-5.02 2.12,-0.72 6.3,-2.25 8.15,-0.95 -1.19,2.18 -6.12,2.56 -8.15,4.3z"/>
  <path class="fil7" d="M48.22 57.99c0.73,-0.75 8.09,-4.48 9.41,-5.14l6.45 -3.32c2.84,-1.27 7.87,-3.97 10.81,-4.19 0.05,0.08 0.15,0.29 0.14,0.33l-0.09 0.36c-5.34,2.55 -6.85,2.89 -13.07,6.19 -5.48,2.91 -8.37,5.6 -13.65,5.76z"/>
  <path class="fil5" d="M14.73 82.39c-1.65,0.34 -5.39,0.66 -6.2,-0.91 -0.24,-0.46 -1.66,-4.08 -1.59,-4.7 0.39,-3.51 7.92,2.9 7.79,5.61z"/>
  <path class="fil4" d="M151.63 65.96c-0.06,0.08 -0.17,0.07 -0.19,0.24l-0.33 0.92c-0.19,-0.38 -3.81,-2.72 -3.77,-6.54l3.48 -0.6c0.57,1.13 0.8,1.22 0.83,2.7 0.02,1.07 -0.02,2.2 -0.02,3.27z"/>
  <path class="fil5" d="M124.49 78.04c-0.3,-0.01 -0.63,0.52 -1.48,-1.65 -0.32,-0.82 -0.2,-2.23 -0.24,-3.25 1.16,0.4 0.29,-0.28 1.05,0.82 0.78,1.13 1.22,2.79 0.66,4.07z"/>
  <path class="fil5" d="M36.34 80.35c0.02,-0.14 -0.64,-0.66 1.69,-1.5 0.83,-0.3 2.22,-0.17 3.24,-0.14 -0.35,0.76 -1.06,1.27 -2.04,1.61 -0.77,0.27 -2.11,0.32 -2.89,0.03z"/>
  <path class="fil5" d="M30.43 80.35c-0.79,0.32 -1.96,0.23 -2.76,-0.06 -2.47,-0.9 -1.97,-1.18 -2.13,-1.63 1.03,0.03 2.42,-0.12 3.26,0.22 2.14,0.86 1.61,1.16 1.62,1.48z"/>
  <path class="fil5" d="M123 78.87c-0.91,0.08 -1.91,-0.53 -2.41,-1.14 -0.57,-0.68 -1.17,-1.74 -1.26,-2.53 1.44,0.16 3.8,1.89 3.67,3.67z"/>
  <path class="fil5" d="M119.36 86.79c0.02,-1.52 1.96,-3.79 3.73,-3.67 -0.02,1.14 -1.01,2.14 -1.01,2.15l-0.28 0.27c-0.66,0.58 -1.72,1.16 -2.44,1.25z"/>
  <path class="fil5" d="M130.85 86.69c-1.26,0.14 -3.24,-1.39 -3.77,-3.74 2.45,0.49 3.89,2.64 3.77,3.74z"/>
  <path class="fil5" d="M127.19 79.07c0.03,-1.87 2.14,-3.87 3.66,-3.8 -0.05,1.23 -1.73,3.59 -3.66,3.8z"/>
  <path class="fil5" d="M127.2 88.87c-0.35,-0.28 -0.15,-0.05 -0.47,-0.44 -0.86,-1.08 -1.58,-3.25 -0.89,-4.52 0.32,0.07 0.72,-0.31 1.44,1.79 0.38,1.11 0.32,2.42 -0.08,3.18z"/>
  <path class="fil5" d="M122.78 88.86c0.09,-2.25 -0.28,-2.54 0.77,-4.28 0.57,-0.95 -0.09,-0.55 0.93,-0.61 0.57,1.34 0.12,2.74 -0.61,3.89 -0.96,1.52 0.05,0.59 -1.1,1z"/>
  <path class="fil5" d="M35.81 88.91c-0.82,-0.3 -0.54,0.08 -1.14,-0.99 -0.64,-1.12 -1.17,-2.85 -0.55,-4.02 0.93,0.19 0.32,-0.26 0.88,0.73 1.1,1.94 0.71,1.93 0.82,4.27z"/>
  <path class="fil5" d="M39.2 75.3c-0.13,1.23 -1.56,3.39 -3.75,3.68 0.12,-1.74 2.19,-3.86 3.75,-3.68z"/>
  <path class="fil5" d="M133.01 83.06c-1.34,0.71 -4.5,0.26 -5,-1.36 1.45,-0.73 4.02,0.09 5,1.36z"/>
  <path class="fil5" d="M122.25 80.37c-0.7,0.22 -2.05,0.22 -2.84,-0.09 -2.34,-0.9 -1.91,-1.04 -2.17,-1.64 1.48,0.05 4.67,-0.2 5.01,1.72z"/>
  <path class="fil5" d="M31.29 78.89c-1.88,0.07 -2.62,-1.53 -3.13,-2.39 -0.55,-0.92 -0.43,-0.23 -0.55,-1.29 1.07,0.09 3.83,1.65 3.67,3.68z"/>
  <path class="fil5" d="M27.65 86.81c0,-1.53 1.85,-3.69 3.71,-3.72 -0.05,0.64 -0.12,0.89 -0.42,1.41l-0.89 1.04c-0.66,0.56 -1.69,1.16 -2.4,1.27z"/>
  <path class="fil5" d="M39.09 86.69c-1.03,0.13 -3.26,-1.26 -3.69,-3.71 2.37,0.41 2.73,1.67 3.29,2.6 0.51,0.84 0.53,0.28 0.4,1.11z"/>
  <path class="fil5" d="M128.07 80.35c0.23,-0.97 -0.4,-0.1 0.69,-0.9 1.4,-1.04 2.13,-0.8 4.24,-0.74 -0.39,0.84 0.04,0.33 -0.84,0.94 -1.18,0.81 -2.7,1.25 -4.09,0.71z"/>
  <path class="fil5" d="M125.71 78.03c-0.37,-2.23 -0,-2.49 0.69,-3.88 0.03,-0.06 0.28,-0.55 0.29,-0.56 0.41,-0.54 -0.05,-0.05 0.51,-0.46 0.1,0.2 0.19,0.24 0.26,0.7 0.03,0.19 0.04,0.62 0.04,0.82 -0,1.03 -0.23,1.9 -0.78,2.78 -0.54,0.87 -0.26,0.64 -1.01,0.6z"/>
  <path class="fil5" d="M117.23 83.06c1.01,-1.31 3.31,-1.81 4.91,-1.45 0.03,0.58 0.11,0.83 -1.68,1.51 -1.18,0.44 -2.46,0.32 -3.23,-0.06z"/>
  <path class="fil5" d="M34 78.05c-0.36,-1.69 0.07,-3.81 1.47,-4.93 0.76,1.43 0.09,4.95 -1.47,4.93z"/>
  <path class="fil5" d="M31.4 88.88c-0.13,-0.22 -0.19,-0.2 -0.27,-0.67 -0.26,-1.46 -0.05,-2.36 0.65,-3.41 0.93,-1.37 -0.03,-0.65 0.98,-0.85 0.3,0.75 0.26,1.89 0.03,2.67 -0.16,0.56 -0.24,0.58 -0.53,1.08 -0.07,0.12 -0.24,0.41 -0.3,0.5l-0.39 0.51c-0.03,0.04 -0.1,0.11 -0.16,0.17z"/>
  <path class="fil5" d="M41.28 83.06l-1.46 0.3c-0.48,0 -1.08,-0.02 -1.52,-0.15 -0.15,-0.05 -0.88,-0.46 -1.05,-0.55 -0.77,-0.42 -0.68,0.05 -0.94,-0.96 1.26,-0.6 2.68,-0.14 3.88,0.45 1.09,0.53 0.86,0.57 1.1,0.91z"/>
  <path class="fil5" d="M30.42 81.59c0.1,1.38 -2.66,1.91 -3.92,1.77l-0.98 -0.3c0.99,-1.32 3.37,-1.8 4.9,-1.47z"/>
  <path class="fil5" d="M32.86 77.97c-1.28,0.29 -1.78,-1.8 -1.8,-3.05 -0.01,-0.9 -0.04,-1.12 0.33,-1.78l1.29 2.11c0.33,0.84 0.29,1.82 0.17,2.72z"/>
  <rect class="fil2" x="48.85" y="63.36" width="60.99" height="13.15" rx="1.89" ry="1.89"/>
  <path class="fil9" d="M101.79 66.96c0.02,-0.03 0.03,-0.06 0.05,-0.09 0.17,-0.24 0.42,-0.37 0.71,-0.37l1.54 0c0.38,0 0.7,0.23 0.82,0.59l0.48 1.42 0.47 -1.41c0.12,-0.36 0.44,-0.59 0.82,-0.59l1.5 0c0.29,0 0.54,0.13 0.71,0.37 0.17,0.24 0.2,0.52 0.1,0.79l-2.27 6.21c-0,0.01 -0.01,0.02 -0.01,0.03 -0.12,0.3 -0.27,0.62 -0.45,0.89 -0.17,0.24 -0.37,0.46 -0.61,0.63 -0.25,0.18 -0.53,0.29 -0.83,0.37 -0.31,0.08 -0.64,0.12 -0.96,0.12 -0.34,0 -0.67,-0.04 -1,-0.11 -0.37,-0.08 -0.64,-0.37 -0.68,-0.75l-0.13 -1.13c-0.01,-0.08 -0.01,-0.15 0,-0.23l-1.34 0c-0.19,0 -0.37,-0.06 -0.52,-0.17 -0.04,0.02 -0.08,0.04 -0.12,0.05 -0.39,0.17 -0.81,0.25 -1.24,0.25 -0.71,0 -1.39,-0.2 -1.92,-0.69 -0.2,-0.18 -0.35,-0.39 -0.47,-0.61 -0.06,0.09 -0.13,0.17 -0.2,0.25 -0.6,0.68 -1.37,1.05 -2.27,1.05 -0.25,0 -0.49,-0.03 -0.73,-0.09l0 1.16c0,0.48 -0.39,0.87 -0.87,0.87l-1.44 0c-0.48,0 -0.87,-0.39 -0.87,-0.87l0 -7.54c0,-0.48 0.39,-0.87 0.87,-0.87l1.35 0c0.18,0 0.34,0.05 0.48,0.15 0.38,-0.18 0.79,-0.26 1.22,-0.26 0.9,0 1.67,0.37 2.26,1.04 0.14,0.15 0.25,0.32 0.36,0.49 0.2,-0.38 0.47,-0.72 0.83,-0.98 0.6,-0.43 1.38,-0.54 2.11,-0.54 0.59,0 1.28,0.05 1.82,0.31 0.16,0.08 0.3,0.16 0.44,0.26zm0.9 3.18l-0.01 0.9c0,0.27 -0,0.63 0.05,0.89 0.04,0.18 0.11,0.36 0.19,0.52 0.08,0.17 0.11,0.34 0.08,0.51 0.03,0 0.05,0.01 0.08,0.01 0.15,0.03 0.3,0.05 0.45,0.05 0.02,0 0.07,-0 0.1,-0.01 0.04,-0.05 0.07,-0.11 0.1,-0.17l-1.03 -2.71zm-31.96 -3.67l0 -1.18c0,-0.48 0.39,-0.87 0.87,-0.87l1.44 0c0.48,0 0.87,0.39 0.87,0.87l0 1.7 0.17 -0.2c0.17,-0.19 0.39,-0.29 0.65,-0.29l1.78 0c0.35,0 0.65,0.2 0.79,0.52 0.14,0.32 0.08,0.68 -0.16,0.94l-1.43 1.53 1.68 2.91c0.16,0.28 0.16,0.59 -0,0.87 -0.16,0.28 -0.43,0.43 -0.75,0.43l-1.56 0c-0.32,0 -0.6,-0.16 -0.76,-0.44l-0.43 -0.76 0 0.34c0,0.48 -0.39,0.87 -0.87,0.87l-1.44 0c-0.48,0 -0.87,-0.39 -0.87,-0.87l0 -3.2c-0.22,0.04 -0.43,-0 -0.62,-0.13 -0.04,-0.02 -0.12,-0.07 -0.18,-0.09 -0.02,0.05 -0.03,0.1 -0.04,0.13 -0.1,0.37 -0.09,1.21 -0.09,1.6l0 1.69c0,0.48 -0.39,0.87 -0.87,0.87l-1.44 0c-0.48,0 -0.87,-0.39 -0.87,-0.87l0 -0.54c-0.11,0.16 -0.24,0.32 -0.39,0.46 -0.71,0.73 -1.62,1.08 -2.63,1.08 -0.64,0 -1.25,-0.15 -1.82,-0.43 -0.61,-0.3 -1.09,-0.76 -1.41,-1.36 -0.15,-0.28 -0.26,-0.57 -0.33,-0.88l-0.62 1.93c-0.12,0.36 -0.44,0.6 -0.82,0.6l-1.39 0c-0.4,0 -0.73,-0.26 -0.84,-0.64l-0.1 -0.36 -0.09 0.36c-0.1,0.39 -0.44,0.65 -0.84,0.65l-1.41 0c-0.38,0 -0.71,-0.24 -0.83,-0.61l-1.73 -5.47c-0.09,-0.27 -0.04,-0.54 0.13,-0.77 0.17,-0.23 0.41,-0.35 0.7,-0.35l1.4 0c0.39,0 0.73,0.25 0.83,0.63l0.16 0.55 0.14 -0.53c0.1,-0.39 0.44,-0.65 0.84,-0.65l1.39 0c0.4,0 0.74,0.26 0.84,0.65l0.13 0.5 0.15 -0.53c0.11,-0.38 0.44,-0.62 0.83,-0.62l1.43 0c0.29,0 0.53,0.13 0.7,0.36 0.08,0.11 0.13,0.22 0.15,0.34 0.16,-0.13 0.33,-0.25 0.52,-0.35 0.58,-0.32 1.21,-0.46 1.87,-0.46 1.02,0 1.93,0.33 2.65,1.06 0.14,0.14 0.27,0.3 0.38,0.45l0 -0.54c0,-0.48 0.39,-0.87 0.87,-0.87l1.34 0c0.13,0 0.25,0.03 0.36,0.08 0.28,-0.13 0.58,-0.19 0.89,-0.19 0.23,0 0.44,0.03 0.66,0.08zm14.24 6.8c-0.2,0.12 -0.41,0.23 -0.63,0.31 -0.49,0.18 -1.01,0.25 -1.53,0.25 -1.04,0 -2.05,-0.29 -2.76,-1.08 -0.5,-0.56 -0.77,-1.23 -0.77,-1.99 0,-0.67 0.2,-1.29 0.61,-1.82 0.21,-0.28 0.47,-0.53 0.75,-0.74 -0.05,-0.08 -0.09,-0.16 -0.13,-0.25 -0.17,-0.36 -0.28,-0.75 -0.28,-1.16 0,-0.72 0.3,-1.34 0.84,-1.81 0.59,-0.52 1.36,-0.69 2.13,-0.69 0.77,0 1.52,0.19 2.11,0.72 0.54,0.49 0.83,1.13 0.83,1.86 0,0.49 -0.15,0.94 -0.41,1.35 -0.04,0.06 -0.08,0.12 -0.13,0.18l1.17 0.26c0.24,0.05 0.43,0.19 0.55,0.4 0.13,0.21 0.16,0.44 0.09,0.68 -0.1,0.36 -0.22,0.76 -0.37,1.1 0,0 0.01,0.01 0.01,0.01 0.13,0.09 0.3,0.22 0.44,0.29 0.24,0.12 0.41,0.32 0.47,0.58 0.06,0.26 0,0.52 -0.16,0.73l-0.88 1.11c-0.25,0.32 -0.69,0.42 -1.06,0.24 -0.31,-0.15 -0.61,-0.33 -0.88,-0.54zm-21.84 -3.16c0,0.2 0.02,0.51 0.16,0.67 0.09,0.1 0.17,0.14 0.3,0.14 0.13,0 0.21,-0.04 0.3,-0.14 0.14,-0.16 0.17,-0.48 0.17,-0.68 0,-0.2 -0.03,-0.5 -0.17,-0.66 -0.09,-0.1 -0.17,-0.14 -0.3,-0.14 -0.13,0 -0.22,0.04 -0.3,0.14 -0.14,0.16 -0.16,0.47 -0.16,0.67zm19.37 0.52c-0.01,0.03 -0.01,0.06 -0.01,0.09 0,0.06 0,0.11 0.04,0.14 0.04,0.04 0.14,0.05 0.2,0.05l-0.23 -0.28zm10.71 -0.62c0,0.21 0.02,0.64 0.17,0.81 0.06,0.08 0.12,0.13 0.22,0.13 0.08,0 0.12,-0.03 0.17,-0.09 0.12,-0.14 0.14,-0.61 0.14,-0.78 0,-0.19 -0.02,-0.58 -0.15,-0.73 -0.05,-0.07 -0.1,-0.1 -0.18,-0.1 -0.1,0 -0.15,0.03 -0.22,0.11 -0.12,0.15 -0.14,0.48 -0.14,0.66z"/>
  <path class="fil10" d="M53.93 72.83l-1.73 -5.47 1.4 0 1.02 3.58 0.94 -3.58 1.39 0 0.91 3.58 1.04 -3.58 1.43 0 -1.76 5.47 -1.39 0 -0.94 -3.52 -0.93 3.52 -1.41 0zm6.84 -2.8c0,-0.48 0.12,-0.95 0.35,-1.4 0.24,-0.45 0.57,-0.79 1.01,-1.03 0.43,-0.24 0.92,-0.36 1.45,-0.36 0.83,0 1.5,0.27 2.03,0.81 0.53,0.54 0.79,1.22 0.79,2.04 0,0.83 -0.27,1.51 -0.8,2.06 -0.53,0.54 -1.2,0.82 -2.01,0.82 -0.5,0 -0.98,-0.11 -1.43,-0.34 -0.45,-0.23 -0.8,-0.56 -1.04,-1 -0.24,-0.44 -0.35,-0.97 -0.35,-1.6zm1.48 0.08c0,0.54 0.13,0.96 0.38,1.25 0.26,0.29 0.57,0.43 0.95,0.43 0.38,0 0.69,-0.14 0.95,-0.43 0.25,-0.29 0.38,-0.71 0.38,-1.26 0,-0.54 -0.13,-0.95 -0.38,-1.24 -0.25,-0.29 -0.57,-0.43 -0.95,-0.43 -0.38,0 -0.69,0.14 -0.95,0.43 -0.26,0.29 -0.38,0.7 -0.38,1.25zm6.66 2.72l-1.44 0 0 -5.47 1.34 0 0 0.78c0.23,-0.37 0.44,-0.61 0.62,-0.72 0.18,-0.11 0.39,-0.17 0.63,-0.17 0.33,0 0.65,0.09 0.95,0.27l-0.45 1.26c-0.24,-0.16 -0.47,-0.24 -0.68,-0.24 -0.2,0 -0.38,0.06 -0.52,0.17 -0.14,0.11 -0.25,0.31 -0.33,0.6 -0.08,0.29 -0.12,0.9 -0.12,1.83l0 1.69zm2.67 0l0 -7.54 1.44 0 0 4 1.69 -1.93 1.78 0 -1.86 2 2 3.47 -1.56 0 -1.38 -2.47 -0.67 0.72 0 1.75 -1.44 0zm15.51 -0.91l-0.88 1.11c-0.43,-0.21 -0.84,-0.5 -1.24,-0.86 -0.3,0.27 -0.63,0.48 -0.97,0.61 -0.34,0.13 -0.75,0.19 -1.22,0.19 -0.94,0 -1.64,-0.27 -2.12,-0.79 -0.37,-0.41 -0.55,-0.88 -0.55,-1.41 0,-0.48 0.14,-0.92 0.43,-1.31 0.29,-0.39 0.72,-0.72 1.29,-1.01 -0.26,-0.31 -0.45,-0.6 -0.58,-0.87 -0.13,-0.28 -0.2,-0.54 -0.2,-0.79 0,-0.46 0.18,-0.84 0.55,-1.16 0.36,-0.32 0.88,-0.48 1.56,-0.48 0.65,0 1.16,0.17 1.53,0.5 0.37,0.33 0.55,0.74 0.55,1.22 0,0.31 -0.09,0.6 -0.27,0.87 -0.18,0.27 -0.54,0.58 -1.09,0.93l1.04 1.4c0.12,-0.22 0.23,-0.5 0.32,-0.85l1.31 0.29c-0.13,0.46 -0.24,0.8 -0.34,1.02 -0.09,0.21 -0.2,0.39 -0.31,0.54 0.16,0.15 0.37,0.32 0.63,0.5 0.26,0.18 0.44,0.3 0.56,0.36zm-3.93 -4.11l0.39 -0.3c0.29,-0.22 0.43,-0.44 0.43,-0.66 0,-0.19 -0.07,-0.34 -0.21,-0.47 -0.14,-0.13 -0.32,-0.2 -0.56,-0.2 -0.23,0 -0.41,0.06 -0.54,0.17 -0.13,0.12 -0.19,0.25 -0.19,0.4 0,0.18 0.11,0.39 0.33,0.65l0.35 0.41zm-0.57 1.57c-0.33,0.17 -0.58,0.37 -0.74,0.61 -0.16,0.24 -0.25,0.48 -0.25,0.73 0,0.31 0.1,0.57 0.31,0.77 0.2,0.2 0.47,0.3 0.82,0.3 0.22,0 0.44,-0.04 0.65,-0.13 0.21,-0.09 0.44,-0.24 0.68,-0.44l-1.46 -1.82zm8.31 -2.02l1.35 0 0 0.8c0.18,-0.27 0.41,-0.49 0.71,-0.67 0.3,-0.17 0.63,-0.25 0.99,-0.25 0.63,0 1.17,0.25 1.61,0.75 0.44,0.5 0.66,1.19 0.66,2.08 0,0.91 -0.22,1.62 -0.67,2.13 -0.45,0.51 -0.99,0.76 -1.62,0.76 -0.3,0 -0.58,-0.06 -0.82,-0.18 -0.24,-0.12 -0.5,-0.32 -0.77,-0.62l0 2.73 -1.44 0 0 -7.54zm1.42 2.65c0,0.62 0.12,1.07 0.37,1.37 0.24,0.29 0.54,0.44 0.89,0.44 0.34,0 0.61,-0.14 0.84,-0.41 0.22,-0.27 0.33,-0.71 0.33,-1.33 0,-0.58 -0.11,-1 -0.34,-1.28 -0.23,-0.28 -0.51,-0.42 -0.85,-0.42 -0.35,0 -0.65,0.14 -0.88,0.41 -0.23,0.27 -0.35,0.68 -0.35,1.22zm6.13 -0.96l-1.31 -0.23c0.15,-0.53 0.4,-0.93 0.76,-1.18 0.36,-0.26 0.9,-0.38 1.6,-0.38 0.64,0 1.13,0.08 1.44,0.23 0.31,0.15 0.54,0.35 0.67,0.58 0.13,0.24 0.19,0.67 0.19,1.29l-0.02 1.69c0,0.48 0.02,0.83 0.07,1.06 0.05,0.23 0.13,0.47 0.26,0.73l-1.43 0c-0.04,-0.09 -0.08,-0.24 -0.14,-0.42 -0.02,-0.09 -0.04,-0.14 -0.05,-0.17 -0.25,0.24 -0.51,0.42 -0.79,0.54 -0.28,0.12 -0.58,0.18 -0.9,0.18 -0.56,0 -1,-0.15 -1.33,-0.46 -0.32,-0.3 -0.48,-0.69 -0.48,-1.16 0,-0.31 0.07,-0.58 0.22,-0.82 0.15,-0.24 0.35,-0.43 0.62,-0.55 0.27,-0.13 0.65,-0.24 1.15,-0.34 0.67,-0.13 1.14,-0.25 1.4,-0.35l0 -0.15c0,-0.28 -0.07,-0.48 -0.21,-0.6 -0.14,-0.12 -0.4,-0.18 -0.78,-0.18 -0.26,0 -0.46,0.05 -0.6,0.15 -0.15,0.1 -0.26,0.28 -0.35,0.54zm1.94 1.17c-0.18,0.06 -0.48,0.14 -0.88,0.22 -0.4,0.09 -0.66,0.17 -0.79,0.25 -0.19,0.14 -0.28,0.3 -0.28,0.51 0,0.2 0.08,0.38 0.23,0.52 0.15,0.15 0.34,0.22 0.58,0.22 0.26,0 0.51,-0.09 0.75,-0.26 0.17,-0.13 0.29,-0.29 0.34,-0.48 0.04,-0.12 0.06,-0.36 0.06,-0.7l0 -0.29zm2.15 -2.85l1.54 0 1.31 3.88 1.28 -3.88 1.5 0 -1.93 5.26 -0.35 0.95c-0.13,0.32 -0.25,0.56 -0.37,0.73 -0.11,0.17 -0.25,0.3 -0.4,0.41 -0.15,0.11 -0.33,0.19 -0.55,0.24 -0.22,0.06 -0.47,0.09 -0.74,0.09 -0.28,0 -0.55,-0.03 -0.82,-0.09l-0.13 -1.13c0.23,0.04 0.43,0.07 0.61,0.07 0.34,0 0.59,-0.1 0.75,-0.3 0.16,-0.2 0.29,-0.45 0.37,-0.76l-2.08 -5.48z"/>
  <g id="_2327752226816">
   <circle class="fil11" transform="matrix(0.9541 1.09869 -1.09869 0.9541 50.4912 65.1622)" r="0.68"/>
   <circle class="fil12" transform="matrix(0.655677 0.755041 -0.755041 0.655677 50.4912 65.1622)" r="0.68"/>
   <rect class="fil11" transform="matrix(0.655677 0.755041 -0.755041 0.655677 50.9242 64.4921)" width="0.44" height="1.53"/>
  </g>
  <g id="_2327752226080">
   <circle class="fil11" transform="matrix(-0.9541 1.09869 1.09869 0.9541 107.431 74.7809)" r="0.68"/>
   <circle class="fil12" transform="matrix(-0.655677 0.755041 0.755041 0.655677 107.431 74.7809)" r="0.68"/>
   <rect class="fil11" transform="matrix(-0.655677 0.755041 0.755041 0.655677 106.998 74.1108)" width="0.44" height="1.53"/>
  </g>
  <g id="_2327752227296">
   <circle class="fil11" transform="matrix(-0.9541 1.09869 1.09869 0.9541 107.431 65.0692)" r="0.68"/>
   <circle class="fil12" transform="matrix(-0.655677 0.755041 0.755041 0.655677 107.431 65.0692)" r="0.68"/>
   <rect class="fil11" transform="matrix(-0.655677 0.755041 0.755041 0.655677 106.998 64.3991)" width="0.44" height="1.53"/>
  </g>
  <g id="_2327752231072">
   <circle class="fil11" transform="matrix(-0.9541 1.09869 1.09869 0.9541 50.4912 74.7217)" r="0.68"/>
   <circle class="fil12" transform="matrix(-0.655677 0.755041 0.755041 0.655677 50.4912 74.7217)" r="0.68"/>
   <rect class="fil11" transform="matrix(-0.655677 0.755041 0.755041 0.655677 50.0581 74.0515)" width="0.44" height="1.53"/>
  </g>
 </g>
</svg>
