<?xml version="1.0" encoding="UTF-8"?>
<!DOCTYPE svg PUBLIC "-//W3C//DTD SVG 1.1//EN" "http://www.w3.org/Graphics/SVG/1.1/DTD/svg11.dtd">
<!-- Creator: CorelDRAW 2018 (64-Bit) -->
<svg xmlns="http://www.w3.org/2000/svg" xml:space="preserve" width="4.4632in" height="4.31194in" version="1.1" style="shape-rendering:geometricPrecision; text-rendering:geometricPrecision; image-rendering:optimizeQuality; fill-rule:evenodd; clip-rule:evenodd"
viewBox="0 0 784.22 757.64"
 xmlns:xlink="http://www.w3.org/1999/xlink">
 <defs>
  <style type="text/css">
   <![CDATA[
    .str3 {stroke:#424045;stroke-width:1.65;stroke-miterlimit:10}
    .str2 {stroke:#D6913D;stroke-width:0.96;stroke-miterlimit:10}
    .str1 {stroke:#424045;stroke-width:3.09;stroke-miterlimit:10}
    .str8 {stroke:#535156;stroke-width:9.31;stroke-miterlimit:10}
    .str6 {stroke:#363438;stroke-width:2.06;stroke-miterlimit:10}
    .str5 {stroke:#D6913D;stroke-width:1.03;stroke-miterlimit:10}
    .str9 {stroke:#424045;stroke-width:1.03;stroke-miterlimit:10}
    .str0 {stroke:#D6913D;stroke-width:1.03;stroke-miterlimit:10}
    .str4 {stroke:#363438;stroke-width:1.03;stroke-miterlimit:10}
    .str7 {stroke:#424045;stroke-width:5.15;stroke-miterlimit:10;stroke-dasharray:17.577647 17.577647}
    .fil0 {fill:none}
    .fil6 {fill:none;fill-rule:nonzero}
    .fil5 {fill:#F2AD43;fill-rule:nonzero}
    .fil4 {fill:#D6913D;fill-rule:nonzero}
    .fil3 {fill:#878B8D;fill-rule:nonzero}
    .fil7 {fill:#535156;fill-rule:nonzero}
    .fil2 {fill:#424045;fill-rule:nonzero}
    .fil1 {fill:#363438;fill-rule:nonzero}
   ]]>
  </style>
 </defs>
 <g id="Layer_x0020_1">
  <metadata id="CorelCorpID_0Corel-Layer"/>
  <rect class="fil0" x="-0" y="0" width="784.22" height="757.64"/>
  <g id="_1556556133040">
   <polygon class="fil1" points="438.57,159.48 428.32,166.46 441.66,218.77 455.4,220.89 "/>
   <polygon class="fil1" points="412.82,176.9 425.08,218.77 418.75,216.24 388.83,175.6 413.96,176.9 "/>
   <path class="fil2" d="M383.29 171.22l29.17 0c2.35,0 4.25,1.9 4.25,4.25l0 0c0,2.35 -1.9,4.25 -4.25,4.25l-23.63 0 -5.54 -8.5z"/>
   <polygon class="fil3" points="615.76,244.36 620.63,271.42 617.43,276.09 607.95,242.3 "/>
   <polygon class="fil4" points="597.54,198.09 607.8,196.46 618.36,244.49 610.64,247.36 "/>
   <path class="fil2" d="M616.09 281.63l12.78 -52.96 0.41 -0.18c7.7,-3.38 16.4,1.37 17.99,9.64 0.19,0.96 0.39,1.55 0.62,1.54 1.27,-0.07 48.82,37.95 48.82,37.95l18.7 -7.59 3.8 1.39c0,0 -33.61,23.79 -40.9,26.73 -4.85,1.96 -32.34,0.65 -50.16,-0.44 -8.12,-0.5 -13.86,-8.14 -12.07,-16.08l0 0z"/>
   <polygon class="fil3" points="88.41,195.37 87.46,216.72 83.25,217.9 85.07,195.37 "/>
   <path class="fil5" d="M93.74 241.96l-5.57 -21.82 0.8 -6.77 -8.27 1.05c0,0 -4.73,11.74 -4.27,11.59 0.45,-0.15 13.16,20.31 13.16,20.31l4.15 -4.36z"/>
   <polygon class="fil4" points="138.68,74.96 103.9,61.66 103.9,74.96 128.11,93.71 "/>
   <polygon class="fil3" points="154.02,70.88 102.19,48.37 102.19,53.48 154.02,74.96 "/>
   <polygon class="fil4" points="231.95,108.4 151.63,67.8 147.54,77.01 224.04,115.61 "/>
   <polygon class="fil3" points="248.99,187.02 259.54,230.71 255.53,231.57 244.46,187.02 "/>
   <polygon class="fil4" points="233.56,116.9 254.89,205.21 246.77,206.94 224.4,116.9 "/>
   <polygon class="fil4" points="254.89,254.31 281.31,254.31 281.31,222.16 263.13,222.16 "/>
   <polygon class="fil4" points="279.48,170.08 341.52,170.08 393.85,189.05 423.66,218.77 436.13,261.88 287.41,261.88 "/>
   <polygon class="fil5" points="281.31,178.14 325.76,178.14 325.76,173.06 281.31,173.06 "/>
   <polygon class="fil5" points="281.31,188.17 325.76,188.17 325.76,183.09 281.31,183.09 "/>
   <polygon class="fil5" points="438.82,160.45 560.49,183.39 565.21,234.19 468.74,236.15 454.2,221.15 "/>
   <polyline class="fil6 str0" points="440.24,173.06 456.92,176.19 467.11,218.77 "/>
   <line class="fil6 str0" x1="481.77" y1="181.82" x2="462.51" y2= "199.58" />
   <polygon class="fil5" points="475.43,264.28 569.55,264.28 569.55,228.67 475.43,228.67 "/>
   <line class="fil6 str0" x1="569.55" y1="228.67" x2="475.43" y2= "228.67" />
   <path class="fil2" d="M344.99 107.26l-27.01 87.15c0,0 21.11,-24.28 69.67,-12.71l0 -76.2 -42.67 1.76z"/>
   <polygon class="fil5" points="428.32,96.66 388.01,90.48 341.8,90.48 341.8,103.75 428.32,103.75 "/>
   <polygon class="fil2" points="339.32,107.26 429.65,107.26 429.65,103.75 339.32,103.75 "/>
   <line class="fil6 str1" x1="425.08" y1="106.26" x2="455.4" y2= "225.9" />
   <path class="fil2" d="M296.05 257.71c0,33.83 27.42,61.25 61.25,61.25 33.83,0 61.25,-27.42 61.25,-61.25 0,-33.83 -27.42,-61.25 -61.25,-61.25 -33.83,0 -61.25,27.42 -61.25,61.25z"/>
   <path class="fil5" d="M320.74 257.71c0,20.19 16.37,36.55 36.55,36.55 20.19,0 36.55,-16.36 36.55,-36.55 0,-20.19 -16.37,-36.55 -36.55,-36.55 -20.19,0 -36.55,16.36 -36.55,36.55z"/>
   <path class="fil6 str0" d="M324.27 257.71c0,18.24 14.78,33.02 33.02,33.02 18.24,0 33.02,-14.79 33.02,-33.02 0,-18.24 -14.79,-33.02 -33.02,-33.02 -18.24,0 -33.02,14.79 -33.02,33.02z"/>
   <path class="fil4" d="M344.46 257.71c0,7.09 5.75,12.83 12.83,12.83 7.09,0 12.83,-5.75 12.83,-12.83 0,-7.09 -5.74,-12.83 -12.83,-12.83 -7.09,0 -12.83,5.74 -12.83,12.83z"/>
   <polygon class="fil2" points="353.12,200.64 361.47,200.64 361.47,192.28 353.12,192.28 "/>
   <polygon class="fil2" points="353.12,323.13 361.47,323.13 361.47,314.78 353.12,314.78 "/>
   <polygon class="fil2" points="300.64,265.76 300.07,257.43 291.74,257.99 292.31,266.33 "/>
   <polygon class="fil2" points="422.85,257.42 422.28,249.08 413.95,249.65 414.52,257.99 "/>
   <polygon class="fil2" points="304.11,278.83 301.6,270.86 293.64,273.36 296.14,281.33 "/>
   <polygon class="fil2" points="420.95,242.05 418.45,234.08 410.48,236.59 412.99,244.56 "/>
   <polygon class="fil2" points="310.69,290.91 306.36,283.77 299.22,288.11 303.55,295.25 "/>
   <polygon class="fil2" points="415.38,227.3 411.04,220.16 403.9,224.5 408.24,231.64 "/>
   <polygon class="fil2" points="319.94,301.05 314.03,295.15 308.13,301.07 314.04,306.97 "/>
   <polygon class="fil2" points="406.46,214.34 400.55,208.44 394.65,214.36 400.56,220.26 "/>
   <polygon class="fil2" points="331.49,308.78 324.33,304.48 320.02,311.64 327.19,315.94 "/>
   <polygon class="fil2" points="394.57,203.77 387.41,199.47 383.1,206.63 390.26,210.94 "/>
   <polygon class="fil2" points="346.63,313.93 338.56,311.77 336.4,319.85 344.48,322 "/>
   <polygon class="fil2" points="378.19,195.57 370.11,193.41 367.96,201.49 376.04,203.64 "/>
   <polygon class="fil2" points="300.27,252.91 301.58,244.66 293.33,243.36 292.02,251.61 "/>
   <polygon class="fil2" points="421.26,272.06 422.57,263.8 414.32,262.5 413.01,270.75 "/>
   <polygon class="fil2" points="302.99,239.65 306.2,231.94 298.49,228.73 295.28,236.45 "/>
   <polygon class="fil2" points="416.1,286.68 419.31,278.97 411.6,275.76 408.39,283.47 "/>
   <polygon class="fil2" points="309.18,226.74 314.2,220.06 307.52,215.04 302.5,221.71 "/>
   <polygon class="fil2" points="407.07,300.37 412.09,293.7 405.41,288.68 400.39,295.35 "/>
   <polygon class="fil2" points="317.4,216.68 323.8,211.31 318.42,204.92 312.03,210.29 "/>
   <polygon class="fil2" points="396.17,310.5 402.56,305.12 397.19,298.72 390.8,304.1 "/>
   <polygon class="fil2" points="328.69,208.15 336.21,204.51 332.57,196.99 325.05,200.63 "/>
   <polygon class="fil2" points="382.02,318.42 389.54,314.78 385.91,307.26 378.39,310.9 "/>
   <polygon class="fil2" points="340.15,203.11 348.29,201.2 346.37,193.06 338.24,194.98 "/>
   <polygon class="fil2" points="368.22,322.35 376.35,320.43 374.44,312.3 366.31,314.22 "/>
   <path class="fil2" d="M494.36 274.52c0,25.13 20.38,45.51 45.51,45.51 25.13,0 45.51,-20.38 45.51,-45.51 0,-25.14 -20.38,-45.51 -45.51,-45.51 -25.14,0 -45.51,20.38 -45.51,45.51z"/>
   <path class="fil5" d="M512.7 274.52c0,15 12.16,27.16 27.16,27.16 15,0 27.16,-12.16 27.16,-27.16 0,-15 -12.16,-27.16 -27.16,-27.16 -15,0 -27.16,12.16 -27.16,27.16z"/>
   <path class="fil6 str2" d="M516.23 274.52c0,13.05 10.58,23.63 23.63,23.63 13.05,0 23.63,-10.58 23.63,-23.63 0,-13.05 -10.58,-23.63 -23.63,-23.63 -13.05,0 -23.63,10.58 -23.63,23.63z"/>
   <path class="fil4" d="M529.85 274.52c0,5.53 4.48,10.02 10.02,10.02 5.53,0 10.01,-4.49 10.01,-10.02 0,-5.53 -4.48,-10.01 -10.01,-10.01 -5.53,0 -10.02,4.48 -10.02,10.01z"/>
   <polygon class="fil2" points="536.76,232.11 542.97,232.11 542.97,225.9 536.76,225.9 "/>
   <polygon class="fil2" points="536.76,323.13 542.97,323.13 542.97,316.92 536.76,316.92 "/>
   <polygon class="fil2" points="497.77,280.5 497.35,274.31 491.16,274.73 491.58,280.92 "/>
   <polygon class="fil2" points="588.58,274.3 588.16,268.11 581.97,268.53 582.39,274.73 "/>
   <polygon class="fil2" points="500.35,290.21 498.49,284.29 492.56,286.15 494.43,292.07 "/>
   <polygon class="fil2" points="587.17,262.88 585.31,256.96 579.39,258.82 581.25,264.74 "/>
   <polygon class="fil2" points="505.24,299.19 502.01,293.88 496.71,297.11 499.93,302.41 "/>
   <polygon class="fil2" points="583.02,251.92 579.8,246.62 574.5,249.84 577.72,255.15 "/>
   <polygon class="fil2" points="512.11,306.73 507.72,302.34 503.33,306.74 507.73,311.12 "/>
   <polygon class="fil2" points="576.4,242.3 572.01,237.91 567.63,242.31 572.02,246.69 "/>
   <polygon class="fil2" points="520.69,312.47 515.37,309.27 512.17,314.59 517.49,317.79 "/>
   <polygon class="fil2" points="567.56,234.44 562.24,231.25 559.04,236.56 564.36,239.76 "/>
   <polygon class="fil2" points="531.94,316.29 525.94,314.69 524.34,320.69 530.34,322.29 "/>
   <polygon class="fil2" points="555.39,228.34 549.39,226.74 547.79,232.74 553.79,234.34 "/>
   <polygon class="fil2" points="497.5,270.95 498.47,264.82 492.33,263.85 491.36,269.98 "/>
   <polygon class="fil2" points="587.4,285.18 588.37,279.05 582.24,278.08 581.27,284.21 "/>
   <polygon class="fil2" points="499.52,261.1 501.9,255.37 496.17,252.99 493.79,258.72 "/>
   <polygon class="fil2" points="583.57,296.04 585.95,290.31 580.22,287.93 577.83,293.66 "/>
   <polygon class="fil2" points="504.11,251.5 507.84,246.54 502.88,242.81 499.15,247.77 "/>
   <polygon class="fil2" points="576.85,306.22 580.58,301.26 575.62,297.53 571.89,302.49 "/>
   <polygon class="fil2" points="510.22,244.04 514.97,240.04 510.98,235.29 506.23,239.28 "/>
   <polygon class="fil2" points="568.75,313.74 573.51,309.75 569.51,305 564.76,308.99 "/>
   <polygon class="fil2" points="518.61,237.69 524.2,234.99 521.49,229.4 515.9,232.1 "/>
   <polygon class="fil2" points="558.24,319.63 563.83,316.93 561.13,311.34 555.54,314.04 "/>
   <polygon class="fil2" points="527.13,233.95 533.17,232.53 531.75,226.48 525.71,227.91 "/>
   <polygon class="fil2" points="547.99,322.55 554.03,321.12 552.6,315.08 546.56,316.51 "/>
   <path class="fil5" d="M463.1 169.8l0 0c0,-3.8 3.46,-6.65 7.19,-5.93l128.36 24.96 24.06 100.55c0.49,2.04 -0.78,4.08 -2.83,4.55l0 0c-1.58,0.36 -3.21,-0.33 -4.05,-1.71l-43.54 -71.32 -105.54 -45.55c-2.21,-0.95 -3.65,-3.13 -3.65,-5.54z"/>
   <path class="fil6 str0" d="M622.71 289.37c0.49,2.04 -0.78,4.08 -2.83,4.55l0 0c-1.58,0.36 -3.21,-0.33 -4.05,-1.71l-43.54 -71.32 -105.54 -45.55c-2.21,-0.95 -3.65,-3.13 -3.65,-5.54l0 0c0,-3.8 3.46,-6.65 7.19,-5.93"/>
   <path class="fil2" d="M467.11 170.08c0,1.65 1.33,2.98 2.98,2.98 1.65,0 2.98,-1.33 2.98,-2.98 0,-1.65 -1.33,-2.98 -2.98,-2.98 -1.64,0 -2.98,1.33 -2.98,2.98z"/>
   <path class="fil2" d="M616.09 289.48c0,1.25 1.02,2.27 2.27,2.27 1.25,0 2.27,-1.02 2.27,-2.27 0,-1.25 -1.02,-2.27 -2.27,-2.27 -1.25,0 -2.27,1.02 -2.27,2.27z"/>
   <path class="fil6 str3" d="M497.23 191.54c0,0 -10.79,-3.31 -16.82,10.11 -6.03,13.42 -25.28,15.07 -27.91,14.49"/>
   <polygon class="fil4" points="538.02,213.04 495.01,194.53 497.44,188.9 540.45,207.41 "/>
   <polygon class="fil5" points="418.75,214.52 489.18,220.7 485.36,264.11 433.72,264.11 "/>
   <polyline class="fil6 str0" points="418.75,214.52 489.18,220.7 485.36,264.11 "/>
   <path class="fil7" d="M420.96 224.68l6.18 0 -22.75 -38.74c0,0 -12.34,-19.48 -43.54,-19.48 -28.07,0 -49.32,18.11 -55.69,33.37 -0.46,1.11 0.93,2.09 1.83,1.29 6.15,-5.49 21.71,-15.18 54.89,-15.18 36.34,0 59.08,38.74 59.08,38.74z"/>
   <polygon class="fil5" points="272.23,166.08 282.14,166.08 290.38,265.73 280.47,265.73 "/>
   <path class="fil4" d="M89.59 69.16l-8.19 129.16 8.88 0c0,0 6.79,-99.51 6.96,-101.21l-7.65 -27.95z"/>
   <path class="fil5" d="M131.62 210.8l-8.73 -111.26 -14.96 -12.46 -1.38 -33.21c-0.17,-4.01 -2.82,-7.48 -6.64,-8.7l0 0c-6.36,-2.03 -12.79,2.93 -12.45,9.6l7.59 146.2 14.12 31.14 11.63 -1.57 10.8 -19.74z"/>
   <polygon class="fil5" points="246.77,257.04 260.09,218.77 269.18,218.77 257.97,257.71 "/>
   <polygon class="fil5" points="262.82,232.11 279.47,232.11 279.47,227.67 262.82,227.67 "/>
   <polygon class="fil5" points="262.82,240.45 279.47,240.45 279.47,236.02 262.82,236.02 "/>
   <polygon class="fil5" points="257.97,248.8 279.47,248.8 279.47,244.36 257.97,244.36 "/>
   <path class="fil5" d="M139.1 70.88l84.01 37.67c1.32,-0.8 2.86,-1.29 4.52,-1.29 4.84,0 8.77,3.92 8.77,8.77 0,3.07 -1.58,5.76 -3.96,7.33l5.54 87.45 14.13 18.2 -4.48 12.02c3.42,2.03 9.25,5.55 9.25,5.55l-4.77 10.78 -9.14 -3.82 -25.76 -11.23 -36.14 -97.06 -60.24 -54.76 18.28 -19.6z"/>
   <path class="fil2" d="M224.04 115.61c0,2.54 2.06,4.6 4.6,4.6 2.54,0 4.6,-2.06 4.6,-4.6 0,-2.54 -2.06,-4.6 -4.6,-4.6 -2.54,0 -4.6,2.06 -4.6,4.6z"/>
   <path class="fil2" d="M92.64 54.33c0,2.54 2.06,4.6 4.6,4.6 2.54,0 4.6,-2.06 4.6,-4.6 0,-2.54 -2.06,-4.6 -4.6,-4.6 -2.54,0 -4.6,2.06 -4.6,4.6z"/>
   <path class="fil6 str0" d="M135.42 103.75l18.6 -23.48 65.81 30.73c0,0 -2.05,6.72 1.02,9.55 3.07,2.82 5.7,3.5 7.79,3.5l4.6 86.74 -22.6 13.88"/>
   <path class="fil4" d="M107.78 215.55l-12.07 -1.13 -23.19 6.47 2.39 6.78 20.46 -5.51 10.36 3.35c3.3,1.07 6.69,-1.39 6.69,-4.87l0 0c0,-2.64 -2.01,-4.85 -4.64,-5.09z"/>
   <path class="fil2" d="M104.79 221.21c0,1.34 1.09,2.43 2.43,2.43 1.34,0 2.43,-1.09 2.43,-2.43 0,-1.34 -1.09,-2.43 -2.43,-2.43 -1.34,0 -2.43,1.09 -2.43,2.43z"/>
   <path class="fil2" d="M107.22 231.57c0,0 -39.14,26.61 -41.84,32.55 -2.7,5.94 9.45,41.71 12.82,44.74 3.37,3.04 81.32,10.41 87.73,10.1 6.41,-0.31 27.33,-6.11 27.33,-6.11l-2.02 -2.63 -27.33 -2.02 -47.92 -83.5 -8.78 2.99 0 3.9z"/>
   <line class="fil6 str4" x1="625.08" y1="244.36" x2="689.33" y2= "291.75" />
   <line class="fil6 str4" x1="104.79" y1="234.19" x2="149.57" y2= "317.9" />
   <path class="fil2" d="M585.38 199.71c0,2.93 2.37,5.3 5.3,5.3 2.93,0 5.3,-2.37 5.3,-5.3 0,-2.93 -2.37,-5.3 -5.3,-5.3 -2.93,0 -5.3,2.38 -5.3,5.3z"/>
  </g>
  <g id="_1591149540512">
   <polygon class="fil7" points="377.92,534.47 354.73,546.01 348.03,596.98 384.19,604.34 "/>
   <path class="fil7" d="M265.15 568.41c0.19,-1.14 -6.58,-39.47 -7.65,-54.84 -0.24,-3.4 2.46,-6.29 5.87,-6.29l0 0c2.44,0 4.63,1.51 5.5,3.79l18.46 48.25 37.2 0c4.96,0 9.23,3.54 10.14,8.42l5.11 27.22 -75.68 -25.59 1.04 -0.95z"/>
   <polygon class="fil4" points="652.61,592.54 622.89,623.02 620.09,604.94 646.78,585.66 "/>
   <polygon class="fil3" points="665.79,530.73 656.14,585.66 650.05,582.28 660,524.57 "/>
   <polygon class="fil4" points="684.46,418.34 668.55,536.9 654.08,534.47 671.44,416.42 "/>
   <polygon class="fil3" points="549.94,360.97 636.42,337.82 639.14,343.61 549.94,366.75 "/>
   <path class="fil5" d="M608.44 400.61l24.91 -46.96 -3.49 -8.86c-2.05,-5.2 1,-11.01 6.44,-12.28l0 0c3.75,-0.88 7.64,0.68 9.75,3.9l46.14 70.51c1.82,2.79 2.28,6.25 1.25,9.42l0 0c-1.58,4.84 -6.29,7.95 -11.36,7.52l-14 -1.19 -53.04 182.26 -13.02 -4.23 6.43 -200.1z"/>
   <polygon class="fil4" points="417.78,392.51 420.04,391.85 552.37,353.25 557.9,372.88 424.5,410.26 "/>
   <polygon class="fil2" points="432.29,414.49 416.86,385.56 386.55,418.34 "/>
   <path class="fil5" d="M327.56 487.12l43.89 -72.37 262.48 -22.21c4.63,-0.39 8.6,3.26 8.6,7.9l0 0c0,3.62 -2.45,6.78 -5.96,7.68l-194.2 49.91c-22.97,5.9 -42.74,20.53 -55.1,40.77l-10.6 17.36c0,0 -7.82,-33.13 -49.1,-29.05z"/>
   <polygon class="fil6 str5" points="343.37,478.62 376.67,421.21 522.54,405.83 529.45,428.58 "/>
   <path class="fil6 str5" d="M611.72 394.42l22.21 -1.88c4.63,-0.39 8.6,3.26 8.6,7.9l0 0c0,3.62 -2.45,6.78 -5.96,7.68l-28.61 7.35"/>
   <path class="fil2" d="M134.26 524.57l74.11 0c3.11,0 5.63,2.52 5.63,5.63l0 11.15 -85.36 0 0 -11.15c0,-3.11 2.52,-5.63 5.63,-5.63z"/>
   <path class="fil4" d="M106.59 536.9l9.59 -11.28c1.77,-2.08 5.18,-0.83 5.18,1.91l0 9.37 -14.77 0z"/>
   <path class="fil5" d="M102.6 534.47l140.79 0 -5.78 64.63c-0.47,5.31 3.71,9.88 9.04,9.88l130.19 0c0.37,0 0.72,-0.03 1.08,-0.06l0 0c0,4.87 -3.95,8.82 -8.82,8.82l-270.04 0c-4.87,0 -8.82,-3.95 -8.82,-8.82l0 -54.25 12.36 -20.2z"/>
   <path class="fil2" d="M248.91 559.29l6.07 -67.92 16.72 -0.06 9.99 0 0 68.3c-8.47,-0.16 -23.59,-0.41 -32.78,-0.32zm40.14 0.92l0 -68.91 49.78 0c18.29,0 33.63,13.81 35.55,32l8.17 77.38c0,0.01 -0,0.02 -0,0.02l-93.49 -40.49zm-51.45 38.89c-0.47,5.31 3.71,9.88 9.04,9.88l130.19 0c7.63,0 13.59,-6.61 12.78,-14.2l-7.82 -74.06c-2.15,-20.41 -19.37,-35.9 -39.9,-35.9l-75.32 0c-1.31,-3.71 -4.81,-6.19 -8.75,-6.19l-0.97 0c-4.8,0 -8.81,3.67 -9.24,8.45l-10.01 112.03z"/>
   <polyline class="fil6 str5" points="240,572.39 130.62,572.39 113.97,553.88 90.24,553.88 "/>
   <polygon class="fil7" points="265.3,628.3 341.34,628.3 341.34,617.74 265.3,617.74 "/>
   <path class="fil2" d="M109.98 673.93c0,22.09 17.91,40 40,40l280.73 0c22.09,0 40,-17.91 40,-40l0 0c0,-19.48 -14.03,-36.12 -33.23,-39.42l-23.67 -4.07c-9.98,-1.71 -20.09,-2.58 -30.22,-2.58l-188.33 0c-10.46,0 -20.9,0.92 -31.2,2.75l-21.08 3.75c-19.09,3.39 -33,19.99 -33,39.38l0 0.19z"/>
   <path class="fil6 str6" d="M117.19 673.74c0,-15.92 11.38,-29.5 27.06,-32.29l21.08 -3.74c9.86,-1.75 19.93,-2.64 29.94,-2.64l188.33 0c9.69,0 19.45,0.83 29,2.47l23.67 4.07c15.78,2.71 27.24,16.31 27.24,32.32 0,18.08 -14.71,32.79 -32.79,32.79l-280.73 0c-18.08,0 -32.79,-14.71 -32.79,-32.79l0 -0.19z"/>
   <path class="fil6 str7" d="M109.98 673.93c0,22.09 17.91,40 40,40l280.73 0c22.09,0 40,-17.91 40,-40l0 0c0,-19.48 -14.03,-36.12 -33.23,-39.42l-23.67 -4.07c-9.98,-1.71 -20.09,-2.58 -30.22,-2.58l-188.33 0c-10.46,0 -20.9,0.92 -31.2,2.75l-21.08 3.75c-19.09,3.39 -33,19.99 -33,39.38l0 0.19z"/>
   <path class="fil6 str8" d="M406.9 673.3c0,13.75 11.14,24.89 24.9,24.89 13.75,0 24.89,-11.15 24.89,-24.89 0,-13.75 -11.15,-24.9 -24.89,-24.9 -13.75,0 -24.9,11.15 -24.9,24.9z"/>
   <path class="fil7" d="M417.31 673.3c0,8 6.49,14.48 14.49,14.48 8,0 14.48,-6.48 14.48,-14.48 0,-8 -6.49,-14.49 -14.48,-14.49 -8,0 -14.49,6.48 -14.49,14.49z"/>
   <path class="fil6 str8" d="M123.72 673.3c0,13.75 11.15,24.89 24.9,24.89 13.75,0 24.89,-11.15 24.89,-24.89 0,-13.75 -11.14,-24.9 -24.89,-24.9 -13.75,0 -24.9,11.15 -24.9,24.9z"/>
   <path class="fil7" d="M134.13 673.3c0,8 6.49,14.48 14.49,14.48 8,0 14.48,-6.48 14.48,-14.48 0,-8 -6.49,-14.49 -14.48,-14.49 -8,0 -14.49,6.48 -14.49,14.49z"/>
   <path class="fil7" d="M200.98 685.34l181.14 0c5.63,0 10.2,-4.57 10.2,-10.2l0 0c0,-5.63 -4.56,-10.2 -10.2,-10.2l-181.14 0c-5.63,0 -10.2,4.56 -10.2,10.2l0 0c0,5.63 4.56,10.2 10.2,10.2z"/>
   <path class="fil6 str9" d="M202.51 681.34l178.06 0c3.42,0 6.2,-2.77 6.2,-6.2l0 0c0,-3.42 -2.77,-6.2 -6.2,-6.2l-178.06 0c-3.42,0 -6.2,2.77 -6.2,6.2l0 0c0,3.42 2.78,6.2 6.2,6.2z"/>
   <path class="fil7" d="M361.44 649.74l-0.09 -1.28 0.66 -0.05c0,-0.28 0.01,-0.56 0.04,-0.83l-0.66 -0.1 0.2 -1.27 0.66 0.1c0.07,-0.31 0.16,-0.61 0.26,-0.91l-0.62 -0.25 0.5 -1.19 0.61 0.26c0.16,-0.32 0.34,-0.64 0.54,-0.94l-0.53 -0.4 0.77 -1.03 0.53 0.4c0.19,-0.22 0.38,-0.42 0.59,-0.62l-0.43 -0.51 0.98 -0.83 0.43 0.51c0.28,-0.21 0.58,-0.4 0.88,-0.57l-0.29 -0.6 1.16 -0.56 0.29 0.6c0.24,-0.1 0.49,-0.19 0.74,-0.26l-0.15 -0.65 1.25 -0.3 0.15 0.65c0.29,-0.05 0.59,-0.08 0.89,-0.1l0 -0.67 1.29 0 0 0.67c0.39,0.03 0.78,0.08 1.16,0.15l0.17 -0.64 1.24 0.33 -0.17 0.64c0.43,0.15 0.85,0.33 1.25,0.53l0.34 -0.57 1.1 0.66 -0.34 0.57c0.28,0.19 0.54,0.4 0.79,0.62l0.47 -0.47 0.91 0.91 -0.47 0.47c0.21,0.25 0.42,0.5 0.61,0.77l0.57 -0.35 0.67 1.1 -0.57 0.35c0.15,0.29 0.29,0.59 0.41,0.9l0.64 -0.2 0.39 1.23 -0.64 0.2c0.07,0.31 0.13,0.61 0.18,0.93l0.66 -0.05 0.09 1.28 -0.66 0.05c0,0.28 -0.01,0.56 -0.04,0.84l0.66 0.1 -0.2 1.27 -0.66 -0.1c-0.07,0.31 -0.16,0.61 -0.26,0.91l0.62 0.26 -0.49 1.19 -0.62 -0.26c-0.16,0.32 -0.34,0.64 -0.54,0.94l0.53 0.4 -0.77 1.03 -0.53 -0.4c-0.19,0.22 -0.38,0.42 -0.59,0.62l0.43 0.51 -0.98 0.83 -0.43 -0.51c-0.28,0.21 -0.58,0.4 -0.88,0.57l0.29 0.6 -1.16 0.56 -0.29 -0.6c-0.24,0.1 -0.48,0.19 -0.74,0.26l0.15 0.65 -1.25 0.29 -0.15 -0.65c-0.29,0.05 -0.59,0.08 -0.89,0.1l0 0.67 -1.29 0 0 -0.67c-0.39,-0.03 -0.78,-0.08 -1.16,-0.15l-0.17 0.64 -1.24 -0.33 0.17 -0.64c-0.43,-0.15 -0.85,-0.33 -1.25,-0.53l-0.34 0.57 -1.1 -0.66 0.34 -0.57c-0.28,-0.19 -0.54,-0.4 -0.79,-0.62l-0.47 0.47 -0.91 -0.91 0.47 -0.47c-0.22,-0.25 -0.42,-0.5 -0.61,-0.77l-0.57 0.35 -0.67 -1.1 0.57 -0.34c-0.15,-0.29 -0.29,-0.59 -0.41,-0.9l-0.64 0.2 -0.39 -1.23 0.64 -0.2c-0.07,-0.31 -0.13,-0.61 -0.18,-0.93l-0.66 0.05z"/>
   <path class="fil7" d="M362.76 696.86l-0.06 -0.85 0.44 -0.03c0,-0.19 0.01,-0.37 0.03,-0.55l-0.44 -0.07 0.13 -0.84 0.44 0.07c0.05,-0.21 0.1,-0.41 0.17,-0.61l-0.41 -0.17 0.33 -0.79 0.41 0.17c0.11,-0.21 0.22,-0.42 0.35,-0.62l-0.35 -0.26 0.51 -0.68 0.35 0.26c0.12,-0.14 0.25,-0.28 0.39,-0.41l-0.29 -0.34 0.66 -0.55 0.28 0.34c0.19,-0.14 0.38,-0.26 0.59,-0.38l-0.19 -0.4 0.77 -0.37 0.19 0.4c0.16,-0.06 0.32,-0.12 0.49,-0.17l-0.1 -0.43 0.83 -0.2 0.1 0.43c0.19,-0.03 0.39,-0.05 0.59,-0.07l0 -0.44 0.85 0 0 0.44c0.26,0.02 0.52,0.05 0.77,0.1l0.11 -0.43 0.82 0.22 -0.11 0.43c0.29,0.1 0.56,0.21 0.83,0.35l0.23 -0.38 0.73 0.44 -0.23 0.38c0.18,0.13 0.36,0.26 0.52,0.41l0.31 -0.31 0.6 0.6 -0.31 0.31c0.14,0.16 0.28,0.33 0.4,0.51l0.38 -0.23 0.44 0.73 -0.38 0.23c0.1,0.19 0.19,0.39 0.27,0.59l0.42 -0.13 0.26 0.81 -0.42 0.13c0.05,0.2 0.09,0.41 0.12,0.61l0.44 -0.03 0.06 0.85 -0.44 0.03c0,0.19 -0.01,0.37 -0.03,0.55l0.44 0.07 -0.13 0.84 -0.44 -0.07c-0.05,0.21 -0.1,0.41 -0.17,0.61l0.41 0.17 -0.33 0.79 -0.41 -0.17c-0.11,0.21 -0.23,0.42 -0.36,0.62l0.35 0.27 -0.51 0.68 -0.35 -0.26c-0.12,0.14 -0.25,0.28 -0.39,0.41l0.28 0.34 -0.65 0.55 -0.29 -0.34c-0.19,0.14 -0.38,0.26 -0.59,0.38l0.19 0.4 -0.77 0.37 -0.19 -0.4c-0.16,0.06 -0.32,0.12 -0.49,0.18l0.1 0.43 -0.83 0.19 -0.1 -0.43c-0.19,0.03 -0.39,0.05 -0.59,0.07l0 0.44 -0.85 0 0 -0.44c-0.26,-0.02 -0.52,-0.05 -0.77,-0.1l-0.11 0.43 -0.82 -0.22 0.11 -0.43c-0.29,-0.1 -0.56,-0.22 -0.83,-0.35l-0.23 0.38 -0.73 -0.44 0.23 -0.38c-0.18,-0.13 -0.36,-0.26 -0.53,-0.41l-0.31 0.32 -0.6 -0.6 0.31 -0.31c-0.14,-0.16 -0.28,-0.34 -0.4,-0.51l-0.38 0.23 -0.44 -0.73 0.38 -0.23c-0.1,-0.19 -0.19,-0.39 -0.27,-0.59l-0.42 0.13 -0.26 -0.81 0.42 -0.13c-0.05,-0.2 -0.09,-0.41 -0.11,-0.61l-0.44 0.03z"/>
   <path class="fil7" d="M341.4 696.86l-0.06 -0.85 0.44 -0.03c0,-0.19 0.01,-0.37 0.02,-0.55l-0.44 -0.07 0.13 -0.84 0.44 0.07c0.05,-0.21 0.1,-0.41 0.17,-0.61l-0.41 -0.17 0.33 -0.79 0.41 0.17c0.11,-0.21 0.23,-0.42 0.36,-0.62l-0.35 -0.26 0.51 -0.68 0.35 0.26c0.12,-0.14 0.26,-0.28 0.39,-0.41l-0.28 -0.34 0.65 -0.55 0.29 0.34c0.19,-0.14 0.38,-0.26 0.58,-0.38l-0.19 -0.4 0.77 -0.37 0.19 0.4c0.16,-0.06 0.32,-0.12 0.49,-0.17l-0.1 -0.43 0.83 -0.2 0.1 0.43c0.19,-0.03 0.39,-0.05 0.59,-0.07l0 -0.44 0.85 0 0 0.44c0.26,0.02 0.52,0.05 0.77,0.1l0.11 -0.43 0.82 0.22 -0.11 0.43c0.29,0.1 0.56,0.21 0.83,0.35l0.23 -0.38 0.73 0.44 -0.23 0.38c0.18,0.13 0.36,0.26 0.53,0.41l0.31 -0.31 0.6 0.6 -0.31 0.31c0.14,0.16 0.27,0.33 0.4,0.51l0.38 -0.23 0.44 0.73 -0.38 0.23c0.1,0.19 0.19,0.39 0.27,0.59l0.42 -0.13 0.26 0.81 -0.42 0.13c0.05,0.2 0.09,0.41 0.11,0.61l0.44 -0.03 0.06 0.85 -0.44 0.03c0,0.19 -0.01,0.37 -0.02,0.55l0.44 0.07 -0.13 0.84 -0.44 -0.07c-0.05,0.21 -0.1,0.41 -0.17,0.61l0.41 0.17 -0.33 0.79 -0.41 -0.17c-0.11,0.21 -0.23,0.42 -0.36,0.62l0.35 0.27 -0.51 0.68 -0.35 -0.26c-0.12,0.14 -0.25,0.28 -0.39,0.41l0.28 0.34 -0.65 0.55 -0.28 -0.34c-0.19,0.14 -0.38,0.26 -0.59,0.38l0.19 0.4 -0.77 0.37 -0.19 -0.4c-0.16,0.06 -0.32,0.12 -0.49,0.18l0.1 0.43 -0.83 0.19 -0.1 -0.43c-0.19,0.03 -0.39,0.05 -0.59,0.07l0 0.44 -0.85 0 0 -0.44c-0.26,-0.02 -0.52,-0.05 -0.77,-0.1l-0.11 0.43 -0.82 -0.22 0.11 -0.43c-0.29,-0.1 -0.56,-0.22 -0.83,-0.35l-0.23 0.38 -0.73 -0.44 0.23 -0.38c-0.18,-0.13 -0.36,-0.26 -0.53,-0.41l-0.31 0.32 -0.6 -0.6 0.31 -0.31c-0.14,-0.16 -0.28,-0.34 -0.4,-0.51l-0.38 0.23 -0.44 -0.73 0.38 -0.23c-0.1,-0.19 -0.19,-0.39 -0.27,-0.59l-0.42 0.13 -0.26 -0.81 0.42 -0.13c-0.05,-0.2 -0.09,-0.41 -0.11,-0.61l-0.44 0.03z"/>
   <path class="fil7" d="M320.03 696.86l-0.06 -0.85 0.44 -0.03c0,-0.19 0.01,-0.37 0.03,-0.55l-0.44 -0.07 0.13 -0.84 0.44 0.07c0.05,-0.21 0.1,-0.41 0.17,-0.61l-0.41 -0.17 0.33 -0.79 0.41 0.17c0.11,-0.21 0.23,-0.42 0.36,-0.62l-0.35 -0.26 0.51 -0.68 0.35 0.26c0.12,-0.14 0.25,-0.28 0.39,-0.41l-0.28 -0.34 0.65 -0.55 0.29 0.34c0.19,-0.14 0.38,-0.26 0.59,-0.38l-0.19 -0.4 0.77 -0.37 0.19 0.4c0.16,-0.06 0.32,-0.12 0.49,-0.17l-0.1 -0.43 0.83 -0.2 0.1 0.43c0.19,-0.03 0.39,-0.05 0.59,-0.07l0 -0.44 0.85 0 0 0.44c0.26,0.02 0.52,0.05 0.77,0.1l0.11 -0.43 0.83 0.22 -0.11 0.43c0.29,0.1 0.56,0.21 0.83,0.35l0.23 -0.38 0.73 0.44 -0.23 0.38c0.18,0.13 0.36,0.26 0.53,0.41l0.31 -0.31 0.61 0.6 -0.31 0.31c0.14,0.16 0.28,0.33 0.4,0.51l0.38 -0.23 0.44 0.73 -0.38 0.23c0.1,0.19 0.19,0.39 0.27,0.59l0.42 -0.13 0.26 0.81 -0.42 0.13c0.05,0.2 0.09,0.41 0.12,0.61l0.44 -0.03 0.06 0.85 -0.44 0.03c0,0.19 -0.01,0.37 -0.02,0.55l0.44 0.07 -0.13 0.84 -0.44 -0.07c-0.05,0.21 -0.1,0.41 -0.17,0.61l0.41 0.17 -0.33 0.79 -0.41 -0.17c-0.11,0.21 -0.22,0.42 -0.36,0.62l0.35 0.27 -0.51 0.68 -0.35 -0.26c-0.12,0.14 -0.25,0.28 -0.39,0.41l0.29 0.34 -0.66 0.55 -0.28 -0.34c-0.19,0.14 -0.38,0.26 -0.59,0.38l0.19 0.4 -0.77 0.37 -0.19 -0.4c-0.16,0.06 -0.32,0.12 -0.49,0.18l0.1 0.43 -0.83 0.19 -0.1 -0.43c-0.19,0.03 -0.39,0.05 -0.59,0.07l0 0.44 -0.85 0 0 -0.44c-0.26,-0.02 -0.52,-0.05 -0.77,-0.1l-0.11 0.43 -0.82 -0.22 0.11 -0.43c-0.29,-0.1 -0.56,-0.22 -0.83,-0.35l-0.23 0.38 -0.73 -0.44 0.23 -0.38c-0.18,-0.13 -0.36,-0.26 -0.53,-0.41l-0.31 0.32 -0.6 -0.6 0.31 -0.31c-0.14,-0.16 -0.28,-0.34 -0.4,-0.51l-0.38 0.23 -0.44 -0.73 0.38 -0.23c-0.1,-0.19 -0.19,-0.39 -0.27,-0.59l-0.42 0.13 -0.26 -0.81 0.42 -0.13c-0.05,-0.2 -0.09,-0.41 -0.12,-0.61l-0.44 0.03z"/>
   <path class="fil7" d="M298.67 696.86l-0.06 -0.85 0.44 -0.03c0,-0.19 0.01,-0.37 0.03,-0.55l-0.44 -0.07 0.13 -0.84 0.44 0.07c0.05,-0.21 0.1,-0.41 0.17,-0.61l-0.41 -0.17 0.33 -0.79 0.41 0.17c0.11,-0.21 0.22,-0.42 0.35,-0.62l-0.35 -0.26 0.51 -0.68 0.35 0.26c0.12,-0.14 0.25,-0.28 0.39,-0.41l-0.29 -0.34 0.66 -0.55 0.28 0.34c0.19,-0.14 0.38,-0.26 0.59,-0.38l-0.19 -0.4 0.77 -0.37 0.19 0.4c0.16,-0.06 0.32,-0.12 0.49,-0.17l-0.1 -0.43 0.83 -0.2 0.1 0.43c0.19,-0.03 0.39,-0.05 0.59,-0.07l0 -0.44 0.86 0 0 0.44c0.26,0.02 0.52,0.05 0.77,0.1l0.11 -0.43 0.83 0.22 -0.11 0.43c0.29,0.1 0.56,0.21 0.83,0.35l0.23 -0.38 0.73 0.44 -0.23 0.38c0.18,0.13 0.36,0.26 0.53,0.41l0.31 -0.31 0.6 0.6 -0.31 0.31c0.14,0.16 0.28,0.33 0.4,0.51l0.38 -0.23 0.44 0.73 -0.38 0.23c0.1,0.19 0.19,0.39 0.27,0.59l0.42 -0.13 0.26 0.81 -0.42 0.13c0.05,0.2 0.09,0.41 0.12,0.61l0.44 -0.03 0.06 0.85 -0.44 0.03c0,0.19 -0.01,0.37 -0.03,0.55l0.44 0.07 -0.13 0.84 -0.44 -0.07c-0.05,0.21 -0.1,0.41 -0.17,0.61l0.41 0.17 -0.33 0.79 -0.41 -0.17c-0.11,0.21 -0.22,0.42 -0.35,0.62l0.35 0.27 -0.51 0.68 -0.35 -0.26c-0.12,0.14 -0.25,0.28 -0.39,0.41l0.29 0.34 -0.65 0.55 -0.28 -0.34c-0.19,0.14 -0.38,0.26 -0.59,0.38l0.19 0.4 -0.77 0.37 -0.19 -0.4c-0.16,0.06 -0.32,0.12 -0.49,0.18l0.1 0.43 -0.83 0.19 -0.1 -0.43c-0.19,0.03 -0.39,0.05 -0.59,0.07l0 0.44 -0.86 0 0 -0.44c-0.26,-0.02 -0.52,-0.05 -0.77,-0.1l-0.11 0.43 -0.82 -0.22 0.11 -0.43c-0.29,-0.1 -0.56,-0.22 -0.83,-0.35l-0.23 0.38 -0.73 -0.44 0.23 -0.38c-0.18,-0.13 -0.36,-0.26 -0.53,-0.41l-0.31 0.32 -0.6 -0.6 0.31 -0.31c-0.14,-0.16 -0.28,-0.34 -0.4,-0.51l-0.38 0.23 -0.44 -0.73 0.38 -0.23c-0.1,-0.19 -0.19,-0.39 -0.27,-0.59l-0.42 0.13 -0.26 -0.81 0.42 -0.13c-0.05,-0.2 -0.09,-0.41 -0.12,-0.61l-0.44 0.03z"/>
   <path class="fil7" d="M277.3 696.86l-0.06 -0.85 0.44 -0.03c0,-0.19 0.01,-0.37 0.03,-0.55l-0.44 -0.07 0.13 -0.84 0.44 0.07c0.05,-0.21 0.1,-0.41 0.17,-0.61l-0.41 -0.17 0.33 -0.79 0.41 0.17c0.11,-0.21 0.23,-0.42 0.35,-0.62l-0.35 -0.26 0.51 -0.68 0.35 0.26c0.12,-0.14 0.25,-0.28 0.39,-0.41l-0.29 -0.34 0.65 -0.55 0.28 0.34c0.19,-0.14 0.38,-0.26 0.59,-0.38l-0.19 -0.4 0.77 -0.37 0.19 0.4c0.16,-0.06 0.32,-0.12 0.49,-0.17l-0.1 -0.43 0.83 -0.2 0.1 0.43c0.19,-0.03 0.39,-0.05 0.59,-0.07l0 -0.44 0.85 0 0 0.44c0.26,0.02 0.52,0.05 0.77,0.1l0.11 -0.43 0.82 0.22 -0.11 0.43c0.29,0.1 0.56,0.21 0.83,0.35l0.23 -0.38 0.73 0.44 -0.23 0.38c0.18,0.13 0.36,0.26 0.53,0.41l0.31 -0.31 0.6 0.6 -0.31 0.31c0.14,0.16 0.28,0.33 0.4,0.51l0.38 -0.23 0.44 0.73 -0.38 0.23c0.1,0.19 0.19,0.39 0.27,0.59l0.42 -0.13 0.26 0.81 -0.42 0.13c0.05,0.2 0.09,0.41 0.12,0.61l0.44 -0.03 0.06 0.85 -0.44 0.03c0,0.19 -0.01,0.37 -0.03,0.55l0.44 0.07 -0.13 0.84 -0.44 -0.07c-0.05,0.21 -0.1,0.41 -0.17,0.61l0.41 0.17 -0.33 0.79 -0.41 -0.17c-0.11,0.21 -0.23,0.42 -0.36,0.62l0.35 0.27 -0.51 0.68 -0.35 -0.26c-0.12,0.14 -0.25,0.28 -0.39,0.41l0.28 0.34 -0.65 0.55 -0.28 -0.34c-0.19,0.14 -0.38,0.26 -0.59,0.38l0.19 0.4 -0.77 0.37 -0.19 -0.4c-0.16,0.06 -0.32,0.12 -0.49,0.18l0.1 0.43 -0.83 0.19 -0.1 -0.43c-0.19,0.03 -0.39,0.05 -0.59,0.07l0 0.44 -0.85 0 0 -0.44c-0.26,-0.02 -0.52,-0.05 -0.77,-0.1l-0.11 0.43 -0.82 -0.22 0.11 -0.43c-0.29,-0.1 -0.56,-0.22 -0.83,-0.35l-0.23 0.38 -0.73 -0.44 0.23 -0.38c-0.18,-0.13 -0.36,-0.26 -0.53,-0.41l-0.31 0.32 -0.6 -0.6 0.31 -0.31c-0.14,-0.16 -0.28,-0.34 -0.4,-0.51l-0.38 0.23 -0.44 -0.73 0.38 -0.23c-0.1,-0.19 -0.19,-0.39 -0.27,-0.59l-0.42 0.13 -0.26 -0.81 0.42 -0.13c-0.05,-0.2 -0.09,-0.41 -0.12,-0.61l-0.44 0.03z"/>
   <path class="fil7" d="M255.94 696.86l-0.06 -0.85 0.44 -0.03c0,-0.19 0.01,-0.37 0.03,-0.55l-0.44 -0.07 0.13 -0.84 0.44 0.07c0.05,-0.21 0.1,-0.41 0.17,-0.61l-0.41 -0.17 0.33 -0.79 0.41 0.17c0.11,-0.21 0.23,-0.42 0.36,-0.62l-0.35 -0.26 0.51 -0.68 0.35 0.26c0.12,-0.14 0.25,-0.28 0.39,-0.41l-0.28 -0.34 0.65 -0.55 0.28 0.34c0.19,-0.14 0.38,-0.26 0.59,-0.38l-0.19 -0.4 0.77 -0.37 0.19 0.4c0.16,-0.06 0.32,-0.12 0.49,-0.17l-0.1 -0.43 0.83 -0.2 0.1 0.43c0.19,-0.03 0.39,-0.05 0.59,-0.07l0 -0.44 0.85 0 0 0.44c0.26,0.02 0.52,0.05 0.77,0.1l0.11 -0.43 0.82 0.22 -0.11 0.43c0.29,0.1 0.56,0.21 0.83,0.35l0.23 -0.38 0.73 0.44 -0.23 0.38c0.18,0.13 0.36,0.26 0.53,0.41l0.31 -0.31 0.6 0.6 -0.31 0.31c0.14,0.16 0.27,0.33 0.4,0.51l0.38 -0.23 0.44 0.73 -0.38 0.23c0.1,0.19 0.19,0.39 0.27,0.59l0.42 -0.13 0.26 0.81 -0.42 0.13c0.05,0.2 0.09,0.41 0.12,0.61l0.44 -0.03 0.06 0.85 -0.44 0.03c0,0.19 -0.01,0.37 -0.03,0.55l0.44 0.07 -0.13 0.84 -0.44 -0.07c-0.04,0.21 -0.1,0.41 -0.17,0.61l0.41 0.17 -0.33 0.79 -0.41 -0.17c-0.11,0.21 -0.23,0.42 -0.36,0.62l0.35 0.27 -0.51 0.68 -0.35 -0.26c-0.12,0.14 -0.25,0.28 -0.39,0.41l0.28 0.34 -0.65 0.55 -0.28 -0.34c-0.19,0.14 -0.38,0.26 -0.59,0.38l0.19 0.4 -0.77 0.37 -0.19 -0.4c-0.16,0.06 -0.32,0.12 -0.49,0.18l0.1 0.43 -0.83 0.19 -0.1 -0.43c-0.19,0.03 -0.39,0.05 -0.59,0.07l0 0.44 -0.85 0 0 -0.44c-0.26,-0.02 -0.52,-0.05 -0.77,-0.1l-0.11 0.43 -0.83 -0.22 0.11 -0.43c-0.29,-0.1 -0.56,-0.22 -0.83,-0.35l-0.23 0.38 -0.73 -0.44 0.23 -0.38c-0.18,-0.13 -0.36,-0.26 -0.53,-0.41l-0.31 0.32 -0.6 -0.6 0.31 -0.31c-0.14,-0.16 -0.28,-0.34 -0.4,-0.51l-0.38 0.23 -0.44 -0.73 0.38 -0.23c-0.1,-0.19 -0.19,-0.39 -0.27,-0.59l-0.42 0.13 -0.26 -0.81 0.42 -0.13c-0.05,-0.2 -0.09,-0.41 -0.12,-0.61l-0.44 0.03z"/>
   <path class="fil7" d="M234.57 696.86l-0.06 -0.85 0.44 -0.03c0,-0.19 0.01,-0.37 0.03,-0.55l-0.44 -0.07 0.13 -0.84 0.44 0.07c0.05,-0.21 0.1,-0.41 0.17,-0.61l-0.41 -0.17 0.33 -0.79 0.41 0.17c0.11,-0.21 0.23,-0.42 0.36,-0.62l-0.35 -0.26 0.51 -0.68 0.35 0.26c0.12,-0.14 0.25,-0.28 0.39,-0.41l-0.28 -0.34 0.65 -0.55 0.28 0.34c0.19,-0.14 0.38,-0.26 0.59,-0.38l-0.19 -0.4 0.77 -0.37 0.19 0.4c0.16,-0.06 0.32,-0.12 0.49,-0.17l-0.1 -0.43 0.83 -0.2 0.1 0.43c0.19,-0.03 0.39,-0.05 0.59,-0.07l0 -0.44 0.85 0 0 0.44c0.26,0.02 0.52,0.05 0.77,0.1l0.11 -0.43 0.83 0.22 -0.11 0.43c0.29,0.1 0.56,0.21 0.83,0.35l0.23 -0.38 0.73 0.44 -0.23 0.38c0.18,0.13 0.36,0.26 0.53,0.41l0.31 -0.31 0.61 0.6 -0.31 0.31c0.14,0.16 0.28,0.33 0.4,0.51l0.38 -0.23 0.44 0.73 -0.38 0.23c0.1,0.19 0.19,0.39 0.27,0.59l0.42 -0.13 0.26 0.81 -0.42 0.13c0.05,0.2 0.09,0.41 0.12,0.61l0.44 -0.03 0.06 0.85 -0.44 0.03c0,0.19 -0.01,0.37 -0.03,0.55l0.44 0.07 -0.13 0.84 -0.44 -0.07c-0.05,0.21 -0.1,0.41 -0.17,0.61l0.41 0.17 -0.33 0.79 -0.41 -0.17c-0.11,0.21 -0.22,0.42 -0.35,0.62l0.35 0.27 -0.51 0.68 -0.35 -0.26c-0.12,0.14 -0.25,0.28 -0.39,0.41l0.29 0.34 -0.65 0.55 -0.28 -0.34c-0.19,0.14 -0.38,0.26 -0.59,0.38l0.19 0.4 -0.77 0.37 -0.19 -0.4c-0.16,0.06 -0.32,0.12 -0.49,0.18l0.1 0.43 -0.83 0.19 -0.1 -0.43c-0.19,0.03 -0.39,0.05 -0.59,0.07l0 0.44 -0.85 0 0 -0.44c-0.26,-0.02 -0.52,-0.05 -0.77,-0.1l-0.11 0.43 -0.83 -0.22 0.11 -0.43c-0.29,-0.1 -0.56,-0.22 -0.83,-0.35l-0.23 0.38 -0.73 -0.44 0.23 -0.38c-0.18,-0.13 -0.36,-0.26 -0.53,-0.41l-0.31 0.32 -0.61 -0.6 0.31 -0.31c-0.14,-0.16 -0.28,-0.34 -0.4,-0.51l-0.38 0.23 -0.44 -0.73 0.38 -0.23c-0.1,-0.19 -0.19,-0.39 -0.27,-0.59l-0.42 0.13 -0.26 -0.81 0.42 -0.13c-0.05,-0.2 -0.09,-0.41 -0.12,-0.61l-0.44 0.03z"/>
   <path class="fil7" d="M213.21 696.86l-0.06 -0.85 0.44 -0.03c0,-0.19 0.01,-0.37 0.03,-0.55l-0.44 -0.07 0.13 -0.84 0.44 0.07c0.05,-0.21 0.1,-0.41 0.17,-0.61l-0.41 -0.17 0.33 -0.79 0.41 0.17c0.11,-0.21 0.23,-0.42 0.36,-0.62l-0.35 -0.26 0.51 -0.68 0.35 0.26c0.12,-0.14 0.25,-0.28 0.39,-0.41l-0.29 -0.34 0.65 -0.55 0.28 0.34c0.19,-0.14 0.38,-0.26 0.58,-0.38l-0.19 -0.4 0.77 -0.37 0.19 0.4c0.16,-0.06 0.32,-0.12 0.49,-0.17l-0.1 -0.43 0.83 -0.2 0.1 0.43c0.19,-0.03 0.39,-0.05 0.59,-0.07l0 -0.44 0.85 0 0 0.44c0.26,0.02 0.52,0.05 0.77,0.1l0.11 -0.43 0.83 0.22 -0.11 0.43c0.29,0.1 0.56,0.21 0.83,0.35l0.23 -0.38 0.73 0.44 -0.23 0.38c0.18,0.13 0.36,0.26 0.53,0.41l0.31 -0.31 0.6 0.6 -0.31 0.31c0.14,0.16 0.28,0.33 0.4,0.51l0.38 -0.23 0.44 0.73 -0.38 0.23c0.1,0.19 0.19,0.39 0.27,0.59l0.42 -0.13 0.26 0.81 -0.42 0.13c0.05,0.2 0.09,0.41 0.12,0.61l0.44 -0.03 0.06 0.85 -0.44 0.03c0,0.19 -0.01,0.37 -0.03,0.55l0.44 0.07 -0.13 0.84 -0.44 -0.07c-0.05,0.21 -0.1,0.41 -0.17,0.61l0.41 0.17 -0.33 0.79 -0.41 -0.17c-0.11,0.21 -0.23,0.42 -0.35,0.62l0.35 0.27 -0.51 0.68 -0.35 -0.26c-0.12,0.14 -0.25,0.28 -0.39,0.41l0.28 0.34 -0.65 0.55 -0.28 -0.34c-0.19,0.14 -0.38,0.26 -0.59,0.38l0.19 0.4 -0.77 0.37 -0.19 -0.4c-0.16,0.06 -0.32,0.12 -0.49,0.18l0.1 0.43 -0.83 0.19 -0.1 -0.43c-0.19,0.03 -0.39,0.05 -0.59,0.07l0 0.44 -0.85 0 0 -0.44c-0.26,-0.02 -0.52,-0.05 -0.77,-0.1l-0.11 0.43 -0.82 -0.22 0.11 -0.43c-0.29,-0.1 -0.56,-0.22 -0.83,-0.35l-0.23 0.38 -0.73 -0.44 0.23 -0.38c-0.18,-0.13 -0.36,-0.26 -0.53,-0.41l-0.31 0.32 -0.6 -0.6 0.31 -0.31c-0.14,-0.16 -0.28,-0.34 -0.4,-0.51l-0.38 0.23 -0.44 -0.73 0.38 -0.23c-0.1,-0.19 -0.19,-0.39 -0.27,-0.59l-0.42 0.13 -0.26 -0.81 0.42 -0.13c-0.05,-0.2 -0.09,-0.41 -0.12,-0.61l-0.44 0.03z"/>
   <path class="fil7" d="M198.36 649.74l-0.09 -1.28 0.66 -0.05c0,-0.28 0.02,-0.56 0.04,-0.83l-0.66 -0.1 0.2 -1.27 0.66 0.1c0.07,-0.31 0.16,-0.61 0.26,-0.91l-0.61 -0.25 0.49 -1.19 0.61 0.26c0.16,-0.32 0.34,-0.64 0.54,-0.94l-0.53 -0.4 0.77 -1.03 0.53 0.4c0.19,-0.22 0.38,-0.42 0.59,-0.62l-0.43 -0.51 0.99 -0.83 0.43 0.51c0.28,-0.21 0.58,-0.4 0.88,-0.57l-0.29 -0.6 1.16 -0.56 0.29 0.6c0.24,-0.1 0.49,-0.19 0.74,-0.26l-0.15 -0.65 1.25 -0.3 0.15 0.65c0.29,-0.05 0.59,-0.08 0.89,-0.1l0 -0.67 1.29 0 0 0.67c0.39,0.03 0.78,0.08 1.16,0.15l0.17 -0.64 1.24 0.33 -0.17 0.64c0.43,0.15 0.85,0.33 1.25,0.53l0.34 -0.57 1.1 0.66 -0.34 0.57c0.28,0.19 0.54,0.4 0.79,0.62l0.47 -0.47 0.91 0.91 -0.47 0.47c0.21,0.25 0.42,0.5 0.61,0.77l0.57 -0.35 0.67 1.1 -0.57 0.35c0.15,0.29 0.29,0.59 0.41,0.9l0.64 -0.2 0.39 1.23 -0.64 0.2c0.07,0.31 0.13,0.61 0.17,0.93l0.67 -0.05 0.09 1.28 -0.66 0.05c0,0.28 -0.02,0.56 -0.04,0.84l0.66 0.1 -0.2 1.27 -0.66 -0.1c-0.07,0.31 -0.16,0.61 -0.26,0.91l0.61 0.26 -0.5 1.19 -0.61 -0.26c-0.16,0.32 -0.34,0.64 -0.54,0.94l0.53 0.4 -0.77 1.03 -0.53 -0.4c-0.19,0.22 -0.38,0.42 -0.59,0.62l0.43 0.51 -0.99 0.83 -0.43 -0.51c-0.28,0.21 -0.58,0.4 -0.88,0.57l0.29 0.6 -1.16 0.56 -0.29 -0.6c-0.24,0.1 -0.49,0.19 -0.74,0.26l0.15 0.65 -1.25 0.29 -0.15 -0.65c-0.29,0.05 -0.59,0.08 -0.89,0.1l0 0.67 -1.29 0 0 -0.67c-0.39,-0.03 -0.78,-0.08 -1.16,-0.15l-0.17 0.64 -1.25 -0.33 0.17 -0.64c-0.43,-0.15 -0.85,-0.33 -1.25,-0.53l-0.34 0.57 -1.1 -0.66 0.34 -0.57c-0.28,-0.19 -0.54,-0.4 -0.79,-0.62l-0.47 0.47 -0.91 -0.91 0.47 -0.47c-0.21,-0.25 -0.42,-0.5 -0.61,-0.77l-0.57 0.35 -0.67 -1.1 0.57 -0.34c-0.15,-0.29 -0.29,-0.59 -0.41,-0.9l-0.64 0.2 -0.39 -1.23 0.63 -0.2c-0.07,-0.31 -0.13,-0.61 -0.17,-0.93l-0.67 0.05z"/>
   <path class="fil2" d="M625.97 400.61c0,2.89 2.34,5.23 5.22,5.23 2.89,0 5.22,-2.34 5.22,-5.23 0,-2.89 -2.34,-5.22 -5.22,-5.22 -2.89,0 -5.22,2.34 -5.22,5.22z"/>
   <path class="fil5" d="M647.03 593.37l-31.63 -27.15c-3.33,-2.86 -3.72,-7.89 -0.85,-11.22l0 0c2.86,-3.33 7.89,-3.72 11.22,-0.85l31.63 27.15c3.33,2.86 3.72,7.88 0.85,11.22l0 0c-2.86,3.33 -7.88,3.72 -11.22,0.86z"/>
   <path class="fil6 str5" d="M626.92 576.11l-11.52 -9.89c-3.33,-2.86 -3.72,-7.89 -0.85,-11.22l0 0c2.86,-3.33 7.89,-3.72 11.22,-0.85l6.36 5.46"/>
   <path class="fil2" d="M636.27 681.34l-14.78 -87.31c-0.82,-4.83 -5.01,-8.37 -9.91,-8.37l0 0c-5.04,0 -9.29,3.73 -9.96,8.72l-2.73 20.42 -73.93 20.27 -17.42 -7.21 -9.24 0 76.41 61.43c0,0 17.48,14.47 45.35,8.9 18.98,-3.43 16.19,-16.85 16.19,-16.85z"/>
   <path class="fil5" d="M606.57 596.98c0,2.45 1.99,4.44 4.44,4.44 2.45,0 4.44,-1.99 4.44,-4.44 0,-2.45 -1.99,-4.44 -4.44,-4.44 -2.45,0 -4.44,1.99 -4.44,4.44z"/>
   <path class="fil2" d="M616.67 559.32c0,1.75 1.42,3.18 3.18,3.18 1.75,0 3.18,-1.42 3.18,-3.18 0,-1.75 -1.42,-3.18 -3.18,-3.18 -1.75,0 -3.18,1.42 -3.18,3.18z"/>
   <path class="fil2" d="M649.43 587.68c0,1.75 1.42,3.18 3.18,3.18 1.75,0 3.18,-1.42 3.18,-3.18 0,-1.75 -1.42,-3.18 -3.18,-3.18 -1.75,0 -3.18,1.42 -3.18,3.18z"/>
   <polygon class="fil3" points="394.37,483.69 411.24,433.1 416.42,435.29 399.33,486.1 "/>
   <polygon class="fil2" points="377.92,517.85 392.36,476.66 405.77,481.22 382.55,550.23 "/>
   <path class="fil2" d="M408.35 434.42c0,3.22 2.61,5.84 5.84,5.84 3.22,0 5.84,-2.61 5.84,-5.84 0,-3.22 -2.61,-5.84 -5.84,-5.84 -3.22,0 -5.84,2.61 -5.84,5.84z"/>
   <polygon class="fil6 str5" points="612.63,433.1 655.79,440.26 631.19,536.9 611,530.73 "/>
   <path class="fil4" d="M675.81 412.74c0,2.39 1.94,4.32 4.33,4.32 2.39,0 4.33,-1.94 4.33,-4.32 0,-2.39 -1.94,-4.32 -4.33,-4.32 -2.39,0 -4.33,1.94 -4.33,4.32z"/>
   <path class="fil4" d="M635.02 342.13c0,1.92 1.56,3.48 3.48,3.48 1.92,0 3.48,-1.56 3.48,-3.48 0,-1.92 -1.56,-3.48 -3.48,-3.48 -1.92,0 -3.48,1.56 -3.48,3.48z"/>
  </g>
 </g>
</svg>
