<?xml version="1.0" encoding="UTF-8"?>
<!DOCTYPE svg PUBLIC "-//W3C//DTD SVG 1.1//EN" "http://www.w3.org/Graphics/SVG/1.1/DTD/svg11.dtd">
<!-- Creator: CorelDRAW 2018 (64-Bit) -->
<svg xmlns="http://www.w3.org/2000/svg" xml:space="preserve" width="0.54035in" height="0.561902in" version="1.1" style="shape-rendering:geometricPrecision; text-rendering:geometricPrecision; image-rendering:optimizeQuality; fill-rule:evenodd; clip-rule:evenodd"
viewBox="0 0 63.23 65.75"
 xmlns:xlink="http://www.w3.org/1999/xlink">
 <defs>
  <style type="text/css">
   <![CDATA[
    .fil3 {fill:#ED3237;fill-rule:nonzero}
    .fil4 {fill:#BA3437;fill-rule:nonzero}
    .fil1 {fill:#013177;fill-rule:nonzero}
    .fil0 {fill:#074EA3;fill-rule:nonzero}
    .fil2 {fill:white;fill-rule:nonzero}
   ]]>
  </style>
 </defs>
 <g id="Layer_x0020_1">
  <metadata id="CorelCorpID_0Corel-Layer"/>
  <path class="fil0" d="M56.33 8.56l-41.67 0c-3.8,0 -6.9,3.09 -6.9,6.9l0 49.24c0,0.58 0.47,1.05 1.05,1.05l53.37 0c0.58,0 1.05,-0.47 1.05,-1.05l0 -49.24c0,-3.8 -3.09,-6.9 -6.9,-6.9z"/>
  <polygon class="fil1" points="15.9,1.4 15.9,9.24 "/>
  <path class="fil1" d="M15.9 10.64c-0.77,0 -1.4,-0.63 -1.4,-1.4l0 -7.85c0,-0.77 0.63,-1.4 1.4,-1.4 0.77,0 1.4,0.63 1.4,1.4l0 7.85c0,0.77 -0.63,1.4 -1.4,1.4z"/>
  <polygon class="fil1" points="55.38,1.4 55.38,9.24 "/>
  <path class="fil1" d="M55.38 10.64c-0.77,0 -1.4,-0.63 -1.4,-1.4l0 -7.85c0,-0.77 0.63,-1.4 1.4,-1.4 0.77,0 1.4,0.63 1.4,1.4l0 7.85c0,0.77 -0.63,1.4 -1.4,1.4z"/>
  <polygon class="fil2" points="26.09,51.71 44.64,51.71 44.64,37.68 26.09,37.68 "/>
  <polygon class="fil1" points="7.55,51.71 26.09,51.71 26.09,37.68 7.55,37.68 "/>
  <polygon class="fil1" points="26.22,37.68 44.77,37.68 44.77,23.64 26.22,23.64 "/>
  <polygon class="fil1" points="26.22,65.74 44.77,65.74 44.77,51.71 26.22,51.71 "/>
  <polygon class="fil1" points="44.61,51.71 63.15,51.71 63.15,37.68 44.61,37.68 "/>
  <path class="fil3" d="M45.5 32.37l-6.23 -6.23c-0.2,-0.2 -0.46,-0.31 -0.74,-0.31 -0.28,0 -0.54,0.11 -0.74,0.31l-20.88 20.88 -9.44 -9.44c-0.41,-0.41 -1.07,-0.41 -1.48,0l-5.67 5.67c-0.2,0.2 -0.31,0.46 -0.31,0.74 0,0.28 0.11,0.54 0.31,0.74l16.42 16.41c0.2,0.2 0.47,0.31 0.74,0.31 0.27,0 0.54,-0.1 0.74,-0.31l27.29 -27.29c0.41,-0.41 0.41,-1.07 0,-1.48z"/>
  <path class="fil4" d="M17.18 47c-0.08,0.02 -0.15,0.04 -0.22,0.07l-9.49 -9.49c-0.41,-0.41 -1.07,-0.41 -1.48,0l-5.67 5.67c-0.41,0.41 -0.41,1.08 0,1.49l16.33 16.33c0.15,0.15 0.34,0.25 0.54,0.29l0 -14.36z"/>
  <path class="fil3" d="M56.33 8.56l-41.67 0c-3.8,0 -6.9,3.09 -6.9,6.9l0 7.41c0,0.58 0.47,1.05 1.05,1.05l53.37 0c0.58,0 1.05,-0.47 1.05,-1.05l0 -7.41c0,-3.8 -3.09,-6.9 -6.9,-6.9z"/>
 </g>
</svg>
