<?xml version="1.0" encoding="UTF-8"?>
<!DOCTYPE svg PUBLIC "-//W3C//DTD SVG 1.1//EN" "http://www.w3.org/Graphics/SVG/1.1/DTD/svg11.dtd">
<!-- Creator: CorelDRAW 2018 (64-Bit) -->
<svg xmlns="http://www.w3.org/2000/svg" xml:space="preserve" width="0.640917in" height="0.62911in" version="1.1" style="shape-rendering:geometricPrecision; text-rendering:geometricPrecision; image-rendering:optimizeQuality; fill-rule:evenodd; clip-rule:evenodd"
viewBox="0 0 90.05 88.4"
 xmlns:xlink="http://www.w3.org/1999/xlink">
 <defs>
  <style type="text/css">
   <![CDATA[
    .fil1 {fill:#ED3237;fill-rule:nonzero}
    .fil4 {fill:#013177;fill-rule:nonzero}
    .fil0 {fill:#092C93;fill-rule:nonzero}
    .fil2 {fill:#27AAE1;fill-rule:nonzero}
    .fil3 {fill:white;fill-rule:nonzero}
   ]]>
  </style>
 </defs>
 <g id="Layer_x0020_1">
  <metadata id="CorelCorpID_0Corel-Layer"/>
  <path class="fil0" d="M71.84 16.56c-7.95,-7.95 -18.52,-12.33 -29.76,-12.33 -11.24,0 -21.81,4.38 -29.76,12.33 -7.95,7.95 -12.33,18.52 -12.33,29.76 0,11.24 4.38,21.81 12.33,29.76 7.95,7.95 18.52,12.33 29.76,12.33 11.24,0 21.81,-4.38 29.76,-12.33 7.95,-7.95 12.33,-18.52 12.33,-29.76 0,-11.24 -4.38,-21.81 -12.33,-29.76z"/>
  <path class="fil1" d="M84.5 42.5c-1.12,-6.89 -2.46,-11.71 -6.7,-18.99 -1.57,-2.69 -3.51,-5.22 -7.11,-5.45l-8.32 -0.55c-2.43,-0.16 -4.77,0.64 -6.6,2.25 -1.82,1.61 -2.91,3.83 -3.06,6.26l-0.49 8.1c-0.14,2.28 0.58,4.51 2.02,6.28 1.44,1.77 3.48,2.93 5.74,3.25l2.35 0.34c2.21,0.32 4.09,1.72 5.02,3.76l4.16 12.91c0.01,0.04 0.03,0.09 0.05,0.13 0.51,1.13 1.58,1.85 2.82,1.87 0.02,0 0.05,0 0.07,0 1.21,0 2.29,-0.67 2.83,-1.75 0.6,-1.2 1.52,-2.39 2.5,-3.65 2.62,-3.36 5.89,-7.55 4.71,-14.76z"/>
  <path class="fil1" d="M47.71 4.86c-0.15,-0.49 -0.58,-0.84 -1.08,-0.89 -0.23,-0.02 -5.58,-0.53 -9.16,0.01 -0.43,0.06 -0.79,0.34 -0.96,0.73 -0.58,1.28 -1.8,4.45 -0.74,6.09 0.41,0.63 1.08,0.98 1.89,0.98 2.62,0 8.05,-4.27 9.65,-5.58 0.4,-0.32 0.56,-0.85 0.41,-1.34z"/>
  <path class="fil1" d="M37.87 57.66c0.85,-1.71 0.77,-3.7 -0.24,-5.32 -1,-1.62 -2.74,-2.6 -4.65,-2.6l-4.39 0c-0.31,0 -0.61,-0.05 -0.9,-0.14l-10.3 -3.31 0 0c-1.6,-0.52 -3.32,-0.28 -4.71,0.66 -1.4,0.93 -2.28,2.43 -2.41,4.1l-0.61 7.44c-0.16,1.92 0.72,3.8 2.3,4.91l4.77 3.36c0.53,0.38 0.93,0.93 1.12,1.55l1.66 5.43c0.4,1.31 1.27,2.42 2.46,3.11l8.62 5.07c0.52,0.31 1.09,0.46 1.65,0.46 0.77,0 1.53,-0.28 2.15,-0.84 1.07,-0.96 1.38,-2.43 0.78,-3.74l-2.93 -6.44c-0.37,-0.81 -0.35,-1.74 0.05,-2.54l5.59 -11.17z"/>
  <path class="fil1" d="M31.1 16.09c-2.01,-1.81 -4.18,-0.48 -5.92,0.58 -1.16,0.71 -2.36,1.45 -3.54,1.46 -0.09,0 -0.17,-0 -0.23,-0 0.34,-0.6 1.11,-1.54 1.56,-2.1 0.21,-0.26 0.43,-0.52 0.62,-0.77 1.28,-1.62 2.4,-4.66 1.18,-6.15 -0.23,-0.29 -1.13,-1.17 -2.74,-0.37 -2.06,1.03 -13.6,8.58 -18.59,19.65 -2.14,4.75 -1.17,9.85 2.81,14.77 2.9,3.58 6.35,5.78 6.49,5.88 0.21,0.13 0.44,0.2 0.67,0.2 0.33,0 0.66,-0.13 0.9,-0.38 0.42,-0.43 0.48,-1.08 0.14,-1.58 -0.99,-1.49 -0.74,-2.17 -0.29,-3.4 0.31,-0.84 0.69,-1.89 0.58,-3.25 -0.08,-0.94 -0.36,-1.7 -0.71,-2.31 1.5,0.96 2.82,1.67 3.93,1.33 1.48,-0.44 2.2,-2.5 3.2,-5.36 0.58,-1.67 1.24,-3.57 1.98,-4.68 0.83,-1.24 1.63,-1.3 3.1,-1.42 0.98,-0.08 2.09,-0.17 3.32,-0.68 1.6,-0.67 2.79,-2.48 3.2,-4.84 0.45,-2.66 -0.2,-5.23 -1.68,-6.56z"/>
  <polygon class="fil2" points="72.43,32.53 72.43,1.26 "/>
  <path class="fil3" d="M72.43 33.79c-0.69,0 -1.26,-0.56 -1.26,-1.26l0 -31.27c0,-0.7 0.56,-1.26 1.26,-1.26 0.7,0 1.26,0.56 1.26,1.26l0 31.27c0,0.7 -0.56,1.26 -1.26,1.26z"/>
  <path class="fil1" d="M85.24 6.97l4.48 -4.86c0.34,-0.37 0.43,-0.9 0.23,-1.36 -0.2,-0.46 -0.65,-0.75 -1.16,-0.75l-16.36 0c-0.69,0 -1.26,0.56 -1.26,1.26l0 11.43c0,0.7 0.56,1.26 1.26,1.26l16.36 0c0.5,0 0.95,-0.3 1.16,-0.75 0.2,-0.46 0.11,-0.99 -0.23,-1.36l-4.48 -4.86z"/>
  <path class="fil3" d="M12.33 25.18l19.85 35.22 4.46 -2.12 33.22 -17.27 -2.97 -5.08 -53.5 -12.85 -1.06 2.11zm19.33 38.12c-0.44,0 -0.87,-0.23 -1.1,-0.64l-20.75 -36.83c-0.21,-0.37 -0.22,-0.81 -0.03,-1.18l1.81 -3.6c0.26,-0.52 0.85,-0.8 1.42,-0.66l54.99 13.21c0.33,0.08 0.62,0.29 0.79,0.59l3.91 6.69c0.17,0.3 0.22,0.65 0.13,0.99 -0.1,0.33 -0.33,0.61 -0.63,0.77l-34.41 17.89c-0.01,0.01 -0.03,0.01 -0.04,0.02l-5.54 2.63c-0.18,0.08 -0.36,0.13 -0.54,0.13z"/>
  <path class="fil4" d="M8.22 15.44c-3.4,0 -6.17,2.77 -6.17,6.17 0,3.4 2.77,6.17 6.17,6.17 3.4,0 6.17,-2.77 6.17,-6.17 0,-3.4 -2.77,-6.17 -6.17,-6.17z"/>
  <path class="fil4" d="M71.61 30.85c-3.4,0 -6.17,2.77 -6.17,6.17 0,3.4 2.77,6.17 6.17,6.17 3.4,0 6.17,-2.77 6.17,-6.17 0,-3.4 -2.77,-6.17 -6.17,-6.17z"/>
  <path class="fil4" d="M33.56 55.87c-3.4,0 -6.17,2.77 -6.17,6.17 0,3.4 2.77,6.17 6.17,6.17 3.4,0 6.17,-2.77 6.17,-6.17 0,-3.4 -2.77,-6.17 -6.17,-6.17z"/>
 </g>
</svg>
