<?xml version="1.0" encoding="UTF-8"?>
<!DOCTYPE svg PUBLIC "-//W3C//DTD SVG 1.1//EN" "http://www.w3.org/Graphics/SVG/1.1/DTD/svg11.dtd">
<!-- Creator: CorelDRAW 2018 (64-Bit) -->
<svg xmlns="http://www.w3.org/2000/svg" xml:space="preserve" width="1.07476in" height="1.21282in" version="1.1" style="shape-rendering:geometricPrecision; text-rendering:geometricPrecision; image-rendering:optimizeQuality; fill-rule:evenodd; clip-rule:evenodd"
viewBox="0 0 79.64 89.87"
 xmlns:xlink="http://www.w3.org/1999/xlink">
 <defs>
  <style type="text/css">
   <![CDATA[
    .str1 {stroke:#ED3237;stroke-width:2.06;stroke-miterlimit:2.61313}
    .str0 {stroke:#092C93;stroke-width:1.03;stroke-miterlimit:2.61313;stroke-dasharray:5.144545 1.028909}
    .fil0 {fill:none}
    .fil1 {fill:#F7F7F8}
    .fil3 {fill:#ED3237;fill-rule:nonzero}
    .fil4 {fill:#BA3437;fill-rule:nonzero}
    .fil2 {fill:#092C93;fill-rule:nonzero}
   ]]>
  </style>
 </defs>
 <g id="Layer_x0020_1">
  <metadata id="CorelCorpID_0Corel-Layer"/>
  <path class="fil0 str0" d="M42.98 1.37l32.98 19.04c2.01,1.16 3.16,3.16 3.16,5.48l0 38.08c0,2.32 -1.15,4.32 -3.16,5.48l-32.98 19.04c-2.01,1.16 -4.32,1.16 -6.33,0l-32.98 -19.04c-2.01,-1.16 -3.16,-3.16 -3.16,-5.48l0 -38.08c0,-2.32 1.15,-4.32 3.16,-5.48l32.98 -19.04c2.01,-1.16 4.32,-1.16 6.33,0z"/>
  <polygon class="fil1 str1" points="39.82,6.85 56.31,16.36 72.8,25.88 72.8,44.92 72.8,63.96 56.31,73.48 39.82,83 23.33,73.48 6.84,63.96 6.84,44.92 6.84,25.88 23.33,16.36 "/>
  <g id="_2327753490736">
   <path class="fil2" d="M65.58 35.03l-0.15 -0.17c-2.36,-2.68 -5.44,-4.57 -8.82,-5.5 -0.03,-0.01 -0.06,-0.02 -0.09,-0.02l-14.06 0.02c-6.27,0.01 -13.5,4.85 -15.97,10.3 -6.59,0.94 -12.17,0.74 -14.8,4.69l0 7.87c0,0.37 0.3,0.66 0.66,0.66l54.91 0c0.37,0 0.66,-0.3 0.66,-0.66l0 -10.98c0,-2.3 -0.84,-4.51 -2.36,-6.23z"/>
   <path class="fil3" d="M21.02 48.16c-3.4,0 -6.17,2.77 -6.17,6.17 0,3.4 2.77,6.17 6.17,6.17 3.4,0 6.17,-2.77 6.17,-6.17 0,-3.4 -2.77,-6.17 -6.17,-6.17z"/>
   <path class="fil4" d="M21.02 51.61c-1.5,0 -2.73,1.22 -2.73,2.73 0,1.5 1.22,2.73 2.73,2.73 1.5,0 2.73,-1.22 2.73,-2.73 0,-1.5 -1.22,-2.73 -2.73,-2.73z"/>
   <path class="fil3" d="M59.86 48.16c-3.4,0 -6.17,2.77 -6.17,6.17 0,3.4 2.77,6.17 6.17,6.17 3.4,0 6.17,-2.77 6.17,-6.17 0,-3.4 -2.77,-6.17 -6.17,-6.17z"/>
   <path class="fil4" d="M59.86 51.61c-1.5,0 -2.73,1.22 -2.73,2.73 0,1.5 1.22,2.73 2.73,2.73 1.5,0 2.73,-1.22 2.73,-2.73 0,-1.5 -1.22,-2.73 -2.73,-2.73z"/>
   <path class="fil3" d="M42.51 29.36l-0.04 0c-6.27,0 -13.5,4.85 -15.97,10.3l16.01 0.04 0 -10.34z"/>
  </g>
 </g>
</svg>
