<?xml version="1.0" encoding="UTF-8"?>
<!DOCTYPE svg PUBLIC "-//W3C//DTD SVG 1.1//EN" "http://www.w3.org/Graphics/SVG/1.1/DTD/svg11.dtd">
<!-- Creator: CorelDRAW 2018 (64-Bit) -->
<svg xmlns="http://www.w3.org/2000/svg" xml:space="preserve" width="7.01844in" height="4.22634in" version="1.1" style="shape-rendering:geometricPrecision; text-rendering:geometricPrecision; image-rendering:optimizeQuality; fill-rule:evenodd; clip-rule:evenodd"
viewBox="0 0 480.04 289.07"
 xmlns:xlink="http://www.w3.org/1999/xlink">
 <defs>
  <style type="text/css">
   <![CDATA[
    .fil0 {fill:#092C93}
    .fil1 {fill:url(#id0)}
   ]]>
  </style>
  <linearGradient id="id0" gradientUnits="userSpaceOnUse" x1="128.3" y1="247.52" x2="207.34" y2="104.03">
   <stop offset="0" style="stop-opacity:1; stop-color:#ED3237"/>
   <stop offset="0.631373" style="stop-opacity:1; stop-color:#D43337"/>
   <stop offset="1" style="stop-opacity:1; stop-color:#BA3437"/>
  </linearGradient>
 </defs>
 <g id="Layer_x0020_1">
  <metadata id="CorelCorpID_0Corel-Layer"/>
  <g id="_1476942566208">
   <path class="fil0" d="M38.69 88.17c21.11,29.01 45.84,57.16 79.27,75.93 -9.55,-121.93 47.38,-106.82 52.2,-78.49 24.96,0 50.52,0 75.48,0 10.25,-103.09 -182.27,-122.24 -206.94,2.56z"/>
   <path class="fil0" d="M140.8 165.83l-0.3 -48.25 108.57 -0.05 -0.46 107.07c-26.75,-7.99 -53.26,-19.11 -78.8,-32.51l0 -25.8 -29 -0.46z"/>
   <path class="fil0" d="M276.54 232.55l0.24 -221.81 82.65 0 0 179.16 76.37 0c0,13.4 0,26.8 0,40.2 -14.39,11.83 -63.88,30.36 -159.26,2.45z"/>
   <path class="fil1" d="M438.35 129.01c185.4,298.25 -644.2,4.42 -350.78,-129.01 -151.28,27.93 -61.73,129.89 -56.66,139.91 4.97,1.07 -12.3,167.7 178.39,119.99 317.41,96.28 297.57,-71.62 229.04,-130.88z"/>
  </g>
 </g>
</svg>
