<?xml version="1.0" encoding="UTF-8"?>
<!DOCTYPE svg PUBLIC "-//W3C//DTD SVG 1.1//EN" "http://www.w3.org/Graphics/SVG/1.1/DTD/svg11.dtd">
<!-- Creator: CorelDRAW 2018 (64-Bit) -->
<svg xmlns="http://www.w3.org/2000/svg" xml:space="preserve" width="1.07476in" height="1.21282in" version="1.1" style="shape-rendering:geometricPrecision; text-rendering:geometricPrecision; image-rendering:optimizeQuality; fill-rule:evenodd; clip-rule:evenodd"
viewBox="0 0 104.84 118.31"
 xmlns:xlink="http://www.w3.org/1999/xlink">
 <defs>
  <style type="text/css">
   <![CDATA[
    .str1 {stroke:#ED3237;stroke-width:2.71;stroke-miterlimit:2.61313}
    .str0 {stroke:#092C93;stroke-width:1.35;stroke-miterlimit:2.61313;stroke-dasharray:6.772522 1.354504}
    .fil0 {fill:none}
    .fil1 {fill:#F7F7F8}
    .fil5 {fill:#ED3237;fill-rule:nonzero}
    .fil3 {fill:#BA3437;fill-rule:nonzero}
    .fil4 {fill:#013177;fill-rule:nonzero}
    .fil2 {fill:#092C93;fill-rule:nonzero}
   ]]>
  </style>
 </defs>
 <g id="Layer_x0020_1">
  <metadata id="CorelCorpID_0Corel-Layer"/>
  <path class="fil0 str0" d="M56.58 1.8l43.41 25.06c2.65,1.53 4.16,4.16 4.16,7.21l0 50.13c0,3.06 -1.52,5.68 -4.16,7.21l-43.41 25.06c-2.65,1.53 -5.68,1.53 -8.33,0l-43.41 -25.06c-2.65,-1.53 -4.16,-4.16 -4.16,-7.21l0 -50.13c0,-3.06 1.52,-5.68 4.16,-7.21l43.41 -25.06c2.65,-1.53 5.68,-1.53 8.33,0z"/>
  <polygon class="fil1 str1" points="52.42,9.01 74.13,21.54 95.83,34.08 95.83,59.14 95.83,84.2 74.13,96.73 52.42,109.27 30.71,96.73 9.01,84.2 9.01,59.14 9.01,34.08 30.71,21.54 "/>
  <path class="fil2" d="M58.5 27.51l-12.22 0c-0.48,0 -0.87,0.39 -0.87,0.88l0 7.42c0,0.48 0.39,0.88 0.87,0.88l12.22 0c0.48,0 0.87,-0.39 0.87,-0.88l0 -7.42c0,-0.49 -0.39,-0.88 -0.87,-0.88z"/>
  <path class="fil2" d="M64.69 39.45l-4 0 0 -3.64c0,-0.48 -0.39,-0.87 -0.87,-0.87l-14.85 0c-0.48,0 -0.87,0.39 -0.87,0.87l0 3.64 -4 0c-0.48,0 -0.87,0.39 -0.87,0.87l0 15.28c0,0.48 0.39,0.87 0.87,0.87l4.87 0c0.48,0 0.87,-0.39 0.87,-0.87l0 -1.98 13.1 0 0 1.98c0,0.48 0.39,0.87 0.87,0.87l4.87 0c0.48,0 0.87,-0.39 0.87,-0.87l0 -15.28c0,-0.48 -0.39,-0.87 -0.87,-0.87z"/>
  <path class="fil3" d="M52.91 41.16c-0.28,-0.15 -0.63,-0.14 -0.9,0.04l-20.37 13.64c-0.33,0.22 -0.47,0.63 -0.34,1l8.27 25.4c0.1,0.31 0.37,0.54 0.69,0.59l5.41 0.87c0.05,0.01 0.09,0.01 0.14,0.01 0.07,0 0.14,-0.01 0.2,-0.02l6.55 -1.58c0.39,-0.09 0.67,-0.45 0.67,-0.85l0.15 -38.34c0,-0.32 -0.18,-0.62 -0.46,-0.77z"/>
  <path class="fil4" d="M52.35 78.94c-1.06,0.16 -2.1,0.59 -3.06,1.29l0 0c-2.49,1.79 -5.5,1.82 -8,0.06l-0.18 -0.12c-2.51,-1.76 -5.51,-1.73 -8,0.06l-3.99 2.87 23.23 0 0 -4.16z"/>
  <path class="fil5" d="M73.31 54.85l-20.37 -13.64c-0.13,-0.09 -0.29,-0.14 -0.44,-0.15l0 40.08c0.19,-0.03 0.35,-0.12 0.48,-0.25 0.14,0.23 0.39,0.4 0.75,0.4 0.88,-0.01 1.72,0.1 2.6,0.17 0.81,0.06 1.61,0.04 2.42,0.07 0.78,0.04 1.54,0.1 2.32,0.1l2.75 0c0.05,0 0.1,-0 0.15,-0.01 0.09,0.08 0.19,0.15 0.32,0.19 0.09,0.03 0.18,0.04 0.27,0.04 0.37,0 0.71,-0.23 0.83,-0.6l8.27 -25.4c0.12,-0.37 -0.02,-0.78 -0.34,-1z"/>
  <path class="fil2" d="M77.37 88.13c-1.7,-1.23 -3.75,-1.24 -5.46,-0.04l-0.12 0.09c-1.71,1.2 -3.76,1.18 -5.46,-0.04l0 0c-1.7,-1.23 -3.75,-1.24 -5.46,-0.04l-0.12 0.09c-1.71,1.2 -3.76,1.18 -5.46,-0.04 -0.89,-0.64 -1.87,-0.95 -2.85,-0.93 -0.98,-0.02 -1.96,0.29 -2.85,0.93 -1.7,1.23 -3.75,1.24 -5.46,0.04l-0.12 -0.09c-1.71,-1.2 -3.76,-1.19 -5.46,0.04l0 0c-1.7,1.23 -3.75,1.24 -5.46,0.04l-0.12 -0.09c-1.71,-1.2 -3.76,-1.19 -5.46,0.04l-2.72 1.96 55.34 0 -2.72 -1.96z"/>
  <path class="fil2" d="M71.59 80.22c-2.49,-1.8 -5.49,-1.82 -8,-0.06l-0.18 0.12c-2.51,1.76 -5.51,1.73 -8,-0.06 -0.96,-0.7 -2,-1.12 -3.06,-1.29l0 0c-1.06,0.16 -2.1,0.59 -3.06,1.29 -2.49,1.79 -5.5,1.82 -8,0.06l-0.18 -0.12c-2.51,-1.76 -5.51,-1.73 -8,0.06l-3.99 2.87 23.23 0 23.23 0 -3.99 -2.87z"/>
 </g>
</svg>
