<?xml version="1.0" encoding="UTF-8"?>
<!DOCTYPE svg PUBLIC "-//W3C//DTD SVG 1.1//EN" "http://www.w3.org/Graphics/SVG/1.1/DTD/svg11.dtd">
<!-- Creator: CorelDRAW 2018 (64-Bit) -->
<svg xmlns="http://www.w3.org/2000/svg" xml:space="preserve" width="1.07476in" height="1.21282in" version="1.1" style="shape-rendering:geometricPrecision; text-rendering:geometricPrecision; image-rendering:optimizeQuality; fill-rule:evenodd; clip-rule:evenodd"
viewBox="0 0 79.64 89.87"
 xmlns:xlink="http://www.w3.org/1999/xlink">
 <defs>
  <style type="text/css">
   <![CDATA[
    .str1 {stroke:#ED3237;stroke-width:2.06;stroke-miterlimit:2.61313}
    .str0 {stroke:#092C93;stroke-width:1.03;stroke-miterlimit:2.61313;stroke-dasharray:5.144545 1.028909}
    .fil0 {fill:none}
    .fil1 {fill:#F7F7F8}
    .fil3 {fill:#ED3237;fill-rule:nonzero}
    .fil4 {fill:#BA3437;fill-rule:nonzero}
    .fil2 {fill:#092C93;fill-rule:nonzero}
   ]]>
  </style>
 </defs>
 <g id="Layer_x0020_1">
  <metadata id="CorelCorpID_0Corel-Layer"/>
  <path class="fil0 str0" d="M42.98 1.37l32.98 19.04c2.01,1.16 3.16,3.16 3.16,5.48l0 38.08c0,2.32 -1.15,4.32 -3.16,5.48l-32.98 19.04c-2.01,1.16 -4.32,1.16 -6.33,0l-32.98 -19.04c-2.01,-1.16 -3.16,-3.16 -3.16,-5.48l0 -38.08c0,-2.32 1.15,-4.32 3.16,-5.48l32.98 -19.04c2.01,-1.16 4.32,-1.16 6.33,0z"/>
  <polygon class="fil1 str1" points="39.82,6.85 56.31,16.36 72.8,25.88 72.8,44.92 72.8,63.96 56.31,73.48 39.82,83 23.33,73.48 6.84,63.96 6.84,44.92 6.84,25.88 23.33,16.36 "/>
  <g id="_2327470596336">
   <path class="fil2" d="M62.55 29.16l-22.5 -8.09c-0.15,-0.05 -0.3,-0.05 -0.45,0l-22.5 8.09c-0.26,0.09 -0.44,0.35 -0.44,0.63 0,0.28 0.18,0.53 0.44,0.62l22.5 8.09c0.07,0.03 0.15,0.04 0.23,0.04 0.07,0 0.15,-0.01 0.22,-0.04l22.5 -8.09c0.26,-0.09 0.44,-0.34 0.44,-0.62 0,-0.28 -0.18,-0.53 -0.44,-0.63z"/>
   <path class="fil3" d="M40.04 37.26l-22.5 -8.09c-0.2,-0.07 -0.43,-0.04 -0.61,0.08 -0.18,0.12 -0.28,0.33 -0.28,0.54l0 28.83c0,0.27 0.16,0.51 0.4,0.61l22.5 9.54c0.08,0.03 0.17,0.05 0.26,0.05 0.13,0 0.26,-0.04 0.37,-0.11 0.19,-0.12 0.3,-0.33 0.3,-0.55l0 -30.27c0,-0.28 -0.18,-0.53 -0.44,-0.62z"/>
   <path class="fil4" d="M62.7 29.25c-0.18,-0.13 -0.4,-0.16 -0.61,-0.08l-22.5 8.09c-0.26,0.1 -0.44,0.34 -0.44,0.62l0 30.27c0,0.23 0.11,0.43 0.3,0.56 0.11,0.07 0.23,0.11 0.36,0.11 0.09,0 0.18,-0.02 0.27,-0.06l22.5 -10.1c0.24,-0.11 0.39,-0.35 0.39,-0.61l0 -28.26c0,-0.22 -0.11,-0.42 -0.28,-0.54z"/>
   <path class="fil4" d="M46.52 23.4l-22.11 8.9 0 11.04c0,0.31 0.19,0.59 0.48,0.7l6.24 2.37c0.09,0.03 0.18,0.05 0.27,0.05 0.15,0 0.3,-0.04 0.43,-0.13 0.2,-0.14 0.33,-0.37 0.33,-0.62l0 -10.55 23.17 -8.6 -8.81 -3.17z"/>
   <polygon class="fil2" points="43.5,61.71 51.91,57.91 "/>
   <path class="fil2" d="M43.5 62.37c-0.25,0 -0.5,-0.15 -0.61,-0.39 -0.15,-0.33 -0,-0.73 0.33,-0.88l8.42 -3.8c0.33,-0.15 0.73,-0 0.88,0.33 0.15,0.33 0,0.73 -0.33,0.88l-8.42 3.8c-0.09,0.04 -0.18,0.06 -0.27,0.06z"/>
   <path class="fil2" d="M43.14 56.66c-0.15,0 -0.3,-0.05 -0.42,-0.15 -0.28,-0.23 -0.32,-0.65 -0.09,-0.93l1.86 -2.26c0.22,-0.27 0.61,-0.32 0.89,-0.12l1.48 1.04c0.3,0.21 0.37,0.62 0.16,0.93 -0.21,0.3 -0.62,0.37 -0.93,0.16l-0.98 -0.69 -1.47 1.78c-0.13,0.16 -0.32,0.24 -0.51,0.24z"/>
   <path class="fil2" d="M45 61.6c-0.37,0 -0.66,-0.3 -0.66,-0.66l0 -7.2c0,-0.37 0.3,-0.66 0.66,-0.66 0.37,0 0.66,0.3 0.66,0.66l0 7.2c0,0.37 -0.3,0.66 -0.66,0.66z"/>
   <path class="fil2" d="M48.17 54.5c-0.15,0 -0.3,-0.05 -0.42,-0.15 -0.28,-0.23 -0.32,-0.65 -0.09,-0.93l1.86 -2.26c0.22,-0.27 0.61,-0.32 0.89,-0.12l1.48 1.04c0.3,0.21 0.37,0.62 0.16,0.93 -0.21,0.3 -0.62,0.37 -0.92,0.16l-0.98 -0.69 -1.47 1.78c-0.13,0.16 -0.32,0.24 -0.51,0.24z"/>
   <path class="fil2" d="M50.03 59.44c-0.37,0 -0.66,-0.3 -0.66,-0.66l0 -7.2c0,-0.37 0.3,-0.66 0.66,-0.66 0.37,0 0.66,0.3 0.66,0.66l0 7.2c0,0.37 -0.3,0.66 -0.66,0.66z"/>
   <path class="fil4" d="M31.5 34.89l-6.42 -2.31 -0.62 -0.22c-0.03,0.07 -0.04,0.15 -0.04,0.22l0 10.77c0,0.31 0.19,0.59 0.48,0.7l6.24 2.37c0.09,0.03 0.18,0.05 0.27,0.05 0.15,0 0.3,-0.04 0.43,-0.13 0.2,-0.14 0.33,-0.37 0.33,-0.62l0 -10.59 -0.66 -0.24z"/>
  </g>
 </g>
</svg>
