<?xml version="1.0" encoding="UTF-8"?>
<!DOCTYPE svg PUBLIC "-//W3C//DTD SVG 1.1//EN" "http://www.w3.org/Graphics/SVG/1.1/DTD/svg11.dtd">
<!-- Creator: CorelDRAW 2018 (64-Bit) -->
<svg xmlns="http://www.w3.org/2000/svg" xml:space="preserve" width="4.4632in" height="4.31194in" version="1.1" style="shape-rendering:geometricPrecision; text-rendering:geometricPrecision; image-rendering:optimizeQuality; fill-rule:evenodd; clip-rule:evenodd"
viewBox="0 0 784.22 757.64"
 xmlns:xlink="http://www.w3.org/1999/xlink">
 <defs>
  <style type="text/css">
   <![CDATA[
    .fil37 {fill:none}
    .fil15 {fill:#F79535;fill-rule:nonzero}
    .fil19 {fill:#F8B438;fill-rule:nonzero}
    .fil17 {fill:#F0EED7;fill-rule:nonzero}
    .fil27 {fill:#EAEAEA;fill-rule:nonzero}
    .fil13 {fill:#EBE6C6;fill-rule:nonzero}
    .fil3 {fill:#E2E3E3;fill-rule:nonzero}
    .fil18 {fill:#E2E0C8;fill-rule:nonzero}
    .fil14 {fill:#D8D6B1;fill-rule:nonzero}
    .fil6 {fill:#D2D2D3;fill-rule:nonzero}
    .fil8 {fill:#CBCDCF;fill-rule:nonzero}
    .fil10 {fill:#A73437;fill-rule:nonzero}
    .fil7 {fill:#A8AAAD;fill-rule:nonzero}
    .fil20 {fill:#5D5E5E;fill-rule:nonzero}
    .fil16 {fill:#4D4D4E;fill-rule:nonzero}
    .fil5 {fill:#4A444E;fill-rule:nonzero}
    .fil12 {fill:#4B434F;fill-rule:nonzero}
    .fil35 {fill:#433D47;fill-rule:nonzero}
    .fil11 {fill:#413B44;fill-rule:nonzero}
    .fil34 {fill:#3B373D;fill-rule:nonzero}
    .fil4 {fill:#3B363D;fill-rule:nonzero}
    .fil9 {fill:#414A52;fill-rule:nonzero}
    .fil31 {fill:#3F464E;fill-rule:nonzero}
    .fil36 {fill:#2E2F33;fill-rule:nonzero}
    .fil26 {fill:#3B4249;fill-rule:nonzero}
    .fil28 {fill:#2F3035;fill-rule:nonzero}
    .fil23 {fill:#303539;fill-rule:nonzero}
    .fil0 {fill:#2F3036;fill-rule:nonzero}
    .fil2 {fill:#28829F;fill-rule:nonzero}
    .fil30 {fill:#277993;fill-rule:nonzero}
    .fil22 {fill:#267188;fill-rule:nonzero}
    .fil25 {fill:#286F87;fill-rule:nonzero}
    .fil33 {fill:#29677C;fill-rule:nonzero}
    .fil1 {fill:#286E92;fill-rule:nonzero}
    .fil29 {fill:#276585;fill-rule:nonzero}
    .fil21 {fill:#255F7D;fill-rule:nonzero}
    .fil24 {fill:#265E7B;fill-rule:nonzero}
    .fil32 {fill:#295971;fill-rule:nonzero}
   ]]>
  </style>
 </defs>
 <g id="Layer_x0020_1">
  <metadata id="CorelCorpID_0Corel-Layer"/>
  <g id="_1591421020624">
   <polygon class="fil0" points="62.26,465.56 717.11,464.04 729.37,448.35 707.96,390.88 630.55,362.64 95.81,362.64 34.02,416.49 "/>
   <path class="fil1" d="M766.05 377.85l-7.56 -10.12 -13.76 -23.75c0,0 -7.15,-9.72 -16.06,-13.63 0,0 -66.81,-18.62 -155.48,-23.89l-127.27 -78.41c0,0 -21.6,-9.72 -61.54,-9.72 0,0 -177.08,-1.55 -274.64,16.54 -2.59,0.48 -4.98,1.68 -6.92,3.47l-62.33 57.72c0,0 -18.08,8.77 -21.19,22l-1.35 26.05 -7.02 5.53 0 33.47 2.03 12.69 -4.72 4.05 2.7 18.62c0,0 7.47,29.16 21.28,40.8l4.58 2.15 19.62 4.14 5.83 0c-0.45,-3.38 -0.68,-6.83 -0.68,-10.32 0,-43.11 34.95,-78.07 78.06,-78.07 43.12,0 78.06,34.96 78.06,78.07 0,3.5 -0.24,6.94 -0.68,10.32l345.14 0c-0.45,-3.38 -0.68,-6.83 -0.68,-10.32 0,-43.11 34.95,-78.07 78.06,-78.07 43.12,0 78.06,34.96 78.06,78.07 0,2.98 -0.17,5.91 -0.5,8.8l32.74 -6.02 17.75 -43.61c1.89,-4.65 2.8,-9.64 2.62,-14.66 -0.24,-6.75 -1.16,-16.11 -4.17,-21.89z"/>
   <path class="fil2" d="M743.71 342.69c-2.27,-2.77 -8.13,-9.31 -15.04,-12.34 0,0 -66.81,-18.62 -155.48,-23.89l-127.27 -78.41c0,0 -21.6,-9.72 -61.54,-9.72 0,0 -177.08,-1.55 -274.64,16.54 -2.59,0.48 -4.98,1.68 -6.92,3.47l-62.33 57.72c0,0 -18.08,8.77 -21.19,22l-0.01 0.28 61.1 0 566.51 15.1 96.8 9.25z"/>
   <path class="fil3" d="M395.97 539.35c-209.87,0 -380,-6.74 -380,-15.07 0,-8.32 170.13,-15.07 380,-15.07 209.87,0 380,6.75 380,15.07 0,8.32 -170.13,15.07 -380,15.07z"/>
   <path class="fil4" d="M709.02 455.24c0,38.37 -31.1,69.47 -69.48,69.47 -38.37,0 -69.48,-31.1 -69.48,-69.47 0,-38.37 31.1,-69.48 69.48,-69.48 38.38,0 69.48,31.11 69.48,69.48z"/>
   <path class="fil5" d="M685.06 500.75c-5.91,5.91 -12.79,10.55 -20.46,13.79 -7.93,3.36 -16.36,5.06 -25.05,5.06 -8.69,0 -17.12,-1.7 -25.05,-5.06 -7.66,-3.24 -14.55,-7.88 -20.46,-13.79 -5.91,-5.91 -10.55,-12.8 -13.79,-20.46 -3.36,-7.93 -5.06,-16.36 -5.06,-25.05 0,-8.69 1.7,-17.12 5.06,-25.05 3.24,-7.66 7.88,-14.55 13.79,-20.46 5.91,-5.91 12.8,-10.55 20.46,-13.8 7.93,-3.36 16.36,-5.06 25.05,-5.06 8.69,0 17.12,1.7 25.05,5.06 7.66,3.24 14.55,7.88 20.46,13.8 5.91,5.91 10.55,12.8 13.8,20.46 3.35,7.93 5.05,16.36 5.05,25.05 0,8.69 -1.7,17.12 -5.05,25.05 -3.24,7.66 -7.88,14.55 -13.8,20.46zm-45.51 -114.99c-38.37,0 -69.48,31.11 -69.48,69.48 0,38.37 31.1,69.47 69.48,69.47 38.38,0 69.48,-31.1 69.48,-69.47 0,-38.37 -31.1,-69.48 -69.48,-69.48z"/>
   <path class="fil5" d="M686.74 455.24c0,6.37 -1.25,12.55 -3.71,18.37 -2.38,5.62 -5.78,10.67 -10.12,15 -4.33,4.34 -9.38,7.74 -15,10.12 -5.82,2.46 -12,3.71 -18.37,3.71 -6.37,0 -12.55,-1.25 -18.37,-3.71 -5.62,-2.38 -10.67,-5.78 -15,-10.12 -4.34,-4.34 -7.74,-9.39 -10.12,-15 -2.46,-5.82 -3.71,-11.99 -3.71,-18.37 0,-6.37 1.25,-12.55 3.71,-18.37 2.38,-5.62 5.78,-10.67 10.12,-15 4.34,-4.34 9.38,-7.74 15,-10.12 5.81,-2.46 11.99,-3.71 18.37,-3.71 6.37,0 12.55,1.25 18.37,3.71 5.62,2.38 10.67,5.78 15,10.12 4.34,4.33 7.74,9.38 10.12,15 2.46,5.81 3.71,11.99 3.71,18.37zm-47.19 -54.21c-29.89,0 -54.2,24.32 -54.2,54.21 0,29.89 24.31,54.2 54.2,54.2 29.88,0 54.21,-24.32 54.21,-54.2 0,-29.89 -24.32,-54.21 -54.21,-54.21z"/>
   <path class="fil6" d="M686.72 455.23c-0.07,26.05 -21.24,47.18 -47.29,47.18 -26.06,0 -47.12,-21.12 -47.06,-47.18 0.06,-26.06 21.24,-47.18 47.29,-47.18 26.05,0 47.12,21.12 47.06,47.18z"/>
   <path class="fil4" d="M678.29 455.23c-0.05,21.39 -17.44,38.74 -38.84,38.74 -21.4,0 -38.7,-17.35 -38.65,-38.74 0.05,-21.4 17.44,-38.74 38.84,-38.74 21.4,0 38.7,17.34 38.65,38.74z"/>
   <path class="fil7" d="M678.28 459.3l0.02 -8.14 -13.86 0c-0.27,-1.68 -0.7,-3.3 -1.28,-4.85l12.02 -6.93 -4.05 -7.05 -12.02 6.93c-1.06,-1.3 -2.25,-2.48 -3.54,-3.55l6.96 -12.01 -7.03 -4.07 -6.96 12c-1.55,-0.59 -3.17,-1.02 -4.85,-1.3l0.04 -13.86 -8.14 0 -0.03 13.86c-1.68,0.27 -3.3,0.71 -4.85,1.3l-6.9 -12 -7.05 4.07 6.9 12.01c-1.29,1.06 -2.49,2.25 -3.55,3.55l-11.99 -6.93 -4.08 7.05 11.99 6.93c-0.59,1.55 -1.03,3.17 -1.31,4.85l-13.86 0 -0.02 8.14 13.86 0c0.27,1.68 0.7,3.3 1.28,4.85l-12.02 6.93 4.05 7.05 12.02 -6.93c1.06,1.3 2.24,2.48 3.54,3.55l-6.96 12.01 7.04 4.07 6.96 -12c1.55,0.59 3.17,1.03 4.85,1.3l-0.04 13.86 8.14 0 0.03 -13.86c1.68,-0.27 3.3,-0.71 4.86,-1.3l6.9 12 7.06 -4.07 -6.91 -12.01c1.3,-1.06 2.49,-2.25 3.56,-3.55l11.99 6.93 4.08 -7.05 -11.99 -6.93c0.59,-1.55 1.03,-3.17 1.31,-4.85l13.86 0z"/>
   <path class="fil4" d="M651.39 455.23c-0.02,6.54 -5.33,11.84 -11.87,11.84 -6.54,0 -11.83,-5.3 -11.82,-11.84 0.01,-6.54 5.33,-11.85 11.87,-11.85 6.55,0 11.83,5.3 11.82,11.85z"/>
   <path class="fil6" d="M639.55 438.47c-9.24,0 -16.77,7.52 -16.77,16.76 0,9.24 7.52,16.76 16.77,16.76 9.25,0 16.77,-7.52 16.77,-16.76 0,-9.25 -7.52,-16.76 -16.77,-16.76zm0 35.56c-10.36,0 -18.79,-8.43 -18.79,-18.79 0,-10.36 8.43,-18.79 18.79,-18.79 10.36,0 18.79,8.43 18.79,18.79 0,10.36 -8.43,18.79 -18.79,18.79z"/>
   <path class="fil8" d="M646.43 455.23c-0.01,3.8 -3.1,6.88 -6.9,6.88 -3.8,0 -6.87,-3.08 -6.86,-6.88 0.01,-3.8 3.09,-6.88 6.89,-6.88 3.8,0 6.87,3.08 6.86,6.88z"/>
   <path class="fil6" d="M661 455.24c0,2.9 -0.57,5.71 -1.69,8.35 -1.08,2.55 -2.63,4.85 -4.59,6.82 -1.97,1.97 -4.27,3.52 -6.82,4.6 -2.64,1.12 -5.45,1.69 -8.35,1.69 -2.9,0 -5.7,-0.57 -8.35,-1.69 -2.56,-1.08 -4.85,-2.63 -6.82,-4.6 -1.97,-1.97 -3.52,-4.27 -4.6,-6.82 -1.12,-2.64 -1.69,-5.45 -1.69,-8.35 0,-2.9 0.57,-5.71 1.69,-8.35 1.08,-2.56 2.63,-4.85 4.6,-6.82 1.97,-1.97 4.27,-3.52 6.82,-4.6 2.64,-1.12 5.45,-1.69 8.35,-1.69 2.9,0 5.71,0.57 8.35,1.69 2.56,1.08 4.85,2.63 6.82,4.6 1.97,1.97 3.51,4.26 4.6,6.82 1.12,2.64 1.69,5.45 1.69,8.35zm-21.45 -24.64c-13.59,0 -24.64,11.05 -24.64,24.64 0,13.59 11.05,24.64 24.64,24.64 13.59,0 24.64,-11.05 24.64,-24.64 0,-13.59 -11.05,-24.64 -24.64,-24.64z"/>
   <path class="fil6" d="M677.71 455.24c0,5.16 -1.01,10.15 -3,14.85 -1.92,4.54 -4.68,8.63 -8.18,12.13 -3.51,3.51 -7.59,6.26 -12.13,8.18 -4.7,1.99 -9.7,3 -14.86,3 -5.15,0 -10.15,-1.01 -14.85,-3 -4.54,-1.92 -8.63,-4.67 -12.13,-8.18 -3.51,-3.51 -6.26,-7.59 -8.18,-12.13 -1.99,-4.7 -3,-9.7 -3,-14.85 0,-5.15 1.01,-10.15 3,-14.85 1.92,-4.54 4.68,-8.63 8.18,-12.13 3.51,-3.51 7.59,-6.26 12.13,-8.18 4.7,-1.99 9.7,-3 14.85,-3 5.15,0 10.15,1.01 14.86,3 4.54,1.92 8.63,4.67 12.13,8.18 3.51,3.51 6.26,7.59 8.18,12.13 1.99,4.7 3,9.7 3,14.85zm-38.17 -43.84c-24.17,0 -43.84,19.67 -43.84,43.84 0,24.17 19.66,43.84 43.84,43.84 24.17,0 43.84,-19.66 43.84,-43.84 0,-24.17 -19.66,-43.84 -43.84,-43.84z"/>
   <path class="fil4" d="M209.12 455.24c0,38.37 -31.1,69.47 -69.47,69.47 -38.37,0 -69.48,-31.1 -69.48,-69.47 0,-38.37 31.1,-69.48 69.48,-69.48 38.38,0 69.47,31.11 69.47,69.48z"/>
   <path class="fil5" d="M185.15 500.75c-5.91,5.91 -12.79,10.55 -20.46,13.79 -7.93,3.36 -16.36,5.06 -25.05,5.06 -8.69,0 -17.12,-1.7 -25.05,-5.06 -7.66,-3.24 -14.55,-7.88 -20.46,-13.79 -5.91,-5.91 -10.56,-12.8 -13.8,-20.46 -3.35,-7.93 -5.05,-16.36 -5.05,-25.05 0,-8.69 1.7,-17.12 5.05,-25.05 3.24,-7.66 7.89,-14.55 13.8,-20.46 5.91,-5.91 12.79,-10.55 20.46,-13.8 7.93,-3.36 16.36,-5.06 25.05,-5.06 8.69,0 17.12,1.7 25.05,5.06 7.66,3.24 14.55,7.88 20.46,13.8 5.91,5.91 10.55,12.8 13.8,20.46 3.35,7.93 5.05,16.36 5.05,25.05 0,8.69 -1.7,17.12 -5.05,25.05 -3.24,7.66 -7.88,14.55 -13.79,20.46zm-45.51 -114.99c-38.37,0 -69.48,31.11 -69.48,69.48 0,38.37 31.1,69.47 69.48,69.47 38.38,0 69.47,-31.1 69.47,-69.47 0,-38.37 -31.1,-69.48 -69.47,-69.48z"/>
   <path class="fil5" d="M186.84 455.24c0,6.37 -1.25,12.55 -3.71,18.37 -2.37,5.62 -5.78,10.67 -10.11,15 -4.34,4.34 -9.39,7.74 -15,10.12 -5.82,2.46 -12,3.71 -18.37,3.71 -6.38,0 -12.55,-1.25 -18.37,-3.71 -5.62,-2.38 -10.67,-5.78 -15,-10.12 -4.34,-4.34 -7.74,-9.39 -10.12,-15 -2.46,-5.82 -3.71,-11.99 -3.71,-18.37 0,-6.37 1.25,-12.55 3.71,-18.37 2.38,-5.62 5.78,-10.67 10.12,-15 4.34,-4.34 9.38,-7.74 15,-10.12 5.82,-2.46 12,-3.71 18.37,-3.71 6.37,0 12.55,1.25 18.37,3.71 5.62,2.38 10.67,5.78 15,10.12 4.33,4.33 7.74,9.38 10.11,15 2.46,5.81 3.71,11.99 3.71,18.37zm-47.19 -54.21c-29.89,0 -54.21,24.32 -54.21,54.21 0,29.89 24.31,54.2 54.21,54.2 29.89,0 54.2,-24.32 54.2,-54.2 0,-29.89 -24.32,-54.21 -54.2,-54.21z"/>
   <path class="fil6" d="M186.82 455.23c-0.07,26.05 -21.24,47.18 -47.29,47.18 -26.06,0 -47.13,-21.12 -47.06,-47.18 0.06,-26.06 21.24,-47.18 47.29,-47.18 26.06,0 47.12,21.12 47.06,47.18z"/>
   <path class="fil4" d="M178.38 455.23c-0.05,21.39 -17.44,38.74 -38.83,38.74 -21.4,0 -38.7,-17.35 -38.65,-38.74 0.05,-21.4 17.44,-38.74 38.83,-38.74 21.4,0 38.7,17.34 38.65,38.74z"/>
   <path class="fil7" d="M178.37 459.3l0.02 -8.14 -13.86 0c-0.27,-1.68 -0.7,-3.3 -1.28,-4.85l12.02 -6.93 -4.05 -7.05 -12.02 6.93c-1.06,-1.3 -2.25,-2.48 -3.54,-3.55l6.96 -12.01 -7.03 -4.07 -6.96 12c-1.55,-0.59 -3.17,-1.02 -4.85,-1.3l0.03 -13.86 -8.14 0 -0.04 13.86c-1.68,0.27 -3.3,0.71 -4.85,1.3l-6.9 -12 -7.05 4.07 6.9 12.01c-1.3,1.06 -2.49,2.25 -3.56,3.55l-11.99 -6.93 -4.08 7.05 11.98 6.93c-0.59,1.55 -1.03,3.17 -1.31,4.85l-13.86 0 -0.02 8.14 13.86 0c0.27,1.68 0.7,3.3 1.28,4.85l-12.02 6.93 4.05 7.05 12.03 -6.93c1.06,1.3 2.24,2.48 3.54,3.55l-6.96 12.01 7.03 4.07 6.96 -12c1.55,0.59 3.17,1.03 4.85,1.3l-0.04 13.86 8.13 0 0.04 -13.86c1.68,-0.27 3.3,-0.71 4.85,-1.3l6.9 12 7.06 -4.07 -6.91 -12.01c1.3,-1.06 2.49,-2.25 3.56,-3.55l11.99 6.93 4.08 -7.05 -11.99 -6.93c0.59,-1.55 1.03,-3.17 1.31,-4.85l13.86 0z"/>
   <path class="fil4" d="M151.48 455.23c-0.01,6.54 -5.33,11.84 -11.87,11.84 -6.54,0 -11.83,-5.3 -11.81,-11.84 0.02,-6.54 5.33,-11.85 11.87,-11.85 6.55,0 11.83,5.3 11.82,11.85z"/>
   <path class="fil6" d="M139.64 438.47c-9.25,0 -16.76,7.52 -16.76,16.76 0,9.24 7.52,16.76 16.76,16.76 9.24,0 16.76,-7.52 16.76,-16.76 0,-9.25 -7.52,-16.76 -16.76,-16.76zm0 35.56c-10.36,0 -18.79,-8.43 -18.79,-18.79 0,-10.36 8.43,-18.79 18.79,-18.79 10.36,0 18.79,8.43 18.79,18.79 0,10.36 -8.43,18.79 -18.79,18.79z"/>
   <path class="fil8" d="M146.52 455.23c-0.01,3.8 -3.09,6.88 -6.89,6.88 -3.8,0 -6.87,-3.08 -6.86,-6.88 0.01,-3.8 3.1,-6.88 6.89,-6.88 3.8,0 6.87,3.08 6.86,6.88z"/>
   <path class="fil6" d="M161.1 455.24c0,2.9 -0.57,5.71 -1.69,8.35 -1.08,2.55 -2.63,4.85 -4.6,6.82 -1.97,1.97 -4.27,3.52 -6.82,4.6 -2.64,1.12 -5.45,1.69 -8.35,1.69 -2.9,0 -5.71,-0.57 -8.35,-1.69 -2.56,-1.08 -4.85,-2.63 -6.82,-4.6 -1.97,-1.97 -3.52,-4.27 -4.6,-6.82 -1.12,-2.64 -1.68,-5.45 -1.68,-8.35 0,-2.9 0.57,-5.71 1.68,-8.35 1.08,-2.56 2.63,-4.85 4.6,-6.82 1.97,-1.97 4.26,-3.52 6.82,-4.6 2.64,-1.12 5.45,-1.69 8.35,-1.69 2.9,0 5.71,0.57 8.35,1.69 2.55,1.08 4.85,2.63 6.82,4.6 1.97,1.97 3.52,4.26 4.6,6.82 1.12,2.64 1.69,5.45 1.69,8.35zm-21.45 -24.64c-13.59,0 -24.64,11.05 -24.64,24.64 0,13.59 11.06,24.64 24.64,24.64 13.59,0 24.64,-11.05 24.64,-24.64 0,-13.59 -11.05,-24.64 -24.64,-24.64z"/>
   <path class="fil6" d="M177.81 455.24c0,5.16 -1.01,10.15 -3,14.85 -1.92,4.54 -4.67,8.63 -8.18,12.13 -3.51,3.51 -7.59,6.26 -12.13,8.18 -4.7,1.99 -9.7,3 -14.86,3 -5.15,0 -10.15,-1.01 -14.86,-3 -4.54,-1.92 -8.63,-4.67 -12.13,-8.18 -3.51,-3.51 -6.26,-7.59 -8.18,-12.13 -1.99,-4.7 -3,-9.7 -3,-14.85 0,-5.15 1.01,-10.15 3,-14.85 1.92,-4.54 4.67,-8.63 8.18,-12.13 3.51,-3.51 7.59,-6.26 12.13,-8.18 4.7,-1.99 9.7,-3 14.85,-3 5.15,0 10.15,1.01 14.86,3 4.54,1.92 8.62,4.67 12.13,8.18 3.51,3.51 6.26,7.59 8.18,12.13 1.99,4.7 3,9.7 3,14.85zm-38.17 -43.84c-24.17,0 -43.84,19.67 -43.84,43.84 0,24.17 19.66,43.84 43.84,43.84 24.17,0 43.83,-19.66 43.83,-43.84 0,-24.17 -19.66,-43.84 -43.83,-43.84z"/>
   <path class="fil2" d="M639.55 364.93c47.51,0 86.42,36.79 89.82,83.43 0.16,-2.19 0.24,-4.41 0.24,-6.64 0,-49.74 -40.32,-90.07 -90.06,-90.07 -49.74,0 -90.06,40.33 -90.06,90.07 0,2.23 0.08,4.45 0.24,6.64 3.4,-46.64 42.31,-83.43 89.82,-83.43z"/>
   <path class="fil2" d="M139.64 364.93c47.51,0 86.42,36.79 89.82,83.43 0.16,-2.19 0.24,-4.41 0.24,-6.64 0,-49.74 -40.31,-90.07 -90.06,-90.07 -49.74,0 -90.07,40.33 -90.07,90.07 0,2.23 0.09,4.45 0.24,6.64 3.4,-46.64 42.32,-83.43 89.82,-83.43z"/>
   <path class="fil9" d="M216.81 443.39c0.59,3.86 0.9,7.82 0.9,11.85 0,3.5 -0.24,6.94 -0.68,10.32l345.14 0c-0.45,-3.38 -0.68,-6.83 -0.68,-10.32 0,-4.03 0.31,-7.99 0.9,-11.85l-345.57 0z"/>
   <path class="fil9" d="M20.5 443.39c3.17,6.09 7.08,11.98 11.72,15.89l4.58 2.15 19.62 4.14 5.83 0c-0.45,-3.38 -0.68,-6.83 -0.68,-10.32 0,-4.03 0.31,-7.99 0.9,-11.85l-41.97 0z"/>
   <path class="fil9" d="M716.72 443.39c0.59,3.86 0.9,7.82 0.9,11.85 0,2.98 -0.17,5.91 -0.5,8.8l32.74 -6.02 5.95 -14.63 -39.09 0z"/>
   <path class="fil9" d="M384.38 218.33c0,0 -176.76,-1.55 -274.37,16.49 -2.76,0.51 -5.32,1.79 -7.39,3.69l-51.97 47.89 522.54 20.06 -127.27 -78.41c0,0 -21.6,-9.72 -61.54,-9.72z"/>
   <path class="fil10" d="M19.3 318.34l-1.34 25.77 -1.58 1.25c12.85,-0.16 28.18,-0.99 28.18,-0.99 21.19,-1.69 34.71,-20.96 34.71,-20.96 2.7,-2.93 1.13,-5.07 1.13,-5.07l-61.1 0z"/>
   <path class="fil9" d="M619.11 333.75l-91.21 -5.18c-1.81,-0.1 -2.64,2.22 -1.18,3.3 6.54,4.81 12.21,6.45 12.21,6.45l52.64 3.56c12.15,0.56 22.4,-2.98 28.03,-5.49 1.33,-0.59 0.96,-2.56 -0.49,-2.64z"/>
   <path class="fil11" d="M313.46 285.46l-11.32 -53.24c0,0 90.69,-1.26 119.48,0 0,0 41.51,12.58 110.68,64.14l-218.83 -10.9z"/>
   <path class="fil12" d="M458.1 290.74l-68.28 -3.4 24.91 -53.42c2.48,0.06 4.67,0.13 6.55,0.22 1.6,0.51 11.81,3.93 29.01,12.61 6.19,3.12 13.77,7.18 22.57,12.32l-14.77 31.68z"/>
   <path class="fil12" d="M312.86 273.39l-7.79 -36.66 1.23 -2.63c4.96,-0.06 14.01,-0.17 25.02,-0.27l-18.45 39.56z"/>
   <polygon class="fil12" points="491.92,292.42 491.75,292.42 491.89,292.11 "/>
   <path class="fil12" d="M349.87 285.35l-15.7 -0.78 23.75 -50.93c5.34,-0.03 10.75,-0.04 16.08,-0.05l-24.14 51.76z"/>
   <path class="fil12" d="M365.77 286.14l-10.11 -0.5 24.27 -52.05c3.64,0 7.08,0.01 10.33,0.02l-24.49 52.53z"/>
   <path class="fil11" d="M292.92 232.64l4.19 52.68 -198.85 -5.17 39.13 -36.33c0,0 101.18,-10.31 155.53,-11.18z"/>
   <path class="fil12" d="M262.5 284.42l-69.02 -1.8 0 0 69.02 1.8zm0.89 -1.9l-69.02 -1.79 19.48 -41.77c24.61,-1.91 50.91,-3.63 71.83,-4.23l-22.29 47.79z"/>
   <path class="fil12" d="M111.01 280.48l-12.73 -0.33 0 0 12.73 0.33 0 0zm0.89 -1.9l-8.87 -0.23 15.84 -14.7 -6.97 14.94z"/>
   <path class="fil12" d="M153.09 281.58l-15.87 -0.41 0 0 15.87 0.41 0 0zm0.89 -1.9l-15.87 -0.41 16.4 -35.18c4.82,-0.46 10.49,-0.98 16.78,-1.55l-17.32 37.14z"/>
   <path class="fil12" d="M169.16 282l-10.22 -0.27 0 0 10.22 0.27 0 0zm0.89 -1.9l-10.22 -0.27 17.65 -37.84c3.46,-0.31 7.06,-0.62 10.79,-0.94l-18.21 39.05z"/>
   <path class="fil0" d="M313.46 285.46l-11.32 -53.24c0,0 40.31,-0.56 75.71,-0.56 17.7,0 34.17,0.14 43.77,0.56 0,0 41.51,12.58 110.68,64.14l-218.83 -10.9zm220.29 8.95c-35.87,-26.74 -64.2,-42.84 -81.64,-51.63 -18.99,-9.58 -29.35,-12.76 -29.78,-12.89l-0.3 -0.09 -0.31 -0.01c-8.52,-0.37 -23.28,-0.56 -43.87,-0.56l0 2.43 0 -2.43c-35.02,0 -75.34,0.55 -75.75,0.56l-2.96 0.04 0.61 2.89 11.32 53.24 0.39 1.83 1.87 0.09 218.84 10.9 7.97 0.4 -6.4 -4.77z"/>
   <path class="fil0" d="M98.26 280.15l39.13 -36.33c0,0 101.18,-10.31 155.53,-11.18l4.19 52.68 -198.85 -5.17zm197.08 -47.7l-0.18 -2.27 -2.28 0.04c-53.83,0.86 -154.73,11.09 -155.74,11.19l-0.81 0.08 -0.6 0.55 -39.13 36.33 -4.37 4.05 5.95 0.15 198.85 5.17 2.7 0.07 -0.21 -2.69 -4.19 -52.68z"/>
   <path class="fil9" d="M148.64 229.06c0,0 -31.08,-3.34 -64.57,3.58l-2.44 3.56c0,0 5.31,2.28 30.49,17.23l36.52 -24.37z"/>
   <path class="fil13" d="M758.49 367.73l-13.76 -23.75c0,0 -0.36,-0.49 -1.01,-1.29l-96.8 -9.25c0,0 4.72,6.67 18.21,13.33l21.79 4.88c0,0 10.57,3.9 14.8,7.97l57.64 9.26 -0.86 -1.14z"/>
   <path class="fil14" d="M743.59 352.98c1.55,4.57 1.12,8.85 -0.98,9.56 -2.09,0.71 -5.05,-2.41 -6.6,-6.98 -1.56,-4.57 -1.12,-8.85 0.97,-9.56 2.09,-0.71 5.05,2.42 6.6,6.98z"/>
   <path class="fil14" d="M732.29 351.32c1.44,4.23 1.03,8.2 -0.91,8.86 -1.94,0.66 -4.68,-2.24 -6.12,-6.47 -1.44,-4.23 -1.04,-8.2 0.9,-8.86 1.94,-0.66 4.68,2.24 6.12,6.47z"/>
   <path class="fil14" d="M721.48 349.82c1.33,3.91 0.96,7.58 -0.84,8.19 -1.79,0.61 -4.32,-2.07 -5.65,-5.98 -1.33,-3.91 -0.96,-7.58 0.84,-8.19 1.79,-0.61 4.32,2.07 5.66,5.98z"/>
   <path class="fil14" d="M711.02 348.66c1.26,3.7 0.9,7.16 -0.79,7.73 -1.69,0.58 -4.09,-1.95 -5.34,-5.65 -1.26,-3.7 -0.9,-7.16 0.79,-7.73 1.69,-0.58 4.08,1.95 5.34,5.65z"/>
   <path class="fil15" d="M691.43 337.69l-44.51 -4.25c0,0 4.72,6.67 18.21,13.33l21.79 4.88c0,0 10.57,3.9 14.8,7.97l0.96 0.15 -11.25 -22.08z"/>
   <path class="fil16" d="M702.45 358.1c-4.61,-4.11 -14.54,-7.81 -14.97,-7.96l-0.1 -0.04 -0.1 -0.02 -21.6 -4.84c-7.37,-3.66 -12.03,-7.33 -14.66,-9.78l91.87 8.78c0.25,0.31 0.42,0.53 0.49,0.63l12.65 21.83 -53.58 -8.6zm56.04 9.63l-13.76 -23.75c0,0 -0.36,-0.49 -1.01,-1.29l-96.8 -9.25c0,0 4.72,6.67 18.21,13.33l21.79 4.88c0,0 10.57,3.9 14.8,7.97l57.64 9.26 -0.86 -1.14z"/>
   <path class="fil17" d="M749.94 356.2l-5.76 -1.06c-0.15,-0.7 -0.35,-1.43 -0.59,-2.17 -1.41,-4.13 -3.96,-7.09 -5.98,-7.09 -0.21,0 -0.42,0.03 -0.62,0.1 -1.78,0.61 -2.36,3.79 -1.54,7.54l-2.67 -0.49c-0.13,-0.57 -0.29,-1.14 -0.49,-1.73 -1.3,-3.83 -3.67,-6.57 -5.54,-6.57 -0.2,0 -0.39,0.03 -0.58,0.09 -1.61,0.55 -2.16,3.36 -1.49,6.71l-2.83 -0.52c-0.1,-0.4 -0.22,-0.8 -0.36,-1.21 -1.21,-3.54 -3.39,-6.07 -5.12,-6.07 -0.18,0 -0.36,0.03 -0.53,0.09 -1.42,0.48 -1.95,2.89 -1.45,5.82l-3.23 -0.59c-0.04,-0.14 -0.09,-0.27 -0.13,-0.41 -1.14,-3.34 -3.2,-5.73 -4.84,-5.73 -0.17,0 -0.34,0.03 -0.5,0.08 -1.23,0.42 -1.75,2.35 -1.47,4.78l-8.43 -1.55 -3.48 -6.84 50.58 4.83c0.25,0.31 0.42,0.53 0.49,0.63l6.57 11.33z"/>
   <path class="fil18" d="M744.19 355.15l-8.74 -1.61c-0.82,-3.75 -0.24,-6.94 1.54,-7.54 0.2,-0.07 0.41,-0.1 0.62,-0.1 2.02,0 4.58,2.95 5.98,7.09 0.25,0.73 0.45,1.46 0.59,2.17z"/>
   <path class="fil18" d="M732.78 353.05l-8.1 -1.49c-0.67,-3.35 -0.12,-6.17 1.49,-6.71 0.18,-0.06 0.38,-0.09 0.58,-0.09 1.87,0 4.24,2.74 5.54,6.57 0.2,0.59 0.36,1.16 0.49,1.73z"/>
   <path class="fil18" d="M721.85 351.04l-7.46 -1.37c-0.51,-2.93 0.02,-5.34 1.45,-5.82 0.17,-0.06 0.35,-0.09 0.53,-0.09 1.73,0 3.92,2.53 5.12,6.07 0.14,0.41 0.26,0.81 0.36,1.21z"/>
   <path class="fil18" d="M711.15 349.07l-6.94 -1.28c-0.28,-2.44 0.24,-4.37 1.47,-4.78 0.16,-0.06 0.33,-0.08 0.5,-0.08 1.64,0 3.7,2.39 4.84,5.73 0.05,0.14 0.09,0.27 0.13,0.41z"/>
   <path class="fil19" d="M695.78 346.24l-40.83 -7.51c-1.63,-1.22 -2.94,-2.33 -3.94,-3.27l41.29 3.95 3.48 6.84z"/>
   <path class="fil20" d="M752.03 356.59l-2.09 -0.38 -6.57 -11.33c-0.08,-0.1 -0.25,-0.32 -0.49,-0.63l-50.58 -4.83 -41.29 -3.95c1,0.94 2.31,2.05 3.94,3.27l-3.41 -0.63c-3.29,-2.77 -4.63,-4.66 -4.63,-4.66l0 0 96.8 9.25c0.66,0.8 1.01,1.29 1.01,1.29l7.31 12.61z"/>
   <path class="fil21" d="M370.91 332.04c-0.03,0 -0.05,-0 -0.08,-0l-36.87 -1.08c-1.53,-0.04 -2.72,-1.41 -2.67,-3.04l0.09 -2.89 42.4 1.13 -0.09 2.99c-0.05,1.61 -1.28,2.88 -2.78,2.88z"/>
   <path class="fil22" d="M373.77 326.16l-42.4 -1.13 0.24 -7.75c0.05,-1.61 1.29,-2.88 2.78,-2.88 0.02,0 0.05,0 0.08,0l36.87 1.08c1.53,0.04 2.72,1.41 2.67,3.04l-0.23 7.65z"/>
   <path class="fil23" d="M334.17 324.28l36.87 1.08c1.52,0.04 2.8,-1.25 2.85,-2.88l0.12 -3.97c0.05,-1.64 -1.15,-3 -2.67,-3.04l-36.87 -1.08c-1.53,-0.04 -2.8,1.25 -2.86,2.88l-0.12 3.97c-0.05,1.64 1.15,3 2.67,3.04z"/>
   <path class="fil13" d="M18.96 324.9l-0.99 19.21 -1.58 1.25c3.02,-0.04 6.17,-0.11 9.23,-0.2 7.22,-6.36 10.24,-14.16 11.47,-20.25l-18.12 0z"/>
   <path class="fil16" d="M78.09 322.31l-0.07 0.08 -0.06 0.09c-0.13,0.19 -13.35,18.66 -33.5,20.28 -0.59,0.03 -13.17,0.7 -24.85,0.93l1.23 -23.73 58.4 0c0.01,0.53 -0.21,1.33 -1.16,2.35zm2.32 -3.97l-61.1 0 -1.34 25.77 -1.58 1.25c12.85,-0.16 28.18,-0.99 28.18,-0.99 21.19,-1.69 34.71,-20.96 34.71,-20.96 2.7,-2.93 1.13,-5.07 1.13,-5.07z"/>
   <polygon class="fil2" points="216.81,401.03 542.62,412.69 542.62,421.06 225.13,421.06 "/>
   <polygon class="fil24" points="545.86,379 542.62,379 542.62,351.71 541.46,338.49 544.73,338.71 545.86,351.64 "/>
   <polygon class="fil25" points="543.91,329.48 540.65,329.3 538.54,305.33 540.15,305.19 541.78,305.25 "/>
   <polygon class="fil26" points="541.78,305.25 540.15,305.19 541.77,305.05 "/>
   <polygon class="fil26" points="544.73,338.71 541.46,338.49 540.65,329.3 543.91,329.48 "/>
   <path class="fil24" d="M324.93 379l-3.4 0c-4.64,-14.43 -9.04,-32.44 -12.25,-54.56l3.29 0.09c3.25,22.2 7.7,40.17 12.36,54.47z"/>
   <path class="fil25" d="M312.56 324.53l-3.29 -0.09c-1.26,-8.67 -2.33,-17.97 -3.17,-27.94l2.38 -0.2 0.85 0.03c0.85,10.08 1.94,19.46 3.22,28.2z"/>
   <path class="fil26" d="M309.35 296.33l-0.85 -0.03 0.84 -0.07c0,0.03 0.01,0.07 0.01,0.1z"/>
   <path class="fil9" d="M729.08 390.05c2.05,8.82 5.68,25.91 6.68,39.89 0.08,1.12 1.02,1.99 2.15,1.99l10.49 0c1.28,0 2.51,-0.51 3.41,-1.42 3.59,-3.64 11.7,-14.83 9.05,-39.88 0,0 -0.94,-4.25 -3.98,-5.13l-23.11 -1.07c-3.04,-0.14 -5.37,2.65 -4.68,5.61z"/>
   <path class="fil9" d="M532.3 296.36c-15.64,-11.66 -29.87,-21.32 -42.52,-29.3l2.3 27.3 40.22 2z"/>
   <path class="fil27" d="M770.22 399.75c-0.1,-2.73 -0.31,-5.88 -0.72,-9.06 0.41,3.17 0.62,6.33 0.72,9.06z"/>
   <path class="fil28" d="M716.72 443.39l0 0c-4.86,-31.94 -29.09,-57.52 -60.33,-64.39l0.03 0c31.23,6.88 55.44,32.46 60.3,64.39l-0 0z"/>
   <path class="fil29" d="M749.86 458.02l5.95 -14.63 -26.21 0c0.01,-0.56 0.02,-1.12 0.02,-1.68 0,-24.38 -9.69,-46.49 -25.42,-62.71l62.41 0c1.46,3.31 2.36,7.51 2.9,11.69 0.41,3.17 0.62,6.33 0.72,9.06l0 0c0.01,0.41 0.02,0.82 0.02,1.23 0,4.6 -0.9,9.16 -2.64,13.43l-17.75 43.61zm-16.31 -73.59c-2.93,0 -5.13,2.73 -4.46,5.62 2.05,8.82 5.68,25.91 6.68,39.89 0.08,1.12 1.02,1.99 2.15,1.99l10.49 0c1.28,0 2.51,-0.51 3.41,-1.42 3.59,-3.64 11.7,-14.83 9.05,-39.88 0,0 -0.94,-4.25 -3.98,-5.13l-23.11 -1.07c-0.07,-0 -0.15,-0 -0.22,-0zm-4.68 58.96l-12.15 0c-4.86,-31.93 -29.07,-57.51 -60.3,-64.39l31.49 0c21.99,14.02 37.48,37.33 40.96,64.39z"/>
   <path class="fil30" d="M729.6 443.39l-0.73 0c-3.48,-27.06 -18.97,-50.37 -40.96,-64.39l16.29 0c15.73,16.22 25.42,38.34 25.42,62.71 0,0.56 -0.01,1.12 -0.02,1.68z"/>
   <path class="fil29" d="M717.61 455.24l0 0c0,-0.04 0,-0.07 0,-0.1 0,0.03 0,0.07 0,0.1z"/>
   <path class="fil28" d="M717.61 455.1c0,-0.01 0,-0.01 0,-0.02 0,0 0,0.01 0,0.01 0,0 0,0.01 0,0.01z"/>
   <path class="fil29" d="M717.61 455.09c0,-0 0,-0.01 0,-0.01 0,-0.02 0,-0.03 0,-0.05 0,0.02 0,0.04 0,0.06z"/>
   <path class="fil28" d="M717.61 454.99c0,-0.01 0,-0.02 0,-0.04 0,0 0,0.01 0,0.02 0,0.01 0,0.01 0,0.02z"/>
   <path class="fil29" d="M717.61 454.97c0,-0 0,-0.01 0,-0.02 0,-0.01 0,-0.02 0,-0.02 0,0.01 0,0.03 0,0.04z"/>
   <path class="fil28" d="M717.61 454.88c0,-0.02 0,-0.03 -0,-0.05l0 0c0,0.01 0,0.02 0,0.03 0,0.01 0,0.01 0,0.01z"/>
   <path class="fil29" d="M717.61 454.88l0 -0c0,-0 0,-0 0,-0.01 0,0 0,0.01 0,0.01zm-0 -0.05l0 -0.01c0,0 0,0 0,0.01z"/>
   <path class="fil28" d="M717.61 454.76c0,-0.01 0,-0.02 0,-0.03 0,0.01 0,0.01 0,0.02 0,0.01 0,0 0,0.01z"/>
   <path class="fil29" d="M717.61 454.78c0,-0.01 0,-0.01 0,-0.02 0,-0 0,-0 0,-0.01 0,0.01 0,0.02 0,0.03zm0 -0.1c0,-0.01 0,-0.02 0,-0.03 0,0.01 0,0.02 0,0.03z"/>
   <path class="fil31" d="M717.11 464.04c0.33,-2.89 0.5,-5.82 0.5,-8.8l0 0c0,-0.04 0,-0.07 0,-0.1 0,-0.01 0,-0.02 0,-0.03 0,-0 0,-0.01 0,-0.01 0,-0.02 0,-0.04 0,-0.06 0,-0.01 0,-0.03 0,-0.04 0,-0.01 0,-0.01 0,-0.02 0,-0.01 0,-0.03 0,-0.04 0,-0.02 0,-0.03 0,-0.05 0,-0 0,-0.01 0,-0.01 0,-0.01 0,-0.02 -0,-0.03 0,-0 0,-0 0,-0.01 0,-0.02 0,-0.04 0,-0.05 0,-0.01 0,-0.02 0,-0.03 0,-0.01 0,-0.01 0,-0.02 0,-0.02 0,-0.04 0,-0.06 0,-0.01 0,-0.02 0,-0.03 -0.03,-3.82 -0.33,-7.59 -0.89,-11.26l-0 0 39.09 0 -5.95 14.63 -32.74 6.02z"/>
   <path class="fil31" d="M748.4 431.93l-10.49 0c-1.13,0 -2.07,-0.87 -2.15,-1.99 -1,-13.98 -4.64,-31.07 -6.68,-39.89 -0.67,-2.89 1.53,-5.62 4.46,-5.62 0.07,0 0.15,0 0.22,0l23.11 1.07c3.04,0.88 3.98,5.13 3.98,5.13 2.65,25.05 -5.46,36.24 -9.05,39.88 -0.9,0.91 -2.13,1.42 -3.41,1.42z"/>
   <g>
    <path class="fil28" d="M561.49 455.1c0,-0 0,-0.01 0,-0.01 0,-0 0,-0.01 0,-0.01 0,0.01 0,0.02 0,0.02zm-343.78 0c0,-0.01 0,-0.01 0,-0.02 0,0 0,0.01 0,0.01 0,0 0,0.01 0,0.01zm343.78 -0.11c0,-0.01 0,-0.01 0,-0.02 0,-0.01 0,-0.01 0,-0.02 0,0.01 0,0.03 0,0.04zm-343.78 -0c0,-0.01 0,-0.02 0,-0.04 0,0 0,0.01 0,0.02 0,0.01 0,0.01 0,0.02zm-0 -0.11c0,-0.02 0,-0.03 0,-0.05l0 0c0,0.01 0,0.02 0,0.03 0,0.01 0,0.01 0,0.01zm343.78 0c0,-0.01 0,-0.01 0,-0.01 0,-0.01 0,-0.01 0,-0.02 0,-0 0,-0.01 0,-0.01 0,0.02 -0,0.03 -0,0.05zm-343.78 -0.12c0,-0.01 0,-0.02 0,-0.03 0,0.01 0,0.01 0,0.02 0,0.01 0,0 0,0.01zm343.78 -0c0,-0 0,-0.01 0,-0.01 0,-0.01 0,-0.01 0,-0.02 0,0.01 0,0.02 0,0.03zm0.89 -11.37l0 0c4.86,-31.93 29.07,-57.51 60.3,-64.39l0.03 0c-31.24,6.87 -55.47,32.45 -60.33,64.39l0 0zm-345.57 0l0 0c-4.86,-31.94 -29.09,-57.52 -60.33,-64.39l0.03 0c31.23,6.88 55.44,32.46 60.3,64.39l-0 0z"/>
   </g>
   <g>
    <path class="fil29" d="M561.49 455.24c0,-0.04 0,-0.07 0,-0.1 0,0.03 0,0.07 0,0.1l0 0zm-343.78 0l0 0c0,-0.04 0,-0.07 0,-0.1 0,0.03 0,0.07 0,0.1zm343.78 -0.15c0,-0.02 0,-0.04 0,-0.06 0,0.02 0,0.03 0,0.05 0,0 0,0.01 0,0.01zm-343.78 0c0,-0 0,-0.01 0,-0.01 0,-0.02 0,-0.03 0,-0.05 0,0.02 0,0.04 0,0.06zm343.78 -0.12c0,-0.01 0,-0.03 0,-0.04 0,0.01 0,0.01 0,0.02 0,0 0,0.01 0,0.02zm-343.78 -0c0,-0 0,-0.01 0,-0.02 0,-0.01 0,-0.02 0,-0.02 0,0.01 0,0.03 0,0.04zm343.78 -0.09c0,-0.01 0,-0.01 0,-0.02 0,0 0,0.01 0,0.01l0 0zm-343.78 0l0 -0c0,-0 0,-0 0,-0.01 0,0 0,0.01 0,0.01zm343.78 -0.04c0,-0.01 0,-0.01 0,-0.02 0,0 0,0 0,0 0,0 0,0.01 0,0.01zm-343.78 -0.01l0 -0.01c0,0 0,0 0,0.01zm343.78 -0.06c0,-0.01 0,-0.02 0,-0.03 0,0 0,0.01 0,0.01 0,0.01 0,0.02 0,0.02zm-343.78 -0c0,-0.01 0,-0.01 0,-0.02 0,-0 0,-0 0,-0.01 0,0.01 0,0.02 0,0.03zm-0 -0.1c0,-0.01 0,-0.02 0,-0.03 0,0.01 0,0.02 0,0.03zm343.78 0c0,-0.01 0,-0.02 0,-0.03 -0,0.01 -0,0.02 -0,0.03zm0.89 -11.29l-12.15 0c3.48,-27.06 18.98,-50.37 40.96,-64.39l31.49 0c-31.23,6.88 -55.44,32.46 -60.3,64.39l0 0zm-12.88 0l-319.81 0c0.01,-0.56 0.02,-1.12 0.02,-1.68 0,-7.1 -0.82,-14.02 -2.38,-20.65l113.03 0c7.39,11.77 13.01,16.4 13.32,16.64l0.45 0.36 191.75 0 0 -59.07 29.04 0c-15.73,16.22 -25.42,38.34 -25.42,62.71 0,0.56 0,1.12 0.02,1.68zm-320.54 0l-12.15 0c-4.86,-31.93 -29.07,-57.51 -60.29,-64.39l31.49 0c21.99,14.02 37.48,37.33 40.96,64.39zm102.75 -38.24l-111.64 -4c-4.13,-8.18 -9.47,-15.64 -15.79,-22.15l117.24 0c3.39,10.57 6.92,19.21 10.19,26.15z"/>
   </g>
   <path class="fil30" d="M550.23 443.39l-0.73 0c-0.01,-0.56 -0.02,-1.12 -0.02,-1.68 0,-24.38 9.69,-46.49 25.42,-62.71l16.29 0c-21.98,14.02 -37.48,37.33 -40.96,64.39z"/>
   <path class="fil30" d="M229.69 443.39l-0.73 0c-3.48,-27.06 -18.97,-50.37 -40.96,-64.39l16.29 0c6.32,6.51 11.66,13.97 15.79,22.15l-3.27 -0.12 8.32 20.03 2.2 0c1.55,6.63 2.38,13.54 2.38,20.65 0,0.56 -0.01,1.12 -0.02,1.68z"/>
   <path class="fil31" d="M562.17 465.56l-345.14 0c0.45,-3.38 0.68,-6.83 0.68,-10.32l0 0c0,-0.04 0,-0.07 0,-0.1 0,-0.01 0,-0.02 0,-0.03 0,-0 0,-0.01 0,-0.01 0,-0.02 0,-0.04 0,-0.06 0,-0.01 0,-0.03 0,-0.04 0,-0.01 0,-0.01 0,-0.02 0,-0.01 0,-0.03 0,-0.04 0,-0.02 -0,-0.03 -0,-0.05 0,-0 0,-0.01 0,-0.01 0,-0.01 0,-0.02 0,-0.03 0,-0 0,-0 0,-0.01 0,-0.02 0,-0.04 0,-0.05 0,-0.01 0,-0.02 0,-0.03 0,-0.01 0,-0.01 0,-0.02 0,-0.02 0,-0.04 -0,-0.06 0,-0.01 0,-0.02 0,-0.03 -0.03,-3.83 -0.33,-7.58 -0.89,-11.26l-0 0 345.57 0c-0.56,3.67 -0.86,7.44 -0.89,11.26 -0,0.01 -0,0.02 -0,0.03 0,0.02 0,0.04 0,0.06 0,0.01 0,0.01 0,0.02 0,0.01 0,0.02 0,0.03 0,0.02 0,0.03 0,0.05 0,0.01 0,0.01 0,0.02 0,0.01 -0,0.01 -0,0.02 0,0.01 0,0.01 0,0.02 0,0.02 0,0.03 0,0.05 0,0.01 0,0.03 0,0.04 0,0.01 0,0.01 0,0.02 0,0.01 0,0.02 0,0.04 0,0.02 0,0.04 0,0.06 0,0 0,0.01 0,0.01 0,0.01 0,0.02 0,0.03 0,0.03 0,0.07 0,0.1l0 0c0,3.5 0.23,6.94 0.68,10.32z"/>
   <path class="fil29" d="M542.62 434.82l-187.32 0c-1.31,-1.19 -5.6,-5.38 -11.08,-13.76l198.41 0 0 -8.37 -207.26 -7.42c-3.31,-6.84 -6.93,-15.52 -10.44,-26.28l217.7 0 0 55.83z"/>
   <path class="fil30" d="M542.62 421.06l-198.41 0c-2.55,-3.91 -5.37,-8.72 -8.26,-14.57 -0.2,-0.4 -0.4,-0.8 -0.59,-1.21l207.26 7.42 0 8.37zm-202.27 0l-115.23 0 -8.32 -20.03 3.27 0.12 111.64 4c0.5,1.07 1,2.09 1.49,3.08 2.48,5 4.9,9.25 7.16,12.84z"/>
   <path class="fil32" d="M545.86 438.06l-191.75 0 -0.45 -0.36c-0.3,-0.24 -5.92,-4.87 -13.32,-16.64l3.86 0c5.49,8.39 9.78,12.57 11.08,13.76l187.32 0 0 -55.83 3.24 0 0 59.07zm-210.5 -32.79l-3.65 -0.13c-3.27,-6.93 -6.79,-15.58 -10.19,-26.15l3.4 0c3.5,10.75 7.12,19.43 10.44,26.28z"/>
   <path class="fil33" d="M344.22 421.06l-3.86 0c-2.25,-3.59 -4.67,-7.84 -7.16,-12.84 -0.49,-0.99 -0.99,-2.01 -1.49,-3.08l3.65 0.13c0.2,0.41 0.4,0.82 0.59,1.21 2.89,5.85 5.71,10.67 8.26,14.57z"/>
   <path class="fil28" d="M61.58 455.1c0,-0 0,-0 0,-0.01 0,-0 0,-0 0,-0.01 0,0 0,0.01 0,0.02zm0 -0.11c0,-0.01 0,-0.01 0,-0.02 0,-0.01 0,-0.01 0,-0.02 0,0.01 0,0.02 0,0.03zm0 -0.11c0,-0.01 0,-0.03 0,-0.04 0,0.01 0,0.03 0,0.04zm0 -0.12l0 -0c0,-0 0,-0 0,-0.01 0,0 0,0.01 0,0.01zm0.89 -11.37l0 0c4.86,-31.93 29.07,-57.51 60.3,-64.39l0.03 0c-31.24,6.87 -55.47,32.45 -60.33,64.39z"/>
   <path class="fil29" d="M32.22 459.27c-0.02,-0.01 -0.03,-0.03 -0.05,-0.04 0.02,0.01 0.03,0.03 0.05,0.04zm-0.06 -0.05c-0.01,-0.01 -0.02,-0.02 -0.04,-0.03 0.01,0.01 0.02,0.02 0.04,0.03zm-0.05 -0.04c-0.03,-0.03 -0.07,-0.06 -0.1,-0.09 0.03,0.03 0.07,0.06 0.1,0.09zm-0.11 -0.1c-0.01,-0.01 -0.03,-0.02 -0.04,-0.04 0.01,0.01 0.03,0.02 0.04,0.04zm-0.05 -0.04c-0.03,-0.03 -0.07,-0.06 -0.1,-0.09 0.03,0.03 0.07,0.06 0.1,0.09zm-0.11 -0.09c-13.56,-11.85 -20.9,-40.47 -20.9,-40.47l-2.7 -18.62 4.72 -4.05 -2.03 -12.69 0 -4.12 64.05 0c-15.73,16.22 -25.42,38.34 -25.42,62.71 0,0.56 0,1.12 0.02,1.68l-29.09 0c3.08,5.92 6.87,11.65 11.34,15.56zm29.74 -3.71c0,-0.04 0,-0.07 0,-0.1 0,0.03 0,0.07 0,0.1l0 0zm0 -0.15c0,-0.02 0,-0.04 0,-0.05 0,0.02 0,0.03 -0,0.05 0,0 0,0 0,0.01zm0 -0.12c0,-0.01 0,-0.02 0,-0.04 0,0.01 0,0.01 0,0.02 0,0 0,0.01 0,0.02zm0 -0.2c0,-0.01 0,-0.01 0,-0.02l0 0c0,0 -0,0.01 -0,0.01zm0.89 -11.39l-12.15 0c3.48,-27.06 18.98,-50.37 40.96,-64.39l31.49 0c-31.23,6.88 -55.44,32.46 -60.3,64.39z"/>
   <path class="fil30" d="M50.32 443.39l-0.73 0c-0.01,-0.56 -0.02,-1.12 -0.02,-1.68 0,-24.38 9.69,-46.49 25.42,-62.71l16.29 0c-21.99,14.02 -37.48,37.33 -40.96,64.39z"/>
   <path class="fil31" d="M62.26 465.56l-5.83 0 -19.62 -4.14 -4.58 -2.15 0 0c-0.02,-0.01 -0.03,-0.03 -0.05,-0.04l0 0c-0,-0 -0.01,-0.01 -0.01,-0.01l0 0c-0.01,-0.01 -0.02,-0.02 -0.04,-0.03l0 0c-0,-0 -0.01,-0.01 -0.01,-0.01l0 0c-0.03,-0.03 -0.07,-0.06 -0.1,-0.09l0 0c-0,-0 -0.01,-0.01 -0.01,-0.01l0 0c-0.01,-0.01 -0.03,-0.02 -0.04,-0.04l0 0c-0,-0 -0.01,-0 -0.01,-0.01l0 0c-0.03,-0.03 -0.07,-0.06 -0.1,-0.09l0 0c-0,-0 -0,-0 -0.01,-0l0 0c-4.47,-3.91 -8.26,-9.63 -11.34,-15.56l41.97 0 0 0c-0.57,3.71 -0.87,7.5 -0.89,11.36 0,0 0,0 0,0.01 0,0.01 0,0.01 -0,0.02 0,0.02 0,0.04 0,0.06 0,0.01 0,0.03 0,0.04 0,0.02 0,0.04 0,0.06 0,0.01 0,0.02 0,0.04 0,0 0,0.01 0,0.02 0,0.02 0,0.03 0,0.05 0,0.02 -0,0.04 -0,0.05 0,0 0,0.01 0,0.01 0,0.01 0,0.03 0,0.04 0,0.03 0,0.07 0,0.1l0 0c0,3.5 0.23,6.94 0.68,10.32z"/>
   <path class="fil26" d="M421.62 232.22c-5.86,-0.26 -14.27,-0.41 -23.97,-0.49 9.7,0.08 18.11,0.23 23.97,0.49z"/>
   <path class="fil34" d="M532.3 296.36l-1.23 -0.06 1.23 0.06 0 0zm0 0c-0.31,-0.23 -0.63,-0.46 -0.94,-0.7l0 0c-11.06,-8.22 -21.41,-15.44 -30.98,-21.76l-0 0c-3.64,-2.41 -7.18,-4.69 -10.6,-6.84l0.2 2.42c-6.12,-3.88 -11.84,-7.34 -17.11,-10.42l0.82 -1.76c-32.71,-19.04 -51.39,-24.87 -52.06,-25.07 1,0.31 42.33,13.2 110.66,64.14zm-41.43 -2.06l-33.64 -1.68 0.88 -1.88 33.64 1.68 -0.88 1.88zm-101.92 -5.08l-24.05 -1.2 0.88 -1.88 24.05 1.2 -0.88 1.88zm-34.16 -1.7l-5.79 -0.29 0.88 -1.88 5.79 0.29 -0.88 1.88zm-21.49 -1.07l-19.83 -0.99 -1.95 -9.18 1.35 -2.9 2.17 10.23 19.14 0.95 -0.88 1.88zm-29.58 -46.83l-1.57 -7.4c0,0 1.83,-0.02 5.06,-0.07l-0.9 1.94c-0.67,0.01 -1.27,0.02 -1.78,0.02l0.56 2.61 -1.35 2.9zm111.02 -5.7c-6.28,-0.16 -14.46,-0.26 -24.47,-0.31l0.9 -1.92c2.22,0.01 4.38,0.03 6.49,0.04 9.7,0.08 18.11,0.23 23.97,0.49l0 0c-1.78,-0.08 -3.79,-0.14 -6,-0.2l-0.89 1.9zm-83.42 -0.09l0.9 -1.93c8.12,-0.07 17.25,-0.14 26.61,-0.18l-0.9 1.93c-9.37,0.04 -18.52,0.11 -26.61,0.19zm42.69 -0.24l0.9 -1.93c0.5,0 1,-0 1.49,-0 0.49,0 0.97,0 1.45,0 1,0 1.99,0 2.98,0l-0.9 1.92c-0.68,0 -1.38,0 -2.08,0 -1.28,0 -2.56,0 -3.85,0z"/>
   <path class="fil35" d="M457.22 292.62l-68.27 -3.4 0.88 -1.88 68.28 3.4 -0.88 1.88zm15.65 -33.56c-8.81,-5.14 -16.39,-9.19 -22.57,-12.32 -17.2,-8.68 -27.41,-12.1 -29.01,-12.61 -1.88,-0.08 -4.07,-0.15 -6.55,-0.22l0.89 -1.9c2.21,0.06 4.22,0.13 6,0.2l0 0c0,0 0.01,0 0.02,0.01 0.67,0.21 19.35,6.03 52.06,25.07l-0.82 1.76z"/>
   <path class="fil35" d="M311.51 276.29l-7.79 -36.66 1.35 -2.9 7.79 36.66 -1.35 2.9zm-5.22 -42.19l0.9 -1.94c5.26,-0.07 14.24,-0.17 25.01,-0.26l-0.9 1.93c-11.01,0.1 -20.06,0.21 -25.02,0.27z"/>
   <path class="fil35" d="M531.06 296.3l-40.2 -2 0.88 -1.88 0.17 0.01 0.16 1.93 38.99 1.94zm0.3 -0.64c-11.06,-8.22 -21.41,-15.44 -30.98,-21.76l0 -0c9.58,6.33 19.92,13.54 30.98,21.76l0 0z"/>
   <path class="fil35" d="M348.99 287.23l-15.7 -0.78 0.88 -1.88 15.7 0.78 -0.88 1.88zm8.93 -53.59l0.9 -1.93c5.34,-0.02 10.75,-0.04 16.08,-0.04l-0.9 1.93c-5.33,0 -10.74,0.02 -16.08,0.05z"/>
   <path class="fil35" d="M364.9 288.02l-10.11 -0.5 0.88 -1.88 10.11 0.5 -0.88 1.88zm25.37 -54.41c-3.25,-0.01 -6.7,-0.02 -10.33,-0.02l0.9 -1.92c3.52,0 6.98,0.01 10.33,0.03l-0.9 1.92z"/>
   <path class="fil36" d="M532.3 296.36l-218.83 -10.9 -11.32 -53.24c0,0 39.22,-0.54 74.26,-0.56 -0.5,0 -0.99,0 -1.49,0 -5.33,0 -10.74,0.02 -16.08,0.04 -9.35,0.04 -18.49,0.11 -26.61,0.18 -10.78,0.1 -19.75,0.2 -25.01,0.26 -3.22,0.04 -5.06,0.07 -5.06,0.07l0 0 11.32 53.24 218.83 10.9 0 0z"/>
   <path class="fil26" d="M532.3 296.36l-1.23 -0.06 -38.99 -1.94 -0.16 -1.93 34.11 1.7c-13.17,-9.64 -25.25,-17.8 -36.05,-24.64l-0.2 -2.42c3.42,2.16 6.95,4.43 10.6,6.84 9.58,6.33 19.92,13.54 30.98,21.76 0.31,0.23 0.62,0.46 0.94,0.7l0 0z"/>
   <path class="fil34" d="M297.11 285.32l0 0 -0.09 -1.11 -0.51 1.09 -34.01 -0.89 0.89 -1.9 31.63 0.82 -3.88 -48.75c-1.78,0.03 -3.6,0.08 -5.47,0.13l0.9 -1.93c-20.87,0.56 -47.14,2.26 -71.8,4.17l-0.93 2c-8.86,0.69 -17.49,1.4 -25.58,2.09l0.93 -2c-3.72,0.32 -7.32,0.63 -10.78,0.94l-0.94 2.01c-2.12,0.19 -4.18,0.37 -6.18,0.55l0.94 -2.01c-6.26,0.56 -11.92,1.09 -16.78,1.55l-0.94 2.01c-8.55,0.81 -14.41,1.39 -16.28,1.58l-19.36 17.98 2.15 -4.6 -22.73 21.11 -0.02 -0 39.13 -36.33c0,0 101.18,-10.31 155.53,-11.18l4.19 52.68zm-103.63 -2.7l-24.32 -0.63 0.89 -1.9 24.31 0.63 -0.89 1.9zm-34.54 -0.9l-5.85 -0.15 0.89 -1.9 5.86 0.15 -0.89 1.9zm-21.72 -0.56l-26.21 -0.68 0.89 -1.9 26.21 0.68 -0.89 1.9z"/>
   <path class="fil35" d="M262.5 284.42l-69.02 -1.8 0.89 -1.9 69.02 1.79 -0.89 1.9zm-48.66 -45.47l0.93 -2c24.66,-1.9 50.93,-3.6 71.8,-4.17l-0.9 1.93c-20.92,0.59 -47.22,2.32 -71.83,4.23z"/>
   <polygon class="fil35" points="111.01,280.48 98.28,280.15 121.01,259.04 118.87,263.65 103.03,278.35 111.9,278.58 "/>
   <polygon class="fil35" points="297.11,285.32 296.51,285.31 297.02,284.21 297.11,285.32 "/>
   <path class="fil35" d="M153.09 281.58l-15.87 -0.41 0.89 -1.9 15.87 0.41 -0.89 1.9zm1.42 -37.49l0.94 -2.01c4.86,-0.46 10.53,-0.99 16.78,-1.55l-0.94 2.01c-6.3,0.57 -11.97,1.09 -16.78,1.55z"/>
   <path class="fil35" d="M169.16 282l-10.22 -0.27 0.89 -1.9 10.22 0.27 -0.89 1.9zm8.31 -40.01l0.94 -2.01c3.46,-0.31 7.07,-0.62 10.78,-0.94l-0.93 2c-3.72,0.32 -7.33,0.63 -10.79,0.94z"/>
   <path class="fil1" d="M479.73 283.01l0 -18.78c0,0 0.27,-3.03 5.78,-3.03 0,0 12.1,1.4 16.14,7 0,0 5.65,9.8 7.13,21.12 0,0 -1.48,4.78 -4.84,4.55 0,0 -12.23,-0.7 -17.88,-3.5 0,0 -6.32,-3.62 -6.32,-7.35z"/>
   <path class="fil2" d="M485.51 261.19c-0.53,0 -1.01,0.03 -1.45,0.08 3.41,4.13 13.17,17.01 15.95,32.25 2.31,0.25 3.91,0.34 3.91,0.34 3.36,0.24 4.84,-4.55 4.84,-4.55 -1.48,-11.32 -7.13,-21.12 -7.13,-21.12 -4.04,-5.6 -16.14,-7 -16.14,-7z"/>
  </g>
  <rect class="fil37" x="-0" y="0" width="784.22" height="757.64"/>
 </g>
</svg>
