<?xml version="1.0" encoding="UTF-8"?>
<!DOCTYPE svg PUBLIC "-//W3C//DTD SVG 1.1//EN" "http://www.w3.org/Graphics/SVG/1.1/DTD/svg11.dtd">
<!-- Creator: CorelDRAW 2018 (64-Bit) -->
<svg xmlns="http://www.w3.org/2000/svg" xml:space="preserve" width="36.1675in" height="13.8889in" version="1.1" style="shape-rendering:geometricPrecision; text-rendering:geometricPrecision; image-rendering:optimizeQuality; fill-rule:evenodd; clip-rule:evenodd"
viewBox="0 0 9801.09 3763.78"
 xmlns:xlink="http://www.w3.org/1999/xlink">
 <defs>
  <style type="text/css">
   <![CDATA[
    .fil1 {fill:none}
    .fil0 {fill:#D2D3D5;fill-rule:nonzero}
    .fil2 {fill:#F7F7F8;fill-rule:nonzero}
    .fil5 {fill:#727376;fill-rule:nonzero}
    .fil4 {fill:#B0D0D6;fill-rule:nonzero}
    .fil3 {fill:#D2D3D5;fill-rule:nonzero}
   ]]>
  </style>
 </defs>
 <g id="Layer_x0020_1">
  <metadata id="CorelCorpID_0Corel-Layer"/>
  <g id="_2094743461232">
   <path class="fil0" d="M8109.92 3111.32l-4.73 -2.62 -1.33 0.62 1.04 1.51 5.01 0.49zm-11.44 -1.13l0.26 -0.75 -6.57 -3.64 -207.48 -20.46 1.92 3.98 211.87 20.88zm-0.67 -5.57l0 0 -207.47 -114.94 207.47 114.94zm-215.59 -15.74l-1.92 -3.97 -183.87 -18.13 -4.06 3.38 189.84 18.72zm-195.1 -19.24l4.06 -3.38 -201.59 -19.87 -4.15 3.38 201.68 19.88zm-207 -20.41l4.15 -3.37 -148.63 -14.65 2.02 3.98 142.46 14.04zm-146.9 -14.48l-2.02 -3.98 -424.07 -41.81 -8.3 2.97 434.4 42.82zm-439.81 -43.36l4.29 -3.06 -7.66 2.73 3.37 0.33zm17.23 -7.68l122.45 -43.69 -122.45 43.69 0 0zm51.26 -14.29l286.24 -102.13 0 0 -286.24 102.13zm289.82 -103.41l76.04 -27.13 0 -0 -76.04 27.14 0 0zm396.05 -6.41l-148.12 -82.05 -92.67 33.06 0 0 92.67 -33.06 148.12 82.05z"/>
   <path class="fil0" d="M8098.75 3109.43l0.21 -0.6 -0.72 -1.04 0.52 -0.25 -94.76 -296.9 0 0 93.82 293.96 -207.47 -114.94 -60.85 -33.71 -3.1 2.58 265.78 147.24 6.57 3.64zm3.45 -3.49l0 0 -95.07 -297.89 0 0 95.07 297.89zm-279.33 -149.35l3.1 -2.58 -6.46 -3.58 2.84 5.87 0.52 0.29zm-6.23 -3.45l-2.84 -5.87 -120.37 -66.68 -3.15 2.56 126.35 69.99zm-129.9 -71.96l3.15 -2.57 -187.26 -103.74 142.1 -189.45 0 0 -143.73 191.64 -0.53 0.19 -0.63 -1.77 -1.5 -1.13 1.5 1.13 0.63 1.77 -0.8 0.29 148.12 82.05 38.96 21.59zm316.03 -74.4l0 -0.01 -44.88 -140.63 0 0 44.88 140.63zm3.12 -2.6l0 0 -44.86 -140.58 0 0 44.86 140.58zm-507.24 -30.28l0 0 141.86 -189.15 -141.86 189.15zm458 -111.6l0 0 -9.11 -28.53 0 0 9.11 28.53zm3.14 -2.54l0 0 -8.08 -25.32 -0.01 0 8.08 25.32zm-9.36 -29.34l-53.59 -167.92 0 0 53.59 167.91 0 0zm-4.16 -0.66l-52.73 -165.22 0 0 52.73 165.22 0 0zm-299 -47.74l199.06 -265.41 46.03 144.24 0.01 0 -46.04 -144.24 -199.06 265.41 0 0zm-4.2 -0.67l19.51 -26.01 -19.51 26.01zm252.6 -122.54l0 0 -43.47 -136.2 0 -0 43.47 136.21zm-48.25 -148.85l0.6 -0.43 -0.32 -1.02 -0.68 0.91 0.4 0.54z"/>
   <path class="fil0" d="M8044.34 3763.77l5.25 0 -34.98 -36 -2.6 2.73 32.33 33.27zm163.41 -1.25l3.38 -1.66 -76.82 -158.97 -2.77 2.91 76.22 157.72zm-198.37 -34.72l2.6 -2.73 -75.46 -77.64 -1.64 3.71 74.5 76.66zm-77.33 -79.57l1.64 -3.71 -13.74 -14.13 -1.39 3.97 13.48 13.87zm-16.42 -16.89l1.4 -3.97 -149.82 -154.15 -6.64 -1.43 155.06 159.55zm214.15 -30.16l2.77 -2.91 -24.9 -51.52 -4.67 -1.01 26.8 55.45zm-24.2 -58.74l-63.99 -132.43 -2 4.52 61.33 126.9 4.67 1.01zm-343.11 -74.09l-243.93 -250.98 -4.79 0.47 242.08 249.08 6.64 1.43zm274.97 -58.27l2 -4.52 -23.52 -48.67 -1.76 5.01 23.28 48.18zm-25.59 -52.96l1.76 -5.01 -84.4 -174.65 -3.99 0.39 86.63 179.27zm-497.38 -141.25l0 0 -0.18 -1.87 0.18 1.87 -1.2 -1.45 1.34 -1.11 -101.65 -104.59 72.5 -58.96 4.15 -3.38 200.69 -163.23 3.15 -2.56 63.27 -51.46 57.1 118.14 2.84 5.87 2.98 6.16 2.98 -2.48 -0.25 -0.52 -2.84 -5.87 -59.8 -123.74 -3.6 2.92 -0.8 -4.2 -65.42 53.21 -3.15 2.57 -202.46 164.67 -4.15 3.37 -68.07 55.37 0 8.6 99.64 102.53 1.56 -1.3 1.2 1.45zm409.01 -41.64l4 -0.39 -40.85 -84.53 -1.92 -3.98 -60.41 -125.02 -2.98 2.48 59.01 122.11 1.92 3.97 41.25 85.36zm-515.96 -65.71l1.41 -1.37 -1.53 1.25 0.12 0.12z"/>
   <path class="fil0" d="M8098.76 3107.55l0.78 -0.36 0.95 -2.74 1.2 1.72 0.5 -0.23 -95.07 -297.89 -3.12 2.6 94.76 296.9zm253.36 -118.37l0 0 -78.17 -104.23 0 0 78.17 104.23zm1.79 -3.89l0 0 -78.21 -104.28 -0 0 78.21 104.28zm-82.55 -103.79l0 0 -135.49 -180.66 -0.01 0 135.5 180.66zm1.75 -3.95l0 0 -134.34 -179.12 134.34 179.12zm-270.34 -70.77l3.12 -2.6 -44.86 -140.58 -3.14 2.55 44.88 140.63zm130.84 -108.95l0 -0.01 -29.26 -39.01 0 0 29.26 39.02zm-176.95 -35.53l3.13 -2.54 -8.08 -25.32 -4.16 -0.66 9.11 28.53zm144.44 -7.82l-48.68 -64.91 0 0 48.68 64.9 0 0zm-150.66 -24.06l-53.59 -167.91 -3.3 2.03 52.73 165.22 4.16 0.66zm99.73 -43.86l0 0 -112.1 -149.47 0 0 112.1 149.47zm-157.79 -125.72l3.3 -2.03 -43.47 -136.21 83.59 111.46 0 0 -88.78 -118.37 -0.68 0.91 46.04 144.24zm-45.81 -150.27l0.85 -0.61 -0.4 -0.54 -5.18 -6.9 2.45 7.65 2.28 0.39z"/>
   <g>
    <path class="fil0" d="M8470.77 3644.71l-1.22 -7.01 -2.72 1.34 3.93 5.68zm-6.11 -8.8l0 0 -59.92 -86.36 0 0 59.92 86.37 0 -0zm4.58 -0.01l-109.17 -628.21 -2.02 -5.1 2.59 30.37 103.5 595.6 -60.05 -86.54 0 0 65.14 93.88zm-68.81 -92.57l0 0 -43.48 -62.67 43.48 62.67zm-0.64 -7.53l0 0 -252.7 -364.2 0 0 252.7 364.2zm-255.22 -367.82l0 0 -7.44 -10.73 0 0 7.44 10.73zm-9.9 -14.28l0 0 -29.76 -42.88 -1.04 -1.51 1.33 -0.62 82.7 -38.59 2.31 -5.23 -88.01 41.07 0 0 -0.5 0.23 0.9 1.31 32.07 46.22zm-35.71 -44.86l0.58 -1.65 -0.78 0.36 -0.52 0.25 0.72 1.04zm94.12 -41.15l156.52 -73.04 2.42 -5.25 -0.02 -0.02 -156.6 73.08 -2.32 5.23z"/>
   </g>
   <path class="fil0" d="M7869.16 3763.77l3.99 0 45.41 -129.41 1.39 -3.97 40.5 -115.43 -3.71 -0.8 -39.72 113.22 -1.4 3.97 -46.47 132.43zm336.04 0l8.52 0 197.23 -97.2 -0.35 -4.03 -199.48 98.31 -3.38 1.66 -2.55 1.25zm209.38 -98.98l52.26 -25.75 2.72 -1.34 0.69 -0.35 -1.01 -1.45 -65.14 -93.88 0.64 7.53 59.92 86.36 -50.43 24.85 0.35 4.03zm-14.15 -121.46l-0.64 -7.53 -252.7 -364.2 -1.78 4.03 211.64 305.02 43.48 62.67zm-438.72 -31.96l52.44 -149.47 1.76 -5.01 68.23 -194.49 -4.13 0.4 -66.42 189.3 -1.76 5.01 -53.84 153.45 3.71 0.8zm181.08 -339.35l1.78 -4.03 -7.44 -10.73 -4.29 0.42 9.95 14.34zm-61.39 -13.13l4.13 -0.4 16.08 -45.83 28.77 41.47 4.29 -0.42 -32.07 -46.22 -0.9 -1.31 -1.2 -1.72 -0.95 2.74 -0.58 1.65 -0.21 0.6 -0.26 0.75 -17.08 48.7zm19.65 -50.33l1.77 0.62 -1.77 -0.62z"/>
   <path class="fil0" d="M8360.66 2989.79l481.47 -194.34 -481.47 194.34 0 0zm-8.54 -0.61l0 -0.01 0.34 -0.72 -0.64 -1.62 1.19 0.42 0.91 -1.97 -78.21 -104.28 -1.75 3.94 78.17 104.23zm7.28 -2.94l1017.87 -410.86 -5.72 -3.32 -707.48 -121.31 -1.98 3.48 712.61 122.19 -1015.3 409.82zm-88.04 -104.73l1.75 -3.95 -134.34 -179.12 -2.9 2.41 135.49 180.66zm-137.75 -183.68l2.9 -2.41 -26.81 -35.75 -5.35 -0.85 29.26 39.01zm-27.17 -42.49l-51.1 -68.13 -2.93 2.37 48.68 64.91 5.35 0.85zm-56.28 -68.77l2.93 -2.37 -111.81 -149.08 -3.21 1.98 112.1 149.47zm1332.9 -9.45l5.35 -2.16 -4.35 -0.75 -0.41 1.19 0.8 1.15 -1.38 0.56 0 0zm-724.91 -123.56l1.98 -3.48 -51.57 -8.85 -1.63 3.54 51.22 8.78zm-55.06 -9.44l1.63 -3.54 -129.61 -22.22 -3.81 3.17 131.79 22.59zm-667.29 -10.05l3.22 -1.98 -87.65 -116.87 216.88 37.19 4.85 -2.99 -222.72 -38.19 -3.35 4.47 88.78 118.37zm530.63 -13.39l3.81 -3.17 -169.51 -29.06 -3.89 3.15 169.6 29.08zm-174.54 -29.93l3.9 -3.15 -85.7 -14.7 1.88 4.15 79.93 13.7zm-84.41 -14.47l-1.89 -4.14 -126.89 -21.76 -4.84 2.99 133.62 22.92zm-363.12 -64.13l2.2 -1.58 -2.28 -0.39 -1.61 -0.27 1.68 2.24z"/>
   <path class="fil0" d="M8460.97 3110.95l86.53 -50.11 -4.64 -1.66 -81.13 46.98 -100.29 -111.89 -3.08 -1.1 2.35 5.92 100.25 111.84zm90.8 -52.57l4.87 -2.82 -4.86 -1.54 -4.65 2.69 4.65 1.67zm9.28 -5.38l819.94 -474.81 -0.13 -0.19 -1020.2 411.79 0 0 481.47 -194.34 515.46 -208.06 -801.4 464.08 4.86 1.53zm-209.03 -63.6l0.1 -0.22 0 0.01 -0.22 0.08 0.1 0.11 0.02 0.02zm7.38 -3.16l1017.88 -410.86 -0 0 -1017.87 410.86z"/>
   <path class="fil0" d="M8360.66 2989.79l1020.2 -411.79 -0.62 -0.89 -2.96 -1.72 -1017.88 410.86 302.69 -532.01 1.98 -3.48 71.2 -125.15 3.43 -13.5 1.82 0.47 -1.63 -0.93 1.63 0.93 -1.82 -0.47 0.06 -0.25 -78.64 138.23 -1.98 3.48 -289.73 509.25 -11.83 25.69 4.09 1.28zm1022.39 -412.68l1.38 -0.56 -0.8 -1.15 -0.59 1.71zm-2.07 -5.56l0 0 -355.38 -514.52 355.38 514.52zm-635.2 -272.03l89.24 -156.86 0 0 -89.24 156.85 0 0zm93.26 -163.91l0 -0 23.43 -41.18 0 0 -23.43 41.18zm28.8 -50.62l0 -0 77.69 -136.55 -0 0 -77.69 136.56zm43.07 -68.1l26.78 -47.06 0 0 -26.78 47.06z"/>
   <path class="fil0" d="M9382.12 2579.82l0.93 -2.71 0 0 0.59 -1.71 0.41 -1.19 230.31 -669.55 -1.84 -6.21 -231.54 673.1 -355.38 -514.52 -17.66 -25.57 -3.17 2.04 370.46 536.35 7.27 4.21 -1.89 3.26 -0.37 -0.21 0.62 0.89 0.13 0.19 1.13 1.63zm-379.49 -549.42l3.17 -2.04 -23.82 -34.49 -2.89 2.44 23.55 34.09zm-25.7 -37.2l2.89 -2.44 -29.07 -42.09 192.2 -95.18 0 0 -193.21 95.67 -0.21 2.38 -0.71 -0.55 -0.37 0.97 28.47 41.22zm-26.79 -48.42l204.94 -101.48 0 0 -204.94 101.48 0 0zm666.32 -46.23l114.15 -331.86 -5.11 3.29 -110.89 322.37 1.84 6.21zm-459.3 -52.08l383.39 -189.85 -0 0 -383.38 189.85 -0 0zm12.13 -10.21l269.57 -133.49 -269.57 133.49 0 0zm374.68 -181.34l183.58 -90.92 -0.07 0.22 1.18 -0.76 -184.69 91.46 0 0zm189.2 -95.66l0.93 -2.69 -2.8 1.39 0.67 0.78 1.2 0.52z"/>
   <path class="fil0" d="M9380.61 2577.31l1.89 -3.26 -7.27 -4.21 -541.61 -314.09 56.03 -148.22 -5.32 3.42 -55.36 146.46 542.58 314.66 5.72 3.32 0 0 2.96 1.72 0.37 0.21zm-494.04 -472.28l5.32 -3.42 17.72 -46.85 -5.9 4.96 -17.13 45.31zm19.85 -52.52l5.9 -4.96 36.14 -95.58 0.37 -0.97 -0.3 -0.24 -10.85 19.07 0 0 -31.26 82.69z"/>
   <path class="fil0" d="M8949.74 1949.17l193.21 -95.67 12.13 -10.21 -204.94 101.48 -0.4 4.4zm207.42 -102.71l383.38 -189.85 -1.09 -3.66 -100.6 49.81 -269.57 133.49 -12.12 10.21zm386.81 -191.54l184.69 -91.46 1.91 -1.23 -0.5 -0.22 -3.69 -1.62 -183.5 90.87 1.09 3.66zm189.44 -94.51l0.96 -0.61 -1.2 -0.53 -1.2 -0.52 1.44 1.67zm-499.34 -220.64l-213.18 -93.75 0 0 213.18 93.75z"/>
   <path class="fil0" d="M9737.69 1565.36l-1.79 -2.08 -1.19 0.76 2.98 1.31zm-7.12 -3.13l2.84 -1.83 -1.44 -1.67 -0.67 -0.78 -92.56 -107.29 -7.1 -3.44 -0.49 0.41 92.81 107.58 -144.92 -63.73 -3.21 2.7 150.55 66.21 3.69 1.62 0.5 0.22zm0.25 -1.94l-1.43 1.23 1.43 -1.23zm-158.83 -67.8l3.21 -2.7 -92.47 -40.67 1.41 4.73 87.85 38.64zm-92.37 -40.63l-1.41 -4.73 -244.14 -107.37 -213.18 -93.75 -7.23 0 -0.09 0.89 466.04 204.96zm151.46 -9.09l0.49 -0.41 -29.96 -34.73 -5.71 -0.85 28.08 32.55 7.1 3.44zm-33.24 -39.51l-29.95 -34.71 -3.09 2.18 27.34 31.68 5.71 0.85zm-35.06 -35.71l2.64 -1.86 -0.18 -0.21 -2.46 2.07zm-2.88 -2.5l2.88 -2.43 -19.4 -22.49 -1.13 4.45 17.65 20.47zm-20.65 -23.94l1.13 -4.45 -78.21 -90.65 -4.97 0 82.05 95.1zm-533.03 -97.44l2.36 -0.61 -0.18 -0.22 -2.9 0.51 0.73 0.32zm8.36 -1.42l19.07 0 364.63 -63.73 -1.08 -3.63 -382.45 66.83 -0.17 0.52zm439.37 0l4.97 0 -48.93 -56.72 -7.09 -4.71 1.02 3.43 50.03 57.99zm-53.08 -67.29l-0.53 -0.62 -0.31 0.06 0.84 0.56z"/>
   <path class="fil0" d="M8949.53 1951.55l0.21 -2.38 0.4 -4.4 0 0 8.09 -88.96 0 0 -8.43 92.72 -1.28 2.24 0.3 0.24 0.71 0.55zm-4.01 -3.12l0.6 -1.06 8.03 -88.26 0 0 -7.75 85.24 -49.76 -38.66 -3 2.43 51.88 40.31 0 0zm-54.94 -42.67l3 -2.43 -39.39 -30.6 -1.02 3.98 37.4 29.06zm-43.35 -33.68l3.42 -2.1 -481.8 -374.31c2.18,2.61 3.97,5.59 5.26,8.85l473.13 367.57zm107.39 -18.19l0 0 4.2 -46.19 0 0 -4.2 46.19zm4.08 -3.31l0 -0 4.12 -45.34 0 0 -4.12 45.35zm0.55 -47.56l0 0 48.67 -535.4 -48.67 535.4zm4.01 -2.47l0 0 50.33 -553.64 0.09 -0.89 0 0 -50.41 554.53zm-605.54 -313.53l-69.29 -53.83 720.91 -186.44 0 0 -725.52 187.62 64.01 49.73c3.47,0.44 6.8,1.44 9.88,2.91zm-73.47 -54.69l0 0 -1.12 -1.51 0.29 -0.22 -3.34 0.86 1.08 0.84 1.97 -1.48 1.12 1.51z"/>
   <path class="fil0" d="M8275.48 1436.53l8.35 -2.16 725.52 -187.62 0.18 -0.73 -0.21 0 1.93 -5.64 -183.43 -217.12 -544.4 407.33 -0.29 0.22 1.12 1.51 -0.47 -1.82 0.47 1.82 -1.12 -1.51 -1.97 1.48 -5.67 4.24zm730.74 -192.86l-713.2 184.44 534.21 -399.71 181.16 214.44 0.18 0.22 -2.36 0.61zm-721.97 188.65l0 0z"/>
   <path class="fil0" d="M8735.26 2325.61l106.58 -187.33 -6.83 4.39 -89.24 156.86 0 -0 30.2 -118.88 -4.64 2.99 -32.57 128.23 -0.06 0.25 1.82 0.47 -1.63 -0.93 1.63 0.93 -1.82 -0.47 -3.43 13.5 -0 0.01zm37.43 -147.33l4.64 -2.99 2.99 -11.74 -4.94 4.15 -2.69 10.58zm4.27 -16.83l4.94 -4.16 50.75 -199.75 -4.89 3.96 -50.8 199.95zm62.07 -25.84l6.83 -4.4 24.91 -43.78 -8.31 6.99 -23.43 41.18zm28.8 -50.62l8.31 -6.99 34.76 -61.1 26.78 -47.06 10.85 -19.07 1.28 -2.24 8.43 -92.72 -4.08 3.3 -8.03 88.26 -0.6 1.06 -77.69 136.55zm-38.51 -129.59l4.89 -3.96 18.98 -74.73 1.02 -3.98 0.15 -0.61 -4.61 2.84 -20.43 80.44zm21.77 -85.69l4.61 -2.84 152.23 -599.26 -48.67 535.4 4.01 -2.47 50.41 -554.53 -4.14 0 -0.18 0.73 0 0 -158.26 622.97zm103.54 -15.82l4.08 -3.31 4.12 -45.35 -4 2.47 -4.2 46.19z"/>
   <path class="fil0" d="M8647.32 3732.55l544.04 -445.36 -462.81 -165.58 -1.19 3.57 456.46 163.3 -534.9 437.88 -66.12 -166.84 -1.85 5.55 66.36 167.46zm-68.52 -172.9l1.85 -5.55 -219.93 -555 -2.35 -5.92 3.08 1.1 181.42 64.9 4.64 1.66 176.32 63.08 1.19 -3.57 -173.24 -61.98 -4.65 -1.67 -98.23 -35.14 -91.69 -28.93 0.85 9.94 2.02 5.1 218.73 551.97zm-226.35 -571.2l0.55 -1.2 -1.19 -0.42 0.64 1.62z"/>
   <polygon class="fil0" points="8419.24,3763.77 8423.02,3763.77 8414.58,3664.79 8414.23,3660.76 8404.74,3549.54 8404.74,3549.54 8404.1,3542.01 8404.1,3542.01 8360.64,3032.95 8358.05,3002.59 8357.2,2992.64 8448.89,3021.57 8551.77,3054.02 8556.64,3055.55 8728.53,3109.77 8725.01,3120.35 8723.82,3123.92 8580.65,3554.1 8578.8,3559.65 8510.87,3763.77 8514.83,3763.77 8580.96,3565.09 8582.8,3559.54 8727.36,3125.19 8728.55,3121.62 8733.31,3107.33 8561.05,3053 8556.18,3051.47 8360.66,2989.79 8360.66,2989.79 8360.66,2989.79 8356.57,2988.5 8353.62,2994.91 8399.79,3535.8 8399.79,3535.8 8400.43,3543.33 8400.43,3543.33 8410.61,3662.54 8410.95,3666.57 "/>
   <path class="fil0" d="M6886.52 2996.31l12.3 -4.39 8.3 -2.97 54.77 -19.54 286.24 -102.13 -1.72 -3.38 -213.33 76.12 -122.45 43.69 291.04 -207.88 -1.72 -3.4 -302.26 215.9 -4.29 3.06 -6.89 4.92zm365.2 -130.31l76.04 -27.14c0.93,-1.74 1.93,-3.43 3.01,-5.07l-80.77 28.82 1.72 3.38zm155.26 -55.4l92.67 -33.06 0.8 -0.29 -0.63 -1.77 -1.5 -1.13 1.5 1.13 0.63 1.77 0.53 -0.19 143.73 -191.64 -4.2 -0.67 -141.86 189.15 -0 0 -97.2 34.68c1.88,0.59 3.72,1.27 5.53,2.02zm-202.2 -37l295.7 -211.21 -5.29 -0.85 -292.13 208.66 1.72 3.39zm442.49 -191.58l199.06 -265.41 0.68 -0.91 3.35 -4.47 5.45 -7.27 -7.79 5.57 -0.6 0.43 -0.85 0.61 -2.2 1.58 -344.81 246.28 5.29 0.85 333.37 -238.11 -175.63 234.18 -19.51 26.01 4.2 0.67z"/>
   <path class="fil0" d="M7756.1 2829.61l3.6 -2.92 198.18 -160.54 0 0 3.14 -2.55 0 0 28.55 -23.12 -5 -0.8 -24.78 20.07 -0 0 -3.13 2.54 -0 0 -198.03 160.42 -43.01 -225.97 -3.95 -0.64 43.64 229.3 0.8 4.2zm237.4 -192.31l58.92 -47.73 0 0 2.93 -2.37 181.23 -146.8 -1.61 -3.54 -181.88 147.33 -2.93 2.37 0 0 -61.65 49.94 4.99 0.8zm-278.64 -44.49l-3.08 -16.2 181.75 -112.07 0 0 3.3 -2.03 0 -0 41.22 -25.42 0 0 3.21 -1.98 132.58 -81.74 4.84 -2.99 91.43 -56.37 -1.57 -3.46 -95.47 58.87 -4.85 2.99 -129.23 79.68 -3.22 1.98 0 0 -40.12 24.74 0 0 -3.3 2.03 -0.01 0 -184.75 113.92 3.31 17.42 3.95 0.63zm524.73 -154.86l57.22 -46.35 3.89 -3.15 527.06 -426.96 4.89 -3.96 60.99 -49.4 3 -2.43 57.51 -46.58 0 0 4.08 -3.3 0 0 246.85 -199.97 -1.19 -1.46 1.19 1.46 -2.17 -3.06 -239.65 147.77 0 0 -4.01 2.47 0 0 -103.56 63.86 -4.61 2.84 -0.43 0.26 -3.42 2.1 -497.39 306.68c-2.93,4.15 -6.48,7.83 -10.52,10.9l510.41 -314.71 4.61 -2.84 104.47 -64.41 0 0 4 -2.47 0 0 217.13 -133.88 -221.25 179.22 0 0 -4.08 3.31 0 0 -61.03 49.44 -3 2.43 -56.38 45.67 -4.89 3.96 -533.55 432.21 -3.9 3.15 -53.89 43.66 1.61 3.54zm-66.25 -145.94l157.66 -97.21c-4.46,2.18 -9.31,3.7 -14.4,4.45l-144.84 89.3 1.57 3.46z"/>
   <path class="fil0" d="M7508.56 3218.33l5.18 -0.51 4.79 -0.47 406.68 -39.52 3.99 -0.39 150.82 -14.65 4.13 -0.4 48.69 -4.73 4.29 -0.42 0 0 12.74 -1.24 1.75 -3.95 -16.95 1.64 0 0 -4.29 0.42 -44.85 4.36 -4.13 0.4 -153.93 14.96 -4 0.39 -403.11 39.17 172.02 -143.25 4.06 -3.38 124.86 -103.98 2.98 -2.48 2.12 -1.76 3.1 -2.58 174.5 -145.32 0 0 3.12 -2.6 0 0 128.74 -107.21 0.01 0 2.9 -2.41 34.38 -28.64 -4.94 -0.78 -31.71 26.41 -2.9 2.41 0 0.01 -127.72 106.36 0 0 -3.12 2.6 0 0.01 -176.8 147.23 -3.1 2.58 -0.27 0.23 -2.98 2.48 -128.43 106.95 -4.06 3.38 -172.53 143.67 -1.34 1.11 1.2 1.45 -0.18 -1.87 0.18 1.87 -1.2 -1.45 -1.56 1.3 -3.13 2.61zm645.61 -62.74l131.34 -12.76 68.1 -147.93 2.95 -6.41 11.83 -25.69 238.51 -518.04 1.63 -3.54 100.02 -217.24 -0.46 0.3 -2.23 -3.02 -235.66 196.24 -3.81 3.17 -170.29 141.81 1.61 3.55 173.55 -144.52 3.81 -3.17 226.8 -188.87 -97.2 211.09 -1.63 3.54 -249.17 541.18 0 0 -0.91 1.97 -0.55 1.2 -0.34 0.72 -0.1 0.22 -2.42 5.25 -66.61 144.65 -127.07 12.35 -1.75 3.95zm22.82 -489l117.75 -98.06 -1.61 -3.55 -121.07 100.83 4.93 0.79z"/>
   <path class="fil0" d="M7469.78 3763.77l7.17 0 -64.9 -40 0 4.42 57.73 35.58zm505.4 0l5.19 0 31.63 -33.27 2.6 -2.73 116.93 -122.97 2.77 -2.91 42 -44.17 -70.73 -15.27 -4.67 -1.01 -107.24 -23.15 -1.55 3.52 110.87 23.94 4.67 1.01 61.3 13.24 -36.41 38.29 -2.77 2.91 -117.81 123.9 -2.6 2.73 -34.2 35.97zm-566.89 -37.9l0 -4.42 -123.03 -75.82c1.89,2.37 3.6,4.9 5.1,7.56l117.93 72.68zm-156.46 -100.84l-224.83 -138.56 -2.77 2.71 218.6 134.72c3.07,0.14 6.07,0.52 9,1.13zm736.53 -104.05l1.55 -3.52 -28.2 -6.09 -3.71 -0.8 -195.53 -42.22 -6.64 -1.43 -223.34 -48.23 2.2 4.33 225.87 48.77 6.64 1.43 189.54 40.93 3.71 0.8 27.9 6.02zm-967.43 -33.82l2.77 -2.72 -170.44 -105.04 -3.08 2.52 170.75 105.23zm-174.14 -107.32l3.08 -2.52 -255.22 -157.28 353.98 76.44 3.72 -3.04 -378.37 -81.71 272.8 168.12zm320.61 -36.13l3.22 -3.15 -213.56 -46.12 -3.72 3.05 214.06 46.22z"/>
   <path class="fil0" d="M7529.95 3421.99l-2.2 -4.33 -115.7 -24.98 0 3.85 117.9 25.46zm-121.66 -26.27l0 -3.85 -233.26 -50.37 -3.22 3.15 236.48 51.06z"/>
   <path class="fil0" d="M6738.51 3763.77l5.38 0 280.35 -274.58 2.77 -2.71 144.8 -141.82 3.22 -3.15 209.69 -205.38 -1.79 -3.51 -212.31 207.94 -3.22 3.15 -143.69 140.74 -2.77 2.72 -282.42 276.62zm669.78 0l3.77 0 0 -573.85 -3.77 -7.41 0 581.26zm3.77 -582.16l0 -77.53 -3.13 3.08 -1.41 1.37 -21.76 21.32 1.79 3.52 20.75 -20.32 0 61.16 3.77 7.41z"/>
   <path class="fil0" d="M7703.57 3763.77l4.22 0 -173.11 -340.76 -2.2 -4.33 -120.44 -237.08 -3.77 -7.41 -20.75 -40.84 -1.79 -3.52 -48.09 -94.65 -2.02 -3.98 -83.93 -165.2 0 0 -1.72 -3.38 -45.22 -89.02 -1.72 -3.39 -93.77 -184.59 -3.26 1.89 93.94 184.91 1.72 3.4 44.74 88.08 1.72 3.38 0 0 83.06 163.49 2.02 3.98 49.71 97.85 1.79 3.51 23.57 46.4 3.77 7.41 115.7 227.74 2.2 4.33 173.63 341.78zm177.34 0l4.12 0 49.85 -112.63 1.64 -3.71 55.6 -125.64 1.55 -3.52 45.92 -103.75 2 -4.52 103.72 -234.37 1.78 -4.03 0 0 7.09 -16.01 1.75 -3.95 37.15 -83.96 2.32 -5.23 78.55 -177.5 0 0 1.75 -3.94 0 0 82.1 -185.54 -1.41 -0.22 0.42 0.92 -3.43 1.55 -1.45 -3.19 -174.94 -27.93 -4.93 -0.79 -65.62 -10.48 -5.35 -0.85 0 -0 -107.6 -17.18 -4.99 -0.8 -38.08 -6.08 0 0 -4.16 -0.66 0 0 -231.41 -36.95 -3.95 -0.63 -63.65 -10.16 0 0 -4.2 -0.67 -138.23 -22.07 -5.29 -0.85 -269.11 -42.96 -5.16 2.99 269.91 43.09 5.29 0.85 140.04 22.36 4.2 0.67 0 0 66.95 10.69 3.95 0.64 231.93 37.03 0 0 4.16 0.66 0.01 0 32.86 5.25 5 0.8 114.77 18.33 0 0 5.35 0.85 58.52 9.35 4.94 0.78 179.23 28.62 -79.27 179.14 0 0 -1.75 3.95 0 0 -81.15 183.37 -2.31 5.23 -36.27 81.95 -1.75 3.95 -5.3 11.97 -1.78 4.03 -103.36 233.55 -2 4.52 -47.52 107.38 -1.55 3.52 -54.67 123.54 -1.64 3.71 -51.13 115.54zm-776.6 -1179.61l3.26 -1.89 -7.79 -15.32 -3.51 1.41 8.03 15.8zm-9.74 -19.17l3.51 -1.41 -36.17 -71.21 152.32 24.32 6.77 -2.73 -154.27 -24.63 -7.61 2.4 -1.13 -3.59 0.42 -0.13 -3.2 -0.52 39.37 77.5z"/>
   <path class="fil0" d="M8353.38 2697.72l3.43 -1.55 -0.42 -0.92 -58.65 -129.2 -1.61 -3.55 -56.53 -124.54 -1.61 -3.54 -26.04 -57.36 -1.88 -4.15 -36.72 -80.89 -1.57 -3.46 -59.98 -132.13 -517 162.73c1.39,0.83 2.73,1.72 4.02,2.68l510.93 -160.83 58.8 129.53 1.57 3.46 35.46 78.13 1.89 4.14 27.5 60.57 1.61 3.54 56.55 124.59 1.61 3.55 57.19 125.99 1.45 3.19zm-1294.26 -205.99l7.61 -2.4 14.31 -4.5 -8.12 -1.39 -14.52 4.57 -0.42 0.13 1.13 3.59zm29.77 -9.37l62.95 -19.82 -4.41 -2.56 -66.65 20.98 8.11 1.39zm67.81 -21.35l36.31 -11.43 -2.23 -3.24 -38.49 12.11 4.41 2.56zm40.07 -12.61l66.24 -20.85 1.52 -4.42 -70 22.04 2.24 3.24zm70.71 -22.25l254.92 -80.24c0.52,-1.54 1.11,-3.04 1.77,-4.51l-255.17 80.32 -1.52 4.43z"/>
   <path class="fil0" d="M9547.5 1679.97l3.3 -2.12 -6.82 -22.94 0 0 -1.09 -3.66 -30.78 -103.45 -3.14 2.64 30.5 102.51 1.09 3.66 0 0 6.95 23.36zm-130.25 -437.72l3.93 0 -17.25 -57.99 -1.02 -3.43 7.09 4.71 85.45 56.72 6.8 0 -101.37 -67.29 -0.84 -0.56 -3.7 -2.46 0.88 2.95 1.08 3.63 18.96 63.73z"/>
   <path class="fil0" d="M9627.94 1950.29l139.45 -41.6 0 -3.93 -136.92 40.84 -14.01 -47.08 -1.84 -6.21 -62.7 -210.72 -3.3 2.12 63.9 214.73 1.84 6.21 13.04 43.83 0.54 1.81zm1.27 -2.35l0 0 -0.54 -1.8 0.54 1.8zm-121.42 -401.43l3.14 -2.65 -26.79 -90.02 -1.41 -4.73 -60.44 -203.1 -3.93 0 59.85 201.12 1.41 4.73 28.16 94.65zm196.69 -165.51l3 -2.52 -79.17 -52.55 -3.3 2.32 79.47 52.75zm-150.06 -99.61l0.98 -3.87 -47.49 -31.52 -6.8 0 53.31 35.39z"/>
   <path class="fil0" d="M9767.39 1422.76l0 -4.52 -56.64 -37.6 -3 2.52 59.64 39.59zm-145.74 -96.74l3.3 -2.32 -5.59 -3.71 -3 2.52 5.29 3.51zm-8.56 -5.68l3 -2.52 -57.37 -38.08 -0.98 3.86 55.35 36.74z"/>
   <path class="fil0" d="M9767.39 1513.04l0 -4.18 -132.6 -64.29 -3.15 2.65 7.1 3.44 128.66 62.38zm-139.46 -67.62l3.15 -2.66 -7.1 -3.44 -84.5 -40.97 -11.34 -1.69 -0.28 0.24 100.07 48.52zm38.02 -31.99l0 0 -68.1 -10.17 -5.71 -0.85 -59.63 -8.91 0 0 133.44 19.93zm-142.05 -18.45l2.04 -1.44 0.25 -0.98 -10.5 -1.57 8.21 3.98z"/>
   <polygon class="fil0" points="9767.39,1428.58 9767.39,1428.58 9670.91,1414.17 9670.91,1414.17 "/>
   <polygon class="fil0" points="9670.91,1414.17 9670.91,1414.17 9707.75,1383.17 9710.76,1380.65 9767.39,1333 9767.39,1328.08 9707.49,1378.48 9704.49,1381.01 9665.95,1413.43 9665.95,1413.43 "/>
   <polygon class="fil0" points="8708.1,2224.29 8708.56,2223.99 8771.34,2183.62 8775.98,2180.64 8835.02,2142.67 8835.02,2142.67 8841.85,2138.27 8884.33,2110.95 8889.65,2107.53 9004.77,2033.49 9007.93,2031.46 9548.62,1683.72 9551.92,1681.61 9725.51,1569.96 9730.62,1566.67 9734.71,1564.04 9735.9,1563.28 9767.39,1543.02 9767.39,1538.55 9734.37,1559.79 9733.41,1560.4 9730.57,1562.23 9728.67,1563.45 9727.49,1564.21 9550.8,1677.85 9547.5,1679.97 9005.79,2028.36 9002.63,2030.4 8891.88,2101.62 8886.57,2105.04 8845.86,2131.21 8839.04,2135.61 8839.04,2135.61 8777.33,2175.29 8772.7,2178.27 8730.77,2205.23 8775.38,2167.7 8780.32,2163.54 8862.47,2094.43 8862.47,2094.43 8870.77,2087.43 8903.7,2059.73 8909.6,2054.76 8979.08,1996.3 8981.97,1993.87 9157.16,1846.46 9157.17,1846.46 9169.29,1836.25 9169.29,1836.25 9508.96,1550.44 9512.1,1547.8 9575.84,1494.17 9579.05,1491.47 9631.15,1447.63 9631.64,1447.22 9634.79,1444.57 9667.07,1417.41 9662.11,1416.67 9631.58,1442.36 9631.09,1442.77 9627.93,1445.42 9575.21,1489.78 9572,1492.49 9510.93,1543.87 9507.79,1546.51 9155.09,1843.28 9155.09,1843.28 9142.96,1853.49 9142.95,1853.49 8979.82,1990.76 8976.93,1993.19 8912.32,2047.55 8906.42,2052.52 8876.14,2078 8867.83,2084.98 8867.83,2084.99 8781.91,2157.28 8776.97,2161.44 8705.87,2221.26 8705.87,2221.26 "/>
   <path class="fil0" d="M9567.3 1246.01l134.22 0 4.48 -3.77 -137.74 0 -0.96 3.77zm140.07 0l27.73 0 5.34 -3.77 -28.59 0 -4.48 3.77zm-43.01 -439.47l-149.55 -314.9 -4.19 -0.04 148.46 312.62 5.27 2.33zm-434.89 -192.09l42.87 -125.25 -3.96 -0.04 -42.37 123.77 3.46 1.53z"/>
   <polygon class="fil0" points="9767.39,1032.27 9767.39,1023.5 9673.86,826.55 9672.41,832.26 "/>
   <path class="fil0" d="M9009.32 1246.01l4.36 0 7.23 0 542.51 0 0.96 -3.77 -549.79 0 0.17 -0.52 76.98 -224.9c-0.77,0.21 -1.57,0.38 -2.37,0.51 -0.62,0.1 -1.24,0.18 -1.86,0.24l-76.26 222.79 -1.93 5.64zm732.3 0l25.77 0 0 -3.77 -20.44 0 -5.34 3.77zm-636.83 -267.31l123.46 -360.68 -3.46 -1.53 -122.89 359.02c1.05,0.98 2.01,2.04 2.88,3.18zm565.09 -151.77l1.45 -5.72 -4.5 -9.46 -5.27 -2.33 8.32 17.51zm-156.86 -339.07l-134.8 -283.86 -7.55 -8 -1.5 0.16 0.23 -1.51 -0.15 -0.16 -99.57 290.9 3.97 0.04 98.04 -286.43 137.15 288.8 4.19 0.04z"/>
   <polygon class="fil0" points="9732.68,579.73 9733.78,575.41 9656.1,493.07 9650.87,493.02 "/>
   <path class="fil0" d="M9767.39 616.52l0 -5.48 -30.56 -32.39 -1.1 4.33 31.65 33.55zm-114.88 -127.26l-277.16 -293.77 -4.69 0.52 7.55 8 269.08 285.21 5.22 0.05zm-283.12 -294.6l0.35 -2.34 -2.32 0.25 1.82 1.93 0.15 0.16z"/>
   <polygon class="fil0" points="9656.71,160.99 9767.39,148.91 9767.39,148.91 "/>
   <path class="fil0" d="M9369.17 196.17l1.5 -0.16 4.69 -0.52 392.04 -42.8 0 -3.79 -110.69 12.08 -283.09 30.91 28.97 -191.9 -3.81 0 -29.04 192.32 -0.35 2.34 -0.23 1.51zm398.23 -193.93l0 -2.23 -7.29 0 7.29 2.23z"/>
   <path class="fil0" d="M9738.49 843.4c0.88,-1 1.81,-1.97 2.77,-2.89l-63.79 -28.18 -0.94 3.7 61.96 27.37zm-65.45 -28.91l0.94 -3.7 -9.62 -4.25 -5.27 -2.33 -429.61 -189.77 -3.46 -1.53 -287.74 -127.1 330.11 3.34 3.96 0.04 238.28 2.4 4.19 0.04 136.06 1.37 5.22 0.05 98.35 0.99 0.95 -3.76 -102.88 -1.04 -5.22 -0.05 -134.28 -1.36 -4.19 -0.04 -235.19 -2.38 -3.97 -0.04 -340.5 -3.44 -9.14 -0.09 304.77 134.62 3.46 1.53 433.31 191.4 5.27 2.33 6.2 2.74z"/>
   <polygon class="fil0" points="9767.39,494.2 9767.39,490.43 9759.27,490.35 9758.32,494.1 "/>
   <polygon class="fil0" points="9524.32,1399.88 9527.86,1396.9 9528.15,1396.66 9525.25,1396.23 "/>
   <polygon class="fil0" points="9525.93,1393.54 9562.78,1367.55 9565.25,1365.48 9616.36,1322.51 9619.36,1319.99 9707.36,1246.01 9711.84,1242.25 9767.39,1195.55 9767.39,1190.63 9705.99,1242.25 9701.51,1246.01 9616.09,1317.81 9613.09,1320.34 9562.79,1362.62 9559.91,1365.05 9530.85,1389.47 9542.25,1344.59 9543.38,1340.14 9557.75,1283.6 9558.73,1279.74 9567.3,1246.01 9568.25,1242.25 9672.41,832.26 9673.86,826.55 9676.53,816.04 9677.47,812.34 9735.74,582.98 9736.84,578.65 9758.32,494.1 9759.27,490.35 9765.26,466.78 9767.39,466.61 9767.39,462.83 9762.27,463.27 9755.4,490.31 9754.44,494.07 9733.78,575.41 9732.68,579.73 9673.98,810.79 9673.04,814.49 9671.33,821.22 9669.88,826.94 9564.37,1242.25 9563.41,1246.01 9555.41,1277.53 9554.42,1281.4 9540.38,1336.66 9539.25,1341.11 9526.18,1392.56 "/>
   <polygon class="fil0" points="9767.39,1432.38 9767.39,1428.58 9670.91,1414.17 9665.95,1413.43 9532.51,1393.51 9564.8,1370.73 9567.9,1368.55 9625.02,1328.25 9628.32,1325.93 9741.62,1246.01 9746.96,1242.25 9767.39,1227.83 9767.39,1223.22 9740.43,1242.25 9735.09,1246.01 9624.95,1323.7 9621.65,1326.02 9565.43,1365.69 9562.78,1367.55 9525.93,1393.54 9523.89,1394.98 9522.67,1395.84 9525.25,1396.23 9528.15,1396.66 9539.49,1398.36 9595.91,1406.78 9601.62,1407.63 9662.11,1416.67 9667.07,1417.41 "/>
  </g>
  <polygon class="fil1" points="0,3763.77 9801.09,3763.77 9801.09,0 0,0 "/>
  <polygon class="fil2" points="2973.85,423.89 2972.62,420.32 2973.9,419.75 2972.42,419.77 2971.14,416.02 2975.1,415.98 2977.3,422.37 "/>
  <path class="fil2" d="M3476.96 1485.91l-2.99 -2.45 3.05 -2.37 2.99 2.44 -3.05 2.37 0 0zm-238.61 -222.35l-6.48 -1.68 0 0 6.48 1.68 0 0z"/>
  <path class="fil2" d="M3232.03 1265.82l-6.48 -1.68 6.31 -2.26 6.48 1.68 -6.31 2.26zm174.88 -62.57l-3.61 -2.7 4.25 -1.52 3.61 2.71 -4.25 1.52z"/>
  <path class="fil2" d="M2917.22 3381.92l-3.08 -2.52 3.39 -2.09 3.08 2.52 -3.39 2.09zm-103.16 -84.44l-3.72 -3.05 4.7 -1.01 3.72 3.04 -4.7 1.02 0 0z"/>
  <polygon class="fil2" points="2671.11,2568.36 2667.61,2566.94 2667.61,2566.94 "/>
  <path class="fil2" d="M2661.38 2587.51l-3.26 -1.89 1.7 -3.36 3.26 1.89 -1.7 3.36zm-119.26 -69.06l-5.16 -2.99 2.23 -0.36 6.77 2.73 -3.84 0.61 0 0z"/>
  <path class="fil2" d="M2671.11 2568.36l-3.5 -1.41 1.71 -3.37 3.5 1.41 -1.71 3.37zm-125.15 -50.51l-6.77 -2.73 7.2 -1.15 6.77 2.73 -7.21 1.15z"/>
  <polygon class="fil2" points="2686.35,2484.82 2678.51,2482.35 2686.62,2480.96 2694.47,2483.44 "/>
  <polygon class="fil2" points="2570.62,2448.4 2570.62,2448.4 2572.86,2445.15 2572.86,2445.15 "/>
  <path class="fil2" d="M2574.38 2449.58l-3.76 -1.18 2.24 -3.24 3.76 1.18 -2.23 3.24zm-70 -22.04l-4.47 -1.4 -1.52 -4.43 4.47 1.41 1.52 4.42 0 0z"/>
  <polygon class="fil2" points="2615.56,2462.54 2610.69,2461.01 2615.1,2458.45 2619.97,2459.98 "/>
  <g id="_1476759644288">
   <path class="fil3" d="M4293.4 1093.12l4.74 -2.62 1.32 0.62 -1.06 1.51 -5 0.49 0 0zm11.44 -1.13l-0.27 -0.76 272.35 -150.88 0 0 -265.77 147.24 207.48 -20.46 -1.88 3.97 -211.92 20.89 0.01 0zm216.26 -21.32l1.92 -3.97 183.87 -18.12 4.07 3.38 -189.87 18.72 0 -0zm195.11 -19.24l-4.07 -3.38 201.6 -19.87 4.17 3.37 -201.69 19.88 -0 0zm206.97 -20.4l-4.12 -3.38 148.63 -14.65 -2.01 3.98 -142.5 14.05zm146.93 -14.48l2.01 -3.98 424.11 -41.81 8.28 2.96 -434.41 42.83 0 0zm439.82 -43.36l-4.3 -3.07 7.66 2.73 -3.36 0.33 0 0.01zm-929.47 -34.8l0 0 0.54 -0.29 0 0 -0.54 0.29zm6.22 -3.45l0 0 126.39 -70 0 0 -126.39 70zm129.92 -71.96l0 0 187.09 -103.64 0 0 -187.09 103.64zm59.77 -37.41l124.33 -68.89 0 0 -124.33 68.89z"/>
   <path class="fil3" d="M4304.58 1091.23l-0.19 -0.59 0.72 -1.05 -0.53 -0.24 0.94 -2.94 268.32 -148.64 3.09 2.58 -272.35 150.88zm-3.42 -3.49l0 0 95.07 -297.89 0 0 -95.07 297.89zm279.31 -149.35l-3.09 -2.58 6.49 -3.59 -2.87 5.88 -0.54 0.29 0 0zm6.22 -3.45l2.82 -5.88 120.39 -66.68 3.18 2.56 -126.39 70zm129.92 -71.96l-3.18 -2.56 62.95 -34.85 124.33 -68.89 1.61 2.18 0.58 0.19 0.58 -1.77 1.52 -1.13 -1.52 1.13 -0.58 1.77 0.81 0.29 -187.09 103.64zm-319.18 -77.01l0 0 44.87 -140.57 0 0 -44.87 140.57zm507.26 -30.28l0 0 -141.88 -189.15 0 0 141.88 189.15zm-9.76 -6.74l-136.28 -181.73 136.28 181.73zm-451.4 -107.4l0 0 8.09 -25.32 0 0 -8.09 25.32zm9.38 -29.33l50.78 -159.09 -50.78 159.09zm303.19 -48.41l-199.09 -265.41 -44.19 138.38 44.19 -138.38 199.09 265.41 0 0zm4.17 -0.67l-195.11 -260.19 195.11 260.19 0 0zm-204.33 -271.39l-0.63 -0.43 0.36 -1.02 0.67 0.91 -0.4 0.54 -0 0z"/>
   <path class="fil3" d="M4024.48 2089.77l166.09 -343.73 3.39 1.67 -155.97 322.77 262.6 -270.22 3.53 1.74 -279.65 287.77 0 0zm282.43 -290.6l-3.57 -1.74 85.4 -87.85 2.6 2.72 -84.42 86.87 -0 -0zm-111.33 -54.85l-3.39 -1.67 76.86 -158.97 2.75 2.91 -76.22 157.73 0 -0zm198.38 -34.72l-2.6 -2.73 49.53 -50.97c0.98,0.8 1.96,1.57 3.01,2.31l-49.95 51.39 0.01 0zm-120.4 -126.62l-2.78 -2.91 24.92 -51.52 4.67 -1.01 -26.8 55.44 -0 -0zm256.22 -13.15c-0.76,-1 -1.57,-1.98 -2.42,-2.93l108.75 -111.87 6.62 -1.43 -112.96 116.24 0 -0.01zm-232.02 -45.59l63.98 -132.43 2 4.52 -61.31 126.9 -4.67 1.01zm343.1 -74.09l243.95 -250.98 4.75 0.47 -242.07 249.09 -6.62 1.43 -0 0zm-274.97 -58.27l-2 -4.52 23.52 -48.67 1.77 5.01 -23.3 48.18 -0 0zm25.59 -52.96l-1.77 -5.01 84.42 -174.65 3.99 0.39 -86.64 179.28 0 -0zm497.36 -141.26l0 0 0.22 -1.88 -0.22 1.88 1.21 -1.45 -1.3 -1.11 101.63 -104.59 -72.48 -58.96 -4.17 -3.37 -200.66 -163.24 0 0 -3.18 -2.56 -63.26 -51.47 -57.13 118.14 -2.82 5.88 0 0 -2.96 6.16 -2.95 -2.48 0.22 -0.52 0 0 2.87 -5.88 59.77 -123.74 3.58 2.92 0.81 -4.2 65.41 53.21 3.18 2.56 0 0 202.45 164.67 4.12 3.38 68.1 55.37 0 8.59 -99.61 102.52 -1.61 -1.3 -1.21 1.45 -0 0.01zm-408.98 -41.63l-4 -0.39 40.89 -84.54 1.88 -3.97 60.44 -125.02 2.96 2.48 -59.01 122.1 -1.92 3.97 -41.23 85.36 -0.01 0zm515.98 -65.71l-1.39 -1.36 1.48 1.24 -0.09 0.12 -0 0z"/>
   <path class="fil3" d="M4299.46 1091.12l-1.32 -0.62 -82.69 -38.6 0 0 84.01 39.21 0 0zm5.12 -1.77l-0.79 -0.37 -0.94 -2.72 -1.2 1.72 -0.49 -0.24 95.07 -297.89 3.12 2.6 -93.83 293.96 -0.94 2.94 -0 0zm-94.32 -39.87l-129.55 -60.45 129.55 60.45 0 0zm-159.05 -78.51l0 -0 78.17 -104.22 0 0 -78.17 104.22zm80.77 -107.68l0 -0 135.5 -180.65 0 0 -135.5 180.66zm268.58 -74.72l-3.12 -2.6 44.87 -140.57 3.16 2.55 -44.9 140.63 -0 -0zm-130.82 -108.96l0 0 29.28 -39.02 0 0 -29.28 39.02zm176.96 -35.52l-3.16 -2.55 8.09 -25.32 4.14 -0.67 -9.08 28.53 0 0.01zm-144.45 -7.82l48.67 -64.91 0 0 -48.67 64.91 0 0zm150.67 -24.05l50.78 -159.09 2.82 -8.83 3.27 2.04 -52.73 165.22 -4.14 0.66 0 -0zm-99.75 -43.87l0 0 112.13 -149.47 0 0 -112.13 149.47zm157.82 -125.72l-3.31 -2.03 43.47 -136.2 -83.59 111.46 0 0 88.79 -118.37 0.67 0.91 -44.19 138.38 -1.83 5.85 -0.01 -0zm-46.67 -28.76l0 0 87.63 -116.87 0 0 -87.63 116.87zm92.47 -121.51l-0.85 -0.61 0.4 -0.54 5.15 -6.91 -2.42 7.67 -2.28 0.39 0 -0z"/>
   <path class="fil3" d="M3932.58 1626.51l1.2 -7.01 2.71 1.34 -3.91 5.68zm6.09 -8.81l0 0 59.92 -86.37 0 0 -59.92 86.36 0 0zm-4.55 -0.01l109.15 -628.21 2.03 -5.09 -2.6 30.38 -103.5 595.58 -5.08 7.34zm68.8 -92.56l0 0 255.11 -367.7 0 0 -255.11 367.7zm257.63 -371.32l0 0 9.94 -14.35 0 0 -9.94 14.35zm12.42 -17.89l0 0 28.75 -41.46 0 0 -28.75 41.46zm26.5 -44.8l-84.01 -39.21 -2.34 -5.23 88.03 41.06 0 0 0.49 0.24 -0.9 1.3 -1.28 1.84 0 -0zm4.93 -0.48l-0.6 -1.65 0.79 0.37 0.53 0.24 -0.72 1.05 0 -0zm-94.13 -41.15l-129.55 -60.45 -26.98 -12.59 -2.41 -5.25 0.04 -0.02 156.57 73.08 2.33 5.24 0 -0z"/>
   <path class="fil3" d="M4606.22 1950.85l-302.08 -148.86 -3.53 -1.74 -106.63 -52.55 -3.39 -1.67 -198.2 -97.67 0.34 -4.02 199.48 98.3 3.39 1.67 107.76 53.11 3.57 1.74 292.67 144.23 -6.71 -19.14 6.36 6.65 4.7 13.39 -2.01 1.22 1.97 3.21 1.3 -0.8 1.03 2.92 -0.01 0.01zm-10.07 -28.6l-6.31 -6.65 -14.19 -40.46 19.25 43.49 1.26 3.61 -0 0zm-17.01 -48.53l-19.25 -43.49 -57.57 -164.16c1.17,-0.44 2.33,-0.92 3.49,-1.43l73.33 209.08 -0 -0zm-590.36 -227.14l-52.28 -25.75 -2.71 -1.34 -0.68 -0.35 1.02 -1.45 5.08 -7.34 60.03 -86.54 -0.64 7.52 -59.92 86.37 50.44 24.85 -0.34 4.03 -0.01 0zm472.28 -98.05l-18.15 -51.79 3.69 -0.8 18.07 51.52c-1.21,0.32 -2.41,0.68 -3.61,1.06zm-458.13 -23.4l0.64 -7.53 252.7 -364.2 1.77 4.03 -255.11 367.7zm438.71 -31.96l-52.43 -149.47 -1.77 -5.01 -68.23 -194.49 4.14 0.4 66.39 189.31 1.77 5.01 53.86 153.45 -3.72 0.8 -0.01 -0zm-181.08 -339.36l-1.77 -4.03 7.41 -10.73 4.29 0.41 -9.94 14.35 0 -0.01zm61.39 -13.13l-4.14 -0.4 -16.07 -45.82 0 0 -28.75 41.46 -4.29 -0.42 29.73 -42.88 1.06 -1.51 0 0 1.28 -1.84 0.9 -1.3 1.2 -1.72 0.94 2.72 0.6 1.65 0.19 0.59 0.27 0.76 17.09 48.69 -0 0.01zm-19.65 -50.33l-1.77 0.63 1.77 -0.63z"/>
   <path class="fil3" d="M4051.21 970.97l-0.3 -0.72 0.64 -1.62 -1.2 0.42 -0.9 -1.97 78.21 -104.29 1.73 3.95 -78.17 104.22 0 -0zm-7.27 -2.93l-2.52 -1.02 2.52 1.02zm88.03 -104.74l-1.73 -3.95 134.33 -179.12 2.9 2.41 -135.5 180.65 0 0zm137.76 -183.67l-2.9 -2.41 26.84 -35.75 5.35 -0.85 -29.28 39.02 -0 -0.01zm27.17 -42.49l51.07 -68.13 2.94 2.37 -48.67 64.91 -5.34 0.85zm56.27 -68.78l-2.9 -2.37 111.79 -149.08 3.23 1.98 -112.13 149.47 0 0zm-1334.26 -10.01l-3.96 -1.6 4.35 -0.75 0.41 1.19 -0.8 1.15 0 0.01zm9.74 -0.13l-2.58 -1.04 5.72 -3.31 707.48 -121.31 1.98 3.48 -712.62 122.18 0 0zm716.56 -122.87l-1.98 -3.48 51.56 -8.84 1.65 3.54 -51.23 8.78 0 0zm55.08 -9.43l-1.66 -3.54 129.62 -22.23 3.8 3.17 -131.76 22.6zm667.27 -10.05l-3.23 -1.98 87.63 -116.87 -216.85 37.19 -4.85 -2.99 222.73 -38.19 3.36 4.47 -88.79 118.37 0 -0zm-530.61 -13.39l-3.8 -3.17 169.48 -29.06 3.91 3.15 -169.59 29.08 -0.01 0zm174.52 -29.93l-3.88 -3.15 12.54 -2.16c2.94,0.69 5.99,1.05 9.1,1.05 0,0 0.04,0 0.08,0 7.91,-0.01 15.24,-2.32 21.42,-6.29l42.57 -7.3 -1.88 4.14 -79.94 13.71 -0 -0zm84.42 -14.47l1.88 -4.14 126.88 -21.76 4.86 2.99 -133.62 22.91 -0 0zm363.1 -64.13l-2.19 -1.58 2.28 -0.39 1.61 -0.28 -1.7 2.24 -0 0z"/>
   <path class="fil3" d="M3942.36 1092.75l-86.53 -50.11 4.67 -1.67 81.11 46.98 100.27 -111.88 3.09 -1.1 -2.34 5.93 -100.27 111.84 -0 -0zm-90.78 -52.58l-4.89 -2.82 4.89 -1.53 4.63 2.69 -4.63 1.65 0 0zm-9.29 -5.37l-819.93 -474.81 0.13 -0.19 23.27 9.4 801.37 464.08 -4.85 1.53 0.01 0zm209.04 -63.6l-0.11 -0.22 0.22 0.09 -0.07 0.11 -0.04 0.02 -0 0z"/>
   <path class="fil3" d="M4042.66 971.58l-996.91 -402.4 -23.27 -9.4 0.62 -0.9 2.96 -1.72 2.58 1.04 1012.78 408.8 2.52 1.02 -302.68 -532.01 -1.98 -3.48 -71.21 -125.16 -3.43 -13.49 -1.82 0.47 1.63 -0.93 -1.63 0.93 1.82 -0.47 -0.07 -0.26 78.65 138.24 1.98 3.48 289.74 509.26 11.82 25.69 -4.1 1.29 0 0zm-1022.38 -412.68l-1.38 -0.56 0.8 -1.15 0.58 1.71z"/>
   <polygon class="fil3" points="3072.24,487.76 3409.13,0 3409.13,0 "/>
   <polygon class="fil3" points="3657.56,281.31 3497.51,0 3497.51,0 3657.56,281.3 "/>
   <path class="fil3" d="M3021.22 561.61l-0.94 -2.71 -0.58 -1.71 -0.41 -1.19 -45.45 -132.11 3.46 -1.52 45.05 130.98 382.2 -553.34 4.58 0 -336.89 487.76 -44.12 63.88 -7.27 4.21 1.89 3.26 0.37 -0.21 -0.62 0.9 -0.13 0.19 -1.13 1.63 0 -0zm-48.6 -141.3l-0.19 -0.54 1.47 -0.02 -1.28 0.56zm-1.48 -4.3l-143.1 -416.02 3.98 0 143.09 415.98 -3.96 0.04 0 0z"/>
   <polygon class="fil3" points="3022.74,559.11 3020.85,555.85 3028.12,551.64 3569.73,237.55 3479.92,0 3483.95,0 3574.37,239.2 3031.79,553.86 3026.07,557.17 3023.1,558.89 "/>
   <polygon class="fil3" points="3668.07,307.4 3493.18,0 3497.51,0 3657.56,281.31 3657.56,281.3 3586.09,0 3589.98,0 3664.57,293.63 3664.64,293.89 3662.82,294.36 3664.45,293.43 3662.82,294.36 3664.64,293.89 3668.07,307.38 "/>
   <path class="fil3" d="M3756.02 1714.35l-279.06 -228.44 3.05 -2.37 274.41 224.63 66.1 -166.84 1.85 5.55 -66.35 167.47 0 0zm-282.05 -230.89l-261.99 -214.47 13.57 -4.86 6.48 1.68 -12.52 4.48 257.51 210.8 -3.05 2.37 0 -0zm-235.62 -219.9l-6.48 -1.68 171.44 -61.34 3.61 2.7 -168.57 60.32zm172.83 -61.83l-3.61 -2.71 267.23 -95.61 1.19 3.57 -264.81 94.74 0 0z"/>
   <path class="fil3" d="M3824.55 1541.44l-1.88 -5.55 219.95 -554.98 2.34 -5.93 -3.09 1.1 -181.38 64.91 -4.67 1.67 -176.31 63.08 -1.19 -3.57 173.25 -61.98 4.63 -1.65 98.2 -35.13 91.72 -28.94 -0.83 9.94 -2.03 5.09 -218.71 551.96 0.01 -0zm226.35 -571.19l-0.56 -1.19 1.2 -0.42 -0.64 1.62 -0.01 0z"/>
   <path class="fil3" d="M3964.56 1974.15l-142.19 -427.26 -1.85 -5.55 -144.55 -434.35 -1.19 -3.57 -4.76 -14.28 172.25 -54.33 4.85 -1.53 195.53 -61.68 4.1 -1.29 2.94 6.41 -46.15 540.9 -0.64 7.53 0 0 -10.2 119.21 -0.34 4.02 -27.82 325.78 -0 0zm-140.01 -432.71l137.83 414.18 26.38 -309.04 0.34 -4.03 9.48 -111.22 0 -0 0.64 -7.52 43.47 -509.04 2.6 -30.38 0.83 -9.94 -91.72 28.94 -102.83 32.44 -4.89 1.53 -171.87 54.22 3.52 10.58 1.19 3.57 143.16 430.17 1.88 5.55 0 -0.01z"/>
   <path class="fil3" d="M5516.79 978.1l-12.27 -4.39 -8.28 -2.96 -341.06 -121.67 1.74 -3.39 335.78 119.81 -291.05 -207.88 1.7 -3.39 302.29 215.9 4.3 3.07 6.85 4.92 0 -0zm-365.19 -130.3l-247.89 -88.46 0 0 -0.81 -0.29 0.58 -1.77 1.52 -1.13 -1.52 1.13 -0.58 1.77 -0.58 -0.19 -1.61 -2.18 0 0 -5.78 -7.73 -136.28 -181.73 4.17 -0.67 141.88 189.15 0 0 248.65 88.72 -1.74 3.39 -0 -0zm46.96 -92.4l-295.7 -211.21 5.28 -0.85 292.13 208.66 -1.7 3.4 -0.01 0zm-442.46 -191.59l-199.09 -265.41 -0.67 -0.91 -3.36 -4.47 -5.46 -7.26 7.79 5.56 0.63 0.43 0.85 0.61 2.19 1.58 344.77 246.29 -5.24 0.84 -333.36 -238.12 195.11 260.19 -4.17 0.67 0.01 -0z"/>
   <path class="fil3" d="M4647.23 811.4l-3.58 -2.92 -198.18 -160.54 -3.16 -2.55 0 0 -28.53 -23.12 5 -0.79 24.76 20.07 0 0 3.16 2.55 198.01 160.42 43.02 -225.97 3.94 -0.63 -43.65 229.3 -0.81 4.2 -0 -0.01zm-237.37 -192.31l-58.94 -47.72 0 0 -2.94 -2.37 -181.22 -146.8 1.62 -3.55 181.9 147.34 2.9 2.37 0 0 61.65 49.94 -4.97 0.8 0 -0.01zm278.65 -44.49l3.09 -16.2 -181.81 -112.07 -3.27 -2.04 -41.21 -25.41 0 0 -3.23 -1.98 -132.56 -81.74 -4.86 -2.99 -91.42 -56.38 1.59 -3.45 95.45 58.87 4.85 2.99 129.21 79.68 3.23 1.98 0 0 40.12 24.74 3.31 2.03 184.76 113.93 -3.31 17.42 -3.94 0.63 -0 0z"/>
   <path class="fil3" d="M4163.74 419.74l-57.21 -46.35 -3.91 -3.15 -457.03 -370.24 5.98 0 456.01 369.39 3.88 3.15 53.9 43.65 -1.62 3.54 -0 0zm66.24 -145.94l-444.05 -273.8 7.16 0 438.48 270.35 -1.58 3.46z"/>
   <path class="fil3" d="M4894.76 1200.12l-5.19 -0.51 -4.75 -0.47 -406.69 -39.52 -3.99 -0.39 -150.81 -14.66 -4.14 -0.4 -48.7 -4.73 0 0 -4.29 -0.41 -12.72 -1.24 -1.77 -3.95 16.97 1.64 4.29 0.42 44.83 4.36 4.14 0.4 153.94 14.96 4 0.39 403.06 39.17 -171.96 -143.24 -4.07 -3.38 -124.86 -103.98 -2.96 -2.48 -2.15 -1.77 0 0 -3.09 -2.58 -174.49 -145.32 -3.12 -2.6 0 -0 -128.76 -107.21 0 0 -2.9 -2.41 -34.36 -28.63 4.93 -0.79 31.69 26.41 2.9 2.41 0 0 127.7 106.36 0 0 3.12 2.6 176.83 147.23 3.09 2.58 0 0 0.31 0.23 2.95 2.48 128.4 106.95 4.07 3.38 172.54 143.68 1.3 1.11 -1.21 1.45 0.22 -1.88 -0.22 1.88 1.21 -1.45 1.61 1.3 3.09 2.61 0 0.01zm-645.58 -62.74l-131.36 -12.76 -68.12 -147.92 -2.94 -6.41 -11.82 -25.69 -238.51 -518.04 -1.65 -3.54 -103.72 -225.29 242.07 201.57 3.8 3.17 170.27 141.81 -1.62 3.55 -173.55 -144.52 -3.8 -3.17 -226.8 -188.87 97.18 211.09 1.66 3.54 249.16 541.17 0.9 1.97 0.56 1.19 0.3 0.72 0 0 0.11 0.22 2.41 5.25 66.62 144.65 127.07 12.35 1.77 3.95 0 -0zm-22.81 -489l-117.77 -98.06 1.62 -3.56 121.08 100.83 -4.93 0.79 0 0z"/>
   <path class="fil3" d="M4991.28 1966.61l-366.4 -30.81 -19.7 12.13 -1.3 0.8 -1.97 -3.21 2.01 -1.22 14.64 -9.03 -14.59 -1.22 1.84 -3.62 18.13 1.52 367.34 -226.39 0 4.42 -361.03 222.5 361.03 30.35 0 3.77 -0 -0zm-389.95 -33.48l-2.1 -2.21 -6.36 -6.65 -201.54 -211.97 -2.6 -2.72 -116.94 -122.98 -2.75 -2.91 -42 -44.18 70.72 -15.27 4.67 -1.01 107.23 -23.15 1.55 3.51 -110.84 23.94 -4.67 1.01 -61.31 13.24 36.4 38.28 2.78 2.91 117.81 123.89 2.6 2.73 195.86 206.02 6.31 6.65 0.67 0.66 4.52 10.21 -0.01 -0.01zm393.71 -225.46l0 -4.42 381.31 -234.98 2.73 2.71 -384.03 236.68zm-580.07 -204.89l-1.54 -3.52 28.19 -6.09 3.72 -0.8 195.52 -42.23 6.62 -1.43 223.36 -48.23 -2.19 4.33 -225.91 48.77 -6.62 1.43 -189.53 40.93 -3.69 0.8 -27.93 6.03zm967.42 -33.83l-2.78 -2.71 429.08 -264.42 -572.79 123.68 -3.18 -3.16 596.65 -128.83 -446.98 275.44 0 0zm-508.99 -65.16l2.19 -4.33 115.68 -24.98 0 3.86 -117.88 25.46 0 -0zm121.64 -26.27l0 -3.85 233.3 -50.37 3.18 3.16 -236.48 51.07 0 -0z"/>
   <path class="fil3" d="M4991.28 1966.8l0 -795.09 3.76 -7.4 0 798.65 868.36 -17.61 -484.32 -474.36 -2.73 -2.71 -144.83 -141.82 -3.18 -3.16 -209.75 -205.38 1.84 -3.51 212.3 207.94 3.18 3.16 143.71 140.74 2.78 2.71 490.05 479.97 -879.24 17.84 -1.92 0.04 -0.01 -0.01zm1.88 -1.92l1.88 0 -1.88 0zm-1.88 -801.47l0 -77.53 3.18 3.08 1.39 1.36 21.76 21.32 -1.84 3.52 -20.73 -20.32 0 61.17 -3.76 7.4 0 -0z"/>
   <path class="fil3" d="M4602.77 1936.45l-1.43 -3.33 -4.52 -10.21 -1.92 -4.27 -19.25 -43.49 -90.84 -205.28c1.34,-0.09 2.69,-0.22 3.94,-0.4l71.14 160.76 19.25 43.49 23.86 53.96 265.66 -522.88 2.19 -4.33 120.43 -237.07 3.76 -7.4 20.73 -40.85 1.84 -3.52 48.08 -94.65 2.01 -3.98 83.9 -165.2 1.74 -3.39 45.22 -89.01 1.7 -3.4 141.16 -277.83 -433.28 69.17 -5.28 0.85 -140.04 22.36 0 0 -4.17 0.67 -66.98 10.69 -3.94 0.63 -231.97 37.03 -4.14 0.67 0 0 -32.86 5.25 -5 0.79 -114.76 18.33 0 0 -5.35 0.85 -58.53 9.34 -4.93 0.79 -179.27 28.62 79.3 179.14 1.73 3.95 0 0 81.14 183.38 2.34 5.23 0 0 36.24 81.95 1.77 3.95 5.3 11.97 1.77 4.03 0 0 103.35 233.55 2 4.52 47.54 107.38 1.54 3.52 25.37 57.3c-1.02,0.85 -2,1.73 -2.94,2.65l-26.19 -59.13 -1.55 -3.51 -45.92 -103.75 -2 -4.52 -103.73 -234.37 0 0 -1.77 -4.03 -7.08 -16.01 -1.77 -3.95 -37.15 -83.95 0 0 -2.33 -5.24 -78.55 -177.5 0 -0 -1.73 -3.95 -82.13 -185.54 1.43 -0.22 -0.42 0.92 3.43 1.56 0 0 0 -0 1.43 -3.19 174.98 -27.93 4.93 -0.79 65.6 -10.47 5.34 -0.85 0 0 107.6 -17.18 4.97 -0.8 38.09 -6.08 4.14 -0.66 231.45 -36.95 3.94 -0.63 63.66 -10.16 0 0 4.17 -0.67 0 0 138.25 -22.07 5.24 -0.84 432.84 -69.11 7.61 2.4 1.12 -3.59 -0.4 -0.13 3.22 -0.52 -144.79 284.94 -1.7 3.39 -44.72 88.07 -1.74 3.39 -83.05 163.48 -2.01 3.98 -49.69 97.86 -1.84 3.51 -23.55 46.4 -3.76 7.4 -115.68 227.74 -2.19 4.33 -267.59 526.64 -1.84 3.62 -1.21 2.41 0 -0.02z"/>
   <path class="fil3" d="M4049.97 679.51l0 0zm0 -0l-3.43 -1.56 0.42 -0.92 58.64 -129.2 1.62 -3.55 56.54 -124.54 1.62 -3.54 26.05 -57.36 1.88 -4.14 36.7 -80.89 1.58 -3.46 59.96 -132.13 1053.4 331.58 0.4 0.13 -1.12 3.59 -7.61 -2.4 -1043 -328.32 -58.79 129.53 -1.59 3.45 -35.45 78.14 -1.88 4.14 -27.51 60.57 -1.62 3.55 -56.53 124.58 -1.62 3.56 -57.21 125.99 -1.43 3.19 0 -0 -0.01 0z"/>
   <path class="fil3" d="M1657.48 3111.32l4.73 -2.62 1.32 0.62 -1.04 1.51 -5.01 0.49zm11.44 -1.13l-0.27 -0.75 6.57 -3.65 207.48 -20.46 -1.92 3.98 -211.87 20.88 -0 0.01zm0.67 -5.57l0 0 207.47 -114.94 -207.47 114.94zm215.59 -15.74l1.92 -3.97 183.87 -18.13 4.06 3.38 -189.85 18.72 0 0zm195.1 -19.24l-4.06 -3.38 201.59 -19.87 4.15 3.38 -201.68 19.88 -0 0zm207 -20.41l-4.15 -3.37 148.63 -14.65 -2.02 3.98 -142.46 14.05zm146.9 -14.48l2.02 -3.98 424.07 -41.81 8.3 2.97 -434.4 42.82zm439.81 -43.36l-4.29 -3.06 7.66 2.73 -3.37 0.33 0 0.01zm-17.23 -7.68l-122.45 -43.69 122.45 43.69 0 0zm-51.26 -14.29l-286.24 -102.14 0 0 286.24 102.14zm-289.82 -103.41l-76.04 -27.13 0 -0 76.04 27.14 0 0zm-396.05 -6.41l148.12 -82.05 92.67 33.06 0 0 -92.67 -33.06 -148.12 82.05z"/>
   <path class="fil3" d="M1668.65 3109.43l-0.21 -0.6 0.72 -1.05 -0.52 -0.24 94.76 -296.9 0 0 -93.82 293.96 207.47 -114.94 60.85 -33.71 3.1 2.58 -265.78 147.24 -6.57 3.65 0 0zm-3.45 -3.49l0 0 95.07 -297.89 0 0 -95.07 297.89zm279.33 -149.35l-3.1 -2.58 6.47 -3.58 -2.84 5.87 -0.52 0.29 -0 0zm6.23 -3.45l2.84 -5.87 120.36 -66.68 3.15 2.56 -126.35 69.99zm129.9 -71.96l-3.15 -2.57 187.27 -103.74 -142.1 -189.46 0 0 143.73 191.64 0.53 0.19 0.63 -1.77 1.5 -1.13 -1.5 1.13 -0.63 1.77 0.8 0.29 -148.12 82.05 -38.97 21.59 0 0.01zm-316.03 -74.4l0 -0 44.88 -140.63 0 0 -44.88 140.63zm-3.12 -2.6l0 0 44.87 -140.58 0 0 -44.87 140.58zm507.24 -30.28l-0 0 -141.86 -189.15 141.86 189.15zm-458 -111.6l-0 0 9.11 -28.53 0 0 -9.1 28.53zm-3.14 -2.54l-0 0 8.08 -25.32 0 0 -8.08 25.32zm9.36 -29.34l53.59 -167.92 0 0 -53.59 167.92 0 0zm4.16 -0.66l52.73 -165.22 0 0 -52.73 165.22 0 0zm299 -47.74l-199.06 -265.42 -46.03 144.23 -0.01 0 46.04 -144.23 199.06 265.42 0 0zm4.2 -0.67l-19.5 -26.01 19.5 26.01zm-252.6 -122.54l0 0 43.47 -136.2 0 -0 -43.47 136.21zm48.26 -148.85l-0.6 -0.43 0.32 -1.02 0.69 0.91 -0.4 0.54 0 0z"/>
   <path class="fil3" d="M1723.06 3763.77l-5.25 0 34.98 -36 2.6 2.73 -32.33 33.27 0 0zm-163.41 -1.26l-3.38 -1.66 76.82 -158.97 2.77 2.91 -76.22 157.72 0 -0.01zm198.37 -34.71l-2.6 -2.73 75.46 -77.64 1.64 3.71 -74.5 76.66 0 0zm77.33 -79.57l-1.64 -3.71 13.74 -14.14 1.39 3.97 -13.48 13.87 -0 0zm16.42 -16.89l-1.4 -3.97 149.82 -154.15 6.65 -1.43 -155.07 159.55 0 -0zm-214.15 -30.16l-2.77 -2.91 24.89 -51.52 4.67 -1.01 -26.8 55.44 0 0.01zm24.2 -58.74l63.99 -132.43 2 4.52 -61.33 126.9 -4.67 1.01 0 0zm343.11 -74.09l243.93 -250.98 4.79 0.47 -242.08 249.08 -6.65 1.43zm-274.97 -58.27l-2 -4.52 23.52 -48.67 1.77 5.01 -23.28 48.18 -0 0zm25.59 -52.96l-1.76 -5.01 84.4 -174.65 3.99 0.39 -86.63 179.27 0 0zm497.38 -141.25l0 0 0.18 -1.87 -0.18 1.87 1.2 -1.45 -1.34 -1.11 101.65 -104.59 -72.49 -58.96 -4.15 -3.38 -200.69 -163.23 -3.15 -2.56 -63.27 -51.46 -57.09 118.14 -2.84 5.87 -2.98 6.16 -2.98 -2.48 0.25 -0.52 2.84 -5.87 59.79 -123.74 3.6 2.92 0.8 -4.2 65.42 53.21 3.15 2.57 202.46 164.67 4.15 3.37 68.07 55.37 0 8.59 -99.65 102.53 -1.56 -1.3 -1.2 1.45 -0.01 0.01zm-409.01 -41.64l-4 -0.39 40.85 -84.53 1.92 -3.98 60.41 -125.02 2.98 2.48 -59.01 122.11 -1.92 3.97 -41.25 85.36zm515.96 -65.71l-1.41 -1.37 1.53 1.25 -0.12 0.12 -0 0z"/>
   <path class="fil3" d="M1668.64 3107.55l-0.78 -0.36 -0.96 -2.73 -1.2 1.72 -0.5 -0.23 95.07 -297.89 3.12 2.6 -94.76 296.9 0.01 -0zm-253.36 -118.37l0 0 78.17 -104.23 0 0 -78.17 104.23zm-1.79 -3.89l0 0 78.21 -104.28 0 0 -78.21 104.28zm82.55 -103.79l0 0 135.49 -180.66 0 0 -135.5 180.66zm-1.75 -3.95l0 0 134.34 -179.12 -134.34 179.12zm270.34 -70.77l-3.12 -2.6 44.87 -140.58 3.14 2.55 -44.88 140.63 -0 -0zm-130.84 -108.95l0 -0 29.26 -39.01 0 0 -29.26 39.02zm176.95 -35.53l-3.14 -2.55 8.08 -25.32 4.17 -0.66 -9.11 28.53 0 0zm-144.44 -7.82l48.68 -64.91 0 0 -48.68 64.91 0 0zm150.67 -24.06l53.59 -167.92 3.3 2.03 -52.73 165.22 -4.16 0.66 0 0zm-99.73 -43.86l0 0 112.1 -149.47 0 0 -112.1 149.47zm157.79 -125.72l-3.3 -2.03 43.47 -136.21 -83.6 111.46 0 0 88.78 -118.37 0.68 0.91 -46.04 144.23 -0.01 0zm45.81 -150.27l-0.85 -0.61 0.4 -0.54 5.18 -6.9 -2.45 7.66 -2.28 0.39 -0 -0z"/>
   <g id="_2094743499216">
    <path class="fil3" d="M1296.63 3644.71l1.22 -7.01 2.72 1.34 -3.93 5.68zm6.11 -8.8l0 0 59.92 -86.36 0 0 -59.92 86.37 0 -0zm-4.58 -0.01l109.17 -628.21 2.02 -5.09 -2.59 30.37 -103.5 595.6 60.05 -86.54 0 0 -65.14 93.88 0 -0zm68.81 -92.57l0 0 43.49 -62.67 -43.49 62.67zm0.64 -7.53l0 0 252.7 -364.2 0 0 -252.7 364.2zm255.22 -367.82l0 0 7.45 -10.72 0 0 -7.45 10.72zm9.9 -14.28l0 0 29.76 -42.88 1.04 -1.51 -1.32 -0.62 -82.7 -38.59 -2.31 -5.24 88.01 41.07 0 0 0.5 0.23 -0.9 1.31 -32.07 46.22 0 0zm35.71 -44.87l-0.58 -1.65 0.78 0.36 0.52 0.24 -0.72 1.05 0 -0zm-94.12 -41.15l-156.52 -73.04 -2.42 -5.25 0.02 -0.02 156.6 73.08 2.32 5.24 0 0z"/>
   </g>
   <path class="fil3" d="M1898.24 3763.77l-3.99 0 -45.41 -129.41 -1.39 -3.97 -40.5 -115.43 3.71 -0.8 39.72 113.23 1.4 3.97 46.47 132.43 0 -0.01zm-336.04 0l-8.52 0 -197.23 -97.2 0.35 -4.03 199.48 98.3 3.38 1.66 2.55 1.26 -0 0zm-209.38 -98.98l-52.26 -25.76 -2.72 -1.34 -0.69 -0.35 1.01 -1.45 65.14 -93.88 -0.64 7.53 -59.92 86.36 50.43 24.85 -0.35 4.03 -0 0zm14.15 -121.46l0.64 -7.53 252.7 -364.2 1.78 4.03 -211.64 305.02 -43.49 62.67 0 0zm438.72 -31.96l-52.44 -149.47 -1.77 -5.01 -68.23 -194.49 4.13 0.4 66.42 189.3 1.76 5.01 53.84 153.45 -3.71 0.8 -0.01 0zm-181.08 -339.35l-1.78 -4.03 7.45 -10.72 4.29 0.42 -9.95 14.35 0 -0.01zm61.39 -13.13l-4.13 -0.4 -16.08 -45.83 -28.77 41.47 -4.29 -0.42 32.07 -46.22 0.9 -1.31 1.2 -1.72 0.96 2.73 0.58 1.65 0.21 0.6 0.27 0.75 17.08 48.7 -0.01 -0zm-19.65 -50.32l-1.77 0.62 1.77 -0.62z"/>
   <path class="fil3" d="M1406.74 2989.78l-481.47 -194.34 481.47 194.34 0 0zm8.54 -0.61l0 -0 -0.33 -0.72 0.64 -1.62 -1.19 0.42 -0.91 -1.97 78.21 -104.28 1.74 3.95 -78.17 104.23 -0 -0.01zm-7.28 -2.94l-1017.88 -410.86 5.72 -3.32 707.48 -121.31 1.98 3.48 -712.62 122.19 1015.3 409.82 0 0zm88.04 -104.74l-1.75 -3.95 134.34 -179.12 2.9 2.41 -135.49 180.66 0 0zm137.76 -183.68l-2.9 -2.41 26.81 -35.75 5.34 -0.85 -29.26 39.01 0 -0.01zm27.17 -42.49l51.1 -68.13 2.93 2.37 -48.68 64.91 -5.34 0.85zm56.29 -68.77l-2.93 -2.37 111.81 -149.08 3.21 1.98 -112.1 149.47zm-1332.9 -9.45l-5.35 -2.16 4.35 -0.75 0.41 1.19 -0.8 1.15 1.38 0.57 0 0 0 0.01zm724.91 -123.56l-1.98 -3.48 51.58 -8.85 1.63 3.54 -51.22 8.78 0 0zm55.06 -9.44l-1.63 -3.54 129.61 -22.23 3.8 3.17 -131.79 22.59zm667.29 -10.05l-3.22 -1.98 87.65 -116.87 -216.88 37.19 -4.85 -2.99 222.72 -38.19 3.36 4.47 -88.78 118.37 0 -0zm-530.63 -13.39l-3.8 -3.17 169.51 -29.06 3.89 3.15 -169.6 29.08 -0 0zm174.54 -29.93l-3.9 -3.15 85.7 -14.7 -1.88 4.15 -79.93 13.7 0 -0zm84.41 -14.47l1.89 -4.14 126.89 -21.76 4.85 2.99 -133.62 22.91 -0 0zm363.12 -64.13l-2.2 -1.58 2.28 -0.39 1.61 -0.27 -1.68 2.24 -0 0z"/>
   <path class="fil3" d="M1306.42 3110.95l-86.53 -50.11 4.64 -1.66 81.13 46.98 100.29 -111.88 3.08 -1.1 -2.35 5.92 -100.26 111.84zm-90.8 -52.57l-4.87 -2.82 4.86 -1.54 4.65 2.69 -4.65 1.67 0 0zm-9.28 -5.38l-819.94 -474.81 0.13 -0.19 1020.2 411.8 0 0 -481.47 -194.34 -515.46 -208.06 801.4 464.08 -4.86 1.53 -0 0zm209.03 -63.6l-0.1 -0.22 0 0 0.21 0.09 -0.1 0.11 -0.02 0.02 -0 0zm-7.38 -3.16l-1017.88 -410.86 0 0 1017.88 410.86 -0 0z"/>
   <path class="fil3" d="M1406.74 2989.78l-1020.2 -411.8 0.62 -0.89 2.96 -1.72 1017.88 410.86 -302.68 -532.01 -1.98 -3.48 -71.2 -125.15 -3.43 -13.5 -1.82 0.47 1.63 -0.93 -1.63 0.93 1.82 -0.47 -0.06 -0.25 78.64 138.23 1.98 3.48 289.74 509.26 11.83 25.7 -4.09 1.29 0 -0.01zm-1022.4 -412.68l-1.38 -0.57 0.8 -1.15 0.59 1.71zm2.07 -5.56l0 0 355.39 -514.52 -355.39 514.52zm635.2 -272.03l-89.24 -156.86 0 0 89.24 156.85 0 0zm-93.26 -163.91l0 -0 -23.43 -41.18 0 0 23.43 41.19zm-28.79 -50.62l0 -0 -77.7 -136.55 0 0 77.69 136.56zm-43.07 -68.1l-26.78 -47.06 0 0 26.78 47.06z"/>
   <path class="fil3" d="M385.28 2579.82l-0.93 -2.71 0 0 -0.59 -1.71 -0.41 -1.19 -230.31 -669.55 1.85 -6.2 231.54 673.1 355.39 -514.52 17.66 -25.57 3.17 2.04 -370.46 536.35 -7.27 4.21 1.89 3.26 0.37 -0.21 -0.62 0.89 -0.13 0.19 -1.13 1.63 -0 -0.01zm379.49 -549.42l-3.17 -2.04 23.82 -34.49 2.89 2.43 -23.55 34.09 0 0.01zm25.7 -37.2l-2.89 -2.43 29.07 -42.09 -192.2 -95.18 -0 0 193.21 95.67 0.21 2.38 0.71 -0.54 0.37 0.97 -28.47 41.22 0 -0.01zm26.79 -48.42l-204.94 -101.48 0 0 204.94 101.48 0 0zm-666.32 -46.23l-114.15 -331.86 5.11 3.29 110.89 322.37 -1.85 6.2 0 0zm459.3 -52.08l-383.39 -189.85 0 0 383.38 189.85 0 0zm-12.13 -10.21l-269.57 -133.49 269.57 133.49 0 0zm-374.68 -181.33l-183.58 -90.91 0.07 0.21 -1.18 -0.76 184.69 91.46 0 0 -0 0zm-189.2 -95.66l-0.92 -2.69 2.8 1.39 -0.67 0.78 -1.19 0.52 -0.01 0z"/>
   <path class="fil3" d="M386.79 2577.31l-1.89 -3.26 7.27 -4.21 541.61 -314.1 -56.04 -148.22 5.32 3.42 55.36 146.46 -542.58 314.66 -5.72 3.32 -0 0 -2.96 1.72 -0.37 0.21 0 0.01zm494.04 -472.28l-5.32 -3.42 -17.72 -46.85 5.9 4.97 17.13 45.31 0 -0zm-19.86 -52.52l-5.9 -4.97 -36.14 -95.58 -0.37 -0.97 0.3 -0.24 10.85 19.07 0 0 31.26 82.69z"/>
   <path class="fil3" d="M817.65 1949.17l-193.21 -95.67 -12.13 -10.21 204.94 101.48 0.4 4.4 0 0zm-207.43 -102.71l-383.38 -189.85 1.09 -3.66 100.6 49.81 269.57 133.49 12.13 10.21 0 0.01zm-386.81 -191.55l-184.69 -91.46 -1.91 -1.23 0.51 -0.22 3.69 -1.62 183.5 90.87 -1.09 3.66 -0 -0zm-189.44 -94.51l-0.96 -0.61 1.2 -0.53 1.19 -0.52 -1.44 1.67 0 -0zm499.34 -220.64l213.18 -93.75 0 0 -213.18 93.75z"/>
   <path class="fil3" d="M29.71 1565.35l1.79 -2.08 1.19 0.77 -2.98 1.31zm7.12 -3.13l-2.84 -1.83 1.44 -1.67 0.67 -0.78 92.56 -107.29 7.1 -3.44 0.49 0.41 -92.81 107.58 144.92 -63.74 3.21 2.7 -150.55 66.21 -3.69 1.62 -0.51 0.22 0 0zm-0.25 -1.94l1.43 1.23 -1.43 -1.23zm158.83 -67.8l-3.21 -2.7 92.47 -40.67 -1.41 4.73 -87.85 38.64 -0 0zm92.37 -40.63l1.41 -4.73 244.14 -107.37 213.18 -93.75 7.23 0 0.09 0.89 -466.04 204.96 0.01 0.01zm-151.46 -9.09l-0.49 -0.41 29.96 -34.73 5.71 -0.85 -28.08 32.55 -7.1 3.44 -0 0zm33.24 -39.51l29.95 -34.71 3.09 2.18 -27.34 31.68 -5.71 0.85 0 0zm35.06 -35.71l-2.64 -1.86 0.18 -0.21 2.46 2.07zm2.88 -2.5l-2.88 -2.43 19.41 -22.49 1.13 4.45 -17.65 20.46 -0 -0zm20.65 -23.94l-1.13 -4.45 78.21 -90.65 4.97 0 -82.05 95.1 -0 0.01zm533.03 -97.44l-2.36 -0.61 0.18 -0.21 2.9 0.51 -0.72 0.32zm-8.36 -1.42l-19.07 0 -364.63 -63.73 1.08 -3.63 382.45 66.83 0.18 0.52 -0 0zm-439.37 0l-4.97 0 48.94 -56.72 7.09 -4.71 -1.02 3.44 -50.03 57.99 0 -0zm53.08 -67.29l0.53 -0.62 0.31 0.06 -0.84 0.56z"/>
   <path class="fil3" d="M817.86 1951.55l-0.21 -2.38 -0.4 -4.4 0 0 -8.09 -88.96 0 0 8.43 92.72 1.28 2.24 -0.3 0.24 -0.71 0.54 -0.01 0.01zm4.01 -3.12l-0.6 -1.06 -8.03 -88.27 0 0 7.75 85.24 49.76 -38.66 3 2.43 -51.88 40.31 -0 0 -0 0.01zm54.94 -42.68l-3 -2.43 39.39 -30.61 1.02 3.98 -37.4 29.05zm43.35 -33.68l-3.42 -2.1 481.8 -374.31c-2.18,2.61 -3.97,5.59 -5.26,8.85l-473.13 367.57 0 -0zm-107.39 -18.19l0 0 -4.2 -46.19 0 0 4.2 46.19zm-4.08 -3.31l0 -0 -4.12 -45.34 0 0 4.12 45.35zm-0.54 -47.56l0 0 -48.67 -535.4 48.67 535.4zm-4.01 -2.47l0 0 -50.32 -553.64 -0.09 -0.89 0 0 50.41 554.53 0 -0zm605.54 -313.53l69.28 -53.83 -720.92 -186.44 0 0 725.52 187.62 -64.01 49.73c-3.47,0.45 -6.8,1.44 -9.88,2.91l0.01 0zm73.47 -54.69l0 0 1.12 -1.51 -0.29 -0.22 3.35 0.86 -1.08 0.84 -1.97 -1.48 -1.12 1.51 -0 0z"/>
   <path class="fil3" d="M1491.92 1436.52l-8.35 -2.16 -725.52 -187.62 -0.18 -0.73 0.21 0 -1.93 -5.63 183.43 -217.12 544.4 407.33 0.29 0.22 -1.12 1.51 0.47 -1.82 -0.47 1.82 1.12 -1.51 1.97 1.48 5.67 4.24 0 -0.01zm-730.74 -192.86l713.2 184.44 -534.22 -399.71 -181.16 214.44 -0.18 0.21 2.36 0.61 0 0zm721.97 188.65l0 0z"/>
   <path class="fil3" d="M1032.13 2325.6l-106.58 -187.33 6.83 4.39 89.24 156.86 0 -0 -30.2 -118.88 4.64 2.99 32.57 128.23 0.06 0.25 -1.82 0.47 1.63 -0.93 -1.63 0.93 1.82 -0.47 3.43 13.5 0 0 0 -0zm-37.43 -147.34l-4.64 -2.99 -2.99 -11.74 4.94 4.16 2.69 10.58 -0 -0zm-4.27 -16.83l-4.95 -4.16 -50.75 -199.76 4.89 3.96 50.8 199.95 0.01 0zm-62.07 -25.84l-6.83 -4.4 -24.91 -43.78 8.31 6.99 23.43 41.18 0 0zm-28.79 -50.62l-8.31 -6.99 -34.76 -61.1 -26.78 -47.06 -10.85 -19.07 -1.28 -2.24 -8.43 -92.72 4.08 3.3 8.03 88.27 0.6 1.06 77.7 136.55 0 -0zm38.51 -129.59l-4.89 -3.96 -18.98 -74.73 -1.02 -3.98 -0.15 -0.61 4.61 2.84 20.43 80.44 -0 0zm-21.77 -85.69l-4.61 -2.84 -152.23 -599.26 48.67 535.4 -4.01 -2.47 -50.41 -554.53 4.14 0 0.18 0.73 0 0 158.26 622.97 -0.01 0.01zm-103.55 -15.82l-4.08 -3.31 -4.12 -45.35 4 2.47 4.2 46.19 -0 -0.01z"/>
   <path class="fil3" d="M1120.08 3732.55l-544.04 -445.35 462.81 -165.58 1.19 3.57 -456.46 163.31 534.91 437.88 66.12 -166.84 1.85 5.55 -66.36 167.47 -0 -0.01zm68.52 -172.9l-1.85 -5.55 219.93 -555 2.35 -5.92 -3.08 1.1 -181.42 64.91 -4.64 1.66 -176.32 63.08 -1.19 -3.57 173.24 -61.97 4.65 -1.67 98.23 -35.14 91.69 -28.93 -0.85 9.94 -2.02 5.09 -218.73 551.97 0 0zm226.35 -571.2l-0.54 -1.19 1.19 -0.42 -0.64 1.62 -0 0z"/>
   <polygon class="fil3" points="1348.16,3763.77 1344.38,3763.77 1352.82,3664.78 1353.17,3660.76 1362.66,3549.54 1362.66,3549.54 1363.3,3542.01 1363.3,3542.01 1406.76,3032.95 1409.35,3002.59 1410.2,2992.64 1318.51,3021.57 1215.62,3054.02 1210.76,3055.56 1038.87,3109.77 1042.39,3120.35 1043.58,3123.92 1186.75,3554.1 1188.6,3559.65 1256.53,3763.77 1252.57,3763.77 1186.44,3565.09 1184.6,3559.54 1040.04,3125.19 1038.84,3121.62 1034.09,3107.33 1206.35,3053 1211.21,3051.47 1406.74,2989.78 1406.74,2989.78 1406.74,2989.78 1410.83,2988.5 1413.78,2994.91 1367.61,3535.8 1367.61,3535.8 1366.97,3543.33 1366.97,3543.33 1356.79,3662.54 1356.45,3666.57 "/>
   <path class="fil3" d="M2880.88 2996.31l-12.3 -4.39 -8.3 -2.97 -54.77 -19.54 -286.24 -102.14 1.72 -3.38 213.33 76.12 122.45 43.69 -291.04 -207.88 1.72 -3.4 302.26 215.9 4.29 3.06 6.89 4.92 0.01 -0zm-365.2 -130.31l-76.04 -27.14c-0.92,-1.74 -1.93,-3.43 -3.01,-5.07l80.77 28.82 -1.72 3.38 -0.01 0zm-155.26 -55.4l-92.67 -33.06 -0.8 -0.29 0.63 -1.77 1.5 -1.13 -1.5 1.13 -0.63 1.77 -0.53 -0.19 -143.73 -191.64 4.2 -0.67 141.86 189.15 0 0 97.2 34.68c-1.89,0.59 -3.72,1.27 -5.53,2.02l-0 0zm202.2 -37l-295.7 -211.21 5.29 -0.85 292.13 208.66 -1.72 3.39 -0.01 0zm-442.49 -191.58l-199.06 -265.42 -0.68 -0.91 -3.36 -4.47 -5.45 -7.27 7.79 5.57 0.6 0.43 0.85 0.61 2.2 1.58 344.81 246.28 -5.29 0.84 -333.37 -238.11 175.63 234.18 19.5 26.01 -4.2 0.67 0.01 -0z"/>
   <path class="fil3" d="M2011.3 2829.61l-3.6 -2.92 -198.18 -160.54 0 0 -3.14 -2.55 0 0 -28.55 -23.12 5 -0.8 24.78 20.07 0 0 3.14 2.55 0 0 198.03 160.42 43.01 -225.97 3.95 -0.63 -43.64 229.3 -0.8 4.2 -0 -0.01zm-237.4 -192.31l-58.92 -47.72 0 0 -2.93 -2.37 -181.23 -146.8 1.61 -3.54 181.88 147.34 2.93 2.37 0 0 61.65 49.94 -4.99 0.8 -0.01 -0.01zm278.63 -44.49l3.08 -16.2 -181.75 -112.07 0 0 -3.3 -2.03 0 -0 -41.22 -25.42 0 0 -3.21 -1.98 -132.57 -81.74 -4.85 -2.99 -91.43 -56.37 1.57 -3.46 95.47 58.87 4.85 2.99 129.23 79.67 3.22 1.98 0 0 40.12 24.74 0 0 3.3 2.03 0.01 0 184.75 113.92 -3.31 17.42 -3.95 0.63 -0.01 0zm-524.73 -154.86l-57.22 -46.35 -3.89 -3.15 -527.06 -426.96 -4.89 -3.96 -60.98 -49.4 -3 -2.43 -57.51 -46.58 0 0 -4.08 -3.3 0 0 -246.85 -199.97 1.19 -1.46 -1.19 1.46 2.17 -3.06 239.66 147.77 0 0 4.01 2.47 0 0 103.56 63.86 4.61 2.84 0.43 0.27 3.42 2.1 497.38 306.68c2.93,4.15 6.48,7.83 10.52,10.9l-510.41 -314.71 -4.61 -2.84 -104.47 -64.41 0 0 -4 -2.47 0 0 -217.13 -133.88 221.25 179.22 0 0 4.08 3.31 0 0 61.04 49.44 3 2.43 56.38 45.68 4.89 3.96 533.55 432.2 3.9 3.15 53.89 43.65 -1.61 3.54 -0 0.01zm66.25 -145.94l-157.66 -97.21c4.46,2.18 9.31,3.7 14.4,4.46l144.83 89.3 -1.57 3.46 0.01 -0.01z"/>
   <path class="fil3" d="M2258.84 3218.33l-5.18 -0.51 -4.79 -0.47 -406.68 -39.52 -3.99 -0.39 -150.82 -14.65 -4.13 -0.4 -48.69 -4.73 -4.29 -0.42 0 0 -12.74 -1.24 -1.75 -3.95 16.95 1.64 0 0 4.29 0.42 44.85 4.36 4.13 0.4 153.93 14.96 4 0.39 403.11 39.18 -172.02 -143.25 -4.06 -3.38 -124.86 -103.98 -2.98 -2.48 -2.12 -1.77 -3.1 -2.58 -174.5 -145.31 0 0 -3.12 -2.6 0 0 -128.74 -107.21 -0 0 -2.9 -2.41 -34.38 -28.64 4.94 -0.78 31.71 26.41 2.9 2.41 0 0 127.72 106.36 0 0 3.12 2.6 0 0 176.8 147.22 3.1 2.58 0.27 0.23 2.98 2.48 128.43 106.95 4.06 3.38 172.53 143.67 1.34 1.11 -1.2 1.45 0.18 -1.87 -0.18 1.87 1.2 -1.45 1.56 1.3 3.13 2.61 -0.01 0.01zm-645.61 -62.74l-131.34 -12.76 -68.11 -147.93 -2.95 -6.41 -11.83 -25.7 -238.51 -518.04 -1.63 -3.54 -100.02 -217.24 0.46 0.3 2.23 -3.02 235.66 196.25 3.8 3.17 170.29 141.81 -1.61 3.55 -173.55 -144.52 -3.8 -3.17 -226.8 -188.87 97.2 211.09 1.63 3.54 249.17 541.18 0 0 0.91 1.97 0.54 1.19 0.33 0.72 0.1 0.22 2.42 5.25 66.61 144.65 127.07 12.35 1.75 3.95 -0 0zm-22.82 -489l-117.75 -98.06 1.61 -3.56 121.07 100.83 -4.94 0.79 0 0z"/>
   <path class="fil3" d="M2297.62 3763.77l-7.17 0 64.9 -40 0 4.42 -57.73 35.58 0 -0zm-505.4 0l-5.19 0 -31.63 -33.27 -2.6 -2.73 -116.93 -122.97 -2.77 -2.91 -42 -44.17 70.73 -15.27 4.67 -1.01 107.24 -23.15 1.56 3.51 -110.87 23.94 -4.67 1.01 -61.3 13.24 36.41 38.28 2.77 2.91 117.81 123.9 2.6 2.73 34.2 35.97 -0.01 -0zm566.89 -37.9l0 -4.42 123.03 -75.82c-1.89,2.37 -3.6,4.9 -5.09,7.56l-117.93 72.68 0 0zm156.46 -100.84l224.83 -138.56 2.77 2.71 -218.6 134.72c-3.07,0.14 -6.08,0.52 -9,1.13l0 0zm-736.53 -104.05l-1.56 -3.51 28.21 -6.09 3.71 -0.8 195.54 -42.22 6.65 -1.43 223.33 -48.22 -2.2 4.32 -225.88 48.77 -6.65 1.43 -189.54 40.93 -3.71 0.8 -27.91 6.02zm967.43 -33.82l-2.77 -2.72 170.44 -105.04 3.08 2.52 -170.75 105.23 -0 0zm174.14 -107.32l-3.08 -2.52 255.22 -157.28 -353.98 76.44 -3.72 -3.04 378.37 -81.71 -272.8 168.12 -0 -0zm-320.61 -36.13l-3.22 -3.15 213.56 -46.12 3.72 3.05 -214.06 46.22 0 -0z"/>
   <path class="fil3" d="M2237.45 3421.98l2.2 -4.33 115.7 -24.98 0 3.85 -117.9 25.46 -0 0zm121.66 -26.27l0 -3.85 233.26 -50.37 3.22 3.15 -236.48 51.07 0 -0z"/>
   <path class="fil3" d="M3028.89 3763.77l-5.38 0 -280.35 -274.58 -2.77 -2.71 -144.8 -141.82 -3.22 -3.15 -209.69 -205.38 1.79 -3.51 212.31 207.94 3.22 3.15 143.69 140.74 2.77 2.72 282.42 276.62 0 -0.01zm-669.78 0l-3.77 0 0 -573.85 3.77 -7.41 0 581.26zm-3.77 -582.16l0 -77.53 3.13 3.08 1.41 1.37 21.76 21.32 -1.79 3.52 -20.75 -20.32 0 61.16 -3.77 7.41 0 -0z"/>
   <path class="fil3" d="M2063.82 3763.77l-4.22 0 173.11 -340.75 2.2 -4.32 120.44 -237.08 3.77 -7.41 20.75 -40.84 1.79 -3.52 48.09 -94.65 2.02 -3.98 83.93 -165.2 0 0 1.72 -3.38 45.22 -89.02 1.72 -3.39 93.77 -184.59 3.26 1.89 -93.93 184.91 -1.72 3.4 -44.74 88.08 -1.72 3.38 0 0 -83.06 163.48 -2.02 3.98 -49.71 97.86 -1.79 3.51 -23.57 46.4 -3.77 7.41 -115.7 227.74 -2.2 4.33 -173.63 341.78 -0.01 0zm-177.34 0l-4.11 0 -49.84 -112.63 -1.64 -3.71 -55.6 -125.64 -1.56 -3.51 -45.92 -103.75 -2 -4.52 -103.72 -234.37 -1.78 -4.03 0 0 -7.09 -16.01 -1.75 -3.95 -37.15 -83.96 -2.32 -5.24 -78.55 -177.5 0 0 -1.74 -3.95 -0 0 -82.11 -185.54 1.41 -0.22 -0.42 0.92 3.43 1.56 1.45 -3.19 174.94 -27.93 4.94 -0.79 65.62 -10.48 5.34 -0.85 0 -0 107.59 -17.18 4.99 -0.8 38.08 -6.08 0 0 4.16 -0.66 0 0 231.41 -36.95 3.95 -0.63 63.65 -10.16 0 0 4.2 -0.67 138.23 -22.07 5.29 -0.84 269.11 -42.96 5.16 2.99 -269.91 43.09 -5.29 0.85 -140.03 22.36 -4.2 0.67 0 0 -66.95 10.69 -3.95 0.63 -231.93 37.03 0 0 -4.17 0.66 -0 0 -32.86 5.25 -5 0.8 -114.77 18.33 0 0 -5.34 0.85 -58.52 9.35 -4.94 0.78 -179.23 28.62 79.27 179.14 0 0 1.75 3.95 0 0 81.15 183.37 2.31 5.24 36.27 81.95 1.75 3.95 5.3 11.97 1.78 4.03 103.36 233.55 2 4.52 47.52 107.38 1.56 3.51 54.67 123.54 1.64 3.71 51.13 115.54 -0.01 -0.01zm776.6 -1179.61l-3.26 -1.89 7.79 -15.32 3.5 1.41 -8.03 15.8 0 0.01zm9.74 -19.17l-3.5 -1.41 36.18 -71.21 -152.32 24.32 -6.77 -2.73 154.27 -24.63 7.61 2.4 1.13 -3.59 -0.42 -0.13 3.2 -0.51 -39.37 77.5 -0 -0z"/>
   <path class="fil3" d="M1414.02 2697.72l-3.43 -1.56 0.42 -0.92 58.65 -129.2 1.61 -3.55 56.53 -124.54 1.61 -3.54 26.04 -57.36 1.88 -4.15 36.72 -80.89 1.57 -3.46 59.98 -132.13 517 162.74c-1.39,0.83 -2.73,1.72 -4.02,2.68l-510.93 -160.83 -58.8 129.53 -1.57 3.46 -35.46 78.13 -1.89 4.14 -27.5 60.57 -1.61 3.54 -56.56 124.58 -1.61 3.56 -57.19 125.99 -1.45 3.19 -0 -0zm1294.26 -205.99l-7.61 -2.4 -14.32 -4.5 8.12 -1.39 14.52 4.57 0.42 0.13 -1.13 3.59 -0 0zm-29.77 -9.37l-62.95 -19.82 4.41 -2.56 66.65 20.98 -8.11 1.39 -0 0zm-67.82 -21.35l-36.31 -11.43 2.23 -3.24 38.49 12.11 -4.41 2.56 0 -0zm-40.08 -12.61l-66.24 -20.85 -1.52 -4.42 70 22.04 -2.24 3.24zm-70.71 -22.25l-254.92 -80.24c-0.52,-1.54 -1.11,-3.04 -1.77,-4.51l255.17 80.32 1.52 4.43 0 -0z"/>
   <path class="fil3" d="M219.89 1679.97l-3.29 -2.12 6.83 -22.94 0 0 1.09 -3.66 30.78 -103.45 3.14 2.64 -30.5 102.5 -1.09 3.66 0 0 -6.95 23.36 -0.01 0zm130.25 -437.72l-3.93 0 17.25 -57.99 1.02 -3.44 -7.09 4.71 -85.45 56.72 -6.8 0 101.37 -67.29 0.84 -0.56 3.7 -2.46 -0.87 2.95 -1.08 3.63 -18.96 63.73 -0 0z"/>
   <path class="fil3" d="M139.46 1950.29l-139.45 -41.6 0 -3.93 136.92 40.84 14.01 -47.08 1.85 -6.2 62.7 -210.72 3.29 2.12 -63.89 214.73 -1.85 6.2 -13.04 43.83 -0.54 1.81 -0 0.01zm-1.27 -2.35l0 0 0.54 -1.8 -0.54 1.8zm121.42 -401.44l-3.14 -2.65 26.79 -90.02 1.41 -4.73 60.44 -203.1 3.93 0 -59.85 201.12 -1.41 4.73 -28.16 94.65 0 -0.01zm-196.69 -165.51l-3 -2.52 79.17 -52.55 3.3 2.32 -79.47 52.75zm150.06 -99.61l-0.98 -3.87 47.49 -31.52 6.8 0 -53.31 35.39z"/>
   <path class="fil3" d="M0 1422.76l0 -4.52 56.64 -37.6 3 2.52 -59.64 39.59 0 0zm145.74 -96.75l-3.3 -2.32 5.59 -3.71 3 2.52 -5.3 3.51 0 0zm8.56 -5.68l-3 -2.52 57.37 -38.08 0.98 3.87 -55.35 36.74 -0 -0z"/>
   <path class="fil3" d="M0 1513.04l0 -4.18 132.6 -64.29 3.15 2.66 -7.1 3.44 -128.65 62.38 0 -0zm139.46 -67.61l-3.15 -2.66 7.1 -3.44 84.5 -40.98 11.34 -1.69 0.28 0.24 -100.07 48.52 -0 0.01zm-38.01 -31.99l0 0 68.1 -10.17 5.71 -0.85 59.64 -8.9 0 0 -133.44 19.93 -0 -0.01zm142.05 -18.45l-2.04 -1.43 -0.25 -0.98 10.5 -1.57 -8.21 3.98 0 0z"/>
   <polygon class="fil3" points="0,1428.58 0,1428.58 96.48,1414.17 96.48,1414.17 "/>
   <polygon class="fil3" points="96.48,1414.17 96.48,1414.17 59.64,1383.17 56.64,1380.65 0,1333 0,1328.08 59.91,1378.48 62.91,1381.01 101.45,1413.43 101.45,1413.43 "/>
   <polygon class="fil3" points="1059.3,2224.29 1058.83,2223.99 996.06,2183.62 991.42,2180.64 932.38,2142.67 932.38,2142.67 925.55,2138.27 883.07,2110.95 877.75,2107.53 762.63,2033.49 759.47,2031.45 218.78,1683.72 215.48,1681.6 41.89,1569.96 36.78,1566.67 32.69,1564.04 31.5,1563.28 0,1543.02 0,1538.55 33.03,1559.79 33.98,1560.4 36.82,1562.23 38.73,1563.45 39.91,1564.21 216.6,1677.85 219.89,1679.97 761.6,2028.36 764.77,2030.4 875.51,2101.62 880.83,2105.04 921.53,2131.21 928.36,2135.6 928.36,2135.61 990.06,2175.29 994.7,2178.27 1036.63,2205.23 992.02,2167.7 987.08,2163.54 904.93,2094.43 904.93,2094.43 896.62,2087.43 863.7,2059.73 857.8,2054.76 788.32,1996.3 785.43,1993.87 610.23,1846.46 610.23,1846.46 598.11,1836.25 598.11,1836.25 258.44,1550.44 255.29,1547.8 191.56,1494.17 188.35,1491.47 136.24,1447.63 135.75,1447.22 132.6,1444.57 100.32,1417.41 105.29,1416.66 135.82,1442.36 136.31,1442.77 139.46,1445.42 192.19,1489.78 195.4,1492.49 256.46,1543.87 259.6,1546.51 612.31,1843.28 612.31,1843.28 624.44,1853.49 624.44,1853.49 787.58,1990.75 790.47,1993.19 855.08,2047.55 860.97,2052.51 891.26,2078 899.56,2084.98 899.56,2084.99 985.49,2157.28 990.43,2161.44 1061.52,2221.26 1061.52,2221.26 "/>
   <path class="fil3" d="M200.1 1246.01l-134.22 0 -4.48 -3.77 137.74 0 0.96 3.77 -0 0zm-140.07 0l-27.73 0 -5.34 -3.77 28.59 0 4.48 3.77zm43.01 -439.47l149.55 -314.9 4.19 -0.04 -148.46 312.62 -5.27 2.33zm434.89 -192.09l-42.87 -125.25 3.96 -0.04 42.36 123.77 -3.46 1.53 0 0z"/>
   <polygon class="fil3" points="0,1032.27 0,1023.5 93.54,826.54 94.99,832.26 "/>
   <path class="fil3" d="M758.08 1246.01l-4.36 0 -7.23 0 -542.51 0 -0.96 -3.77 549.79 0 -0.18 -0.52 -76.98 -224.9c0.77,0.21 1.57,0.38 2.37,0.51 0.62,0.1 1.24,0.18 1.86,0.24l76.26 222.79 1.93 5.63 -0 0zm-732.31 0l-25.77 0 0 -3.77 20.43 0 5.34 3.77zm636.83 -267.31l-123.47 -360.68 3.46 -1.53 122.89 359.02c-1.05,0.98 -2.01,2.04 -2.88,3.18l0 -0zm-565.09 -151.77l-1.45 -5.72 4.49 -9.47 5.27 -2.33 -8.32 17.51 -0 0zm156.87 -339.07l134.8 -283.86 7.55 -8 1.5 0.16 -0.23 -1.51 0.15 -0.16 99.57 290.9 -3.97 0.04 -98.04 -286.42 -137.15 288.8 -4.19 0.04 0.01 0.01z"/>
   <polygon class="fil3" points="34.71,579.73 33.62,575.41 111.3,493.07 116.52,493.02 "/>
   <path class="fil3" d="M0 616.52l0 -5.48 30.55 -32.39 1.1 4.32 -31.66 33.55 0 0.01zm114.88 -127.25l277.16 -293.77 4.69 0.51 -7.55 8 -269.08 285.21 -5.22 0.05 -0 0zm283.12 -294.6l-0.35 -2.34 2.32 0.25 -1.82 1.92 -0.15 0.16z"/>
   <polygon class="fil3" points="110.69,160.99 0,148.91 0,148.91 "/>
   <path class="fil3" d="M398.23 196.17l-1.5 -0.16 -4.69 -0.51 -392.04 -42.8 0 -3.79 110.68 12.08 283.09 30.91 -28.97 -191.9 3.8 0 29.04 192.32 0.35 2.34 0.23 1.51 0 0zm-398.23 -193.94l0 -2.23 7.29 0 -7.29 2.23z"/>
   <path class="fil3" d="M28.91 843.4c-0.88,-1 -1.81,-1.97 -2.78,-2.89l63.8 -28.18 0.94 3.7 -61.96 27.37 -0 0zm65.45 -28.91l-0.94 -3.7 9.62 -4.25 5.27 -2.33 429.62 -189.77 3.46 -1.53 287.74 -127.1 -330.11 3.34 -3.96 0.04 -238.28 2.4 -4.19 0.04 -136.06 1.38 -5.22 0.05 -98.34 0.99 -0.95 -3.76 102.89 -1.05 5.22 -0.05 134.28 -1.35 4.19 -0.04 235.19 -2.38 3.97 -0.04 340.5 -3.44 9.14 -0.09 -304.77 134.62 -3.46 1.53 -433.31 191.4 -5.27 2.33 -6.2 2.73 -0.02 0.01z"/>
   <polygon class="fil3" points="0,494.2 0,490.43 8.13,490.35 9.08,494.1 "/>
   <polygon class="fil3" points="243.07,1399.88 239.53,1396.9 239.25,1396.66 242.15,1396.23 "/>
   <polygon class="fil3" points="241.46,1393.54 204.61,1367.55 202.15,1365.48 151.04,1322.51 148.03,1319.98 60.03,1246.01 55.56,1242.24 0,1195.55 0,1190.63 61.4,1242.24 65.88,1246.01 151.3,1317.81 154.31,1320.34 204.61,1362.62 207.49,1365.05 236.55,1389.47 225.14,1344.59 224.01,1340.13 209.65,1283.6 208.67,1279.74 200.1,1246.01 199.14,1242.24 94.99,832.26 93.54,826.54 90.87,816.03 89.93,812.34 31.66,582.97 30.56,578.65 9.08,494.1 8.13,490.35 2.14,466.78 0,466.6 0,462.82 5.13,463.27 12,490.31 12.95,494.06 33.62,575.41 34.71,579.73 93.42,810.79 94.36,814.49 96.07,821.22 97.52,826.93 203.03,1242.24 203.98,1246.01 211.99,1277.53 212.97,1281.4 227.01,1336.65 228.14,1341.11 241.21,1392.56 "/>
   <polygon class="fil3" points="0,1432.38 0,1428.58 96.48,1414.17 101.45,1413.43 234.89,1393.5 202.59,1370.73 199.5,1368.55 142.38,1328.25 139.08,1325.93 25.78,1246.01 20.44,1242.24 0,1227.83 0,1223.22 26.97,1242.24 32.31,1246.01 142.44,1323.7 145.74,1326.02 201.97,1365.68 204.61,1367.55 241.46,1393.54 243.5,1394.98 244.73,1395.84 242.15,1396.23 239.25,1396.66 227.91,1398.36 171.48,1406.78 165.78,1407.63 105.29,1416.66 100.32,1417.41 "/>
  </g>
  <path class="fil2" d="M2980.69 1085.72c-0.68,-1.22 -1.25,-2.51 -1.68,-3.84l24.34 -28.82c0.1,0.02 0.21,0.03 0.31,0.05 1.3,0.21 2.56,0.54 3.77,0.97l-26.73 31.64 0 0z"/>
  <path class="fil2" d="M2132.04 1256.21l-25.22 -21.22c-0.14,-1.59 -0.12,-3.2 0.08,-4.85l29.91 25.17c-1.54,0.46 -3.13,0.77 -4.77,0.9l0 0z"/>
  <path class="fil2" d="M2077.18 1108.53c-0.69,-0.14 -1.37,-0.3 -2.04,-0.49l-1.42 -1 12.65 -26.65 2.98 2.5 -12.18 25.64 0 0zm13.84 -29.15l-2.98 -2.5 16.92 -35.62c1.08,0.69 2.11,1.45 3.1,2.24l-17.04 35.88 -0 -0z"/>
  <path class="fil2" d="M2109.57 1099.89l-20.21 -16.99 -2.98 -2.5 -32.91 -27.66c0.67,-1.08 1.4,-2.11 2.17,-3.1l32.41 27.25 2.98 2.5 21.23 17.85c-0.85,0.93 -1.74,1.82 -2.69,2.66l0 -0z"/>
  <path class="fil2" d="M2075.14 1108.04c-8.62,-2.33 -15.81,-7.62 -20.65,-14.56l19.23 13.57 1.42 1 0 0z"/>
  <path class="fil2" d="M679.89 1017.58c-0.62,-0.06 -1.24,-0.14 -1.86,-0.24 -0.81,-0.13 -1.6,-0.3 -2.37,-0.51l-13.05 -38.12c0.87,-1.14 1.83,-2.21 2.88,-3.18l14.4 42.06 0 0z"/>
  <path class="fil2" d="M1498.74 1321.1c-2.14,-1.13 -4.1,-2.52 -5.85,-4.14l-8.89 -20.86c0.03,-1.3 0.15,-2.61 0.37,-3.93 0.18,-1.07 0.42,-2.12 0.71,-3.14l13.66 32.07z"/>
  <path class="fil2" d="M1393.28 1504.51c1.29,-3.26 3.08,-6.23 5.26,-8.85l11.14 -8.65c3.08,-1.47 6.41,-2.47 9.88,-2.91l-26.27 20.41 -0 0z"/>
  <path class="fil2" d="M3043.29 1822.82c-0.52,-1.21 -0.97,-2.45 -1.35,-3.71l16.03 -12.45 1.01 3.98 -15.69 12.19 -0 0zm21.64 -16.81l-3.42 -2.11 31.44 -24.43c1.14,0.68 2.23,1.42 3.27,2.22l-31.29 24.31 0 0.01z"/>
  <path class="fil2" d="M3071.25 1843.65c-0.58,-0.07 -1.16,-0.15 -1.74,-0.25 -0.79,-0.12 -1.56,-0.28 -2.33,-0.46l-8.21 -32.31 -1.01 -3.98 -0.16 -0.61 4.61 2.84 8.83 34.77 0 0zm-10.17 -40.01l-4.61 -2.85 -4.42 -17.4c1.02,-0.92 2.11,-1.77 3.23,-2.56l5.79 22.8z"/>
  <path class="fil2" d="M3100.8 1832.55l-38.39 -23.66 -4.61 -2.84 -15 -9.25c0.46,-1.19 0.98,-2.34 1.56,-3.46l12.11 7.47 4.61 2.85 0.42 0.26 3.42 2.11 38.27 23.6c-0.75,1.02 -1.55,2.01 -2.4,2.94l-0 -0.01z"/>
  <path class="fil2" d="M2848.94 3179.29c3.37,-2.66 7.57,-4.23 12.04,-4.31l-12.04 4.31z"/>
  <g>
   <path class="fil2" d="M2702.43 3221.78c0,-12.23 9.91,-22.14 22.14,-22.14 12.23,0 22.14,9.91 22.14,22.14 0,12.22 -9.91,22.14 -22.14,22.14 -12.23,0 -22.14,-9.92 -22.14,-22.14z"/>
   <path class="fil2" d="M3780.85 3042.49c0,-16.72 13.55,-30.26 30.26,-30.26 16.71,0 30.26,13.55 30.26,30.26 0,16.72 -13.55,30.26 -30.26,30.26 -16.72,0 -30.26,-13.55 -30.26,-30.26z"/>
   <path class="fil2" d="M3429.19 3039.66c0,-12.89 10.46,-23.36 23.37,-23.36 12.9,0 23.36,10.46 23.36,23.36 0,12.91 -10.46,23.37 -23.36,23.37 -12.9,0 -23.37,-10.46 -23.37,-23.37z"/>
   <path class="fil2" d="M3533.71 2923.94c0,-12.9 10.46,-23.36 23.36,-23.36 12.9,0 23.37,10.46 23.37,23.36 0,12.9 -10.46,23.36 -23.37,23.36 -12.9,0 -23.36,-10.46 -23.36,-23.36z"/>
   <path class="fil2" d="M3590.91 3075c0,-20.44 16.57,-37 37.01,-37 20.44,0 37.01,16.56 37.01,37 0,20.44 -16.57,37.01 -37.01,37.01 -20.43,0 -37.01,-16.57 -37.01,-37.01z"/>
   <path class="fil2" d="M3239.4 3663.4c0,-12.23 9.91,-22.14 22.15,-22.14 12.23,0 22.14,9.91 22.14,22.14 0,12.22 -9.91,22.14 -22.14,22.14 -12.23,0 -22.15,-9.91 -22.15,-22.14z"/>
   <path class="fil2" d="M5304.36 3152.61c0,-16.01 12.98,-29 29.01,-29 16.03,0 29.01,12.99 29.01,29 0,16.02 -12.98,29.01 -29.01,29.01 -16.02,0 -29.01,-12.99 -29.01,-29.01z"/>
   <path class="fil2" d="M3532.77 2630.88c0,-13.42 10.88,-24.3 24.3,-24.3 13.42,0 24.3,10.88 24.3,24.3 0,13.42 -10.88,24.3 -24.3,24.3 -13.42,0 -24.3,-10.88 -24.3,-24.3z"/>
   <path class="fil2" d="M5000.6 2923.94c0,-13.42 10.88,-24.3 24.26,-24.3 13.43,0 24.31,10.88 24.31,24.3 0,13.43 -10.88,24.3 -24.31,24.3 -13.39,0 -24.26,-10.87 -24.26,-24.3z"/>
   <path class="fil2" d="M4381.47 2712.71c0,-15.24 12.35,-27.59 27.59,-27.59 15.25,0 27.59,12.35 27.59,27.59 0,15.25 -12.34,27.6 -27.59,27.6 -15.24,0 -27.59,-12.35 -27.59,-27.6z"/>
   <path class="fil2" d="M4129.3 2760.1c0,-15.24 12.35,-27.6 27.59,-27.6 15.24,0 27.59,12.36 27.59,27.6 0,15.24 -12.35,27.6 -27.59,27.6 -15.24,0 -27.59,-12.36 -27.59,-27.6z"/>
   <path class="fil2" d="M3773.82 2092.66c0,-15.24 12.35,-27.6 27.59,-27.6 15.24,0 27.59,12.35 27.59,27.6 0,15.24 -12.35,27.59 -27.59,27.59 -15.24,0 -27.59,-12.35 -27.59,-27.59z"/>
   <path class="fil2" d="M4185.24 2211.21c0,-15.24 12.35,-27.6 27.59,-27.6 15.24,0 27.59,12.36 27.59,27.6 0,15.24 -12.34,27.6 -27.59,27.6 -15.24,0 -27.59,-12.36 -27.59,-27.6z"/>
   <path class="fil2" d="M4174.88 2528.78c0,-18.1 14.68,-32.77 32.78,-32.77 18.1,0 32.74,14.67 32.74,32.77 0,18.1 -14.64,32.77 -32.74,32.77 -18.1,0 -32.78,-14.67 -32.78,-32.77z"/>
   <path class="fil2" d="M4458.86 3042.49c0,-18.62 15.13,-33.71 33.73,-33.71 18.63,0 33.71,15.09 33.71,33.71 0,18.63 -15.09,33.71 -33.71,33.71 -18.6,0 -33.73,-15.09 -33.73,-33.71z"/>
   <path class="fil2" d="M2495.97 2509.61c0,-19.13 15.51,-34.64 34.65,-34.64 19.14,0 34.65,15.51 34.65,34.64 0,19.14 -15.52,34.65 -34.65,34.65 -19.14,0 -34.65,-15.51 -34.65,-34.65z"/>
   <path class="fil2" d="M3185.08 2156.64c0,-19.14 15.51,-34.65 34.65,-34.65 19.14,0 34.65,15.51 34.65,34.65 0,19.14 -15.51,34.65 -34.65,34.65 -19.14,0 -34.65,-15.52 -34.65,-34.65z"/>
   <path class="fil2" d="M2652.91 1577.96c0,-24.85 20.15,-45 45.01,-45 24.85,0 45,20.15 45,45 0,24.85 -20.16,45 -45,45 -24.86,0 -45.01,-20.16 -45.01,-45z"/>
   <path class="fil2" d="M2876.39 1178.06c0,-13.16 10.67,-23.83 23.84,-23.83 13.16,0 23.83,10.67 23.83,23.83 0,13.16 -10.67,23.83 -23.83,23.83 -13.17,0 -23.84,-10.67 -23.84,-23.83z"/>
   <path class="fil2" d="M3067.4 959.76c0,-9.51 7.72,-17.24 17.24,-17.24 9.53,0 17.24,7.72 17.24,17.24 0,9.52 -7.72,17.25 -17.24,17.25 -9.52,0 -17.24,-7.72 -17.24,-17.25z"/>
   <path class="fil2" d="M2495.31 1107.49c0,-11.08 8.99,-20.06 20.07,-20.06 11.08,0 20.06,8.98 20.06,20.06 0,11.08 -8.98,20.06 -20.06,20.06 -11.08,0 -20.07,-8.99 -20.07,-20.06z"/>
   <path class="fil2" d="M2155.63 1494.21c0,-14.19 11.52,-25.7 25.72,-25.7 14.19,0 25.7,11.51 25.7,25.7 0,14.2 -11.51,25.72 -25.7,25.72 -14.2,0 -25.72,-11.51 -25.72,-25.72z"/>
   <path class="fil2" d="M2016.37 1178.06c0,-14.19 11.52,-25.71 25.72,-25.71 14.19,0 25.71,11.51 25.71,25.71 0,14.2 -11.51,25.71 -25.71,25.71 -14.2,0 -25.72,-11.51 -25.72,-25.71z"/>
   <path class="fil2" d="M2515.06 127.97c0,-14.2 11.52,-25.7 25.72,-25.7 14.2,0 25.71,11.5 25.71,25.7 0,14.2 -11.51,25.72 -25.71,25.72 -14.2,0 -25.72,-11.52 -25.72,-25.72z"/>
   <path class="fil2" d="M1736.23 34.13c0,-15.48 9.59,-28.73 23.15,-34.13l27.18 0c13.56,5.4 23.14,18.65 23.14,34.13 0,20.29 -16.45,36.74 -36.73,36.74 -20.28,0 -36.74,-16.45 -36.74,-36.74z"/>
   <path class="fil2" d="M1143.44 316.15c0,-20.29 16.45,-36.73 36.74,-36.73 20.28,0 36.73,16.45 36.73,36.73 0,20.29 -16.45,36.74 -36.73,36.74 -20.29,0 -36.74,-16.45 -36.74,-36.74z"/>
   <path class="fil2" d="M2100.37 393.3c0,-23.4 18.99,-42.38 42.39,-42.38 23.41,0 42.38,18.97 42.38,42.38 0,23.41 -18.97,42.39 -42.38,42.39 -23.4,0 -42.39,-18.98 -42.39,-42.39z"/>
   <path class="fil2" d="M2957.31 417.78c0,-14.2 11.52,-25.7 25.72,-25.7 14.19,0 25.71,11.5 25.71,25.7 0,14.2 -11.51,25.71 -25.71,25.71 -14.2,0 -25.72,-11.51 -25.72,-25.71z"/>
   <path class="fil2" d="M1972.1 1381.31c0,-16.35 13.25,-29.59 29.6,-29.59 16.35,0 29.6,13.25 29.6,29.59 0,16.35 -13.25,29.6 -29.6,29.6 -16.35,0 -29.6,-13.26 -29.6,-29.6z"/>
   <path class="fil2" d="M3587.58 1358c0,-17.72 14.36,-32.08 32.08,-32.08 17.72,0 32.08,14.37 32.08,32.08 0,17.71 -14.37,32.08 -32.08,32.08 -17.72,0 -32.08,-14.37 -32.08,-32.08z"/>
   <path class="fil2" d="M3062.54 2190.52c0,-10.12 8.21,-18.34 18.35,-18.34 10.12,0 18.34,8.21 18.34,18.34 0,10.12 -8.21,18.34 -18.34,18.34 -10.13,0 -18.35,-8.21 -18.35,-18.34z"/>
   <path class="fil2" d="M2853.65 2312.83c0,-10.12 8.21,-18.34 18.35,-18.34 10.12,0 18.34,8.21 18.34,18.34 0,10.12 -8.21,18.34 -18.34,18.34 -10.14,0 -18.35,-8.21 -18.35,-18.34z"/>
   <path class="fil2" d="M1727.97 959.76c0,-14.76 12.57,-26.72 28.06,-26.72 15.49,0 28.06,11.96 28.06,26.72 0,14.76 -12.56,26.73 -28.06,26.73 -15.5,0 -28.06,-11.97 -28.06,-26.73z"/>
   <path class="fil2" d="M3406.23 3570.56l4.68 0c0,-9.35 3.78,-17.77 9.91,-23.9 6.13,-6.12 14.55,-9.9 23.9,-9.9 9.35,0 17.77,3.77 23.9,9.9 6.12,6.14 9.9,14.56 9.9,23.9 -0,9.35 -3.78,17.77 -9.9,23.9 -6.13,6.12 -14.56,9.9 -23.9,9.9 -9.35,0 -17.77,-3.77 -23.9,-9.9 -6.13,-6.14 -9.9,-14.56 -9.91,-23.9l-9.35 0c0,23.84 19.32,43.16 43.16,43.16 23.84,-0 43.16,-19.32 43.16,-43.16 -0,-23.84 -19.33,-43.16 -43.16,-43.16 -23.84,0 -43.16,19.32 -43.16,43.16l4.68 0 -0 0z"/>
   <path class="fil2" d="M3444.71 3546.11c13.48,0 24.45,10.97 24.45,24.45 0,13.48 -10.96,24.44 -24.45,24.44 -13.48,0 -24.45,-10.96 -24.45,-24.44 0,-13.48 10.97,-24.45 24.45,-24.45z"/>
   <path class="fil2" d="M3142.77 3042.49l4.68 0c0,-9.35 3.77,-17.77 9.9,-23.9 6.13,-6.13 14.56,-9.9 23.9,-9.9 9.35,0 17.77,3.77 23.91,9.9 6.12,6.13 9.9,14.55 9.9,23.9 -0,9.35 -3.78,17.77 -9.9,23.9 -6.13,6.12 -14.56,9.9 -23.91,9.9 -9.34,-0 -17.76,-3.78 -23.9,-9.9 -6.13,-6.13 -9.9,-14.56 -9.9,-23.9l-9.35 0c0,23.84 19.32,43.16 43.15,43.16 23.84,-0 43.16,-19.32 43.16,-43.16 0,-23.84 -19.32,-43.16 -43.16,-43.16 -23.83,0 -43.15,19.33 -43.15,43.16l4.68 0 -0 0z"/>
   <path class="fil2" d="M3181.24 3018.05c13.49,0 24.45,10.96 24.45,24.44 0,13.48 -10.96,24.45 -24.45,24.45 -13.48,0 -24.44,-10.97 -24.44,-24.45 0,-13.48 10.97,-24.44 24.44,-24.44z"/>
   <path class="fil2" d="M3197.28 3733.17l3.3 0c0,-6.6 2.67,-12.55 6.99,-16.87 4.33,-4.32 10.28,-6.99 16.88,-6.99 6.6,0 12.55,2.67 16.88,6.99 4.32,4.33 6.98,10.28 6.99,16.87 -0,6.61 -2.67,12.55 -6.99,16.88 -4.33,4.32 -10.28,6.99 -16.88,6.99 -6.6,0 -12.55,-2.67 -16.88,-6.99 -4.32,-4.33 -6.99,-10.28 -6.99,-16.88l-6.61 0c0,16.83 13.64,30.48 30.47,30.48 16.83,-0 30.47,-13.65 30.47,-30.48 0,-16.83 -13.65,-30.47 -30.47,-30.47 -16.83,0 -30.47,13.64 -30.47,30.47l3.3 0 0 0z"/>
   <path class="fil2" d="M3224.46 3715.91c9.52,0 17.26,7.75 17.26,17.26 0,9.52 -7.75,17.27 -17.26,17.27 -9.51,0 -17.26,-7.75 -17.26,-17.27 0,-9.51 7.75,-17.26 17.26,-17.26z"/>
   <path class="fil2" d="M4815.16 2420.95l4.66 0c0,-9.35 3.76,-17.77 9.89,-23.91 6.13,-6.12 14.55,-9.9 23.91,-9.9 9.36,0 17.77,3.78 23.91,9.9 6.13,6.13 9.89,14.56 9.89,23.91 0,9.35 -3.76,17.76 -9.89,23.9 -6.13,6.12 -14.55,9.89 -23.91,9.9 -9.36,-0 -17.77,-3.77 -23.91,-9.9 -6.13,-6.14 -9.89,-14.56 -9.89,-23.9l-9.4 0c0.04,23.84 19.38,43.16 43.2,43.16 23.86,0 43.16,-19.32 43.16,-43.16 0,-23.84 -19.29,-43.16 -43.16,-43.16 -23.82,0 -43.16,19.32 -43.2,43.16l4.75 0 -0.01 0z"/>
   <path class="fil2" d="M4853.62 2396.5c13.48,0 24.44,10.97 24.44,24.45 0,13.48 -10.97,24.45 -24.44,24.45 -13.48,0 -24.44,-10.97 -24.44,-24.45 0,-13.48 10.97,-24.45 24.44,-24.45z"/>
   <path class="fil2" d="M3712.39 2225.64l3.73 0c0,-7.46 3.01,-14.18 7.9,-19.07 4.89,-4.89 11.61,-7.91 19.07,-7.91 7.46,0 14.18,3.02 19.08,7.91 4.88,4.89 7.89,11.61 7.89,19.07 0,7.46 -3.01,14.18 -7.89,19.07 -4.89,4.89 -11.62,7.9 -19.08,7.9 -7.46,0 -14.18,-3.01 -19.08,-7.9 -4.88,-4.89 -7.89,-11.61 -7.89,-19.07l-7.47 0c0,19.02 15.41,34.44 34.44,34.44 19.02,0 34.45,-15.42 34.45,-34.44 0,-19.02 -15.43,-34.44 -34.45,-34.44 -19.03,0 -34.44,15.43 -34.44,34.44l3.73 0 0 0z"/>
   <path class="fil2" d="M3743.09 2206.13c10.75,0 19.51,8.76 19.51,19.51 0,10.75 -8.75,19.5 -19.51,19.5 -10.76,0 -19.5,-8.75 -19.5,-19.5 0,-10.75 8.75,-19.51 19.5,-19.51z"/>
   <path class="fil2" d="M2342.91 2052.19l3.53 0c0,-7.05 2.85,-13.4 7.47,-18.03 4.62,-4.62 10.98,-7.46 18.03,-7.46 7.05,0 13.4,2.85 18.03,7.46 4.62,4.62 7.47,10.98 7.47,18.03 -0,7.05 -2.85,13.4 -7.47,18.03 -4.62,4.62 -10.97,7.46 -18.03,7.46 -7.05,0 -13.4,-2.84 -18.03,-7.46 -4.62,-4.62 -7.47,-10.97 -7.47,-18.03l-7.06 0c0,17.98 14.57,32.55 32.55,32.55 17.98,0 32.55,-14.57 32.55,-32.55 0,-17.98 -14.58,-32.55 -32.55,-32.55 -17.98,0 -32.55,14.57 -32.55,32.55l3.53 0 0.01 0z"/>
   <path class="fil2" d="M2371.93 2033.76c10.17,0 18.44,8.27 18.44,18.44 0,10.16 -8.27,18.43 -18.44,18.43 -10.16,0 -18.44,-8.27 -18.44,-18.43 0,-10.17 8.27,-18.44 18.44,-18.44z"/>
   <path class="fil2" d="M1494.48 1439.01l5.41 0c0,-10.81 4.37,-20.55 11.45,-27.65 7.1,-7.08 16.84,-11.45 27.65,-11.45 10.81,0 20.55,4.37 27.65,11.45 7.08,7.1 11.45,16.83 11.45,27.65 0,10.81 -4.37,20.55 -11.45,27.65 -7.1,7.08 -16.84,11.45 -27.65,11.45 -10.81,0 -20.55,-4.37 -27.65,-11.45 -7.08,-7.1 -11.45,-16.84 -11.45,-27.65l-10.83 0c0,27.57 22.35,49.92 49.92,49.92 27.57,-0 49.92,-22.35 49.92,-49.92 -0,-27.57 -22.35,-49.91 -49.92,-49.92 -27.57,0 -49.91,22.35 -49.92,49.92l5.41 0 0.01 0z"/>
   <path class="fil2" d="M1538.99 1410.74c15.59,0 28.27,12.68 28.27,28.27 0,15.59 -12.68,28.27 -28.27,28.27 -15.59,0 -28.27,-12.68 -28.27,-28.27 0,-15.59 12.68,-28.27 28.27,-28.27z"/>
   <path class="fil2" d="M2349.53 1328.61l4.26 0c0,-8.51 3.44,-16.18 9.02,-21.77 5.59,-5.57 13.26,-9.02 21.78,-9.02 8.51,0 16.18,3.45 21.77,9.02 5.58,5.59 9.02,13.26 9.02,21.77 0,8.51 -3.44,16.19 -9.02,21.77 -5.58,5.58 -13.26,9.02 -21.77,9.02 -8.52,0 -16.19,-3.44 -21.78,-9.02 -5.57,-5.58 -9.01,-13.25 -9.02,-21.77l-8.52 0c0,21.72 17.6,39.31 39.31,39.31 21.71,-0 39.3,-17.6 39.31,-39.31 -0,-21.71 -17.6,-39.31 -39.31,-39.31 -21.72,0 -39.31,17.6 -39.31,39.31l4.26 0 -0 0z"/>
   <path class="fil2" d="M2384.59 1306.35c12.27,0 22.26,9.99 22.26,22.26 0,12.28 -9.99,22.26 -22.26,22.26 -12.28,0 -22.27,-9.98 -22.27,-22.26 0,-12.28 9.99,-22.26 22.27,-22.26z"/>
   <path class="fil2" d="M1084.53 435.7l4.31 0c0,-8.6 3.48,-16.36 9.11,-22.01 5.64,-5.63 13.39,-9.11 22.01,-9.11 8.6,0 16.35,3.48 22,9.11 5.64,5.65 9.11,13.4 9.11,22.01 0,8.6 -3.47,16.36 -9.11,22.01 -5.64,5.64 -13.39,9.11 -22,9.11 -8.61,0 -16.36,-3.47 -22.01,-9.11 -5.63,-5.65 -9.11,-13.4 -9.11,-22.01l-8.61 0c0,21.94 17.79,39.73 39.73,39.73 21.94,-0 39.73,-17.79 39.73,-39.73 -0,-21.95 -17.79,-39.73 -39.73,-39.73 -21.95,0 -39.73,17.79 -39.73,39.73l4.3 0z"/>
   <path class="fil2" d="M1119.96 413.2c12.41,0 22.5,10.09 22.5,22.5 0,12.41 -10.09,22.5 -22.5,22.5 -12.41,0 -22.51,-10.09 -22.51,-22.5 0,-12.41 10.09,-22.5 22.51,-22.5z"/>
  </g>
  <path class="fil2" d="M4129.23 368.29c-3.12,0 -6.17,-0.36 -9.1,-1.05l30.6 -5.25c-6.17,3.97 -13.51,6.28 -21.42,6.29 -0.03,0 -0.08,0 -0.08,0l0 0z"/>
  <path class="fil2" d="M2219.94 688.15l-21.18 -83.36c1.51,0.66 2.99,1.39 4.44,2.18l19.6 77.15c-0.9,1.39 -1.85,2.73 -2.86,4.02z"/>
  <path class="fil2" d="M2465.69 648.35c-1.11,-0.86 -2.2,-1.75 -3.26,-2.68l110.27 -48.7c-0.03,1.41 -0.1,2.82 -0.22,4.21l-106.79 47.17z"/>
  <path class="fil2" d="M2542.39 573.76c-1.2,0 -2.42,-0.1 -3.64,-0.3 -12.07,-2 -20.23,-13.39 -18.24,-25.46 1.02,-6.17 4.5,-11.32 9.28,-14.62 13.69,5.19 25.23,14.79 32.89,27.05 -3.47,8.01 -11.45,13.31 -20.28,13.31l0 0z"/>
  <path class="fil4" d="M0 856.17l0 -4.11 26.13 -11.54c0.97,0.92 1.89,1.89 2.78,2.89l-28.91 12.76 0 -0z"/>
  <path class="fil2" d="M2244.99 2345.9l-76.41 -24.05c1.29,-0.96 2.64,-1.86 4.02,-2.68l70.62 22.23c0.66,1.47 1.26,2.96 1.77,4.51l0 -0z"/>
  <path class="fil2" d="M1450.79 2199.25c-5.09,-0.75 -9.94,-2.28 -14.4,-4.46l-8.32 -5.14c-4.04,-3.07 -7.59,-6.76 -10.52,-10.9l33.24 20.49 -0 0z"/>
  <path class="fil2" d="M4443.92 1658.2c-1.05,-0.74 -2.03,-1.51 -3.01,-2.31l25.93 -26.67 1.62 3.71 -24.54 25.27zm27.36 -28.19l-1.62 -3.71 13.75 -14.13 1.39 3.96 -13.52 13.88 0 -0zm16.43 -16.89l-1.43 -3.97 41.1 -42.29c0.85,0.96 1.66,1.93 2.42,2.93l-42.08 43.32 0 0z"/>
  <path class="fil2" d="M4502.3 1666.07l-17.51 -49.92 -1.39 -3.96 -22.37 -63.65c1.2,-0.39 2.4,-0.74 3.61,-1.06l21.62 61.7 1.43 3.97 18.09 51.5c-1.17,0.51 -2.33,0.99 -3.49,1.43l0 0z"/>
  <path class="fil2" d="M4484.8 1669.87l-16.34 -36.93 -1.62 -3.71 -29.43 -66.51c0.94,-0.91 1.92,-1.8 2.94,-2.65l29.32 66.24 1.62 3.71 17.46 39.45c-1.26,0.18 -2.6,0.31 -3.94,0.4l0 0.01z"/>
  <polygon class="fil2" points="2439.64,2838.87 2360.42,2810.6 2360.42,2810.6 2439.64,2838.87 "/>
  <path class="fil2" d="M2439.64 2838.87l-79.22 -28.26c1.8,-0.76 3.65,-1.43 5.53,-2.02l70.68 25.22c1.08,1.64 2.08,3.33 3.01,5.07l0 -0z"/>
  <path class="fil2" d="M4187.34 3363.57l76.63 -78.88c-0.03,1.93 -0.15,3.85 -0.3,5.74l-70.61 72.64c-1.89,0.23 -3.8,0.4 -5.72,0.5l-0 -0z"/>
  <path class="fil2" d="M2477.05 3653.19c1.5,-2.66 3.2,-5.18 5.09,-7.56l33.43 -20.6c2.92,-0.6 5.93,-0.99 9,-1.13l-47.52 29.29 0 -0z"/>
  <path class="fil2" d="M3485.45 2215.46c-10.19,-2.25 -18.62,-9.23 -22.86,-18.51l22.86 18.51z"/>
  <path class="fil2" d="M4120.12 367.24c-17.58,-4.11 -30.67,-19.85 -30.71,-38.66 -0.03,-21.98 17.76,-39.84 39.75,-39.88 0,0 0.03,0 0.07,0 21.95,0 39.75,17.77 39.79,39.72 0.03,14.09 -7.27,26.49 -18.29,33.58l-30.6 5.25z"/>
  <path class="fil2" d="M2177.06 709.08c-29.99,0 -54.33,-24.28 -54.39,-54.28 -0.06,-30.04 24.24,-54.44 54.28,-54.51 0.03,0 0.08,0 0.11,0 7.71,0 15.05,1.61 21.7,4.5l21.18 83.36c-9.94,12.7 -25.4,20.88 -42.77,20.93 -0.03,0 -0.08,0 -0.11,0l0 0zm45.74 -24.95l-19.6 -77.15c16.8,9.23 28.21,27.08 28.25,47.6 0.03,10.89 -3.16,21.04 -8.65,29.55l0 0z"/>
  <path class="fil2" d="M2821.52 700.45c-23.15,0 -41.94,-18.75 -42,-41.9 -0.04,-23.18 18.72,-42.03 41.9,-42.07 0.03,0 0.06,0 0.09,0 23.15,0 41.94,18.74 41.99,41.9 0.05,23.18 -18.71,42.02 -41.9,42.08 -0.03,0 -0.05,0 -0.08,0l0 -0z"/>
  <path class="fil2" d="M2634.07 908.83c-23.15,0 -41.94,-18.75 -41.99,-41.9 -0.04,-23.18 18.71,-42.03 41.9,-42.07 0.03,0 0.06,0 0.09,0 23.15,0 41.94,18.75 41.98,41.9 0.05,23.18 -18.72,42.03 -41.9,42.08 -0.03,0 -0.06,0 -0.09,0l0 -0z"/>
  <path class="fil2" d="M2506.2 662.11c-15.24,0 -29.29,-5.13 -40.51,-13.76l106.79 -47.17c-2.83,34.06 -31.34,60.86 -66.14,60.93 -0.04,0 -0.09,0 -0.13,0zm-43.78 -16.44c-13.9,-12.16 -22.7,-30.01 -22.73,-49.93 -0.08,-36.73 29.65,-66.57 66.37,-66.64 0.05,0 0.1,0 0.14,0 8.3,0 16.25,1.52 23.58,4.3 -4.77,3.29 -8.25,8.45 -9.28,14.62 -1.99,12.07 6.17,23.46 18.24,25.46 1.22,0.2 2.44,0.3 3.64,0.3 8.83,0 16.81,-5.3 20.28,-13.31 6.35,10.16 10.01,22.16 10.04,35.02 0,0.5 0,1 -0.01,1.5l-110.27 48.7 -0 -0.01z"/>
  <path class="fil2" d="M2635.13 1437.23c-24.08,0 -43.63,-19.49 -43.68,-43.59 -0.05,-24.12 19.47,-43.71 43.59,-43.77 0.03,0 0.06,0 0.08,0 24.08,0 43.64,19.5 43.68,43.59 0.05,24.12 -19.47,43.71 -43.58,43.76 -0.03,0 -0.06,0 -0.09,0l0 0.01z"/>
  <path class="fil5" d="M0 915.68l0 -59.51 28.91 -12.76c6.72,7.67 10.8,17.7 10.82,28.69 0.04,22.83 -17.42,41.59 -39.73,43.59l-0 -0zm0 -63.62l0 -23.37c10.09,0.9 19.19,5.24 26.13,11.83l-26.13 11.54 0 -0z"/>
  <path class="fil2" d="M1103.6 1299.18c-27.35,0 -49.54,-22.13 -49.6,-49.49 -0.06,-27.39 22.11,-49.64 49.5,-49.7 0.03,0 0.07,0 0.1,0 27.34,0 49.54,22.14 49.6,49.5 0.05,27.39 -22.11,49.64 -49.5,49.69 -0.03,0 -0.07,0 -0.1,0z"/>
  <path class="fil2" d="M2197.98 2411.37c-27.34,0 -49.53,-22.14 -49.59,-49.49 -0.03,-16.42 7.91,-30.99 20.19,-40.04l76.41 24.05c1.67,4.96 2.59,10.26 2.6,15.78 0.05,27.39 -22.12,49.63 -49.5,49.69 -0.04,0 -0.07,0 -0.11,0l-0 0zm45.23 -69.98l-70.62 -22.23c7.4,-4.42 16.05,-6.96 25.29,-6.98 0.03,0 0.08,0 0.11,0 20.12,0 37.44,11.98 45.22,29.21l0 0z"/>
  <path class="fil2" d="M1458.1 2199.79c-2.48,0 -4.93,-0.19 -7.31,-0.54l-33.24 -20.49c-5.68,-8.05 -9.02,-17.86 -9.05,-28.46 -0.06,-27.41 22.11,-49.64 49.49,-49.7 0.03,0 0.07,0 0.1,0 27.35,0 49.54,22.14 49.6,49.5 0.05,27.39 -22.12,49.63 -49.5,49.69 -0.03,0 -0.06,0 -0.09,0l0 -0zm-21.72 -4.99c-2.95,-1.44 -5.74,-3.16 -8.32,-5.14l8.32 5.14z"/>
  <path class="fil2" d="M952.25 717.76c-33.4,0 -60.51,-27.04 -60.58,-60.46 -0.07,-33.47 27.01,-60.65 60.47,-60.71 0.04,0 0.09,0 0.12,0 33.4,0 60.52,27.05 60.59,60.47 0.07,33.46 -27.01,60.64 -60.47,60.71 -0.04,0 -0.09,0 -0.13,0z"/>
  <path class="fil2" d="M4480.37 1670.02c-13.6,0 -26.21,-4.38 -36.45,-11.82l24.54 -25.27 16.34 36.93c-1.39,0.1 -2.82,0.15 -4.25,0.16 -0.04,0 -0.09,0 -0.18,0l0 -0.01zm8.37 -0.55l-17.46 -39.45 13.52 -13.88 17.51 49.92c-4.3,1.62 -8.86,2.77 -13.57,3.4l-0 -0zm17.06 -4.83l-18.09 -51.5 42.08 -43.32c8.06,10.47 12.89,23.58 12.89,37.81 0.04,25.4 -15.09,47.28 -36.89,57.01l0 0zm-64.89 -8.74c-13.89,-11.4 -22.73,-28.67 -22.77,-48.02 -0.04,-17.76 7.34,-33.79 19.27,-45.16l29.43 66.51 -25.93 26.67zm28.75 -29.59l-29.32 -66.24c6.02,-5.08 13.06,-9.04 20.7,-11.54l22.37 63.65 -13.75 14.13 0 0zm16.61 -17.14l-21.62 -61.7c5,-1.3 10.23,-2 15.62,-2.01 0.04,0 0.09,0 0.13,0 18.76,0 35.59,8.3 46.97,21.42l-41.1 42.29 -0 -0z"/>
  <path class="fil2" d="M2384.57 2930.3c-34.33,0 -62.2,-27.8 -62.27,-62.15 -0.06,-25.87 15.68,-48.09 38.12,-57.55l79.22 28.27c4.59,8.66 7.2,18.54 7.22,29.03 0.07,34.39 -27.76,62.33 -62.16,62.4 -0.04,0 -0.09,0 -0.13,0l0 0zm52.06 -96.5l-70.68 -25.22c5.84,-1.83 12.06,-2.82 18.51,-2.83 0.04,0 0.09,0 0.13,0 21.75,0 40.9,11.15 52.04,28.05l0 0z"/>
  <path class="fil2" d="M4183.13 3363.67c-44.6,0 -80.81,-36.1 -80.88,-80.71 -0.08,-44.67 36.06,-80.96 80.73,-81.04 0.04,0 0.12,0 0.15,0 44.6,0 80.81,36.11 80.88,80.72 0,0.68 0,1.36 -0.03,2.04l-76.63 78.88c-1.35,0.07 -2.71,0.1 -4.07,0.1 -0.04,0 -0.11,0 -0.15,0l0 0.01zm9.94 -0.6l70.61 -72.64c-3.54,37.79 -33.12,68.06 -70.61,72.64z"/>
  <path class="fil2" d="M5111.89 3477.64c-25.52,0 -46.2,-20.62 -46.25,-46.1 -0.04,-25.52 20.59,-46.25 46.11,-46.3 0.04,0 0.09,0 0.13,0 25.47,0 46.11,20.63 46.16,46.11 0.09,25.52 -20.59,46.25 -46.11,46.29 -0.04,0 -0.04,0 -0.04,0l0 0z"/>
  <path class="fil2" d="M5435.13 3686.89c-29.32,0 -53.14,-23.74 -53.19,-53.09 -0.04,-29.38 23.68,-53.25 53.1,-53.31 0,0 0.04,0 0.09,0 29.32,0 53.14,23.75 53.19,53.09 0.09,29.38 -23.73,53.24 -53.05,53.3 -0.04,0 -0.09,0 -0.13,0l-0 0z"/>
  <path class="fil2" d="M2527.3 3739.15c-31.79,0 -57.6,-25.74 -57.67,-57.54 -0.02,-10.33 2.68,-20.03 7.42,-28.42l47.52 -29.29c0.87,-0.04 1.73,-0.06 2.6,-0.06 0.04,0 0.09,0 0.12,0 31.79,0 57.6,25.74 57.66,57.54 0.06,31.84 -25.7,57.71 -57.55,57.78 -0.03,0 -0.07,0 -0.11,0l0 0zm-45.16 -93.53c8.24,-10.36 19.98,-17.82 33.43,-20.6l-33.43 20.6z"/>
  <path class="fil2" d="M3492.6 2216.24c-2.45,0 -4.85,-0.27 -7.15,-0.78l-22.86 -18.51c-1.89,-4.15 -2.94,-8.75 -2.96,-13.6 -0.04,-18.21 14.69,-33 32.9,-33.04 0.02,0 0.04,0 0.06,0 18.17,0 32.93,14.71 32.96,32.91 0.04,18.19 -14.69,32.99 -32.89,33.03 -0.02,0 -0.05,0 -0.07,0l0 -0z"/>
  <path class="fil2" d="M3867.57 1995.62c-18.18,0 -32.93,-14.71 -32.97,-32.9 0,-18.21 14.71,-32.99 32.93,-33.03 0,0 0.04,0 0.08,0 18.14,0 32.9,14.72 32.93,32.9 0.04,18.2 -14.68,32.99 -32.89,33.03 0,0 -0.04,0 -0.08,0z"/>
 </g>
</svg>
